<svg width="595" height="551" viewBox="0 0 595 551" fill="none" xmlns="http://www.w3.org/2000/svg">
<path d="M434.391 532.005C432.856 532.772 432.856 534.307 434.391 535.075C435.926 535.842 438.228 535.842 439.763 535.075C441.298 534.307 441.298 532.772 439.763 532.005C438.228 531.237 435.926 531.237 434.391 532.005Z" fill="#16110D"/>
<path d="M419.809 523.563C418.274 524.33 418.274 525.866 419.809 526.633C421.344 527.4 423.646 527.4 425.181 526.633C426.716 525.866 426.716 524.33 425.181 523.563C423.646 522.795 421.344 522.795 419.809 523.563Z" fill="#16110D"/>
<path d="M405.227 515.121C403.692 515.888 403.692 517.423 405.227 518.191C406.762 518.958 409.064 518.958 410.599 518.191C412.133 517.423 412.133 515.888 410.599 515.121C409.064 514.354 406.762 514.354 405.227 515.121Z" fill="#16110D"/>
<path d="M396.017 506.678C394.483 505.911 392.179 505.911 390.644 506.678C389.109 507.446 389.109 508.981 390.644 509.748C392.179 510.516 394.483 510.516 396.017 509.748C397.552 508.981 397.552 507.446 396.017 506.678Z" fill="#16110D"/>
<path d="M381.434 498.236C379.899 497.469 377.596 497.469 376.062 498.236C374.527 499.004 374.527 500.538 376.062 501.306C377.596 502.073 379.899 502.073 381.434 501.306C382.968 500.538 382.968 499.004 381.434 498.236Z" fill="#16110D"/>
<path d="M367.619 489.794C366.084 489.026 363.782 489.026 362.247 489.794C360.712 490.561 360.712 492.096 362.247 492.864C363.782 493.631 366.084 493.631 367.619 492.864C369.154 492.096 369.154 490.561 367.619 489.794Z" fill="#16110D"/>
<path d="M353.038 481.352C351.503 480.584 349.201 480.584 347.666 481.352C346.131 482.119 346.131 483.655 347.666 484.422C349.201 485.19 351.503 485.19 353.038 484.422C354.573 483.655 354.573 482.119 353.038 481.352Z" fill="#16110D"/>
<path d="M332.317 472.91C330.782 473.677 330.782 475.212 332.317 475.979C333.851 476.747 336.154 476.747 337.688 475.979L332.317 472.91Z" fill="#16110D"/>
<path d="M317.734 464.467C316.199 465.235 316.199 466.77 317.734 467.537C319.269 468.305 321.572 468.305 323.107 467.537L317.734 464.467Z" fill="#16110D"/>
<path d="M303.153 456.025C301.618 456.792 301.618 458.327 303.153 459.095C304.688 459.862 306.99 459.862 308.525 459.095L303.153 456.025Z" fill="#16110D"/>
<path d="M294.709 447.582C293.174 446.815 290.872 446.815 289.337 447.582C287.802 448.35 287.802 449.885 289.337 450.653C290.872 451.42 293.174 451.42 294.709 450.653C296.244 450.653 296.244 449.117 294.709 447.582Z" fill="#16110D"/>
<path d="M448.972 523.563C447.437 524.33 447.437 525.866 448.972 526.633C450.507 527.4 452.809 527.4 454.344 526.633C455.879 525.866 455.879 524.33 454.344 523.563C452.809 522.795 450.507 522.795 448.972 523.563Z" fill="#16110D"/>
<path d="M437.461 518.958C435.342 518.958 433.624 517.927 433.624 516.655C433.624 515.384 435.342 514.353 437.461 514.353C439.581 514.353 441.299 515.384 441.299 516.655C441.299 517.927 439.581 518.958 437.461 518.958Z" fill="#16110D"/>
<path d="M419.809 506.678C418.274 507.446 418.274 508.981 419.809 509.748C421.344 510.516 423.646 510.516 425.181 509.748C426.716 508.981 426.716 507.446 425.181 506.678C423.646 505.911 421.344 505.911 419.809 506.678Z" fill="#16110D"/>
<path d="M492.718 532.005C491.183 532.772 491.183 534.307 492.718 535.075C494.253 535.842 496.555 535.842 498.09 535.075C499.625 534.307 499.625 532.772 498.09 532.005C496.555 531.237 494.253 531.237 492.718 532.005Z" fill="#16110D"/>
<path d="M478.137 523.563C476.602 524.33 476.602 525.866 478.137 526.633C479.672 527.4 481.974 527.4 483.509 526.633C485.044 525.866 485.044 524.33 483.509 523.563C481.974 522.795 479.672 522.795 478.137 523.563Z" fill="#16110D"/>
<path d="M463.554 515.121C462.019 515.888 462.019 517.423 463.554 518.191C465.089 518.958 467.393 518.958 468.928 518.191C470.463 517.423 470.463 515.888 468.928 515.121C467.393 514.354 465.089 514.354 463.554 515.121Z" fill="#16110D"/>
<path d="M452.042 510.516C449.923 510.516 448.205 509.485 448.205 508.213C448.205 506.942 449.923 505.911 452.042 505.911C454.162 505.911 455.88 506.942 455.88 508.213C455.88 509.485 454.162 510.516 452.042 510.516Z" fill="#16110D"/>
<path d="M434.391 501.306C435.926 502.073 438.228 502.073 439.763 501.306C441.298 500.538 441.298 499.004 439.763 498.236L434.391 501.306Z" fill="#16110D"/>
<path d="M521.883 532.005C520.348 532.772 520.348 534.307 521.883 535.075C523.418 535.842 525.72 535.842 527.255 535.075C528.789 534.307 528.789 532.772 527.255 532.005C525.72 531.237 523.418 531.237 521.883 532.005Z" fill="#16110D"/>
<path d="M507.302 523.563C505.767 524.33 505.767 525.866 507.302 526.633C508.836 527.4 511.139 527.4 512.673 526.633C514.208 525.866 514.208 524.33 512.673 523.563C511.139 522.795 508.836 522.795 507.302 523.563Z" fill="#16110D"/>
<path d="M495.021 518.958C492.902 518.958 491.184 517.927 491.184 516.655C491.184 515.384 492.902 514.353 495.021 514.353C497.141 514.353 498.859 515.384 498.859 516.655C498.859 517.927 497.141 518.958 495.021 518.958Z" fill="#16110D"/>
<path d="M480.44 510.516C478.321 510.516 476.603 509.485 476.603 508.213C476.603 506.942 478.321 505.911 480.44 505.911C482.56 505.911 484.278 506.942 484.278 508.213C484.278 509.485 482.56 510.516 480.44 510.516Z" fill="#16110D"/>
<path d="M463.554 498.236C462.019 499.004 462.019 500.538 463.554 501.306C465.089 502.073 467.393 502.073 468.928 501.306C470.463 500.538 470.463 499.004 468.928 498.236C467.393 497.469 465.089 497.469 463.554 498.236Z" fill="#16110D"/>
<path d="M448.972 492.864C450.507 493.631 452.809 493.631 454.344 492.864C455.879 492.096 455.879 490.561 454.344 489.794C452.809 489.026 450.507 489.026 448.972 489.794V492.864Z" fill="#16110D"/>
<path d="M536.464 523.563C534.929 524.33 534.929 525.866 536.464 526.633C537.999 527.4 540.303 527.4 541.838 526.633C543.373 525.866 543.373 524.33 541.838 523.563C540.303 522.795 537.999 522.795 536.464 523.563Z" fill="#16110D"/>
<path d="M521.883 515.121C520.348 515.888 520.348 517.423 521.883 518.191C523.418 518.958 525.72 518.958 527.255 518.191C528.789 517.423 528.789 515.888 527.255 515.121C525.72 514.354 523.418 514.354 521.883 515.121Z" fill="#16110D"/>
<path d="M507.302 506.678C505.767 507.446 505.767 508.981 507.302 509.748C508.836 510.516 511.139 510.516 512.673 509.748C514.208 508.981 514.208 507.446 512.673 506.678C511.139 505.911 508.836 505.911 507.302 506.678Z" fill="#16110D"/>
<path d="M498.09 498.236C496.555 497.469 494.253 497.469 492.718 498.236C491.183 499.004 491.183 500.538 492.718 501.306C494.253 502.073 496.555 502.073 498.09 501.306C499.625 500.538 499.625 499.004 498.09 498.236Z" fill="#16110D"/>
<path d="M483.509 489.794C481.974 489.026 479.672 489.026 478.137 489.794C476.602 490.561 476.602 492.096 478.137 492.864C479.672 493.631 481.974 493.631 483.509 492.864C485.044 492.096 485.044 490.561 483.509 489.794Z" fill="#16110D"/>
<path d="M463.554 481.352C462.019 482.119 462.019 483.654 463.554 484.422C465.089 485.189 467.393 485.189 468.928 484.422C470.463 483.654 470.463 482.119 468.928 481.352H463.554Z" fill="#16110D"/>
<path d="M551.047 515.121C549.512 515.888 549.512 517.423 551.047 518.191C552.582 518.958 554.884 518.958 556.419 518.191C557.954 517.423 557.954 515.888 556.419 515.121C554.884 514.354 552.582 514.354 551.047 515.121Z" fill="#16110D"/>
<path d="M538.768 510.516C536.649 510.516 534.931 509.485 534.931 508.213C534.931 506.942 536.649 505.911 538.768 505.911C540.887 505.911 542.605 506.942 542.605 508.213C542.605 509.485 540.887 510.516 538.768 510.516Z" fill="#16110D"/>
<path d="M521.883 501.306C523.418 502.073 525.72 502.073 527.255 501.306C528.789 500.538 528.789 499.004 527.255 498.236L521.883 501.306Z" fill="#16110D"/>
<path d="M565.628 506.678C564.093 507.446 564.093 508.981 565.628 509.748C567.163 510.516 569.465 510.516 571 509.748C572.535 508.981 572.535 507.446 571 506.678C569.465 505.911 567.163 505.911 565.628 506.678Z" fill="#16110D"/>
<path d="M551.047 498.236C549.512 499.004 549.512 500.538 551.047 501.306C552.582 502.073 554.884 502.073 556.419 501.306C557.954 500.538 557.954 499.004 556.419 498.236C554.884 497.469 552.582 497.469 551.047 498.236Z" fill="#16110D"/>
<path d="M536.464 492.864C537.999 493.632 540.303 493.632 541.838 492.864C543.373 492.097 543.373 490.561 541.838 489.794L536.464 492.864Z" fill="#16110D"/>
<path d="M580.212 498.236C578.677 499.004 578.677 500.538 580.212 501.306C581.747 502.073 584.049 502.073 585.584 501.306C587.119 500.538 587.119 499.004 585.584 498.236C584.049 497.469 581.747 497.469 580.212 498.236Z" fill="#16110D"/>
<path d="M565.628 489.794C564.093 490.561 564.093 492.096 565.628 492.864C567.163 493.631 569.465 493.631 571 492.864C572.535 492.096 572.535 490.561 571 489.794C569.465 489.026 567.163 489.026 565.628 489.794Z" fill="#16110D"/>
<path d="M551.047 484.422C552.582 485.189 554.884 485.189 556.419 484.422C557.954 483.654 557.954 482.119 556.419 481.352L551.047 484.422Z" fill="#16110D"/>
<path d="M582.513 485.189C580.394 485.189 578.676 484.158 578.676 482.887C578.676 481.615 580.394 480.584 582.513 480.584C584.632 480.584 586.35 481.615 586.35 482.887C586.35 484.158 584.632 485.189 582.513 485.189Z" fill="#16110D"/>
<path d="M375.294 547.354C373.759 548.122 373.759 549.657 375.294 550.425C376.829 551.192 379.133 551.192 380.668 550.425C382.203 549.657 382.203 548.122 380.668 547.354C379.9 546.587 376.829 546.587 375.294 547.354Z" fill="#16110D"/>
<path d="M363.783 542.75C361.663 542.75 359.945 541.719 359.945 540.447C359.945 539.176 361.663 538.145 363.783 538.145C365.902 538.145 367.62 539.176 367.62 540.447C367.62 541.719 365.902 542.75 363.783 542.75Z" fill="#16110D"/>
<path d="M346.898 530.47C345.363 531.238 345.363 532.772 346.898 533.54C348.433 534.307 350.735 534.307 352.27 533.54C353.805 532.772 353.805 531.238 352.27 530.47C350.735 529.703 348.433 529.703 346.898 530.47Z" fill="#16110D"/>
<path d="M332.316 522.028C330.781 522.795 330.781 524.33 332.316 525.098C333.851 525.865 336.153 525.865 337.688 525.098C339.223 524.33 339.223 522.795 337.688 522.028C336.153 521.26 333.851 521.26 332.316 522.028Z" fill="#16110D"/>
<path d="M317.733 516.655C319.268 517.423 321.572 517.423 323.107 516.655C324.642 515.888 324.642 514.353 323.107 513.586C321.572 512.818 319.268 512.818 317.733 513.586C316.198 514.353 316.198 515.888 317.733 516.655Z" fill="#16110D"/>
<path d="M303.152 505.143C301.617 505.91 301.617 507.446 303.152 508.213C304.687 508.981 306.989 508.981 308.524 508.213C310.059 507.446 310.059 505.91 308.524 505.143C306.989 504.376 304.687 504.376 303.152 505.143Z" fill="#16110D"/>
<path d="M288.571 496.701C287.036 497.469 287.036 499.004 288.571 499.771C290.106 500.539 292.408 500.539 293.943 499.771C295.478 499.004 295.478 497.469 293.943 496.701C292.408 495.934 290.106 495.934 288.571 496.701Z" fill="#16110D"/>
<path d="M273.987 488.259C272.452 489.027 272.452 490.561 273.987 491.329C275.522 492.096 277.824 492.096 279.359 491.329C280.894 490.561 280.894 489.027 279.359 488.259C277.824 487.492 275.522 487.492 273.987 488.259Z" fill="#16110D"/>
<path d="M259.406 479.817C257.871 480.584 257.871 482.119 259.406 482.887C260.941 483.654 263.243 483.654 264.778 482.887C266.313 482.119 266.313 480.584 264.778 479.817C263.243 479.049 260.941 479.049 259.406 479.817Z" fill="#16110D"/>
<path d="M247.895 475.98C245.775 475.98 244.057 474.949 244.057 473.677C244.057 472.406 245.775 471.375 247.895 471.375C250.014 471.375 251.732 472.406 251.732 473.677C251.732 474.949 250.014 475.98 247.895 475.98Z" fill="#16110D"/>
<path d="M404.458 547.354C402.923 548.122 402.923 549.657 404.458 550.425C405.993 551.192 408.295 551.192 409.83 550.425C411.365 549.657 411.365 548.122 409.83 547.354C409.063 546.587 405.993 546.587 404.458 547.354Z" fill="#16110D"/>
<path d="M389.877 538.913C388.342 539.68 388.342 541.215 389.877 541.983C391.412 542.75 393.714 542.75 395.249 541.983C396.784 541.215 396.784 539.68 395.249 538.913C393.714 538.145 391.412 538.145 389.877 538.913Z" fill="#16110D"/>
<path d="M375.294 530.47C373.759 531.238 373.759 532.772 375.294 533.54C376.829 534.307 379.133 534.307 380.668 533.54C382.203 532.772 382.203 531.238 380.668 530.47C379.9 529.703 376.829 529.703 375.294 530.47Z" fill="#16110D"/>
<path d="M361.481 522.028C359.946 522.795 359.946 524.33 361.481 525.098C363.016 525.865 365.318 525.865 366.853 525.098C368.388 524.33 368.388 522.795 366.853 522.028C365.318 521.26 363.016 521.26 361.481 522.028Z" fill="#16110D"/>
<path d="M346.898 513.586C345.363 514.353 345.363 515.888 346.898 516.655C348.433 517.423 350.735 517.423 352.27 516.655C353.805 515.888 353.805 514.353 352.27 513.586C350.735 512.818 348.433 512.818 346.898 513.586Z" fill="#16110D"/>
<path d="M332.316 505.143C330.781 505.91 330.781 507.446 332.316 508.213C333.851 508.981 336.153 508.981 337.688 508.213C339.223 507.446 339.223 505.91 337.688 505.143C336.153 504.376 333.851 504.376 332.316 505.143Z" fill="#16110D"/>
<path d="M317.733 496.701C316.198 497.469 316.198 499.004 317.733 499.771C319.268 500.539 321.572 500.539 323.107 499.771C324.642 499.004 324.642 497.469 323.107 496.701C321.572 495.934 319.268 495.934 317.733 496.701Z" fill="#16110D"/>
<path d="M303.152 488.259C301.617 489.027 301.617 490.561 303.152 491.329C304.687 492.096 306.989 492.096 308.524 491.329C310.059 490.561 310.059 489.027 308.524 488.259C306.989 487.492 304.687 487.492 303.152 488.259Z" fill="#16110D"/>
<path d="M288.571 479.817C287.036 480.584 287.036 482.119 288.571 482.887C290.106 483.654 292.408 483.654 293.943 482.887C295.478 482.119 295.478 480.584 293.943 479.817C292.408 479.049 290.106 479.049 288.571 479.817Z" fill="#16110D"/>
<path d="M273.987 472.142C272.452 472.909 272.452 474.445 273.987 475.212C275.522 475.98 277.824 475.98 279.359 475.212C280.894 474.445 280.894 472.909 279.359 472.142C277.824 470.607 275.522 470.607 273.987 472.142Z" fill="#16110D"/>
<path d="M259.406 463.7C257.871 464.467 257.871 466.002 259.406 466.769C260.941 467.537 263.243 467.537 264.778 466.769C266.313 466.002 266.313 464.467 264.778 463.7C263.243 462.165 260.941 462.165 259.406 463.7Z" fill="#16110D"/>
<path d="M419.042 538.913C417.507 539.68 417.507 541.215 419.042 541.983C420.577 542.75 422.879 542.75 424.414 541.983C425.949 541.215 425.949 539.68 424.414 538.913C423.646 538.145 420.577 538.145 419.042 538.913Z" fill="#16110D"/>
<path d="M404.458 530.47C402.923 531.238 402.923 532.772 404.458 533.54C405.993 534.307 408.295 534.307 409.83 533.54C411.365 532.772 411.365 531.238 409.83 530.47C409.063 529.703 405.993 529.703 404.458 530.47Z" fill="#16110D"/>
<path d="M389.877 522.028C388.342 522.795 388.342 524.33 389.877 525.098C391.412 525.865 393.714 525.865 395.249 525.098C396.784 524.33 396.784 522.795 395.249 522.028C394.481 521.26 391.412 521.26 389.877 522.028Z" fill="#16110D"/>
<path d="M378.365 517.423C376.246 517.423 374.528 516.393 374.528 515.121C374.528 513.85 376.246 512.818 378.365 512.818C380.485 512.818 382.203 513.85 382.203 515.121C382.203 516.393 380.485 517.423 378.365 517.423Z" fill="#16110D"/>
<path d="M361.481 505.143C359.946 505.91 359.946 507.446 361.481 508.213C363.016 508.981 365.318 508.981 366.853 508.213C368.388 507.446 368.388 505.91 366.853 505.143C365.318 504.376 363.016 504.376 361.481 505.143Z" fill="#16110D"/>
<path d="M346.898 496.701C345.363 497.469 345.363 499.004 346.898 499.771C348.433 500.539 350.735 500.539 352.27 499.771C353.805 499.004 353.805 497.469 352.27 496.701C350.735 495.934 348.433 495.934 346.898 496.701Z" fill="#16110D"/>
<path d="M332.316 488.259C330.781 489.027 330.781 490.561 332.316 491.329C333.851 492.096 336.153 492.096 337.688 491.329C339.223 490.561 339.223 489.027 337.688 488.259C336.153 487.492 333.851 487.492 332.316 488.259Z" fill="#16110D"/>
<path d="M317.733 479.817C316.198 480.584 316.198 482.119 317.733 482.887C319.268 483.654 321.572 483.654 323.107 482.887C324.642 482.119 324.642 480.584 323.107 479.817C321.572 479.049 319.268 479.049 317.733 479.817Z" fill="#16110D"/>
<path d="M305.456 475.98C303.337 475.98 301.618 474.949 301.618 473.677C301.618 472.406 303.337 471.375 305.456 471.375C307.575 471.375 309.293 472.406 309.293 473.677C309.293 474.949 307.575 475.98 305.456 475.98Z" fill="#16110D"/>
<path d="M288.571 463.7C287.036 464.467 287.036 466.002 288.571 466.769C290.106 467.537 292.408 467.537 293.943 466.769C295.478 466.002 295.478 464.467 293.943 463.7C292.408 462.165 290.106 462.165 288.571 463.7Z" fill="#16110D"/>
<path d="M273.987 455.257C272.452 456.025 272.452 457.56 273.987 458.327C275.522 459.095 277.824 459.095 279.359 458.327C280.894 457.56 280.894 456.025 279.359 455.257C277.824 454.49 275.522 454.49 273.987 455.257Z" fill="#16110D"/>
<path d="M280.128 439.141C278.593 438.373 276.291 438.373 274.756 439.141C273.221 439.908 273.221 441.443 274.756 442.211C276.291 442.978 278.593 442.978 280.128 442.211C281.663 442.211 281.663 440.676 280.128 439.141Z" fill="#16110D"/>
<path d="M265.547 431.466C264.012 430.698 261.708 430.698 260.173 431.466C258.638 432.233 258.638 433.768 260.173 434.536C261.708 435.303 264.012 435.303 265.547 434.536C267.081 433.768 267.081 432.233 265.547 431.466Z" fill="#16110D"/>
<path d="M250.964 423.024C249.429 422.256 247.127 422.256 245.592 423.024C244.057 423.791 244.057 425.326 245.592 426.093C247.127 426.861 249.429 426.861 250.964 426.093C252.498 425.326 252.498 423.791 250.964 423.024Z" fill="#16110D"/>
<path d="M236.382 414.581C234.847 413.814 232.545 413.814 231.01 414.581C229.475 415.348 229.475 416.884 231.01 417.651C232.545 418.419 234.847 418.419 236.382 417.651C237.917 416.884 237.917 415.348 236.382 414.581Z" fill="#16110D"/>
<path d="M221.799 406.139C220.264 405.372 217.962 405.372 216.427 406.139C214.892 406.907 214.892 408.441 216.427 409.209C217.962 409.976 220.264 409.976 221.799 409.209C223.334 408.441 223.334 406.907 221.799 406.139Z" fill="#16110D"/>
<path d="M201.845 397.697C200.31 398.464 200.31 399.999 201.845 400.767C203.38 401.534 205.682 401.534 207.217 400.767C208.752 399.999 208.752 398.464 207.217 397.697C205.682 396.929 203.38 396.929 201.845 397.697Z" fill="#16110D"/>
<path d="M187.262 389.254C185.727 390.022 185.727 391.557 187.262 392.324C188.797 393.092 191.101 393.092 192.636 392.324C194.171 391.557 194.171 390.022 192.636 389.254C191.101 388.487 188.797 388.487 187.262 389.254Z" fill="#16110D"/>
<path d="M172.681 380.812C171.146 381.58 171.146 383.115 172.681 383.882C174.216 384.65 176.518 384.65 178.053 383.882C179.588 383.115 179.588 381.58 178.053 380.812C176.518 380.045 174.216 380.045 172.681 380.812Z" fill="#16110D"/>
<path d="M158.1 372.37C156.565 373.138 156.565 374.673 158.1 375.44C159.635 376.208 161.937 376.208 163.472 375.44C165.007 374.673 165.007 373.138 163.472 372.37C161.937 371.603 159.635 371.603 158.1 372.37Z" fill="#16110D"/>
<path d="M143.517 363.928C141.982 364.696 141.982 366.23 143.517 366.998C145.052 367.765 147.354 367.765 148.889 366.998C150.424 366.23 150.424 364.696 148.889 363.928C147.354 363.161 145.052 363.161 143.517 363.928Z" fill="#16110D"/>
<path d="M134.307 355.485C132.772 354.718 130.47 354.718 128.935 355.485C127.4 356.253 127.4 357.788 128.935 358.555C130.47 359.323 132.772 359.323 134.307 358.555C135.842 357.788 135.842 356.253 134.307 355.485Z" fill="#16110D"/>
<path d="M119.726 347.043C118.191 346.276 115.887 346.276 114.352 347.043C112.817 347.811 112.817 349.346 114.352 350.113C115.887 350.881 118.191 350.881 119.726 350.113C121.261 349.346 121.261 347.811 119.726 347.043Z" fill="#16110D"/>
<path d="M105.142 338.601C103.607 337.834 101.305 337.834 99.7703 338.601C98.2353 339.369 98.2353 340.904 99.7703 341.671C101.305 342.439 103.607 342.439 105.142 341.671C106.677 340.904 106.677 339.369 105.142 338.601Z" fill="#16110D"/>
<path d="M85.1897 330.159C83.6548 330.926 83.6548 332.461 85.1897 333.229C86.7247 333.996 89.0267 333.996 90.5617 333.229C92.0966 332.461 92.0966 330.926 90.5617 330.159C89.7942 329.391 86.7247 329.391 85.1897 330.159Z" fill="#16110D"/>
<path d="M70.6065 321.717C69.0715 322.484 69.0715 324.019 70.6065 324.786C72.1414 325.554 74.4435 325.554 75.9784 324.786C77.5134 324.019 77.5134 322.484 75.9784 321.717C75.2109 320.949 72.1414 320.949 70.6065 321.717Z" fill="#16110D"/>
<path d="M233.312 467.537C231.192 467.537 229.474 466.507 229.474 465.235C229.474 463.963 231.192 462.932 233.312 462.932C235.431 462.932 237.149 463.963 237.149 465.235C237.149 466.507 235.431 467.537 233.312 467.537Z" fill="#16110D"/>
<path d="M215.66 455.257C214.125 456.025 214.125 457.56 215.66 458.327C217.195 459.095 219.497 459.095 221.032 458.327C222.567 457.56 222.567 456.025 221.032 455.257C219.497 453.722 217.195 453.722 215.66 455.257Z" fill="#16110D"/>
<path d="M201.077 446.815C199.542 447.583 199.542 449.118 201.077 449.885C202.612 450.653 204.914 450.653 206.449 449.885C207.984 449.118 207.984 447.583 206.449 446.815C204.914 446.048 202.612 446.048 201.077 446.815Z" fill="#16110D"/>
<path d="M186.496 438.373C184.961 439.141 184.961 440.676 186.496 441.443C188.031 442.211 190.333 442.211 191.868 441.443C193.403 440.676 193.403 439.141 191.868 438.373C190.333 437.606 188.031 437.606 186.496 438.373Z" fill="#16110D"/>
<path d="M171.912 429.931C170.377 430.698 170.377 432.233 171.912 433.001C173.447 433.768 175.751 433.768 177.286 433.001C178.821 432.233 178.821 430.698 177.286 429.931C175.751 429.163 173.447 429.163 171.912 429.931Z" fill="#16110D"/>
<path d="M160.401 425.326C158.282 425.326 156.564 424.296 156.564 423.024C156.564 421.752 158.282 420.721 160.401 420.721C162.521 420.721 164.239 421.752 164.239 423.024C164.239 424.296 162.521 425.326 160.401 425.326Z" fill="#16110D"/>
<path d="M142.75 413.046C141.215 413.814 141.215 415.349 142.75 416.116C144.285 416.884 146.587 416.884 148.122 416.116C149.657 415.349 149.657 413.814 148.122 413.046C147.355 412.279 144.285 412.279 142.75 413.046Z" fill="#16110D"/>
<path d="M128.167 404.604C126.632 405.371 126.632 406.907 128.167 407.674C129.702 408.441 132.004 408.441 133.539 407.674C135.074 406.907 135.074 405.371 133.539 404.604C132.771 403.836 129.702 403.836 128.167 404.604Z" fill="#16110D"/>
<path d="M113.585 396.162C112.051 396.93 112.051 398.464 113.585 399.232C115.12 399.999 117.422 399.999 118.957 399.232C120.492 398.464 120.492 396.93 118.957 396.162C118.19 395.395 115.12 395.395 113.585 396.162Z" fill="#16110D"/>
<path d="M99.0025 387.72C97.4676 388.487 97.4676 390.022 99.0025 390.79C100.537 391.557 102.841 391.557 104.376 390.79C105.911 390.022 105.911 388.487 104.376 387.72C103.609 386.952 100.537 386.952 99.0025 387.72Z" fill="#16110D"/>
<path d="M85.1897 379.277C83.6548 380.045 83.6548 381.579 85.1897 382.347C86.7247 383.114 89.0267 383.114 90.5617 382.347C92.0966 381.579 92.0966 380.045 90.5617 379.277C89.0267 378.51 86.7247 378.51 85.1897 379.277Z" fill="#16110D"/>
<path d="M72.9099 374.673C70.7906 374.673 69.0726 373.642 69.0726 372.37C69.0726 371.099 70.7906 370.068 72.9099 370.068C75.0293 370.068 76.7473 371.099 76.7473 372.37C76.7473 373.642 75.0293 374.673 72.9099 374.673Z" fill="#16110D"/>
<path d="M56.0252 362.393C54.4902 363.16 54.4902 364.696 56.0252 365.463C57.5601 366.231 59.8622 366.231 61.3971 365.463C62.9321 364.696 62.9321 363.16 61.3971 362.393C59.8622 361.626 57.5601 361.626 56.0252 362.393Z" fill="#16110D"/>
<path d="M41.4415 353.951C39.9066 354.718 39.9066 356.253 41.4415 357.02C42.9765 357.788 45.2804 357.788 46.8153 357.02C48.3503 356.253 48.3503 354.718 46.8153 353.951C45.2804 353.183 42.9765 353.183 41.4415 353.951Z" fill="#16110D"/>
<path d="M244.823 455.257C243.288 456.025 243.288 457.56 244.823 458.327C246.358 459.095 248.661 459.095 250.196 458.327C251.731 457.56 251.731 456.025 250.196 455.257C248.661 453.722 246.358 453.722 244.823 455.257Z" fill="#16110D"/>
<path d="M230.242 446.815C228.707 447.583 228.707 449.118 230.242 449.885C231.777 450.653 234.079 450.653 235.614 449.885C237.149 449.118 237.149 447.583 235.614 446.815C234.079 446.048 231.777 446.048 230.242 446.815Z" fill="#16110D"/>
<path d="M215.66 438.373C214.125 439.141 214.125 440.676 215.66 441.443C217.195 442.211 219.497 442.211 221.032 441.443C222.567 440.676 222.567 439.141 221.032 438.373C219.497 437.606 217.195 437.606 215.66 438.373Z" fill="#16110D"/>
<path d="M204.149 433.768C202.03 433.768 200.312 432.738 200.312 431.466C200.312 430.194 202.03 429.164 204.149 429.164C206.268 429.164 207.986 430.194 207.986 431.466C207.986 432.738 206.268 433.768 204.149 433.768Z" fill="#16110D"/>
<path d="M186.496 421.489C184.961 422.256 184.961 423.791 186.496 424.558C188.031 425.326 190.333 425.326 191.868 424.558C193.403 423.791 193.403 422.256 191.868 421.489C190.333 420.721 188.031 420.721 186.496 421.489Z" fill="#16110D"/>
<path d="M174.985 416.883C172.866 416.883 171.148 415.853 171.148 414.581C171.148 413.31 172.866 412.279 174.985 412.279C177.104 412.279 178.822 413.31 178.822 414.581C178.822 415.853 177.104 416.883 174.985 416.883Z" fill="#16110D"/>
<path d="M157.331 404.604C155.796 405.371 155.796 406.907 157.331 407.674C158.866 408.441 161.168 408.441 162.703 407.674C164.238 406.907 164.238 405.371 162.703 404.604C161.936 403.836 158.866 403.836 157.331 404.604Z" fill="#16110D"/>
<path d="M142.75 396.162C141.215 396.93 141.215 398.464 142.75 399.232C144.285 399.999 146.587 399.999 148.122 399.232C149.657 398.464 149.657 396.93 148.122 396.162C147.355 395.395 144.285 395.395 142.75 396.162Z" fill="#16110D"/>
<path d="M128.167 387.72C126.632 388.487 126.632 390.022 128.167 390.79C129.702 391.557 132.004 391.557 133.539 390.79C135.074 390.022 135.074 388.487 133.539 387.72C132.771 386.952 129.702 386.952 128.167 387.72Z" fill="#16110D"/>
<path d="M113.585 379.277C112.051 380.045 112.051 381.579 113.585 382.347C115.12 383.114 117.422 383.114 118.957 382.347C120.492 381.579 120.492 380.045 118.957 379.277C118.19 378.51 115.12 378.51 113.585 379.277Z" fill="#16110D"/>
<path d="M99.0025 370.835C97.4676 371.602 97.4676 373.138 99.0025 373.905C100.537 374.672 102.841 374.672 104.376 373.905C105.911 373.138 105.911 371.602 104.376 370.835C103.609 370.067 100.537 370.067 99.0025 370.835Z" fill="#16110D"/>
<path d="M85.1897 362.393C83.6548 363.16 83.6548 364.696 85.1897 365.463C86.7247 366.231 89.0267 366.231 90.5617 365.463C92.0966 364.696 92.0966 363.16 90.5617 362.393C89.0267 361.626 86.7247 361.626 85.1897 362.393Z" fill="#16110D"/>
<path d="M72.9099 357.788C70.7906 357.788 69.0726 356.757 69.0726 355.485C69.0726 354.214 70.7906 353.183 72.9099 353.183C75.0293 353.183 76.7473 354.214 76.7473 355.485C76.7473 356.757 75.0293 357.788 72.9099 357.788Z" fill="#16110D"/>
<path d="M56.0252 345.508C54.4902 346.276 54.4902 347.811 56.0252 348.578C57.5601 349.346 59.8622 349.346 61.3971 348.578C62.9321 347.811 62.9321 346.276 61.3971 345.508C59.8622 344.741 57.5601 344.741 56.0252 345.508Z" fill="#16110D"/>
<path d="M41.4415 337.066C39.9066 337.834 39.9066 339.368 41.4415 340.136C42.9765 340.903 45.2804 340.903 46.8153 340.136C48.3503 339.368 48.3503 337.834 46.8153 337.066C45.2804 336.299 42.9765 336.299 41.4415 337.066Z" fill="#16110D"/>
<path d="M259.406 446.815C257.871 447.583 257.871 449.118 259.406 449.885C260.941 450.653 263.243 450.653 264.778 449.885C266.313 449.118 266.313 447.583 264.778 446.815C263.243 446.048 260.941 446.048 259.406 446.815Z" fill="#16110D"/>
<path d="M244.823 438.373C243.288 439.141 243.288 440.676 244.823 441.443C246.358 442.211 248.661 442.211 250.196 441.443C251.731 440.676 251.731 439.141 250.196 438.373C248.661 437.606 246.358 437.606 244.823 438.373Z" fill="#16110D"/>
<path d="M230.242 429.931C228.707 430.698 228.707 432.233 230.242 433.001C231.777 433.768 234.079 433.768 235.614 433.001C237.149 432.233 237.149 430.698 235.614 429.931C234.079 429.163 231.777 429.163 230.242 429.931Z" fill="#16110D"/>
<path d="M215.66 421.489C214.125 422.256 214.125 423.791 215.66 424.558C217.195 425.326 219.497 425.326 221.032 424.558C222.567 423.791 222.567 422.256 221.032 421.489C219.497 420.721 217.195 420.721 215.66 421.489Z" fill="#16110D"/>
<path d="M204.149 416.883C202.03 416.883 200.312 415.853 200.312 414.581C200.312 413.31 202.03 412.279 204.149 412.279C206.268 412.279 207.986 413.31 207.986 414.581C207.986 415.853 206.268 416.883 204.149 416.883Z" fill="#16110D"/>
<path d="M186.496 404.604C184.961 405.371 184.961 406.907 186.496 407.674C188.031 408.441 190.333 408.441 191.868 407.674C193.403 406.907 193.403 405.371 191.868 404.604C190.333 403.836 188.031 403.836 186.496 404.604Z" fill="#16110D"/>
<path d="M174.985 400C172.866 400 171.148 398.968 171.148 397.697C171.148 396.425 172.866 395.395 174.985 395.395C177.104 395.395 178.822 396.425 178.822 397.697C178.822 398.968 177.104 400 174.985 400Z" fill="#16110D"/>
<path d="M160.401 391.557C158.282 391.557 156.564 390.526 156.564 389.254C156.564 387.983 158.282 386.952 160.401 386.952C162.521 386.952 164.239 387.983 164.239 389.254C164.239 390.526 162.521 391.557 160.401 391.557Z" fill="#16110D"/>
<path d="M142.75 379.277C141.215 380.045 141.215 381.579 142.75 382.347C144.285 383.114 146.587 383.114 148.122 382.347C149.657 381.579 149.657 380.045 148.122 379.277C147.355 378.51 144.285 378.51 142.75 379.277Z" fill="#16110D"/>
<path d="M128.167 370.835C126.632 371.602 126.632 373.138 128.167 373.905C129.702 374.672 132.004 374.672 133.539 373.905C135.074 373.138 135.074 371.602 133.539 370.835C132.771 370.067 129.702 370.067 128.167 370.835Z" fill="#16110D"/>
<path d="M113.585 362.393C112.051 363.16 112.051 364.696 113.585 365.463C115.12 366.231 117.422 366.231 118.957 365.463C120.492 364.696 120.492 363.16 118.957 362.393C118.19 361.626 115.12 361.626 113.585 362.393Z" fill="#16110D"/>
<path d="M99.0025 353.951C97.4676 354.718 97.4676 356.253 99.0025 357.02C100.537 357.788 102.841 357.788 104.376 357.02C105.911 356.253 105.911 354.718 104.376 353.951C103.609 353.183 100.537 353.183 99.0025 353.951Z" fill="#16110D"/>
<path d="M85.1897 345.508C83.6548 346.276 83.6548 347.811 85.1897 348.578C86.7247 349.346 89.0267 349.346 90.5617 348.578C92.0966 347.811 92.0966 346.276 90.5617 345.508C89.0267 344.741 86.7247 344.741 85.1897 345.508Z" fill="#16110D"/>
<path d="M70.6065 337.066C69.0715 337.834 69.0715 339.368 70.6065 340.136C72.1414 340.903 74.4435 340.903 75.9784 340.136C77.5134 339.368 77.5134 337.834 75.9784 337.066C74.4435 336.299 72.1414 336.299 70.6065 337.066Z" fill="#16110D"/>
<path d="M56.0252 329.392C54.4902 330.159 54.4902 331.694 56.0252 332.461C57.5601 333.229 59.8622 333.229 61.3971 332.461C62.9321 331.694 62.9321 330.159 61.3971 329.392C59.8622 328.624 57.5601 327.857 56.0252 329.392Z" fill="#16110D"/>
<path d="M23.0236 84.5664C12.2789 76.1241 3.83745 75.3568 0.767548 76.1243L105.143 16.2613C105.143 16.2613 115.122 14.7261 127.401 24.7033L23.0236 84.5664Z" fill="white"/>
<path d="M144.285 46.1924C151.192 60.007 155.798 78.4263 158.1 98.3807C161.937 131.382 201.078 154.407 201.078 154.407L95.9338 214.27C95.9338 214.27 57.5592 192.013 52.9543 158.244C50.6519 138.29 46.0486 120.638 39.1413 106.823L144.285 46.1924Z" fill="white"/>
<path d="M101.307 200.455L208.753 139.057L206.45 138.29C206.45 138.29 168.077 116.033 164.239 83.799C160.402 50.03 150.426 24.7031 136.611 11.656C122.029 -2.15853 109.749 0.143902 109.749 0.143902H108.981L1.52588e-05 63.077H5.37198C8.44188 63.077 17.6523 63.077 29.1645 74.5892C42.2116 86.8688 51.4213 112.196 56.0262 145.197C61.3985 176.664 99.0041 198.921 101.307 200.455ZM203.381 139.057L100.54 197.385C95.9353 194.315 62.9327 172.826 59.0953 142.895C55.2579 109.126 45.2819 83.7989 31.4673 70.7518C23.0251 62.3096 14.5824 60.0071 9.97758 59.2397L110.516 1.67895C112.051 1.67895 122.797 0.911659 135.077 12.4238C148.124 24.7034 157.333 50.0298 161.938 83.0312C165.776 112.963 195.706 133.685 203.381 139.057Z" fill="#16110D"/>
<path d="M77.5159 232.689L234.08 142.127C234.08 142.127 234.081 142.127 234.849 142.127C238.686 139.824 244.058 140.592 249.43 145.197L548.746 365.463C554.885 370.068 560.258 376.975 564.095 385.417L570.235 418.418C572.538 423.791 571.771 427.628 568.701 428.395L413.669 518.19L77.5159 232.689Z" fill="#36A9E1"/>
<path d="M549.513 446.048L546.442 430.698C544.907 422.256 534.93 417.651 527.255 422.256L440.53 472.909C432.856 477.514 428.251 486.724 429.018 495.934L431.321 514.353L549.513 446.048Z" fill="white"/>
<path d="M412.134 519.725L567.932 429.163C568.699 429.163 570.233 427.628 571.001 426.861C571.768 424.558 571.769 421.488 570.234 417.651L564.094 384.649C560.257 376.207 554.885 368.532 548.745 363.928L249.429 143.662C243.289 139.057 237.916 138.289 233.311 140.592H232.545L76.7469 231.154L75.9787 233.457L412.134 519.725ZM238.685 142.127C241.755 142.127 244.825 143.662 247.895 145.964L547.21 366.23C553.35 370.835 558.722 377.742 561.791 385.417L567.932 418.418C569.467 421.488 569.467 423.79 568.7 426.093C568.7 426.86 567.931 427.628 567.163 427.628L412.134 517.423L79.0497 233.457L234.08 143.662C235.615 142.127 237.15 142.127 238.685 142.127Z" fill="#16110D"/>
<path d="M54.4912 300.227L71.3753 240.363C72.1428 235.758 74.4444 232.689 78.2818 231.154C82.1192 229.619 88.2601 230.386 92.865 234.991L392.181 455.257C398.321 459.862 404.46 467.536 407.53 475.979L413.669 508.98C415.203 513.585 415.205 517.422 412.902 519.725C412.135 520.492 410.599 521.26 409.831 521.26C408.296 521.26 407.529 521.26 405.994 520.492L64.4669 322.483C58.3271 317.878 52.9562 307.902 54.4912 300.227Z" fill="#16110D"/>
<path d="M135.077 241.899L256.336 172.826C260.174 170.524 265.548 170.524 269.385 173.594L410.6 277.203C412.135 277.971 412.903 279.506 412.903 281.041C412.903 282.576 412.135 284.11 410.6 284.878L290.873 354.718C288.57 356.253 286.269 356.253 283.966 356.253C280.896 356.253 278.593 355.486 275.523 353.951L135.077 250.342C133.542 248.807 132.774 247.271 132.774 245.736C132.006 244.201 133.542 242.666 135.077 241.899Z" fill="#16110D"/>
<path d="M84.4221 200.455L119.727 187.408L207.218 137.522C211.056 135.22 215.661 135.987 218.73 138.289L229.474 145.964L236.383 143.662V153.639C236.383 154.406 235.616 155.942 234.848 156.709L115.121 226.549C111.284 228.852 107.446 228.852 103.609 227.317C103.609 227.317 98.236 225.014 95.1661 225.014C92.0962 225.014 90.5623 225.782 90.5623 225.782L84.4221 229.619V200.455Z" fill="#36A9E1"/>
<path d="M276.291 353.95L138.914 252.643L257.873 185.106C261.71 182.803 266.315 183.57 269.385 185.873L406.762 287.18L290.106 354.718C285.502 357.02 280.129 356.253 276.291 353.95Z" fill="#36A9E1"/>
<path d="M138.913 344.741C139.68 344.741 141.215 344.741 141.982 343.973C144.285 343.206 145.82 340.904 146.588 338.601L151.96 318.647C152.727 314.809 151.192 311.739 148.122 309.437L104.377 284.11C102.074 282.575 99.7706 282.576 97.4681 283.343C95.1657 284.111 93.6319 286.413 92.8644 288.715L87.4906 308.67C86.7231 312.507 88.258 315.577 91.3279 317.879L135.076 343.206C136.611 343.974 137.378 344.741 138.913 344.741ZM101.306 286.413C102.073 286.413 102.842 286.413 104.377 287.18L148.122 312.507C150.425 314.042 151.193 316.344 150.425 318.647L145.051 338.601C144.284 340.136 143.517 341.671 141.982 342.439C140.447 343.206 138.911 343.206 137.377 342.439L93.6307 317.112C91.3283 315.577 90.5605 313.274 91.3279 310.972L96.7018 291.018C97.4693 289.483 98.236 287.948 99.7709 287.18C99.7709 286.413 100.538 286.413 101.306 286.413Z" fill="#36A9E1"/>
<path d="M434.392 506.678L554.117 437.605L551.048 421.488C550.28 416.883 547.21 413.046 543.373 411.511C539.536 409.976 534.931 409.976 530.326 412.279L443.601 462.932C435.159 467.537 430.554 477.514 432.089 486.724L434.392 506.678Z" fill="#16110D"/>
<path d="M464.323 360.09L490.416 345.508C493.486 343.973 497.324 343.973 500.394 346.276L509.603 352.416C510.371 353.183 511.14 354.718 511.14 355.485C511.14 357.02 510.371 357.788 509.603 358.555L484.278 373.905C482.743 374.672 481.207 375.44 478.904 375.44C476.602 375.44 475.068 374.673 472.766 373.138L464.323 366.997C462.788 366.23 462.788 364.695 462.788 363.16C462.788 362.393 463.555 360.858 464.323 360.09Z" fill="#16110D"/>
<path d="M508.068 352.415L482.74 367.765C479.671 369.299 475.835 369.299 472.765 366.997L464.322 360.857C462.787 359.322 462.787 356.252 464.322 355.485L490.415 340.903C492.718 339.368 496.556 339.368 498.858 341.67L508.068 347.81C509.602 349.345 509.602 351.648 508.068 352.415Z" fill="#36A9E1"/>
<path d="M499.628 347.81L506.534 353.182L482.742 367.765C479.672 369.3 475.836 369.299 472.766 366.997L465.091 361.625L490.417 347.81C493.487 346.275 497.325 346.275 499.628 347.81Z" fill="white"/>
<path d="M478.137 370.067C479.672 370.067 481.974 369.3 483.509 368.532L508.837 353.183C509.604 352.415 510.371 351.648 510.371 350.113C510.371 348.578 509.604 347.811 508.837 347.043L499.627 340.903C496.557 338.601 492.72 338.601 489.65 340.136L463.554 354.718C462.019 355.485 461.253 357.02 461.253 358.555C461.253 360.09 462.02 361.625 462.788 362.393L471.229 368.532C474.299 369.3 476.603 370.067 478.137 370.067ZM495.022 341.671C496.557 341.671 497.324 342.438 498.859 343.206L508.068 349.345L508.837 350.113C508.837 350.881 508.836 350.88 508.068 350.88L482.741 366.23C480.439 367.765 476.603 367.765 474.3 365.463L465.857 359.322C465.09 358.555 465.091 358.555 465.091 357.788C465.091 357.02 465.857 356.253 465.857 356.253L491.952 341.671C492.72 341.671 493.487 341.671 495.022 341.671Z" fill="#16110D"/>
<path d="M432.089 336.298L458.183 321.716C461.253 320.181 465.09 320.181 468.16 322.484L477.37 328.623C478.137 329.391 478.904 330.926 478.904 331.693C478.904 333.228 478.137 333.996 477.37 334.764L452.043 350.113C450.508 350.881 448.973 351.648 446.671 351.648C444.368 351.648 442.833 350.88 440.53 349.345L432.089 343.206C430.554 342.438 430.555 340.903 430.555 339.368C429.787 338.601 430.554 337.066 432.089 336.298Z" fill="#16110D"/>
<path d="M475.834 327.856L450.507 343.205C447.437 344.74 443.599 344.741 440.529 342.438L432.088 336.298C430.553 334.763 430.553 331.693 432.088 330.926L458.182 316.344C460.484 314.809 464.322 314.809 466.625 317.111L475.834 323.251C477.369 324.786 477.369 327.088 475.834 327.856Z" fill="#36A9E1"/>
<path d="M466.625 324.019L473.532 329.391L449.741 343.973C446.671 345.508 442.834 345.508 439.764 343.206L432.089 337.833L457.416 324.019C461.253 321.716 464.323 321.716 466.625 324.019Z" fill="white"/>
<path d="M445.903 345.508C447.438 345.508 449.74 344.74 451.275 343.973L476.602 328.623C477.37 327.856 478.137 327.089 478.137 325.554C478.137 324.019 477.37 323.251 476.602 322.484L467.391 316.344C464.321 314.042 460.485 314.042 457.415 315.577L431.32 330.158C429.785 330.926 429.017 332.461 429.017 333.996C429.017 335.531 429.786 337.066 430.554 337.833L438.995 343.973C442.065 345.508 443.601 345.508 445.903 345.508ZM462.019 317.111C463.554 317.111 464.322 317.879 465.857 318.646L475.066 324.786L475.834 325.554C475.834 326.321 475.833 326.321 475.066 326.321L449.741 341.671C447.438 343.206 443.6 343.206 441.298 340.903L432.855 334.764C432.087 333.996 432.088 333.996 432.088 333.229C432.088 332.461 432.855 331.693 432.855 331.693L458.95 317.111C460.485 317.111 461.252 317.111 462.019 317.111Z" fill="#16110D"/>
<path d="M399.856 312.507L425.949 297.925C429.019 296.39 432.857 296.39 435.927 298.692L445.136 304.832C445.904 305.6 446.671 307.135 446.671 307.902C446.671 309.437 445.904 310.204 445.136 310.972L419.809 326.321C418.274 327.089 416.739 327.856 414.437 327.856C412.135 327.856 410.599 327.089 408.297 325.554L399.856 319.414C398.321 318.647 398.319 317.112 398.319 315.577C397.552 314.809 398.321 313.274 399.856 312.507Z" fill="#16110D"/>
<path d="M442.834 304.064L417.507 319.414C414.437 320.949 410.601 320.949 407.531 318.646L399.088 312.506C397.553 310.972 397.553 307.902 399.088 307.134L425.182 292.552C427.484 291.017 431.322 291.017 433.625 293.32L442.834 299.459C445.136 300.994 444.369 303.297 442.834 304.064Z" fill="#36A9E1"/>
<path d="M434.392 300.227L441.299 305.599L417.506 320.182C414.436 321.716 410.6 321.717 407.53 319.414L399.856 314.042L425.181 300.227C429.018 297.925 432.09 297.925 434.392 300.227Z" fill="white"/>
<path d="M413.668 322.484C415.203 322.484 417.507 321.716 419.042 320.949L444.367 305.599C445.135 304.832 445.904 304.064 445.904 302.529C445.904 300.994 445.135 300.227 444.367 299.459L435.158 293.32C432.088 291.017 428.25 291.017 425.18 292.552L399.087 307.134C397.552 307.902 396.784 309.436 396.784 310.971C396.784 312.506 397.551 314.041 398.319 314.809L406.762 320.949C409.064 321.716 411.366 322.484 413.668 322.484ZM429.786 293.32C431.321 293.32 432.088 294.087 433.623 294.855L442.833 300.994L443.601 301.762C443.601 302.529 443.6 302.529 442.833 302.529L417.505 317.879C415.203 319.414 411.367 319.414 409.064 317.111L400.621 310.971C399.854 310.204 399.855 310.204 399.855 309.436C399.855 308.669 400.621 307.902 400.621 307.902L426.717 293.32C427.484 293.32 429.018 293.32 429.786 293.32Z" fill="#16110D"/>
<path d="M419.042 386.952L445.136 372.37C448.206 370.835 452.044 370.835 455.114 373.138L464.323 379.277C465.09 380.045 465.857 381.58 465.857 382.347C465.857 383.882 465.09 384.65 464.323 385.417L438.996 400.767C437.461 401.534 435.926 402.302 433.624 402.302C431.321 402.302 429.786 401.534 427.484 399.999L419.042 393.859C417.508 393.092 417.506 391.557 417.506 390.022C416.739 389.254 417.508 387.72 419.042 386.952Z" fill="#16110D"/>
<path d="M462.021 379.277L436.693 394.627C433.624 396.162 429.788 396.162 426.718 393.859L418.275 387.719C416.74 386.184 416.74 383.114 418.275 382.347L444.368 367.765C446.671 366.23 450.509 366.23 452.811 368.532L462.021 374.672C464.323 376.207 463.555 378.51 462.021 379.277Z" fill="#36A9E1"/>
<path d="M453.579 374.672L460.485 380.044L436.693 394.626C433.623 396.161 429.787 396.161 426.717 393.859L419.042 388.487L444.368 374.672C448.205 373.137 451.276 373.137 453.579 374.672Z" fill="white"/>
<path d="M432.855 396.929C434.39 396.929 436.694 396.162 438.229 395.394L463.554 380.045C464.322 379.277 465.091 378.51 465.091 376.975C465.091 375.44 464.322 374.672 463.554 373.905L454.345 367.765C451.275 365.463 447.437 365.462 444.367 366.997L418.274 381.58C416.739 382.347 415.971 383.882 415.971 385.417C415.971 386.952 416.738 388.487 417.506 389.254L425.949 395.394C428.251 396.162 430.553 396.929 432.855 396.929ZM448.973 368.532C450.508 368.532 451.275 369.3 452.81 370.067L462.02 376.207L462.788 376.975C462.788 377.742 462.787 377.742 462.02 377.742L436.692 393.092C434.39 394.627 430.554 394.627 428.251 392.324L419.808 386.184C419.041 385.417 419.042 385.417 419.042 384.65C419.042 383.882 419.808 383.115 419.808 383.115L445.904 368.532C446.671 368.532 448.205 368.532 448.973 368.532Z" fill="#16110D"/>
<path d="M386.041 363.16L412.134 348.578C415.204 347.043 419.042 347.043 422.112 349.345L431.321 355.485C432.089 356.253 432.856 357.788 432.856 358.555C432.856 360.09 432.089 360.858 431.321 361.625L405.994 376.975C404.459 377.742 402.925 378.509 400.622 378.509C398.32 378.509 396.784 377.742 394.482 376.207L386.041 370.067C384.506 369.3 384.506 367.765 384.506 366.23C384.506 364.695 385.273 363.927 386.041 363.16Z" fill="#16110D"/>
<path d="M429.786 354.718L404.459 370.067C401.389 371.602 397.551 371.602 394.481 369.3L386.04 363.16C384.505 361.625 384.505 358.555 386.04 357.788L412.133 343.206C414.436 341.671 418.274 341.67 420.576 343.973L429.786 350.113C431.321 351.648 431.321 353.95 429.786 354.718Z" fill="#36A9E1"/>
<path d="M421.344 350.881L428.252 356.253L404.46 370.835C401.39 372.37 397.552 372.37 394.482 370.068L386.807 364.695L412.134 350.881C415.204 348.578 419.041 348.578 421.344 350.881Z" fill="white"/>
<path d="M399.856 372.37C401.391 372.37 403.693 371.602 405.228 370.835L430.555 355.485C431.322 354.718 432.089 353.951 432.089 352.416C432.089 350.881 431.322 350.113 430.555 349.346L421.344 343.206C418.274 340.903 414.438 340.904 411.368 342.438L385.273 357.02C383.738 357.788 382.97 359.323 382.97 360.858C382.97 362.393 383.739 363.928 384.506 364.695L392.947 370.835C396.017 372.37 398.321 372.37 399.856 372.37ZM416.74 343.973C418.275 343.973 419.042 344.741 420.577 345.508L429.787 351.648L430.555 352.416C430.555 353.183 430.554 353.183 429.787 353.183L404.459 368.532C402.157 370.067 398.321 370.068 396.018 367.765L387.575 361.625C386.808 360.858 386.807 360.858 386.807 360.09C386.807 359.323 387.575 358.555 387.575 358.555L413.669 343.973C414.436 343.973 415.205 343.973 416.74 343.973Z" fill="#16110D"/>
<path d="M353.807 339.368L379.9 324.786C382.97 323.251 386.808 323.251 389.878 325.554L399.087 331.693C399.855 332.461 400.622 333.996 400.622 334.764C400.622 336.298 399.855 337.066 399.087 337.833L373.76 353.183C372.225 353.95 370.691 354.718 368.388 354.718C366.086 354.718 364.55 353.95 362.248 352.415L353.807 346.276C352.272 345.508 352.27 343.973 352.27 342.438C351.503 340.903 352.272 340.136 353.807 339.368Z" fill="#16110D"/>
<path d="M397.552 330.926L372.225 346.275C369.155 347.81 365.317 347.81 362.248 345.508L353.806 339.368C352.271 337.833 352.271 334.763 353.806 333.995L379.9 319.414C382.202 317.879 386.04 317.878 388.343 320.181L397.552 326.321C399.087 327.856 399.087 330.158 397.552 330.926Z" fill="#36A9E1"/>
<path d="M388.343 327.089L395.25 332.461L371.457 347.043C368.387 348.578 364.551 348.578 361.482 346.276L353.807 340.903L379.132 327.089C382.969 324.786 386.041 324.786 388.343 327.089Z" fill="white"/>
<path d="M367.62 348.578C369.155 348.578 371.459 347.81 372.994 347.043L398.319 331.693C399.086 330.926 399.855 330.158 399.855 328.623C399.855 327.088 399.086 326.321 398.319 325.554L389.11 319.414C386.04 317.112 382.202 317.111 379.132 318.646L353.039 333.229C351.504 333.996 350.736 335.531 350.736 337.066C350.736 338.601 351.503 340.136 352.27 340.903L360.713 347.043C363.783 348.578 365.318 348.578 367.62 348.578ZM384.506 320.181C386.041 320.181 386.808 320.949 388.343 321.716L397.553 327.856L398.319 328.623C398.319 329.391 398.32 329.391 397.553 329.391L372.226 344.741C369.923 346.276 366.085 346.275 363.783 343.973L355.341 337.833C354.574 337.066 354.573 337.066 354.573 336.298C354.573 335.531 355.341 334.764 355.341 334.764L381.435 320.181C382.202 320.181 382.971 320.181 384.506 320.181Z" fill="#16110D"/>
<path d="M372.994 413.814L399.088 399.232C402.158 397.697 405.995 397.697 409.065 400L418.275 406.139C419.042 406.907 419.809 408.441 419.809 409.209C419.809 410.744 419.042 411.511 418.275 412.279L392.947 427.628C391.412 428.396 389.878 429.164 387.575 429.164C385.273 429.164 383.738 428.396 381.435 426.861L372.994 420.721C371.459 419.954 371.458 418.419 371.458 416.884C370.69 416.116 371.459 414.581 372.994 413.814Z" fill="#16110D"/>
<path d="M416.74 406.139L391.413 421.488C388.343 423.023 384.505 423.023 381.435 420.72L372.994 414.581C371.459 413.046 371.459 409.976 372.994 409.208L399.087 394.626C401.39 393.092 405.228 393.091 407.53 395.394L416.74 401.533C418.275 403.068 418.275 404.604 416.74 406.139Z" fill="#36A9E1"/>
<path d="M407.53 401.534L414.437 406.906L390.644 421.488C387.574 423.023 383.738 423.023 380.668 420.721L372.994 415.349L398.319 401.534C402.156 399.231 405.228 399.999 407.53 401.534Z" fill="white"/>
<path d="M386.807 423.791C388.342 423.791 390.646 423.023 392.181 422.256L417.506 406.906C418.274 406.139 419.043 405.372 419.043 403.837C419.043 402.302 418.274 401.534 417.506 400.767L408.297 394.627C405.227 392.325 401.389 392.324 398.319 393.859L372.226 408.441C370.691 409.209 369.923 410.744 369.923 412.279C369.923 413.814 370.69 415.349 371.458 416.116L379.901 422.256C382.971 423.023 384.505 423.791 386.807 423.791ZM402.925 394.627C404.46 394.627 405.227 395.395 406.762 396.162L415.972 402.302L416.74 403.069C416.74 403.836 416.739 403.837 415.972 403.837L390.645 419.186C388.342 420.721 384.506 420.721 382.203 418.419L373.761 412.279C372.993 411.511 372.994 411.511 372.994 410.744C372.994 409.976 373.761 409.209 373.761 409.209L399.856 394.627C401.391 395.394 402.157 394.627 402.925 394.627Z" fill="#16110D"/>
<path d="M340.758 389.254L366.854 374.672C369.924 373.137 373.761 373.138 376.831 375.44L386.041 381.58C386.808 382.347 387.575 383.882 387.575 384.65C387.575 386.185 386.808 386.952 386.041 387.719L360.714 403.069C359.179 403.836 357.644 404.604 355.342 404.604C353.039 404.604 351.504 403.837 349.201 402.302L340.758 396.162C339.223 395.394 339.224 393.859 339.224 392.325C338.456 391.557 339.223 390.022 340.758 389.254Z" fill="#16110D"/>
<path d="M383.737 381.579L358.41 396.929C355.34 398.464 351.502 398.464 348.432 396.161L339.991 390.021C338.456 388.486 338.456 385.417 339.991 384.649L366.085 370.067C368.387 368.532 372.225 368.532 374.528 370.834L383.737 376.974C385.272 378.509 385.272 380.812 383.737 381.579Z" fill="#36A9E1"/>
<path d="M375.295 376.974L382.203 382.346L358.411 396.929C355.341 398.464 351.503 398.464 348.433 396.161L340.758 390.789L366.085 376.974C369.155 375.44 372.992 375.44 375.295 376.974Z" fill="white"/>
<path d="M354.573 399.231C356.108 399.231 358.41 398.464 359.945 397.696L385.272 382.347C386.04 381.579 386.807 380.812 386.807 379.277C386.807 377.742 386.04 376.974 385.272 376.207L376.063 370.067C372.993 367.765 369.155 367.765 366.085 369.3L339.992 383.882C338.457 384.649 337.689 386.184 337.689 387.719C337.689 389.254 338.456 390.789 339.223 391.556L347.666 397.696C349.969 398.464 352.271 399.231 354.573 399.231ZM370.691 370.834C372.226 370.834 372.993 371.602 374.528 372.369L383.737 378.509L384.506 379.277C384.506 380.044 384.505 380.044 383.737 380.044L358.41 395.394C356.108 396.929 352.272 396.929 349.969 394.626L341.526 388.487C340.759 387.719 340.758 387.719 340.758 386.952C340.758 386.184 341.526 385.417 341.526 385.417L367.62 370.834C368.387 370.834 369.923 370.834 370.691 370.834Z" fill="#16110D"/>
<path d="M307.758 365.463L333.852 350.88C336.921 349.345 340.759 349.345 343.829 351.648L353.038 357.788C353.806 358.555 354.573 360.09 354.573 360.857C354.573 362.392 353.806 363.16 353.038 363.928L327.711 379.277C326.176 380.045 324.642 380.812 322.339 380.812C320.037 380.812 318.502 380.044 316.199 378.509L307.758 372.37C306.223 371.602 306.222 370.067 306.222 368.532C306.222 366.997 306.991 366.23 307.758 365.463Z" fill="#16110D"/>
<path d="M351.503 357.788L326.176 373.137C323.106 374.672 319.269 374.672 316.199 372.369L307.758 366.23C306.223 364.695 306.223 361.625 307.758 360.857L333.851 346.275C336.153 344.74 339.992 344.74 342.294 347.043L351.503 353.182C353.038 354.717 353.038 357.02 351.503 357.788Z" fill="#36A9E1"/>
<path d="M343.061 353.182L349.97 358.555L326.177 373.137C323.107 374.672 319.27 374.672 316.2 372.369L308.525 366.997L333.852 353.182C336.922 351.648 339.991 351.648 343.061 353.182Z" fill="white"/>
<path d="M321.572 375.44C323.107 375.44 325.411 374.672 326.945 373.905L352.271 358.555C353.038 357.788 353.807 357.02 353.807 355.485C353.807 353.95 353.038 353.183 352.271 352.416L343.061 346.276C339.991 343.973 336.154 343.973 333.084 345.508L306.99 360.09C305.455 360.858 304.688 362.393 304.688 363.928C304.688 365.463 305.455 366.998 306.222 367.765L314.665 373.905C317.735 374.672 320.037 375.44 321.572 375.44ZM338.458 347.043C339.993 347.043 340.76 347.811 342.295 348.578L351.504 354.718L352.271 355.485C352.271 356.253 352.272 356.253 351.504 356.253L326.177 371.603C323.875 373.137 320.037 373.137 317.734 370.835L309.293 364.695C308.526 363.928 308.525 363.927 308.525 363.16C308.525 362.393 309.293 361.625 309.293 361.625L335.387 347.043C336.154 347.043 336.923 347.043 338.458 347.043Z" fill="#16110D"/>
<path d="M182.659 354.718C185.729 353.183 189.566 353.95 191.869 355.485L325.409 443.745C331.548 447.583 336.155 453.723 338.457 461.397L345.364 482.887L342.295 481.352L336.154 462.165C333.852 455.257 330.014 449.885 323.874 446.048L190.334 357.788C188.799 357.021 187.263 356.253 185.728 356.253C184.961 356.253 184.194 356.253 182.659 357.02C180.357 357.788 178.821 360.09 178.054 362.393L171.913 383.115L169.612 381.58L175.751 360.858C176.518 358.555 179.589 356.253 182.659 354.718Z" fill="#36A9E1"/>
<path d="M235.614 145.964L115.888 215.805C111.284 218.107 105.911 218.107 102.073 215.037L86.724 203.525C84.4215 201.222 84.4204 197.385 87.4903 195.85L208.752 126.777C212.589 124.475 217.194 125.243 220.264 127.545L236.382 139.824C237.917 142.127 237.149 145.197 235.614 145.964Z" fill="#36A9E1"/>
<path d="M235.614 155.941L115.888 225.781C111.284 228.084 105.911 228.084 102.073 225.014L86.724 213.501C84.4215 211.199 84.4204 207.362 87.4903 205.827L208.752 136.754C212.589 134.451 217.194 135.219 220.264 137.522L236.382 149.801C237.917 151.336 237.149 154.406 235.614 155.941Z" fill="white"/>
<path d="M108.982 218.874C111.284 218.874 113.588 218.107 115.89 217.339L235.615 147.499C237.15 146.732 237.918 145.197 237.918 143.662C237.918 142.127 237.15 140.592 235.615 139.824L219.5 127.545C215.662 124.475 210.288 124.475 206.451 126.777L85.1912 195.85C83.6562 196.618 82.1201 198.92 82.1201 200.455C82.1201 202.758 82.888 204.292 84.4229 205.06L99.7725 216.572C103.61 218.107 105.912 218.874 108.982 218.874ZM212.591 127.545C214.894 127.545 216.428 128.312 217.963 129.08L234.081 141.36C234.848 142.127 234.849 142.894 234.849 143.662C234.849 144.429 234.08 145.197 233.313 145.197L113.587 215.037C109.75 217.34 105.144 217.34 101.307 214.27L85.9575 202.758C85.19 201.99 84.4229 201.222 84.4229 199.688C84.4229 198.92 85.19 197.385 85.9575 197.385L207.219 128.312C209.522 127.545 211.056 127.545 212.591 127.545Z" fill="#16110D"/>
<path d="M268.617 195.083L394.482 287.948L289.338 349.346C284.733 351.648 279.36 351.648 275.523 348.579L149.658 255.714L257.104 195.083C260.942 192.781 265.547 192.781 268.617 195.083Z" fill="white"/>
<path d="M283.198 357.02C285.501 357.02 287.804 356.252 290.107 355.485L408.297 286.412L269.385 184.338C265.548 181.268 260.174 181.268 256.337 183.57L135.843 251.876L274.757 353.95C277.827 356.253 280.128 357.02 283.198 357.02ZM403.694 286.412L288.572 353.183C284.735 355.485 280.129 355.485 276.292 352.415L140.449 251.876L257.873 185.106C260.943 183.571 265.546 183.57 267.849 185.873L403.694 286.412Z" fill="#16110D"/>
<path d="M82.8877 229.619V199.687L84.4223 198.92C84.4223 200.455 84.423 201.99 85.1905 202.757L99.7718 214.27L102.075 215.037C103.61 215.804 105.143 216.572 106.678 216.572H107.447H108.215C110.517 216.572 113.587 216.572 115.89 215.037V223.479L234.848 154.407C235.616 153.639 235.616 153.639 236.383 152.872V145.964C237.15 145.197 237.917 143.662 237.149 142.127L238.686 141.359V152.872C238.686 154.406 237.918 155.941 236.383 156.709L116.656 226.549C113.586 228.084 109.749 228.852 105.912 228.084L104.377 227.317C104.377 227.317 99.0043 225.014 95.9344 225.014C92.8645 225.014 92.0971 225.782 92.0971 225.782L83.6541 230.386V229.619H82.8877Z" fill="#16110D"/>
<path d="M450.507 486.724L541.838 433.768C545.675 431.466 547.209 426.861 544.907 423.024C542.604 419.186 538 418.419 534.163 419.954L442.832 472.91C438.995 475.212 437.461 479.817 439.763 483.654C442.065 487.491 446.669 489.027 450.507 486.724Z" fill="#36A9E1"/>
<path d="M445.903 483.654L541.838 427.628C543.373 426.861 543.372 425.326 542.604 423.791C541.837 422.256 540.302 422.256 538.767 423.024L442.832 479.049C441.297 479.817 441.299 481.352 442.066 482.887C442.834 483.654 444.369 484.422 445.903 483.654Z" fill="#16110D"/>
<path d="M456.648 475.979L535.698 429.931L592.491 463.7H594.794V466.769C594.794 467.537 594.027 468.305 593.259 469.072L517.278 514.353C514.208 515.888 511.138 515.888 508.069 514.353L446.67 478.282L449.741 476.747L456.648 475.979Z" fill="#36A9E1"/>
<path d="M511.906 517.423C513.441 517.423 514.975 516.656 517.278 515.888L593.259 470.607C594.027 469.839 594.794 469.072 594.794 467.537V463.7H591.725L534.93 429.931L455.88 475.212L448.205 475.979L444.368 478.282L506.534 515.121C508.836 516.656 510.371 517.423 511.906 517.423ZM593.259 464.467V466.769C593.259 467.537 592.491 468.304 592.491 468.304L516.511 513.586C514.209 515.121 510.371 515.121 508.069 513.586L447.439 477.514L449.741 475.979L457.416 475.212L535.698 429.931L592.491 463.7L593.259 464.467Z" fill="#16110D"/>
<path d="M534.931 426.861L592.491 461.397C594.794 462.165 594.794 465.234 592.491 466.769L516.512 512.051C513.442 513.585 510.373 513.585 507.303 512.051L448.974 477.514L534.931 426.861Z" fill="#36A9E1"/>
<path d="M512.675 508.981C509.605 510.516 506.535 510.516 503.465 508.981L463.555 485.189C459.718 482.887 459.718 477.514 463.555 475.979L525.721 439.908C531.861 436.838 538.768 436.838 544.908 439.908L578.676 459.863C582.514 462.165 582.514 467.537 578.676 469.072L512.675 508.981Z" fill="white"/>
<path d="M511.906 513.586C513.441 513.586 514.975 512.818 517.278 512.051L593.259 466.769C594.027 466.002 594.794 465.235 594.794 463.7C594.794 462.165 594.027 461.397 593.259 460.63L534.93 426.093L447.439 476.747L507.302 512.051C508.837 512.818 510.371 513.586 511.906 513.586ZM534.93 427.628L592.491 462.165C593.258 462.932 593.259 463.7 593.259 464.467C593.259 465.235 592.491 466.002 592.491 466.769L516.512 512.051C514.209 513.586 510.371 513.586 508.069 512.051L450.508 477.514L534.93 427.628Z" fill="#16110D"/>
<path d="M523.417 471.374L527.255 473.677L540.302 466.002L536.464 463.7C534.929 462.932 532.627 462.932 531.092 463.7L523.417 468.304C521.882 469.072 521.882 470.607 523.417 471.374Z" fill="#16110D"/>
<path d="M538 479.049L541.837 481.352C543.372 482.119 545.674 482.119 547.209 481.352L554.884 476.747C556.419 475.979 556.419 474.444 554.884 473.677L551.047 471.375L538 479.049Z" fill="#16110D"/>
<path d="M528.79 474.444L536.465 478.281L549.513 471.374L541.839 466.769L528.79 474.444Z" fill="#16110D"/>
<path d="M514.978 496.701C512.675 498.236 511.906 499.004 513.441 500.539C514.976 501.306 517.279 501.306 519.581 499.771C521.884 498.236 521.883 497.469 521.116 495.934C519.581 495.166 517.28 495.166 514.978 496.701ZM518.815 499.004C517.28 499.771 515.745 500.539 514.978 499.771C514.21 499.004 514.977 498.236 516.512 497.468C518.047 496.701 519.582 495.934 520.349 496.701C521.117 496.701 520.35 497.469 518.815 499.004Z" fill="#16110D"/>
<path d="M509.603 493.631C507.3 495.166 506.533 495.933 508.068 497.468C509.603 498.236 511.906 498.236 514.208 496.701C516.511 495.166 516.511 494.399 515.743 492.864C513.441 492.096 511.905 492.096 509.603 493.631ZM513.44 495.934C511.905 496.701 510.37 497.468 509.603 496.701C508.835 495.933 509.604 495.166 511.139 494.399C512.674 493.631 514.209 492.863 514.977 493.631C515.744 493.631 514.975 494.399 513.44 495.934Z" fill="#16110D"/>
<path d="M504.231 490.561C501.929 492.096 501.161 492.864 502.696 494.399C504.231 495.166 506.534 495.166 508.837 493.631C511.139 492.096 511.139 491.329 510.371 489.794C508.069 489.026 506.533 489.026 504.231 490.561ZM507.302 492.864C505.767 493.631 504.232 494.398 503.465 493.631C502.697 492.863 503.464 492.096 504.999 491.329C506.534 490.561 508.069 489.794 508.837 490.561C509.604 490.561 509.604 491.329 507.302 492.864Z" fill="#16110D"/>
<path d="M503.465 487.491L504.232 488.259H505L503.465 487.491V486.724L496.557 490.562L497.325 491.329L503.465 487.491Z" fill="#16110D"/>
<path d="M491.184 482.887C488.882 484.421 488.115 485.189 489.65 486.724C491.185 487.491 493.487 487.491 495.79 485.956C498.092 484.421 498.092 483.654 497.324 482.119C495.022 481.351 492.719 481.352 491.184 482.887ZM494.253 485.189C492.718 485.956 491.183 486.724 490.416 485.956C489.648 485.189 490.417 484.421 491.952 483.654C493.487 482.886 495.022 482.119 495.79 482.887C496.557 482.887 496.556 483.654 494.253 485.189Z" fill="#16110D"/>
<path d="M486.579 484.422L487.347 482.887C487.347 480.584 487.348 479.817 488.115 479.049C488.883 478.282 489.649 478.282 491.184 479.049C491.952 479.049 491.953 479.817 491.953 480.584H492.719C492.719 479.817 491.952 479.817 491.184 479.049C489.649 478.282 488.115 478.282 487.347 479.049C485.812 479.817 485.812 480.584 485.812 482.887V483.654L482.741 482.119L481.975 482.887L486.579 484.422Z" fill="#16110D"/>
<path d="M479.672 476.747C477.37 478.282 476.602 479.049 478.137 480.584C479.672 481.352 481.975 481.351 484.278 479.816C486.58 478.282 486.58 477.514 485.812 475.979C484.277 475.212 481.974 475.212 479.672 476.747ZM483.509 478.281C481.974 479.049 480.439 479.817 479.672 479.049C478.904 478.282 479.672 477.514 481.207 476.747C482.741 475.979 484.276 475.212 485.044 475.979C485.811 476.747 485.812 477.514 483.509 478.281Z" fill="#16110D"/>
<path d="M479.672 472.909L480.44 473.677H481.207L479.672 472.909V472.142L472.766 475.979L473.532 476.747L479.672 472.909Z" fill="#16110D"/>
<path d="M466.626 469.072C464.323 470.607 463.556 471.374 465.091 472.909C466.626 473.677 468.927 473.677 471.23 472.142C473.532 470.607 473.534 469.839 472.766 468.304C471.231 467.537 468.928 467.537 466.626 469.072ZM470.463 471.374C468.928 472.142 467.393 472.909 466.626 472.142C465.858 471.374 466.625 470.607 468.16 469.839C469.695 469.072 471.23 468.305 471.998 469.072C472.765 469.072 471.998 469.839 470.463 471.374Z" fill="#16110D"/>
<path d="M511.905 512.818V516.655L508.836 515.888L445.903 479.049L448.973 476.747L509.602 512.818H511.905Z" fill="#16110D"/>
</svg>
