<svg width="2479" height="1336" viewBox="0 0 2479 1336" fill="none" xmlns="http://www.w3.org/2000/svg">
<path d="M1787.72 9.49652L1694.66 174.729L1671.87 159.537L1673.76 157.638L1516.13 62.676C1514.23 60.7768 1512.33 64.5743 1512.33 66.4736L1557.91 146.241V148.142L1533.22 322.87C1531.32 332.367 1527.53 341.863 1519.93 349.46L1491.44 381.746L1493.34 379.847L1442.06 355.156L1295.82 484.305C1293.92 486.205 1293.92 488.103 1295.82 488.103L1381.28 539.384C1383.18 541.283 1385.08 541.282 1386.98 541.282L1491.44 543.181L1462.95 662.834C1462.95 664.733 1462.95 666.632 1464.85 666.632L1544.62 714.112L1550.31 717.912C1557.91 723.61 1573.11 716.013 1582.61 698.92L1685.16 524.189C1690.86 514.693 1698.46 508.995 1706.06 505.197L1848.5 453.918C1867.49 448.22 1880.78 417.831 1873.18 402.637L1808.61 294.382C1804.81 288.684 1804.81 279.187 1808.61 269.691L1878.88 85.4659C1884.58 72.1713 1882.68 62.6746 1875.09 58.8762L1787.72 5.69897C1791.52 7.59821 1789.62 7.59728 1787.72 9.49652Z" fill="#36A9E1"/>
<path d="M1605.4 651.439L1599.7 647.639L1519.93 600.158C1518.03 600.158 1518.03 598.26 1518.03 596.361L1546.52 476.708L1442.06 474.809C1440.16 474.809 1438.26 474.81 1436.36 472.91L1362.29 427.328L1297.72 484.305C1295.82 486.205 1295.82 488.103 1297.72 488.103L1383.19 539.384C1385.09 541.283 1386.98 541.283 1388.88 541.283L1493.34 543.181L1464.85 662.834C1464.85 664.733 1464.85 666.632 1466.75 666.632L1546.52 714.113L1552.22 717.912C1559.81 723.61 1575.01 716.013 1584.5 698.92L1612.99 651.439C1611.09 651.439 1609.19 651.439 1605.4 651.439Z" fill="white"/>
<path d="M1761.13 440.622C1753.53 442.521 1745.94 450.118 1740.24 459.614L1711.75 507.095L1848.5 457.715C1867.49 452.018 1880.78 421.631 1873.18 406.437L1869.39 400.738L1761.13 440.622Z" fill="#36A9E1"/>
<path d="M1876.99 442.523C1871.29 452.019 1861.79 459.616 1854.19 463.414L1711.75 514.692C1706.05 516.592 1700.36 522.29 1694.66 529.887L1592.1 704.616C1580.71 723.608 1563.61 731.205 1550.31 725.507L1464.85 674.229C1461.05 672.329 1459.15 666.632 1461.05 662.834L1487.64 550.778L1390.78 548.88C1386.98 548.88 1385.08 548.88 1381.28 546.981L1295.82 495.7C1293.92 493.801 1292.02 491.901 1292.02 488.103C1292.02 486.203 1292.02 482.407 1295.82 480.508L1443.96 347.561L1495.24 372.25L1518.03 345.66C1523.73 339.962 1527.53 330.467 1529.43 322.87L1554.12 148.141L1510.43 70.2708C1508.53 66.4723 1508.53 62.6743 1512.33 58.8758C1516.13 56.9766 1519.93 55.0778 1523.73 56.9771L1688.96 155.736L1687.06 157.637L1698.46 163.334L1787.72 3.79754C1789.62 1.89831 1791.52 1.07959e-10 1793.42 1.07959e-10C1795.32 1.07959e-10 1799.12 -0.000463709 1801.02 1.89877L1888.38 55.0783C1897.88 62.6752 1899.78 75.9704 1894.08 91.1642L1823.81 275.389C1821.91 282.986 1820.01 290.583 1823.81 294.382L1888.38 402.637C1892.18 410.234 1892.18 419.73 1888.38 431.126C1880.78 434.924 1878.89 438.724 1876.99 442.523ZM1683.26 522.29C1688.96 512.794 1698.46 505.197 1706.06 501.399L1848.5 450.118C1856.1 446.319 1865.59 436.825 1869.39 425.429C1871.29 417.832 1871.29 412.134 1869.39 408.336L1804.81 300.08C1801.02 292.483 1801.02 281.086 1804.81 269.691L1875.09 85.4656C1878.88 74.0702 1876.98 68.3725 1875.09 66.4733L1791.52 17.0936L1696.56 184.225L1660.47 161.435L1662.37 159.536L1525.63 77.8682L1563.61 146.24V150.04L1538.92 324.769C1537.02 334.265 1531.32 345.66 1523.73 355.156L1495.24 387.445L1491.44 383.645L1489.54 387.445L1442.06 364.652L1303.41 488.103L1383.19 537.485H1385.08L1499.04 539.383L1470.55 666.631L1554.12 717.912C1557.92 719.811 1569.31 716.012 1576.91 702.717L1683.26 522.29Z" fill="black"/>
<path d="M1301.52 440.62L1432.56 296.279C1440.16 288.682 1443.96 279.185 1445.85 269.689L1470.55 94.9602C1474.34 72.1694 1497.14 51.2774 1510.43 58.8743L1609.19 121.55C1614.89 125.348 1622.49 123.448 1630.08 117.75L1772.53 11.3934C1791.52 -1.90123 1804.81 11.3943 1795.32 36.0844L1725.05 220.309C1721.25 229.805 1721.25 239.303 1725.05 245L1789.62 353.256C1797.22 366.55 1783.92 396.94 1764.93 404.537L1622.48 455.815C1614.89 457.714 1607.29 465.311 1601.6 474.807L1499.03 649.536C1485.74 672.327 1462.95 676.126 1461.05 657.133L1443.96 505.195C1443.96 497.598 1438.26 491.901 1432.56 491.901L1303.41 490.002C1284.42 488.103 1284.42 459.613 1301.52 440.62Z" fill="white"/>
<path d="M1504.73 630.545L1597.8 472.91C1603.49 463.414 1611.09 457.716 1618.69 453.917L1761.13 402.637C1780.12 396.939 1793.42 366.552 1785.82 351.358L1721.25 243.103C1717.45 237.405 1717.45 227.908 1721.25 218.412L1774.43 79.7666L1679.46 150.04C1671.87 155.737 1664.27 157.636 1658.57 153.837L1609.19 121.551C1607.29 121.551 1605.39 121.552 1603.49 119.652L1554.12 87.364C1540.82 85.4648 1523.73 104.457 1519.93 125.349L1495.24 300.08C1493.34 309.576 1489.54 319.07 1481.94 326.667L1350.89 471.011C1347.1 474.809 1343.3 480.506 1341.4 484.305L1423.07 486.204C1428.76 486.204 1434.46 491.903 1434.46 499.5L1436.36 518.492H1476.25C1481.94 518.492 1487.64 524.189 1487.64 531.786L1504.73 630.545Z" fill="#36A9E1"/>
<path d="M1787.72 389.343C1782.02 398.84 1772.52 406.436 1764.93 410.235L1622.48 461.515C1616.79 463.415 1609.19 469.111 1605.39 476.708L1502.83 651.439C1493.33 666.633 1478.14 676.128 1466.75 674.229C1459.15 672.33 1453.45 666.631 1451.55 657.135L1434.46 505.196C1434.46 501.398 1432.56 497.599 1428.76 497.599L1299.61 495.7C1292.02 495.7 1286.32 491.902 1282.52 484.305C1276.82 471.011 1282.52 452.018 1295.82 438.723L1426.86 294.382C1432.56 288.684 1436.36 279.189 1438.26 271.592L1462.95 96.8606C1464.85 79.7675 1478.14 62.6749 1491.44 56.9772C1499.04 53.1787 1506.63 53.1787 1512.33 56.9772L1611.09 119.653C1612.99 121.552 1618.69 119.651 1624.38 115.853L1766.83 9.49626C1776.32 1.89932 1787.72 0.00100994 1795.32 5.69872C1804.81 11.3964 1806.71 26.5889 1799.11 39.8836L1728.84 224.111C1726.94 231.708 1725.04 239.305 1728.84 243.103L1793.41 351.359C1797.21 358.956 1797.21 368.452 1793.41 379.847C1791.52 381.746 1789.62 385.545 1787.72 389.343ZM1595.9 469.11C1601.59 459.614 1611.09 452.018 1618.69 448.219L1761.13 396.941C1768.73 393.142 1778.22 383.645 1782.02 372.25C1783.92 364.653 1783.92 358.955 1782.02 355.156L1717.45 246.901C1713.65 239.304 1713.65 227.909 1717.45 216.513L1787.72 32.2862C1791.51 20.8907 1789.62 15.1935 1787.72 11.395C1785.82 9.4958 1780.12 11.3964 1774.42 15.1949L1631.98 121.552C1622.48 129.149 1612.99 131.047 1605.39 125.349L1506.63 62.6758C1504.73 60.7766 1500.93 62.6758 1499.03 62.6758C1489.54 66.4743 1480.04 79.7684 1478.14 93.0631L1453.45 267.792C1451.55 277.288 1445.86 288.683 1438.26 298.179L1307.21 442.523C1297.72 453.918 1293.92 469.111 1297.72 474.809C1299.62 476.708 1299.61 478.607 1303.41 478.607L1432.56 480.508C1442.06 480.508 1449.65 488.105 1451.55 499.5L1468.65 651.439C1468.65 655.237 1470.55 657.135 1472.45 659.034C1476.24 660.933 1487.64 655.237 1495.24 641.943L1595.9 469.11C1594 469.11 1595.9 469.11 1595.9 469.11Z" fill="black"/>
<path d="M1783.92 381.746L1873.18 434.925L1876.99 414.034L1808.61 284.885L1717.45 229.807L1726.94 252.599L1787.72 353.257L1793.42 366.553L1783.92 381.746Z" fill="black"/>
<path d="M1617.84 454.743L1608.03 471.006L1695.85 523.978L1705.66 507.715L1617.84 454.743Z" fill="black"/>
<path d="M1505.63 631.599L1495.83 647.863L1583.65 700.824L1593.46 684.561L1505.63 631.599Z" fill="black"/>
<path d="M1791.52 47.481L1876.99 98.7594L1886.48 75.9695L1878.88 60.7747L1797.21 11.395L1791.52 47.481Z" fill="black"/>
<path d="M2423.96 831.86L2213.15 915.425L2201.75 883.139H2203.65L2127.68 674.223C2127.68 672.324 2123.88 672.324 2121.98 674.223L2102.99 782.478C2102.99 782.478 2101.09 782.48 2101.09 784.379L1945.35 930.62C1937.76 938.217 1924.46 943.915 1913.07 945.814L1861.79 953.409H1865.59L1837.1 892.635L1603.49 904.03C1601.59 904.03 1599.7 905.93 1601.6 907.83L1643.38 1019.88C1643.38 1021.78 1645.28 1023.68 1647.18 1025.58L1744.04 1105.35L1626.28 1196.51C1624.38 1198.41 1624.39 1200.31 1624.39 1202.21L1662.37 1306.67L1666.17 1316.17C1669.97 1327.56 1688.96 1331.36 1709.85 1323.76L1937.76 1238.29C1949.16 1234.5 1962.45 1232.6 1970.05 1236.4L2140.98 1297.17C2163.77 1304.77 2199.85 1287.68 2201.75 1268.68L2224.54 1118.64C2226.44 1111.05 2232.14 1103.45 2243.53 1095.85L2448.65 978.1C2463.85 970.504 2469.54 959.108 2467.64 949.612L2425.86 835.658C2427.76 831.859 2425.86 829.961 2423.96 831.86Z" fill="#36A9E1"/>
<path d="M1768.72 1293.37L1764.93 1283.88L1726.94 1179.42C1726.94 1177.52 1726.94 1175.62 1728.84 1173.72L1846.59 1082.56L1749.73 1002.79C1747.83 1000.89 1745.93 998.992 1745.93 997.092L1709.85 898.333L1605.39 904.029C1603.49 904.029 1601.59 905.93 1603.49 907.829L1645.27 1019.88C1645.27 1021.78 1647.18 1023.68 1649.08 1025.58L1745.93 1105.35L1628.18 1196.51C1626.28 1198.41 1626.28 1200.31 1626.28 1202.21L1664.27 1306.67L1668.07 1316.16C1671.87 1327.56 1690.86 1331.36 1711.75 1323.76L1774.42 1300.97C1772.52 1297.17 1770.62 1295.27 1768.72 1293.37Z" fill="white"/>
<path d="M2074.5 1213.61C2065.01 1209.81 2053.61 1211.71 2042.22 1215.5L1979.54 1238.29L2144.78 1295.27C2167.57 1302.87 2203.65 1285.78 2205.55 1266.78L2207.45 1259.19L2074.5 1213.61Z" fill="#36A9E1"/>
<path d="M2178.96 1302.87C2165.67 1308.57 2152.37 1308.57 2140.98 1304.77L1970.05 1243.99C1962.45 1242.09 1952.95 1242.09 1941.56 1245.89L1713.65 1331.36C1688.96 1340.85 1666.17 1335.16 1660.47 1319.96L1618.69 1206.01C1616.79 1200.31 1618.69 1194.61 1622.48 1192.71L1732.64 1107.25L1643.38 1033.18C1639.58 1031.28 1637.68 1027.48 1635.78 1023.68L1594 911.627C1592.1 907.828 1594 904.03 1595.9 902.13C1597.8 900.231 1601.59 898.333 1603.49 898.333L1842.8 886.936L1871.29 947.713L1913.07 942.014C1924.46 940.115 1933.96 936.317 1941.56 928.72L2095.4 782.478L2112.49 676.121C2112.49 670.423 2116.29 668.524 2121.98 666.625C2127.68 666.625 2131.48 668.524 2133.38 674.222L2213.15 892.634H2211.25L2216.95 905.928L2420.16 824.262C2422.06 822.363 2425.86 822.363 2429.66 824.262C2431.56 826.161 2435.36 828.059 2435.36 829.959L2477.14 943.913C2480.94 957.207 2473.35 972.401 2456.25 981.897L2251.13 1099.65C2243.54 1105.35 2237.84 1111.05 2235.94 1116.75L2213.15 1266.78C2211.25 1276.28 2203.65 1285.78 2192.26 1293.37C2188.46 1299.07 2184.66 1300.97 2178.96 1302.87ZM1937.76 1230.7C1951.05 1225 1964.35 1225 1975.74 1228.8L2146.68 1289.58C2156.17 1293.37 2171.37 1289.57 2184.66 1283.88C2192.26 1278.18 2197.95 1272.48 2197.95 1268.68L2220.74 1118.64C2222.64 1109.15 2230.24 1097.75 2243.53 1090.16L2448.65 972.401C2460.05 964.804 2463.85 957.207 2463.85 953.409L2423.96 843.255L2209.35 928.72L2192.26 879.341H2194.16L2129.58 698.913L2114.39 791.974L2110.59 795.774L1954.85 942.014C1945.35 951.51 1932.06 957.208 1918.77 959.108L1867.49 966.705L1865.59 959.108L1861.79 961.006L1835.2 904.029L1612.99 915.424L1650.97 1021.78L1652.87 1023.68L1757.33 1111.05L1633.88 1207.91L1673.76 1318.06C1675.66 1323.76 1690.86 1327.56 1707.95 1319.96L1937.76 1230.7Z" fill="black"/>
<path d="M1641.48 866.044L1873.18 829.959C1884.58 828.059 1897.88 822.363 1905.47 814.766L2061.21 668.524C2082.1 649.531 2118.19 647.633 2123.89 664.726L2169.47 797.672C2171.37 805.269 2178.96 809.067 2190.36 809.067L2404.97 816.665C2433.46 818.564 2435.36 841.354 2408.77 856.548L2203.65 974.302C2192.26 980 2186.56 989.495 2184.66 997.092L2161.87 1147.13C2158.07 1166.12 2121.98 1183.22 2101.09 1175.62L1930.16 1114.84C1920.66 1111.05 1909.27 1112.95 1897.87 1116.74L1669.97 1202.21C1639.58 1213.61 1614.89 1200.31 1628.18 1179.42L1726.94 1023.68C1732.64 1016.09 1730.74 1008.49 1725.05 1002.79L1605.39 904.029C1590.2 896.432 1611.09 871.742 1641.48 866.044Z" fill="white"/>
<path d="M1688.96 1196.51L1895.98 1120.54C1907.37 1116.74 1920.67 1114.84 1928.26 1118.64L2099.2 1179.42C2121.99 1187.01 2158.07 1169.92 2159.97 1150.93L2182.76 1000.89C2184.66 993.291 2190.36 985.695 2201.75 978.098L2355.59 888.835L2213.15 883.137C2201.75 883.137 2194.16 877.439 2192.26 871.742L2169.47 805.268C2167.57 803.369 2165.67 801.469 2165.67 799.57L2142.88 733.097C2131.48 721.701 2101.09 725.5 2082.1 742.593L1926.36 888.835C1918.77 896.432 1905.47 902.129 1894.08 904.028L1662.37 940.114C1654.77 942.013 1649.08 943.913 1643.38 945.812L1719.35 1008.49C1725.05 1014.18 1726.94 1021.78 1721.25 1029.38L1707.95 1050.27L1745.94 1080.66C1751.63 1086.36 1753.53 1093.95 1747.84 1101.55L1688.96 1196.51Z" fill="#36A9E1"/>
<path d="M2137.18 1185.12C2123.89 1190.81 2110.59 1190.81 2099.2 1187.01L1928.26 1126.24C1920.67 1124.34 1909.27 1124.34 1899.78 1128.14L1671.87 1213.6C1650.98 1221.2 1630.08 1219.3 1620.59 1207.91C1614.89 1200.31 1614.89 1190.81 1620.59 1179.42L1719.35 1023.68C1723.15 1019.88 1723.15 1016.08 1719.35 1012.29L1599.7 913.525C1592.1 907.827 1590.2 900.231 1592.1 890.735C1595.9 875.541 1616.79 860.346 1639.58 856.547L1871.29 820.462C1882.68 818.562 1892.18 814.765 1899.78 807.168L2055.51 660.928C2070.71 647.633 2095.4 640.035 2112.49 643.834C2121.98 645.733 2129.58 651.43 2131.48 659.026L2177.06 791.973C2178.96 795.771 2184.66 797.672 2192.26 797.672L2406.87 805.269C2422.06 805.269 2433.46 812.866 2435.36 824.261C2439.16 837.556 2429.66 850.851 2412.57 860.347L2207.45 978.099C2199.85 983.797 2194.16 989.495 2192.26 995.193L2169.47 1145.23C2167.57 1154.73 2159.97 1164.22 2148.57 1171.82C2146.67 1181.32 2140.98 1183.22 2137.18 1185.12ZM1895.98 1114.84C1909.27 1109.15 1922.57 1109.15 1933.96 1112.94L2104.89 1173.72C2114.39 1177.52 2129.58 1173.72 2142.88 1168.02C2150.48 1162.32 2156.17 1156.63 2156.17 1152.83L2178.96 1002.79C2180.86 993.294 2188.46 981.898 2201.75 974.301L2406.87 856.547C2418.27 848.951 2422.07 841.354 2422.07 837.555C2420.17 833.757 2416.37 831.857 2406.87 829.958L2192.26 822.363C2177.06 822.363 2167.57 814.765 2163.77 805.269L2118.19 672.322C2116.29 668.524 2112.49 666.624 2110.59 666.624C2099.19 662.825 2080.2 668.524 2066.91 679.92L1911.17 826.16C1901.67 835.656 1888.38 841.354 1875.08 843.254L1643.38 879.34C1624.39 883.138 1611.09 892.633 1609.19 902.13C1609.19 904.029 1609.19 907.828 1611.09 907.828L1730.74 1006.59C1740.24 1014.18 1742.14 1025.58 1734.54 1036.97L1635.78 1192.71C1633.88 1196.51 1631.98 1200.31 1633.88 1202.21C1637.68 1206.01 1650.97 1209.81 1666.17 1204.11L1895.98 1114.84Z" fill="black"/>
<path d="M2139.08 1177.52L2180.86 1293.37L2201.75 1276.28L2234.04 1105.35L2190.36 983.798L2182.76 1012.29L2163.77 1150.93L2158.07 1169.92L2139.08 1177.52Z" fill="black"/>
<path d="M1923.97 1116.46L1906.12 1122.93L1948.23 1238.98L1966.08 1232.5L1923.97 1116.46Z" fill="black"/>
<path d="M1691.48 1201.59L1673.62 1208.06L1715.72 1324.12L1733.57 1317.64L1691.48 1201.59Z" fill="black"/>
<path d="M2397.38 867.943L2439.16 981.897L2465.75 968.603L2469.55 947.712L2429.66 839.454L2397.38 867.943Z" fill="black"/>
<path d="M866.596 923.023L684.272 727.403L714.657 702.712L716.558 704.611L912.18 533.68C914.079 531.781 912.178 527.984 910.279 527.984L783.031 554.571L781.13 552.672L555.123 444.417C543.727 438.719 532.33 427.324 524.733 415.928L494.348 364.648L496.245 368.447L551.325 309.572L439.267 56.9723C439.267 55.073 435.473 55.0735 433.574 55.0735L327.214 148.136C325.315 150.036 323.417 151.933 323.417 155.732L275.936 296.275L125.894 207.012C123.994 205.113 122.099 205.113 120.2 207.012L21.4356 292.478L13.8406 300.075C4.34438 309.572 6.24547 330.462 25.2378 351.354L215.161 565.968C224.658 577.364 230.353 590.657 232.253 602.052L239.848 814.768C239.848 843.256 274.034 875.544 296.825 869.846L471.558 829.96C481.054 828.061 492.449 831.861 503.844 841.358L720.355 1014.19C735.549 1027.48 750.743 1027.48 758.34 1021.78L866.596 928.722C868.495 926.823 868.495 924.923 866.596 923.023Z" fill="#36A9E1"/>
<path d="M82.2149 402.632L89.81 395.037L188.569 309.572C190.469 307.672 192.369 307.672 194.268 309.572L344.306 398.835L391.787 258.291C393.686 254.492 393.69 252.593 395.589 250.693L488.649 169.028L439.267 56.9723C439.267 55.073 435.473 55.0735 433.574 55.0735L327.214 148.136C325.315 150.036 323.417 151.933 323.417 155.732L275.936 296.275L125.894 207.012C123.994 205.113 122.099 205.113 120.2 207.012L21.4356 292.478L13.8406 300.075C4.34438 309.572 6.24547 330.462 25.2378 351.354L78.4127 410.23C78.4127 408.33 80.3157 404.531 82.2149 402.632Z" fill="white"/>
<path d="M300.63 702.713C300.63 691.317 294.929 678.022 283.534 666.627L232.255 607.751L239.85 812.869C239.85 841.358 274.037 873.643 296.828 867.945L304.427 866.046L300.63 702.713Z" fill="#36A9E1"/>
<path d="M247.451 854.652C236.055 843.257 230.355 828.063 230.355 814.769L222.76 602.053C222.76 592.557 217.063 583.061 209.466 571.665L19.5425 357.053C-1.34905 334.262 -5.14752 305.773 10.0464 292.479L116.401 199.416C122.098 195.617 127.799 193.718 133.497 197.517L274.038 281.084L317.722 151.935C319.621 148.136 321.518 144.338 325.317 140.54L431.676 47.4768C435.474 45.5776 439.275 43.6788 443.073 45.578C446.872 45.578 450.67 49.377 452.569 53.1755L566.523 309.572L511.443 366.549L536.134 410.23C541.831 421.626 551.326 431.123 562.721 434.921L786.832 543.177L910.282 516.587C915.98 514.688 921.677 518.487 923.576 522.286C925.475 527.983 925.476 533.682 919.778 537.481L714.66 716.007L712.764 712.209L699.47 723.604L874.199 911.629C876.098 913.528 877.996 917.327 877.996 921.125C877.996 924.924 876.098 928.722 874.199 930.622L765.943 1023.68C752.648 1033.18 733.654 1029.38 716.561 1016.09L500.05 843.257C490.554 835.66 481.057 831.862 475.359 833.761L300.63 873.644C289.235 875.544 275.94 871.746 262.646 862.25C255.049 864.149 251.249 860.35 247.451 854.652ZM222.76 560.271C234.155 573.565 239.853 588.759 241.752 600.154L249.347 812.87C249.347 824.265 258.847 841.358 272.142 850.855C281.638 858.451 289.234 860.349 294.932 858.45L469.66 818.566C481.056 816.667 496.252 820.467 509.546 831.862L726.057 1004.69C739.352 1014.19 748.846 1016.09 752.645 1012.29L855.206 923.024L670.981 723.604L718.462 683.721L720.359 685.62L889.393 537.481L781.133 560.271L777.336 558.372L551.329 450.114C538.034 444.416 524.738 431.122 517.141 417.828L486.752 366.549L494.352 362.75L490.554 358.952L541.832 305.772L435.473 66.4692L334.813 153.834C334.813 153.834 332.916 155.734 332.916 157.633L281.638 309.572L124.001 216.509L19.5425 307.671C13.8448 311.47 15.7413 330.462 30.9352 345.656L222.76 560.271Z" fill="black"/>
<path d="M496.246 81.6636L634.891 320.967C642.488 334.261 653.885 343.758 665.281 349.455L891.288 457.711C919.776 471.006 938.768 512.788 923.574 526.083L796.326 632.442C790.628 638.14 788.73 647.636 792.528 660.93L874.197 900.234C885.592 930.621 859.002 943.916 830.513 921.125L614.002 748.295C602.607 738.799 591.208 735.001 581.711 736.9L406.983 776.783C384.192 782.481 350.006 750.194 350.006 721.705L342.411 508.992C342.411 497.596 336.71 484.301 325.315 472.906L135.391 258.291C110.701 229.803 114.502 197.515 142.991 203.213L355.704 244.997C367.1 246.897 374.696 243.099 378.494 233.602L435.471 60.7701C441.169 37.9793 477.254 51.2758 496.246 81.6636Z" fill="white"/>
<path d="M154.385 275.385L327.217 469.106C336.713 480.501 342.409 493.796 344.308 505.192L351.908 717.908C351.908 746.396 386.094 778.681 408.885 772.984L583.614 733.1C593.11 731.201 604.505 734.999 615.9 744.495L779.236 875.543L724.155 717.908C720.357 706.512 722.26 695.117 727.958 689.419L792.53 636.24C794.429 634.34 794.428 632.44 796.327 630.541L859.003 577.364C866.6 560.271 849.509 527.982 822.919 516.587L596.908 408.331C585.512 402.634 574.12 391.238 566.523 379.843L427.878 140.539C424.079 132.943 418.38 127.245 412.683 121.547L376.599 231.701C372.801 241.198 365.2 244.998 353.805 243.099L325.316 237.4L308.225 290.58C304.426 300.076 296.83 303.874 285.435 301.974L154.385 275.385Z" fill="#36A9E1"/>
<path d="M357.607 759.689C346.211 748.294 340.511 733.1 340.511 719.806L332.916 507.09C332.916 497.594 327.219 486.199 319.622 476.703L129.698 262.09C112.605 243.098 106.907 218.406 114.504 203.212C120.201 193.716 131.594 188.019 144.888 191.817L357.607 233.602C363.304 235.501 367.1 233.6 368.999 229.802L425.976 56.9719C429.775 47.4758 437.371 39.8783 448.766 39.8783C467.759 37.9791 492.449 53.173 505.743 77.8631L644.388 317.166C650.086 328.562 659.585 338.059 670.981 341.857L896.988 450.113C917.879 459.609 936.871 484.3 938.77 505.191C940.669 516.587 936.871 526.083 929.274 531.781L802.026 638.138C798.227 641.936 798.227 647.634 802.026 657.13L883.694 896.433C889.392 913.526 887.49 928.722 876.094 936.319C862.8 945.815 843.81 942.017 826.717 926.823L610.201 753.991C600.705 746.394 591.213 742.595 585.515 744.494L410.781 784.38C399.386 786.279 386.091 782.479 372.797 772.983C365.2 767.285 361.405 763.488 357.607 759.689ZM332.916 465.308C344.311 478.602 350.009 493.796 351.908 505.191L359.503 717.907C359.503 729.302 368.998 746.395 382.293 755.892C391.789 763.489 399.39 765.386 405.087 763.487L579.816 723.603C591.212 721.704 606.403 725.504 619.697 736.899L836.213 909.729C849.508 919.225 859.002 921.125 862.8 917.327C866.599 915.427 866.601 907.831 864.702 898.334L783.034 659.029C777.336 643.835 779.236 628.641 788.732 621.044L915.98 514.687C919.779 512.788 919.78 507.091 917.881 503.292C915.982 489.998 904.583 471.006 885.59 461.51L659.583 353.252C646.289 347.555 632.993 334.261 625.396 320.966L486.751 81.6629C475.356 62.6706 458.265 53.1744 446.87 53.1744C443.071 53.1744 441.171 55.0722 441.171 58.8707L384.194 231.701C380.396 244.995 367.102 250.694 351.908 248.794L139.194 207.012C133.497 205.113 129.696 207.011 127.797 210.81C123.999 216.507 125.897 231.702 141.091 246.895L332.916 465.308C331.016 465.308 331.016 465.308 332.916 465.308Z" fill="black"/>
<path d="M367.103 757.791L258.843 852.753L283.534 869.846L486.752 831.862L600.706 733.1L566.523 736.9L405.088 774.885L384.195 776.783L367.103 757.791Z" fill="black"/>
<path d="M331.91 482.832L223.237 577.836L235.738 592.136L344.411 497.132L331.91 482.832Z" fill="black"/>
<path d="M137.938 259.701L29.2646 354.705L41.7654 369.004L150.438 274L137.938 259.701Z" fill="black"/>
<path d="M815.32 909.73L707.064 1004.69L735.553 1025.58L758.343 1021.79L860.904 932.52L815.32 909.73Z" fill="black"/>
<path d="M461.649 835.233L287.086 872.67L290.272 887.525L464.835 850.088L461.649 835.233Z" fill="#36A9E1"/>
<path d="M743.148 1033.18C727.954 1033.18 718.458 1025.58 714.66 1017.99L726.057 1010.39C727.956 1012.29 735.555 1023.68 756.447 1016.09L762.141 1029.38C754.544 1031.28 748.846 1033.18 743.148 1033.18Z" fill="#36A9E1"/>
</svg>
