<svg width="318" height="546" viewBox="0 0 318 546" fill="none" xmlns="http://www.w3.org/2000/svg">
<path d="M185.967 546C190.683 546 194.506 543.876 194.506 541.256C194.506 538.636 190.683 536.512 185.967 536.512C181.251 536.512 177.428 538.636 177.428 541.256C177.428 543.876 181.251 546 185.967 546Z" fill="#15100C"/>
<path d="M223.918 519.433C227.713 521.331 227.713 524.177 223.918 526.074C220.123 527.972 215.378 527.972 211.583 526.074C207.788 524.177 207.788 521.331 211.583 519.433C215.378 517.536 220.123 517.536 223.918 519.433Z" fill="#15100C"/>
<path d="M127.138 537.46C130.933 539.358 130.933 542.204 127.138 544.101C123.343 545.999 118.599 545.999 114.803 544.101C111.008 542.204 111.008 539.358 114.803 537.46C118.599 535.563 124.291 535.563 127.138 537.46Z" fill="#15100C"/>
<path d="M153.705 527.973C158.421 527.973 162.244 525.849 162.244 523.229C162.244 520.609 158.421 518.485 153.705 518.485C148.989 518.485 145.165 520.609 145.165 523.229C145.165 525.849 148.989 527.973 153.705 527.973Z" fill="#15100C"/>
<path d="M191.659 500.457C195.454 502.355 195.454 505.201 191.659 507.098C187.864 508.996 183.12 508.996 179.324 507.098C175.529 505.201 175.529 502.355 179.324 500.457C183.12 498.559 188.812 498.559 191.659 500.457Z" fill="#15100C"/>
<path d="M223.918 482.429C227.713 484.327 227.713 487.174 223.918 489.071C220.123 490.969 215.378 490.969 211.583 489.071C207.788 487.174 207.788 484.327 211.583 482.429C215.378 480.532 220.123 480.532 223.918 482.429Z" fill="#15100C"/>
<path d="M89.1881 527.024C93.9042 527.024 97.727 524.9 97.727 522.28C97.727 519.66 93.9042 517.536 89.1881 517.536C84.472 517.536 80.6487 519.66 80.6487 522.28C80.6487 524.9 84.472 527.024 89.1881 527.024Z" fill="#15100C"/>
<path d="M127.138 500.457C130.933 502.355 130.933 505.201 127.138 507.098C123.343 508.996 118.599 508.996 114.803 507.098C111.008 505.201 111.008 502.355 114.803 500.457C118.599 498.559 124.291 498.559 127.138 500.457Z" fill="#15100C"/>
<path d="M62.6217 500.457C66.4169 502.355 66.4169 505.201 62.6217 507.098C58.8265 508.996 54.082 508.996 50.2868 507.098C46.4916 505.201 46.4916 502.355 50.2868 500.457C54.082 498.559 59.7753 498.559 62.6217 500.457Z" fill="#15100C"/>
<path d="M94.8797 481.481C98.6749 483.378 98.6749 486.224 94.8797 488.122C91.0845 490.02 86.3406 490.02 82.5454 488.122C78.7502 486.224 78.7502 483.378 82.5454 481.481C86.3406 479.583 92.0333 479.583 94.8797 481.481Z" fill="#15100C"/>
<path d="M62.621 463.454C66.4162 465.351 66.4162 468.198 62.621 470.096C58.8258 471.993 54.0813 471.993 50.2861 470.096C46.4909 468.198 46.4909 465.351 50.2861 463.454C54.0813 461.556 59.7746 461.556 62.621 463.454Z" fill="#15100C"/>
<path d="M152.754 331.57C144.215 326.826 131.881 329.673 115.751 339.161C98.6727 348.649 86.3383 360.984 77.7991 375.216C69.2599 389.448 64.5156 404.628 64.5156 421.706C64.5156 438.785 69.2599 449.222 77.7991 453.017L145.164 489.072L197.348 406.526L219.17 367.625L152.754 331.57Z" fill="#36A9E1"/>
<path d="M117.651 360.984C100.572 370.472 88.238 382.806 79.6988 397.038C73.0572 407.474 69.2621 419.809 67.3645 432.144C69.2621 442.581 73.0572 450.171 79.6988 453.017L147.063 489.072L199.247 406.526L211.582 385.652L153.705 355.29C146.115 349.597 133.78 352.445 117.651 360.984Z" fill="white"/>
<path d="M148.013 492.866L145.166 491.918L76.8533 455.864C66.4165 451.12 61.6721 439.734 61.6721 420.758C61.6721 402.73 66.4164 386.601 74.9555 372.369C83.4947 358.137 96.7777 344.854 113.856 335.366C130.935 324.929 144.218 323.032 154.654 327.776L225.814 365.728L202.094 407.474L148.013 492.866ZM143.269 333.469C136.628 333.469 128.088 336.315 117.652 342.008C101.522 351.496 89.1877 362.881 81.5973 376.165C73.0581 389.448 69.2624 404.628 69.2624 420.758C69.2624 435.938 73.0577 445.426 80.6481 449.222L145.166 483.378L195.453 403.68L215.378 368.574L150.86 334.417C148.962 333.468 146.116 333.469 143.269 333.469Z" fill="#15100C"/>
<path d="M240.994 93.4225L259.97 83.9345L287.485 44.0853L222.967 10.8773C221.069 8.97973 218.223 8.0307 215.377 7.0819L214.428 6.13333C213.479 6.13333 213.479 5.18476 212.53 5.18476C192.606 -1.45684 164.141 6.1331 128.087 26.0579C84.4422 50.7267 43.644 87.7294 3.79443 137.067L37.0024 193.046C44.5928 183.558 52.1829 175.02 59.7733 167.429L71.159 173.122L152.756 134.221C151.807 139.914 148.961 146.556 146.114 152.249C140.422 162.686 130.933 176.917 118.599 193.995C102.469 214.869 91.084 233.845 84.4424 249.974C77.8008 266.104 74.9544 283.183 74.9544 301.21V324.93L142.319 360.985L207.786 271.797L253.329 145.606L224.865 138.017C226.762 134.222 228.66 130.425 229.609 127.579C235.301 116.193 238.148 104.808 240.994 93.4225Z" fill="#36A9E1"/>
<path d="M38.8999 193.995C46.4903 184.507 54.0804 175.968 61.6708 168.378L73.0565 174.07L154.653 135.17L241.943 93.4224L260.919 83.9345L278.946 57.3688L227.711 30.8019C225.813 28.9043 222.967 27.9553 220.12 27.0065L219.172 26.0579C218.223 26.0579 218.223 25.1093 217.274 25.1093C197.349 18.4677 168.885 26.0577 132.831 45.9825C91.0836 69.7025 51.2342 104.808 13.2822 151.299L38.8999 193.995Z" fill="white"/>
<path d="M149.91 361.932L141.371 364.778L72.1091 327.776V325.877V302.157C72.1091 284.13 74.9555 266.103 81.5971 249.025C88.2387 232.895 99.6241 212.97 115.754 192.097C128.088 175.018 137.576 161.735 143.269 151.298C145.167 148.451 146.115 144.656 147.064 141.81L72.1091 177.865L70.2114 176.916L60.7234 172.172C54.0818 179.763 46.4913 187.353 39.8497 195.892L38.9011 197.789H35.1057L34.1571 195.892L0 138.016L1.89772 136.117C41.7473 86.7797 84.4432 48.8284 128.088 24.1596C164.142 3.28595 193.555 -4.30491 215.378 2.33669C215.378 2.33669 215.377 2.33669 216.326 2.33669L219.173 3.28526C222.02 4.23406 223.917 5.18309 226.763 7.08069L292.23 41.2373L293.179 45.0327L292.23 46.9298L263.766 87.7287L245.739 96.2681C243.842 107.654 240.046 119.039 235.302 130.425C234.353 132.322 233.405 135.168 232.456 137.066L260.92 143.708L259.971 147.504L213.48 274.642L149.91 361.932ZM79.6994 323.98L142.32 357.188L205.89 270.848L250.483 149.401L221.07 141.81L222.968 138.016C224.866 134.22 226.763 130.424 227.712 127.578C232.456 116.192 235.303 104.807 238.149 93.4213V91.5241L240.046 90.5756L258.074 82.0361L282.742 46.9298L222.019 15.6201C220.122 13.7225 217.275 12.7735 215.378 11.8247L213.48 10.8761C193.555 4.23452 166.04 11.8245 131.883 31.7493C90.1362 56.4181 48.3888 92.4727 9.488 139.913L38.9011 189.25C45.5427 181.659 52.1841 174.07 58.8257 166.48L60.7234 164.581L73.0577 171.224L160.347 129.476L158.45 137.066C156.552 143.707 154.655 150.349 150.859 156.042C145.167 167.427 135.679 181.66 122.395 197.789C106.266 218.663 94.8802 237.639 89.1874 252.82C82.5458 268.001 79.6994 285.079 79.6994 303.106V323.98Z" fill="#15100C"/>
<path d="M143.265 361.932V338.212C143.265 320.185 146.111 303.106 152.753 286.977C159.394 270.847 170.78 251.871 186.909 230.997C200.192 213.919 208.732 200.636 214.425 189.25C220.118 178.813 222.964 168.377 222.964 157.94C222.964 150.35 220.117 145.606 213.476 144.657C207.783 143.708 199.244 145.605 189.756 151.298C166.036 165.53 137.572 191.148 105.313 230.049L72.1047 174.069C111.954 124.732 153.701 87.729 196.397 63.0602C232.452 42.1866 259.967 35.5443 280.841 42.1859C300.766 48.8275 311.202 67.8038 311.202 98.1654C311.202 120.937 306.458 142.759 297.919 163.633C288.431 185.455 274.199 209.175 254.274 234.793C237.195 256.615 226.759 272.745 222.964 280.336C219.168 288.875 216.322 296.465 216.322 305.004V319.236L143.265 361.932ZM132.828 456.812C132.828 439.734 137.572 424.553 146.111 410.321C154.65 396.089 166.985 384.703 184.063 374.266C200.193 364.778 212.527 362.881 221.066 366.676C232.451 372.369 236.247 390.396 232.452 419.809C223.912 446.375 207.783 467.249 184.063 480.532C167.933 490.02 155.599 491.917 147.06 488.122C137.572 484.327 132.828 473.891 132.828 456.812Z" fill="#36A9E1"/>
<path d="M155.602 493.816C151.807 493.816 148.011 492.866 145.165 491.917C134.728 487.173 129.036 475.788 129.036 456.812C129.036 438.785 133.779 422.656 142.318 408.424C150.858 394.192 164.141 380.908 181.22 371.42C198.298 360.983 211.581 359.085 222.018 363.829C235.301 370.471 240.045 389.447 235.301 419.809V420.757C226.762 448.272 209.684 469.146 185.964 483.378C173.629 490.968 163.192 493.816 155.602 493.816ZM210.632 368.573C203.991 368.573 195.451 371.42 185.014 377.113C168.885 386.601 156.551 397.986 148.96 411.269C140.421 424.552 136.626 439.734 136.626 455.864C136.626 471.044 140.421 480.532 148.012 484.328C155.602 488.123 166.987 485.276 182.168 476.737C204.939 463.453 220.12 444.478 228.66 418.86V417.912C232.455 391.345 229.608 375.215 219.172 369.522C216.325 369.522 213.479 368.573 210.632 368.573ZM143.268 365.728L139.472 363.829V361.932V338.212C139.472 319.236 142.319 302.158 148.96 285.08C155.602 268.95 166.987 249.974 183.117 228.152C195.451 211.073 204.939 197.79 210.632 187.353C216.325 176.916 219.172 167.428 219.172 157.94C219.172 150.35 216.325 149.401 213.478 148.452C208.734 147.503 201.144 149.4 192.605 155.093C168.885 168.376 140.421 194.944 109.11 232.896L108.162 234.793H104.366L103.418 232.896L69.2607 175.018L71.1585 173.121C111.008 123.783 153.704 85.8306 197.349 61.1619C233.403 40.2883 262.816 32.6985 284.638 39.3401C306.461 45.9817 317.846 66.8546 317.846 99.1138C317.846 121.885 313.102 144.657 303.614 166.48C294.126 188.302 279.895 212.971 259.97 238.588C243.84 260.411 232.455 275.591 228.66 284.13C224.864 291.72 222.966 299.311 222.966 306.901V323.032L221.069 323.98L143.268 365.728ZM211.581 140.861C212.53 140.861 214.427 140.861 215.376 140.861C220.12 141.81 227.71 144.657 227.71 157.94C227.71 168.377 224.864 179.763 219.172 190.2C213.479 201.585 203.991 215.816 190.708 231.946C174.578 252.819 163.192 271.796 157.5 286.977C150.858 302.158 148.012 319.236 148.012 337.264V354.341L214.428 316.389V304.056C214.428 295.516 216.325 286.976 221.069 278.437C225.813 269.898 236.25 254.717 253.328 231.946C273.253 206.328 287.485 182.609 296.024 161.736C304.563 140.862 309.308 119.039 309.308 97.2167C309.308 67.8039 299.819 50.7257 281.792 44.0841C262.816 38.3913 235.301 45.0325 201.144 64.9573C159.397 89.6261 117.65 125.681 78.7487 173.121L108.162 222.458C139.472 186.403 166.988 160.787 190.708 147.504C197.349 143.708 204.939 140.861 211.581 140.861Z" fill="#15100C"/>
<path d="M37.9521 194.944L105.317 230.998L72.1093 175.019L4.74414 138.965L37.9521 194.944Z" fill="#140F0C"/>
<path d="M106.266 234.793L103.419 233.845L35.1057 197.79L0 138.965L3.79543 134.221L74.9554 172.173L110.061 230.998L106.266 234.793ZM40.7983 192.097L95.8291 221.51L70.2114 177.865L15.1811 148.453L40.7983 192.097Z" fill="#15100C"/>
<path d="M75.9041 325.878L76.8532 274.642L92.9823 234.793L97.7263 228.152L105.317 230.049L143.269 189.25L185.965 154.145L206.838 146.554L218.224 148.453L223.917 163.633L210.634 193.994L157.501 271.797L142.32 325.878L143.269 361.933L75.9041 325.878Z" fill="#140F0C"/>
<path d="M84.4434 364.778L149.91 403.68L140.422 420.758L132.832 446.376L136.627 481.481L75.904 452.069L66.416 432.144L68.3137 396.089L84.4434 364.778Z" fill="#140F0C"/>
</svg>
