<svg width="60" height="35" viewBox="0 0 60 35" fill="none" xmlns="http://www.w3.org/2000/svg">
<path d="M2.57402 34.0573H0V25.3428H2.57402V34.0573ZM14.4347 34.0573H11.8354L7.09117 28.7269V34.0573H4.51715V25.3428H7.09117L11.8354 30.6732V25.3428H14.4347V34.0573ZM22.0558 27.2228H18.9266V28.7268H21.753V30.6069H18.9266V34.0573H16.3526V25.3428H22.0558V27.2228ZM25.9925 34.0573H23.4185V25.3428H25.9925V34.0573ZM37.8532 34.0573H35.254L30.5097 28.7269V34.0573H27.9104V25.3428H30.5097L35.254 30.6732V25.3428H37.8532V34.0573H37.8532ZM42.3451 34.0573H39.7711V25.3428H42.3451V34.0573ZM50.1681 27.2228H48.0231V34.0573H45.4239V27.2228H43.3293V25.3428H50.1681V27.2228ZM59.8081 25.3428L56.0732 29.877V34.0573H53.4992V29.877L49.8905 25.3428H52.9945L54.8619 27.7315L56.6789 25.3428H59.8081V25.3428Z" fill="#353535"/>
<path fill-rule="evenodd" clip-rule="evenodd" d="M45.8965 15.6807C46.2148 15.4978 46.5786 15.2921 46.8059 15.1093C46.1693 15.4064 45.6919 15.3835 45.2372 15.1321L19.0913 0.458489C18.0454 -0.0672021 17.1587 -0.250051 15.8628 0.504201L12.6116 2.5384C12.2706 2.7441 11.8841 2.94981 11.6567 3.1098C12.2933 2.81267 12.6571 2.78981 13.1346 3.04123L39.3259 17.7377C40.3263 18.3548 41.3267 18.3091 42.3498 17.8063L45.8965 15.6807Z" fill="url(#paint0_linear_194_15665)"/>
<path fill-rule="evenodd" clip-rule="evenodd" d="M42.465 0.664062V16.5948C42.465 17.1662 42.1012 18.0119 41.2827 18.1719C41.6465 18.1033 42.033 17.9661 42.465 17.7147C44.1019 16.7776 45.0113 16.2519 46.6483 15.292C47.2394 14.972 47.5123 14.4234 47.5123 13.852V4.66388C47.5123 3.52108 47.0121 3.26966 45.8298 2.60683L42.465 0.664062Z" fill="url(#paint1_linear_194_15665)"/>
<path fill-rule="evenodd" clip-rule="evenodd" d="M15.9106 17.7836V1.53292C15.9106 0.961515 16.2516 0.184407 17.0928 0.0244141C16.7291 0.0929824 16.3198 0.230119 15.9106 0.481537C14.2509 1.41864 13.5461 1.92147 11.9091 2.88143C11.3407 3.20142 10.8633 3.86424 10.8633 4.43565V13.7838C10.8633 14.9266 11.3635 15.178 12.5457 15.8409L15.9106 17.7836Z" fill="url(#paint2_linear_194_15665)"/>
<path fill-rule="evenodd" clip-rule="evenodd" d="M12.4309 15.7945C12.1353 15.6116 11.7716 15.4059 11.5215 15.2231C12.1808 15.5202 12.7719 15.4288 13.2494 15.1773L39.2589 0.57228C40.3047 0.0465893 41.3278 -0.113404 42.6237 0.640849L45.8749 2.60648C46.216 2.81218 46.5797 3.01789 46.8071 3.17788C46.1478 2.85789 45.5566 2.97217 45.0792 3.20074L19.0015 17.8744C18.0011 18.4686 17.0008 18.4458 16.0004 17.9201L12.4309 15.7945Z" fill="url(#paint3_linear_194_15665)"/>
<defs>
<linearGradient id="paint0_linear_194_15665" x1="15.668" y1="2.11144" x2="43.0759" y2="2.11144" gradientUnits="userSpaceOnUse">
<stop stop-color="#00589C"/>
<stop offset="0.129" stop-color="#007EC9"/>
<stop offset="0.851" stop-color="#007EC9"/>
<stop offset="1" stop-color="#00589C"/>
</linearGradient>
<linearGradient id="paint1_linear_194_15665" x1="45.1016" y1="3.99557" x2="39.865" y2="14.829" gradientUnits="userSpaceOnUse">
<stop stop-color="#0062A9"/>
<stop offset="0.22" stop-color="#2082C3"/>
<stop offset="1" stop-color="#40A2DE"/>
</linearGradient>
<linearGradient id="paint2_linear_194_15665" x1="13.84" y1="20.1538" x2="3.47828" y2="3.0183" gradientUnits="userSpaceOnUse">
<stop stop-color="#1E8CD6"/>
<stop offset="0.788" stop-color="#8EC5EA"/>
<stop offset="1" stop-color="white"/>
</linearGradient>
<linearGradient id="paint3_linear_194_15665" x1="29.1345" y1="23.3418" x2="42.0114" y2="-1.50335" gradientUnits="userSpaceOnUse">
<stop stop-color="#00589C"/>
<stop offset="0.141" stop-color="#138CD6"/>
<stop offset="0.82" stop-color="#40A2DE"/>
<stop offset="1" stop-color="white"/>
</linearGradient>
</defs>
</svg>
