<svg width="126" height="217" viewBox="0 0 126 217" fill="none" xmlns="http://www.w3.org/2000/svg">
<path d="M73.7206 216.444C75.5902 216.444 77.1056 215.602 77.1056 214.563C77.1056 213.525 75.5902 212.683 73.7206 212.683C71.8511 212.683 70.3354 213.525 70.3354 214.563C70.3354 215.602 71.8511 216.444 73.7206 216.444Z" fill="#15100C"/>
<path d="M88.7652 205.913C90.2697 206.665 90.2697 207.793 88.7652 208.545C87.2607 209.297 85.3799 209.297 83.8754 208.545C82.3709 207.793 82.3709 206.665 83.8754 205.913C85.3799 205.16 87.2607 205.16 88.7652 205.913Z" fill="#15100C"/>
<path d="M50.3997 213.059C51.9042 213.811 51.9042 214.939 50.3997 215.691C48.8952 216.444 47.0147 216.444 45.5102 215.691C44.0057 214.939 44.0057 213.811 45.5102 213.059C47.0147 212.307 49.2714 212.307 50.3997 213.059Z" fill="#15100C"/>
<path d="M60.9316 209.298C62.8011 209.298 64.3168 208.456 64.3168 207.417C64.3168 206.379 62.8011 205.537 60.9316 205.537C59.062 205.537 57.5464 206.379 57.5464 207.417C57.5464 208.456 59.062 209.298 60.9316 209.298Z" fill="#15100C"/>
<path d="M75.9769 198.39C77.4814 199.142 77.4814 200.271 75.9769 201.023C74.4724 201.775 72.5918 201.775 71.0873 201.023C69.5829 200.271 69.5829 199.142 71.0873 198.39C72.5918 197.638 74.8485 197.638 75.9769 198.39Z" fill="#15100C"/>
<path d="M88.7652 191.244C90.2697 191.996 90.2697 193.125 88.7652 193.877C87.2607 194.629 85.3799 194.629 83.8754 193.877C82.3709 193.125 82.3709 191.996 83.8754 191.244C85.3799 190.491 87.2607 190.491 88.7652 191.244Z" fill="#15100C"/>
<path d="M35.3559 208.922C37.2254 208.922 38.7408 208.08 38.7408 207.041C38.7408 206.002 37.2254 205.16 35.3559 205.16C33.4864 205.16 31.9707 206.002 31.9707 207.041C31.9707 208.08 33.4864 208.922 35.3559 208.922Z" fill="#15100C"/>
<path d="M50.3997 198.39C51.9042 199.142 51.9042 200.271 50.3997 201.023C48.8952 201.775 47.0147 201.775 45.5102 201.023C44.0057 200.271 44.0057 199.142 45.5102 198.39C47.0147 197.638 49.2714 197.638 50.3997 198.39Z" fill="#15100C"/>
<path d="M24.8243 198.39C26.3288 199.142 26.3288 200.271 24.8243 201.023C23.3198 201.775 21.439 201.775 19.9345 201.023C18.43 200.271 18.43 199.142 19.9345 198.39C21.439 197.638 23.6959 197.638 24.8243 198.39Z" fill="#15100C"/>
<path d="M37.6121 190.868C39.1166 191.62 39.1166 192.748 37.6121 193.5C36.1076 194.253 34.2271 194.253 32.7226 193.5C31.2181 192.748 31.2181 191.62 32.7226 190.868C34.2271 190.115 36.4838 190.115 37.6121 190.868Z" fill="#15100C"/>
<path d="M24.8243 183.721C26.3288 184.474 26.3288 185.602 24.8243 186.355C23.3198 187.107 21.439 187.107 19.9345 186.355C18.43 185.602 18.43 184.474 19.9345 183.721C21.439 182.969 23.6959 182.969 24.8243 183.721Z" fill="#15100C"/>
<path d="M60.5547 131.44C57.1696 129.56 52.2799 130.688 45.8858 134.45C39.1157 138.211 34.2261 143.101 30.841 148.742C27.4559 154.384 25.5752 160.402 25.5752 167.172C25.5752 173.942 27.4559 178.08 30.841 179.584L57.5455 193.877L78.2322 161.154L86.8832 145.733L60.5547 131.44Z" fill="#36A9E1"/>
<path d="M46.6385 143.101C39.8683 146.862 34.9787 151.751 31.5936 157.393C28.9608 161.53 27.4563 166.42 26.7041 171.31C27.4563 175.447 28.9608 178.456 31.5936 179.584L58.2982 193.877L78.9848 161.154L83.8744 152.88L60.9311 140.843C57.9221 138.587 53.0326 139.715 46.6385 143.101Z" fill="white"/>
<path d="M58.6749 195.381L57.5464 195.005L30.4658 180.713C26.3285 178.832 24.4478 174.318 24.4478 166.796C24.4478 159.65 26.3285 153.256 29.7135 147.614C33.0986 141.972 38.3642 136.706 45.1344 132.945C51.9046 128.808 57.1703 128.056 61.3076 129.936L89.5167 144.981L80.1137 161.53L58.6749 195.381ZM56.7943 132.193C54.1615 132.193 50.7763 133.321 46.639 135.578C40.2449 139.339 35.3554 143.853 32.3464 149.118C28.9613 154.384 27.4567 160.402 27.4567 166.796C27.4567 172.814 28.9612 176.575 31.9702 178.08L57.5464 191.62L77.481 160.026L85.3795 146.109L59.8033 132.569C59.051 132.193 57.9227 132.193 56.7943 132.193Z" fill="#15100C"/>
<path d="M95.5343 37.0344L103.057 33.2731L113.964 17.4762L88.3879 4.31197C87.6356 3.55973 86.5073 3.18351 85.379 2.80739L85.0029 2.43136C84.6268 2.43136 84.6268 2.05533 84.2506 2.05533C76.3521 -0.577517 65.0683 2.43127 50.7757 10.3298C33.4741 20.109 17.301 34.7775 1.50391 54.3358L14.6682 76.5271C17.6771 72.7659 20.686 69.381 23.6949 66.372L28.2084 68.6286L60.555 53.2078C60.1789 55.4645 59.0505 58.0974 57.9221 60.3542C55.6654 64.4915 51.9041 70.1329 47.0145 76.9031C40.6204 85.1778 36.1071 92.7003 33.4742 99.0944C30.8414 105.488 29.713 112.259 29.713 119.405V128.808L56.4175 143.101L82.37 107.745L100.424 57.721L89.1402 54.7123C89.8924 53.2079 90.6447 51.703 91.0208 50.5746C93.2775 46.0612 94.4059 41.5478 95.5343 37.0344Z" fill="#36A9E1"/>
<path d="M15.4205 76.9031C18.4294 73.1419 21.4383 69.757 24.4472 66.748L28.9607 69.0047L61.3071 53.5838L95.9103 37.0343L103.433 33.2731L110.579 22.742L90.2685 12.2104C89.5163 11.4582 88.3879 11.082 87.2596 10.7058L86.8835 10.3298C86.5074 10.3298 86.5074 9.95377 86.1313 9.95377C78.2327 7.32092 66.949 10.3297 52.6563 18.2283C36.107 27.6313 20.31 41.5477 5.26514 59.9777L15.4205 76.9031Z" fill="white"/>
<path d="M59.4271 143.476L56.0422 144.605L28.5854 129.936V129.184V119.781C28.5854 112.634 29.7137 105.488 32.3466 98.7179C34.9794 92.3238 39.4928 84.4253 45.8869 76.1506C50.7764 69.3804 54.5377 64.1145 56.7945 59.9772C57.5467 58.8488 57.9227 57.3443 58.2988 56.216L28.5854 70.5088L27.8331 70.1328L24.0719 68.2521C21.439 71.2611 18.43 74.2701 15.7971 77.6552L15.4211 78.4072H13.9165L13.5405 77.6552L0 54.7119L0.752289 53.9593C16.5494 34.401 33.4748 19.3564 50.7764 9.57728C65.069 1.30261 76.7288 -1.70654 85.3796 0.926307C85.3796 0.926307 85.3795 0.926307 85.7556 0.926307L86.8842 1.30234C88.0126 1.67846 88.7647 2.05467 89.8931 2.80691L115.845 16.3472L116.222 17.8518L115.845 18.6038L104.562 34.7772L97.4155 38.1624C96.6633 42.6759 95.1587 47.1892 93.2781 51.7027C92.9019 52.4549 92.5259 53.5831 92.1497 54.3354L103.433 56.9685L103.057 58.4731L84.6273 108.873L59.4271 143.476ZM31.5943 128.432L56.4182 141.596L81.6184 107.369L99.2962 59.2251L87.6362 56.216L88.3885 54.7119C89.1408 53.2074 89.893 51.7025 90.2691 50.5742C92.1497 46.0607 93.2783 41.5473 94.4066 37.0339V36.2818L95.1587 35.9058L102.305 32.5206L112.084 18.6038L88.0125 6.1921C87.2603 5.43986 86.1319 5.06364 85.3796 4.68752L84.6273 4.31149C76.7288 1.67864 65.8213 4.68743 52.281 12.586C35.7316 22.3651 19.1822 36.6578 3.76121 55.4639L15.4211 75.0221C18.054 72.0131 20.6867 69.0045 23.3196 65.9955L24.0719 65.243L28.9614 67.8761L63.5646 51.3267L62.8123 54.3354C62.0601 56.9682 61.3079 59.6011 59.8034 61.8578C57.5467 66.3713 53.7855 72.0132 48.5198 78.4072C42.1257 86.6819 37.6122 94.2045 35.3555 100.222C32.7227 106.24 31.5943 113.01 31.5943 120.157V128.432Z" fill="#15100C"/>
<path d="M56.7931 143.476V134.073C56.7931 126.927 57.9215 120.157 60.5543 113.763C63.1872 107.369 67.7005 99.8461 74.0946 91.5714C79.3603 84.8013 82.7455 79.5355 85.0022 75.022C87.2589 70.8847 88.3872 66.7476 88.3872 62.6103C88.3872 59.6013 87.2588 57.7206 84.6259 57.3445C82.3692 56.9684 78.9841 57.7204 75.2229 59.9771C65.8199 65.619 54.5364 75.7744 41.7482 91.1954L28.584 69.0042C44.3811 49.4458 60.9303 34.7773 77.8558 24.9981C92.1484 16.7235 103.056 14.0903 111.331 16.7232C119.229 19.356 123.366 26.8785 123.366 38.9144C123.366 47.9413 121.486 56.5922 118.101 64.8669C114.34 73.5177 108.698 82.9207 100.799 93.076C94.0289 101.727 89.8916 108.121 88.3872 111.13C86.8827 114.515 85.7543 117.524 85.7543 120.909V126.551L56.7931 143.476ZM52.6556 181.089C52.6556 174.318 54.5363 168.3 57.9214 162.658C61.3065 157.017 66.1961 152.503 72.9663 148.366C79.3603 144.604 84.2498 143.853 87.6349 145.357C92.1483 147.614 93.6529 154.76 92.1484 166.42C88.7633 176.951 82.3693 185.226 72.9663 190.492C66.5722 194.253 61.6825 195.005 58.2974 193.5C54.5362 191.996 52.6556 187.859 52.6556 181.089Z" fill="#36A9E1"/>
<path d="M61.6837 195.757C60.1792 195.757 58.6746 195.381 57.5463 195.005C53.4089 193.124 51.1524 188.611 51.1524 181.089C51.1524 173.942 53.0328 167.548 56.4179 161.906C59.803 156.265 65.0689 150.999 71.8391 147.238C78.6092 143.1 83.8749 142.348 88.0122 144.228C93.2779 146.861 95.1584 154.384 93.2778 166.42V166.796C89.8927 177.703 83.1227 185.978 73.7197 191.62C68.8301 194.629 64.6927 195.757 61.6837 195.757ZM83.4987 146.109C80.8659 146.109 77.4807 147.237 73.3434 149.494C66.9493 153.255 62.0598 157.769 59.0508 163.035C55.6657 168.3 54.1613 174.318 54.1613 180.712C54.1613 186.73 55.6658 190.492 58.6748 191.996C61.6838 193.501 66.1971 192.372 72.2151 188.987C81.242 183.721 87.26 176.199 90.6451 166.044V165.668C92.1496 155.136 91.0212 148.742 86.8839 146.485C85.7555 146.485 84.6271 146.109 83.4987 146.109ZM56.7942 144.981L55.2896 144.228V143.476V134.073C55.2896 126.551 56.418 119.781 59.0508 113.011C61.6837 106.617 66.197 99.0941 72.5911 90.4433C77.4807 83.6731 81.242 78.4073 83.4987 74.2699C85.7555 70.1326 86.8839 66.3715 86.8839 62.6103C86.8839 59.6013 85.7554 59.2252 84.627 58.849C82.7464 58.4729 79.7374 59.225 76.3523 61.4817C66.9493 66.7474 55.6657 77.2791 43.2537 92.3239L42.8777 93.076H41.3731L40.9971 92.3239L27.4565 69.3802L28.2088 68.6281C44.0059 49.0698 60.9314 34.0247 78.2329 24.2456C92.5256 15.9709 104.185 12.9622 112.836 15.5951C121.487 18.2279 126 26.5023 126 39.2904C126 48.3174 124.12 57.3446 120.359 65.9954C116.597 74.6462 110.956 84.4253 103.057 94.5806C96.663 103.231 92.1496 109.249 90.6451 112.634C89.1406 115.643 88.3883 118.652 88.3883 121.661V128.055L87.636 128.432L56.7942 144.981ZM83.8748 55.8399C84.2509 55.8399 85.0032 55.8399 85.3793 55.8399C87.2599 56.216 90.2689 57.3446 90.2689 62.6103C90.2689 66.7476 89.1406 71.2611 86.8839 75.3985C84.6272 79.9119 80.866 85.5534 75.6003 91.9474C69.2062 100.222 64.6927 107.745 62.436 113.763C59.8032 119.781 58.6748 126.551 58.6748 133.697V140.467L85.0033 125.422V120.533C85.0033 117.148 85.7554 113.763 87.636 110.377C89.5166 106.992 93.654 100.974 100.424 91.9474C108.323 81.7922 113.965 72.3895 117.35 64.1148C120.735 55.8402 122.615 47.1892 122.615 38.5384C122.615 26.8786 118.854 20.1085 111.708 17.4757C104.185 15.219 93.2779 17.8516 79.7375 25.7502C63.1882 35.5293 46.6387 49.822 31.2178 68.6281L42.8777 88.1862C55.2897 73.8936 66.1972 63.7387 75.6003 58.473C78.2331 56.9685 81.2419 55.8399 83.8748 55.8399Z" fill="#15100C"/>
<path d="M15.0451 77.2796L41.7499 91.572L28.5856 69.3807L1.88086 55.0884L15.0451 77.2796Z" fill="#140F0C"/>
<path d="M42.1256 93.0765L40.9973 92.7005L13.9165 78.4077L0 55.0884L1.50458 53.2078L29.7137 68.2526L43.6302 91.572L42.1256 93.0765ZM16.1732 76.1511L37.9884 87.8108L27.8331 70.5093L6.01808 58.8496L16.1732 76.1511Z" fill="#15100C"/>
<path d="M30.0898 129.184L30.4661 108.873L36.86 93.0762L38.7406 90.4435L41.7497 91.1955L56.7946 75.0221L73.7201 61.1058L81.9946 58.0967L86.5081 58.8492L88.7649 64.867L83.4991 76.9028L62.4364 107.745L56.4183 129.184L56.7946 143.477L30.0898 129.184Z" fill="#140F0C"/>
<path d="M33.4745 144.605L59.4268 160.026L55.6656 166.796L52.6566 176.952L54.1612 190.868L30.0893 179.208L26.3281 171.31L27.0804 157.017L33.4745 144.605Z" fill="#140F0C"/>
</svg>
