<svg width="254" height="235" viewBox="0 0 254 235" fill="none" xmlns="http://www.w3.org/2000/svg">
<path d="M184.922 226.477C184.269 226.804 184.269 227.458 184.922 227.784C185.576 228.111 186.556 228.111 187.209 227.784C187.863 227.458 187.863 226.804 187.209 226.477C186.556 226.151 185.576 226.151 184.922 226.477Z" fill="#16110D"/>
<path d="M178.714 222.884C178.061 223.21 178.061 223.864 178.714 224.191C179.368 224.517 180.348 224.517 181.001 224.191C181.655 223.864 181.655 223.21 181.001 222.884C180.348 222.557 179.368 222.557 178.714 222.884Z" fill="#16110D"/>
<path d="M172.507 219.29C171.853 219.617 171.853 220.27 172.507 220.597C173.16 220.923 174.14 220.923 174.794 220.597C175.447 220.27 175.447 219.617 174.794 219.29C174.14 218.963 173.16 218.963 172.507 219.29Z" fill="#16110D"/>
<path d="M168.587 215.695C167.933 215.369 166.952 215.369 166.299 215.695C165.645 216.022 165.645 216.675 166.299 217.002C166.952 217.329 167.933 217.329 168.587 217.002C169.24 216.675 169.24 216.022 168.587 215.695Z" fill="#16110D"/>
<path d="M162.378 212.101C161.725 211.775 160.745 211.775 160.091 212.101C159.438 212.428 159.438 213.082 160.091 213.408C160.745 213.735 161.725 213.735 162.378 213.408C163.032 213.082 163.032 212.428 162.378 212.101Z" fill="#16110D"/>
<path d="M156.497 208.508C155.844 208.181 154.864 208.181 154.21 208.508C153.557 208.834 153.557 209.488 154.21 209.815C154.864 210.141 155.844 210.141 156.497 209.815C157.151 209.488 157.151 208.834 156.497 208.508Z" fill="#16110D"/>
<path d="M150.29 204.914C149.637 204.587 148.657 204.587 148.003 204.914C147.35 205.241 147.35 205.894 148.003 206.221C148.657 206.548 149.637 206.548 150.29 206.221C150.944 205.894 150.944 205.241 150.29 204.914Z" fill="#16110D"/>
<path d="M141.469 201.32C140.815 201.647 140.815 202.3 141.469 202.627C142.122 202.954 143.102 202.954 143.755 202.627L141.469 201.32Z" fill="#16110D"/>
<path d="M135.261 197.726C134.607 198.053 134.607 198.706 135.261 199.033C135.914 199.36 136.895 199.36 137.548 199.033L135.261 197.726Z" fill="#16110D"/>
<path d="M129.053 194.132C128.4 194.459 128.4 195.112 129.053 195.439C129.707 195.766 130.687 195.766 131.34 195.439L129.053 194.132Z" fill="#16110D"/>
<path d="M125.459 190.538C124.805 190.211 123.825 190.211 123.172 190.538C122.518 190.865 122.518 191.518 123.172 191.845C123.825 192.172 124.805 192.172 125.459 191.845C126.112 191.845 126.112 191.191 125.459 190.538Z" fill="#16110D"/>
<path d="M191.13 222.884C190.476 223.21 190.476 223.864 191.13 224.191C191.783 224.517 192.763 224.517 193.417 224.191C194.07 223.864 194.07 223.21 193.417 222.884C192.763 222.557 191.783 222.557 191.13 222.884Z" fill="#16110D"/>
<path d="M186.229 220.923C185.327 220.923 184.596 220.484 184.596 219.943C184.596 219.402 185.327 218.963 186.229 218.963C187.131 218.963 187.863 219.402 187.863 219.943C187.863 220.484 187.131 220.923 186.229 220.923Z" fill="#16110D"/>
<path d="M178.714 215.695C178.061 216.022 178.061 216.675 178.714 217.002C179.368 217.329 180.348 217.329 181.001 217.002C181.655 216.675 181.655 216.022 181.001 215.695C180.348 215.369 179.368 215.369 178.714 215.695Z" fill="#16110D"/>
<path d="M209.752 226.477C209.099 226.804 209.099 227.458 209.752 227.784C210.406 228.111 211.386 228.111 212.039 227.784C212.693 227.458 212.693 226.804 212.039 226.477C211.386 226.151 210.406 226.151 209.752 226.477Z" fill="#16110D"/>
<path d="M203.545 222.884C202.892 223.21 202.892 223.864 203.545 224.191C204.199 224.517 205.179 224.517 205.832 224.191C206.486 223.864 206.486 223.21 205.832 222.884C205.179 222.557 204.199 222.557 203.545 222.884Z" fill="#16110D"/>
<path d="M197.337 219.29C196.684 219.617 196.684 220.27 197.337 220.597C197.99 220.923 198.971 220.923 199.625 220.597C200.278 220.27 200.278 219.617 199.625 219.29C198.971 218.963 197.99 218.963 197.337 219.29Z" fill="#16110D"/>
<path d="M192.437 217.329C191.535 217.329 190.803 216.891 190.803 216.349C190.803 215.808 191.535 215.369 192.437 215.369C193.339 215.369 194.07 215.808 194.07 216.349C194.07 216.891 193.339 217.329 192.437 217.329Z" fill="#16110D"/>
<path d="M184.922 213.408C185.576 213.735 186.556 213.735 187.209 213.408C187.863 213.082 187.863 212.428 187.209 212.102L184.922 213.408Z" fill="#16110D"/>
<path d="M222.168 226.477C221.514 226.804 221.514 227.458 222.168 227.784C222.821 228.111 223.801 228.111 224.455 227.784C225.108 227.458 225.108 226.804 224.455 226.477C223.801 226.151 222.821 226.151 222.168 226.477Z" fill="#16110D"/>
<path d="M215.961 222.884C215.307 223.21 215.307 223.864 215.961 224.191C216.614 224.517 217.594 224.517 218.248 224.191C218.901 223.864 218.901 223.21 218.248 222.884C217.594 222.557 216.614 222.557 215.961 222.884Z" fill="#16110D"/>
<path d="M210.733 220.923C209.831 220.923 209.1 220.484 209.1 219.943C209.1 219.402 209.831 218.963 210.733 218.963C211.635 218.963 212.367 219.402 212.367 219.943C212.367 220.484 211.635 220.923 210.733 220.923Z" fill="#16110D"/>
<path d="M204.526 217.329C203.623 217.329 202.892 216.891 202.892 216.349C202.892 215.808 203.623 215.369 204.526 215.369C205.428 215.369 206.159 215.808 206.159 216.349C206.159 216.891 205.428 217.329 204.526 217.329Z" fill="#16110D"/>
<path d="M197.337 212.101C196.684 212.428 196.684 213.082 197.337 213.408C197.99 213.735 198.971 213.735 199.625 213.408C200.278 213.082 200.278 212.428 199.625 212.101C198.971 211.775 197.99 211.775 197.337 212.101Z" fill="#16110D"/>
<path d="M191.13 209.815C191.783 210.141 192.763 210.141 193.417 209.815C194.07 209.488 194.07 208.834 193.417 208.508C192.763 208.181 191.783 208.181 191.13 208.508V209.815Z" fill="#16110D"/>
<path d="M228.375 222.884C227.722 223.21 227.722 223.864 228.375 224.191C229.029 224.517 230.009 224.517 230.663 224.191C231.316 223.864 231.316 223.21 230.663 222.884C230.009 222.557 229.029 222.557 228.375 222.884Z" fill="#16110D"/>
<path d="M222.168 219.29C221.514 219.617 221.514 220.27 222.168 220.597C222.821 220.923 223.801 220.923 224.455 220.597C225.108 220.27 225.108 219.617 224.455 219.29C223.801 218.963 222.821 218.963 222.168 219.29Z" fill="#16110D"/>
<path d="M215.961 215.695C215.307 216.022 215.307 216.675 215.961 217.002C216.614 217.329 217.594 217.329 218.248 217.002C218.901 216.675 218.901 216.022 218.248 215.695C217.594 215.369 216.614 215.369 215.961 215.695Z" fill="#16110D"/>
<path d="M212.039 212.101C211.386 211.775 210.406 211.775 209.752 212.101C209.099 212.428 209.099 213.082 209.752 213.408C210.406 213.735 211.386 213.735 212.039 213.408C212.693 213.082 212.693 212.428 212.039 212.101Z" fill="#16110D"/>
<path d="M205.832 208.508C205.179 208.181 204.199 208.181 203.545 208.508C202.892 208.834 202.892 209.488 203.545 209.815C204.199 210.141 205.179 210.141 205.832 209.815C206.486 209.488 206.486 208.834 205.832 208.508Z" fill="#16110D"/>
<path d="M197.337 204.914C196.684 205.241 196.684 205.894 197.337 206.221C197.99 206.548 198.971 206.548 199.625 206.221C200.278 205.894 200.278 205.241 199.625 204.914H197.337Z" fill="#16110D"/>
<path d="M234.583 219.29C233.93 219.617 233.93 220.27 234.583 220.597C235.237 220.923 236.217 220.923 236.87 220.597C237.524 220.27 237.524 219.617 236.87 219.29C236.217 218.963 235.237 218.963 234.583 219.29Z" fill="#16110D"/>
<path d="M229.356 217.329C228.454 217.329 227.723 216.891 227.723 216.349C227.723 215.808 228.454 215.369 229.356 215.369C230.258 215.369 230.99 215.808 230.99 216.349C230.99 216.891 230.258 217.329 229.356 217.329Z" fill="#16110D"/>
<path d="M222.168 213.408C222.821 213.735 223.801 213.735 224.455 213.408C225.108 213.082 225.108 212.428 224.455 212.102L222.168 213.408Z" fill="#16110D"/>
<path d="M240.791 215.695C240.137 216.022 240.137 216.675 240.791 217.002C241.444 217.329 242.424 217.329 243.078 217.002C243.731 216.675 243.731 216.022 243.078 215.695C242.424 215.369 241.444 215.369 240.791 215.695Z" fill="#16110D"/>
<path d="M234.583 212.101C233.93 212.428 233.93 213.082 234.583 213.408C235.237 213.735 236.217 213.735 236.87 213.408C237.524 213.082 237.524 212.428 236.87 212.101C236.217 211.775 235.237 211.775 234.583 212.101Z" fill="#16110D"/>
<path d="M228.375 209.815C229.029 210.141 230.009 210.141 230.663 209.815C231.316 209.488 231.316 208.835 230.663 208.508L228.375 209.815Z" fill="#16110D"/>
<path d="M246.999 212.101C246.345 212.428 246.345 213.082 246.999 213.408C247.652 213.735 248.632 213.735 249.286 213.408C249.939 213.082 249.939 212.428 249.286 212.101C248.632 211.775 247.652 211.775 246.999 212.101Z" fill="#16110D"/>
<path d="M240.791 208.508C240.137 208.834 240.137 209.488 240.791 209.815C241.444 210.141 242.424 210.141 243.078 209.815C243.731 209.488 243.731 208.834 243.078 208.508C242.424 208.181 241.444 208.181 240.791 208.508Z" fill="#16110D"/>
<path d="M234.583 206.221C235.237 206.548 236.217 206.548 236.87 206.221C237.524 205.894 237.524 205.241 236.87 204.914L234.583 206.221Z" fill="#16110D"/>
<path d="M247.979 206.548C247.077 206.548 246.345 206.109 246.345 205.568C246.345 205.026 247.077 204.587 247.979 204.587C248.881 204.587 249.612 205.026 249.612 205.568C249.612 206.109 248.881 206.548 247.979 206.548Z" fill="#16110D"/>
<path d="M159.764 233.012C159.111 233.338 159.111 233.992 159.764 234.319C160.418 234.645 161.398 234.645 162.052 234.319C162.705 233.992 162.705 233.338 162.052 233.012C161.725 232.685 160.418 232.685 159.764 233.012Z" fill="#16110D"/>
<path d="M154.864 231.051C153.962 231.051 153.23 230.612 153.23 230.071C153.23 229.53 153.962 229.091 154.864 229.091C155.766 229.091 156.498 229.53 156.498 230.071C156.498 230.612 155.766 231.051 154.864 231.051Z" fill="#16110D"/>
<path d="M147.676 225.824C147.023 226.151 147.023 226.804 147.676 227.131C148.33 227.458 149.31 227.458 149.963 227.131C150.616 226.804 150.616 226.151 149.963 225.824C149.31 225.497 148.33 225.497 147.676 225.824Z" fill="#16110D"/>
<path d="M141.468 222.23C140.815 222.557 140.815 223.21 141.468 223.537C142.122 223.864 143.102 223.864 143.755 223.537C144.408 223.21 144.408 222.557 143.755 222.23C143.102 221.903 142.122 221.903 141.468 222.23Z" fill="#16110D"/>
<path d="M135.26 219.943C135.914 220.27 136.895 220.27 137.548 219.943C138.201 219.616 138.201 218.963 137.548 218.636C136.895 218.309 135.914 218.309 135.26 218.636C134.607 218.963 134.607 219.616 135.26 219.943Z" fill="#16110D"/>
<path d="M129.053 215.042C128.4 215.369 128.4 216.022 129.053 216.349C129.707 216.676 130.687 216.676 131.34 216.349C131.993 216.022 131.993 215.369 131.34 215.042C130.687 214.715 129.707 214.715 129.053 215.042Z" fill="#16110D"/>
<path d="M122.846 211.448C122.192 211.775 122.192 212.428 122.846 212.755C123.499 213.082 124.479 213.082 125.132 212.755C125.786 212.428 125.786 211.775 125.132 211.448C124.479 211.121 123.499 211.121 122.846 211.448Z" fill="#16110D"/>
<path d="M116.638 207.854C115.984 208.181 115.984 208.834 116.638 209.161C117.291 209.488 118.271 209.488 118.924 209.161C119.578 208.834 119.578 208.181 118.924 207.854C118.271 207.528 117.291 207.528 116.638 207.854Z" fill="#16110D"/>
<path d="M110.43 204.261C109.777 204.587 109.777 205.241 110.43 205.568C111.084 205.894 112.064 205.894 112.717 205.568C113.37 205.241 113.37 204.587 112.717 204.261C112.064 203.934 111.084 203.934 110.43 204.261Z" fill="#16110D"/>
<path d="M105.53 202.627C104.628 202.627 103.896 202.188 103.896 201.647C103.896 201.106 104.628 200.667 105.53 200.667C106.432 200.667 107.164 201.106 107.164 201.647C107.164 202.188 106.432 202.627 105.53 202.627Z" fill="#16110D"/>
<path d="M172.18 233.012C171.526 233.338 171.526 233.992 172.18 234.319C172.833 234.645 173.813 234.645 174.466 234.319C175.12 233.992 175.12 233.338 174.466 233.012C174.14 232.685 172.833 232.685 172.18 233.012Z" fill="#16110D"/>
<path d="M165.973 229.418C165.319 229.745 165.319 230.398 165.973 230.725C166.626 231.052 167.606 231.052 168.259 230.725C168.913 230.398 168.913 229.745 168.259 229.418C167.606 229.091 166.626 229.091 165.973 229.418Z" fill="#16110D"/>
<path d="M159.764 225.824C159.111 226.151 159.111 226.804 159.764 227.131C160.418 227.458 161.398 227.458 162.052 227.131C162.705 226.804 162.705 226.151 162.052 225.824C161.725 225.497 160.418 225.497 159.764 225.824Z" fill="#16110D"/>
<path d="M153.884 222.23C153.231 222.557 153.231 223.21 153.884 223.537C154.538 223.864 155.518 223.864 156.171 223.537C156.824 223.21 156.824 222.557 156.171 222.23C155.518 221.903 154.538 221.903 153.884 222.23Z" fill="#16110D"/>
<path d="M147.676 218.636C147.023 218.963 147.023 219.616 147.676 219.943C148.33 220.27 149.31 220.27 149.963 219.943C150.616 219.616 150.616 218.963 149.963 218.636C149.31 218.309 148.33 218.309 147.676 218.636Z" fill="#16110D"/>
<path d="M141.468 215.042C140.815 215.369 140.815 216.022 141.468 216.349C142.122 216.676 143.102 216.676 143.755 216.349C144.408 216.022 144.408 215.369 143.755 215.042C143.102 214.715 142.122 214.715 141.468 215.042Z" fill="#16110D"/>
<path d="M135.26 211.448C134.607 211.775 134.607 212.428 135.26 212.755C135.914 213.082 136.895 213.082 137.548 212.755C138.201 212.428 138.201 211.775 137.548 211.448C136.895 211.121 135.914 211.121 135.26 211.448Z" fill="#16110D"/>
<path d="M129.053 207.854C128.4 208.181 128.4 208.834 129.053 209.161C129.707 209.488 130.687 209.488 131.34 209.161C131.993 208.834 131.993 208.181 131.34 207.854C130.687 207.528 129.707 207.528 129.053 207.854Z" fill="#16110D"/>
<path d="M122.846 204.261C122.192 204.587 122.192 205.241 122.846 205.568C123.499 205.894 124.479 205.894 125.132 205.568C125.786 205.241 125.786 204.587 125.132 204.261C124.479 203.934 123.499 203.934 122.846 204.261Z" fill="#16110D"/>
<path d="M116.638 200.993C115.984 201.32 115.984 201.973 116.638 202.3C117.291 202.627 118.271 202.627 118.924 202.3C119.578 201.973 119.578 201.32 118.924 200.993C118.271 200.34 117.291 200.34 116.638 200.993Z" fill="#16110D"/>
<path d="M110.43 197.399C109.777 197.726 109.777 198.379 110.43 198.706C111.084 199.033 112.064 199.033 112.717 198.706C113.37 198.379 113.37 197.726 112.717 197.399C112.064 196.746 111.084 196.746 110.43 197.399Z" fill="#16110D"/>
<path d="M178.388 229.418C177.735 229.745 177.735 230.398 178.388 230.725C179.042 231.052 180.022 231.052 180.675 230.725C181.328 230.398 181.328 229.745 180.675 229.418C180.348 229.091 179.042 229.091 178.388 229.418Z" fill="#16110D"/>
<path d="M172.18 225.824C171.526 226.151 171.526 226.804 172.18 227.131C172.833 227.458 173.813 227.458 174.466 227.131C175.12 226.804 175.12 226.151 174.466 225.824C174.14 225.497 172.833 225.497 172.18 225.824Z" fill="#16110D"/>
<path d="M165.973 222.23C165.319 222.557 165.319 223.21 165.973 223.537C166.626 223.864 167.606 223.864 168.259 223.537C168.913 223.21 168.913 222.557 168.259 222.23C167.933 221.903 166.626 221.903 165.973 222.23Z" fill="#16110D"/>
<path d="M161.072 220.27C160.17 220.27 159.438 219.831 159.438 219.29C159.438 218.749 160.17 218.31 161.072 218.31C161.974 218.31 162.706 218.749 162.706 219.29C162.706 219.831 161.974 220.27 161.072 220.27Z" fill="#16110D"/>
<path d="M153.884 215.042C153.231 215.369 153.231 216.022 153.884 216.349C154.538 216.676 155.518 216.676 156.171 216.349C156.824 216.022 156.824 215.369 156.171 215.042C155.518 214.715 154.538 214.715 153.884 215.042Z" fill="#16110D"/>
<path d="M147.676 211.448C147.023 211.775 147.023 212.428 147.676 212.755C148.33 213.082 149.31 213.082 149.963 212.755C150.616 212.428 150.616 211.775 149.963 211.448C149.31 211.121 148.33 211.121 147.676 211.448Z" fill="#16110D"/>
<path d="M141.468 207.854C140.815 208.181 140.815 208.834 141.468 209.161C142.122 209.488 143.102 209.488 143.755 209.161C144.408 208.834 144.408 208.181 143.755 207.854C143.102 207.528 142.122 207.528 141.468 207.854Z" fill="#16110D"/>
<path d="M135.26 204.261C134.607 204.587 134.607 205.241 135.26 205.568C135.914 205.894 136.895 205.894 137.548 205.568C138.201 205.241 138.201 204.587 137.548 204.261C136.895 203.934 135.914 203.934 135.26 204.261Z" fill="#16110D"/>
<path d="M130.034 202.627C129.132 202.627 128.4 202.188 128.4 201.647C128.4 201.106 129.132 200.667 130.034 200.667C130.936 200.667 131.667 201.106 131.667 201.647C131.667 202.188 130.936 202.627 130.034 202.627Z" fill="#16110D"/>
<path d="M122.846 197.399C122.192 197.726 122.192 198.379 122.846 198.706C123.499 199.033 124.479 199.033 125.132 198.706C125.786 198.379 125.786 197.726 125.132 197.399C124.479 196.746 123.499 196.746 122.846 197.399Z" fill="#16110D"/>
<path d="M116.638 193.806C115.984 194.132 115.984 194.786 116.638 195.113C117.291 195.439 118.271 195.439 118.924 195.113C119.578 194.786 119.578 194.132 118.924 193.806C118.271 193.479 117.291 193.479 116.638 193.806Z" fill="#16110D"/>
<path d="M119.252 186.944C118.598 186.618 117.618 186.618 116.965 186.944C116.311 187.271 116.311 187.924 116.965 188.251C117.618 188.578 118.598 188.578 119.252 188.251C119.905 188.251 119.905 187.598 119.252 186.944Z" fill="#16110D"/>
<path d="M113.044 183.677C112.391 183.35 111.41 183.35 110.756 183.677C110.103 184.004 110.103 184.657 110.756 184.984C111.41 185.311 112.391 185.311 113.044 184.984C113.698 184.657 113.698 184.004 113.044 183.677Z" fill="#16110D"/>
<path d="M106.836 180.083C106.183 179.757 105.203 179.757 104.549 180.083C103.896 180.41 103.896 181.063 104.549 181.39C105.203 181.717 106.183 181.717 106.836 181.39C107.49 181.063 107.49 180.41 106.836 180.083Z" fill="#16110D"/>
<path d="M100.629 176.489C99.9751 176.162 98.9951 176.162 98.3417 176.489C97.6883 176.816 97.6883 177.469 98.3417 177.796C98.9951 178.123 99.9751 178.123 100.629 177.796C101.282 177.469 101.282 176.816 100.629 176.489Z" fill="#16110D"/>
<path d="M94.4206 172.895C93.7671 172.569 92.7871 172.569 92.1337 172.895C91.4803 173.222 91.4803 173.875 92.1337 174.202C92.7871 174.529 93.7671 174.529 94.4206 174.202C95.074 173.875 95.074 173.222 94.4206 172.895Z" fill="#16110D"/>
<path d="M85.9262 169.302C85.2727 169.628 85.2727 170.282 85.9262 170.609C86.5796 170.935 87.5596 170.935 88.213 170.609C88.8665 170.282 88.8665 169.628 88.213 169.302C87.5596 168.975 86.5796 168.975 85.9262 169.302Z" fill="#16110D"/>
<path d="M79.7183 165.708C79.0649 166.035 79.0649 166.688 79.7183 167.015C80.3718 167.342 81.3526 167.342 82.006 167.015C82.6595 166.688 82.6595 166.035 82.006 165.708C81.3526 165.381 80.3718 165.381 79.7183 165.708Z" fill="#16110D"/>
<path d="M73.5111 162.114C72.8577 162.441 72.8577 163.094 73.5111 163.421C74.1646 163.748 75.1446 163.748 75.798 163.421C76.4514 163.094 76.4514 162.441 75.798 162.114C75.1446 161.787 74.1646 161.787 73.5111 162.114Z" fill="#16110D"/>
<path d="M67.3036 158.52C66.6502 158.847 66.6502 159.5 67.3036 159.827C67.9571 160.154 68.9371 160.154 69.5905 159.827C70.2439 159.5 70.2439 158.847 69.5905 158.52C68.9371 158.193 67.9571 158.193 67.3036 158.52Z" fill="#16110D"/>
<path d="M61.0956 154.926C60.4422 155.253 60.4422 155.906 61.0956 156.233C61.749 156.56 62.729 156.56 63.3825 156.233C64.0359 155.906 64.0359 155.253 63.3825 154.926C62.729 154.599 61.749 154.599 61.0956 154.926Z" fill="#16110D"/>
<path d="M57.175 151.332C56.5215 151.005 55.5415 151.005 54.8881 151.332C54.2347 151.659 54.2347 152.312 54.8881 152.639C55.5415 152.966 56.5215 152.966 57.175 152.639C57.8284 152.312 57.8284 151.659 57.175 151.332Z" fill="#16110D"/>
<path d="M50.9679 147.738C50.3145 147.411 49.3337 147.411 48.6803 147.738C48.0268 148.065 48.0268 148.718 48.6803 149.045C49.3337 149.372 50.3145 149.372 50.9679 149.045C51.6214 148.718 51.6214 148.065 50.9679 147.738Z" fill="#16110D"/>
<path d="M44.7594 144.144C44.106 143.818 43.126 143.818 42.4726 144.144C41.8191 144.471 41.8191 145.124 42.4726 145.451C43.126 145.778 44.106 145.778 44.7594 145.451C45.4129 145.124 45.4129 144.471 44.7594 144.144Z" fill="#16110D"/>
<path d="M36.2655 140.55C35.6121 140.877 35.6121 141.53 36.2655 141.857C36.919 142.184 37.899 142.184 38.5524 141.857C39.2058 141.53 39.2058 140.877 38.5524 140.55C38.2257 140.223 36.919 140.223 36.2655 140.55Z" fill="#16110D"/>
<path d="M30.057 136.956C29.4036 137.283 29.4036 137.937 30.057 138.263C30.7105 138.59 31.6905 138.59 32.3439 138.263C32.9973 137.937 32.9973 137.283 32.3439 136.956C32.0172 136.63 30.7105 136.63 30.057 136.956Z" fill="#16110D"/>
<path d="M99.322 199.033C98.4198 199.033 97.6884 198.594 97.6884 198.053C97.6884 197.512 98.4198 197.073 99.322 197.073C100.224 197.073 100.956 197.512 100.956 198.053C100.956 198.594 100.224 199.033 99.322 199.033Z" fill="#16110D"/>
<path d="M91.8075 193.806C91.1541 194.132 91.1541 194.786 91.8075 195.112C92.461 195.439 93.441 195.439 94.0944 195.112C94.7478 194.786 94.7478 194.132 94.0944 193.806C93.441 193.152 92.461 193.152 91.8075 193.806Z" fill="#16110D"/>
<path d="M85.5995 190.212C84.9461 190.539 84.9461 191.192 85.5995 191.519C86.253 191.846 87.2329 191.846 87.8864 191.519C88.5398 191.192 88.5398 190.539 87.8864 190.212C87.2329 189.885 86.253 189.885 85.5995 190.212Z" fill="#16110D"/>
<path d="M79.3925 186.618C78.739 186.945 78.739 187.598 79.3925 187.925C80.0459 188.252 81.0259 188.252 81.6794 187.925C82.3328 187.598 82.3328 186.945 81.6794 186.618C81.0259 186.291 80.0459 186.291 79.3925 186.618Z" fill="#16110D"/>
<path d="M73.1837 183.024C72.5302 183.351 72.5302 184.004 73.1837 184.331C73.8371 184.658 74.8179 184.658 75.4713 184.331C76.1248 184.004 76.1248 183.351 75.4713 183.024C74.8179 182.697 73.8371 182.697 73.1837 183.024Z" fill="#16110D"/>
<path d="M68.2834 181.064C67.3812 181.064 66.6498 180.625 66.6498 180.084C66.6498 179.543 67.3812 179.104 68.2834 179.104C69.1856 179.104 69.917 179.543 69.917 180.084C69.917 180.625 69.1856 181.064 68.2834 181.064Z" fill="#16110D"/>
<path d="M60.7694 175.836C60.116 176.163 60.116 176.816 60.7694 177.143C61.4229 177.47 62.4029 177.47 63.0563 177.143C63.7097 176.816 63.7097 176.163 63.0563 175.836C62.7296 175.509 61.4229 175.509 60.7694 175.836Z" fill="#16110D"/>
<path d="M54.5609 172.242C53.9075 172.569 53.9075 173.222 54.5609 173.549C55.2144 173.876 56.1944 173.876 56.8478 173.549C57.5012 173.222 57.5012 172.569 56.8478 172.242C56.5211 171.915 55.2144 171.915 54.5609 172.242Z" fill="#16110D"/>
<path d="M48.3534 168.648C47.7 168.975 47.7 169.628 48.3534 169.955C49.0069 170.282 49.9869 170.282 50.6403 169.955C51.2937 169.628 51.2937 168.975 50.6403 168.648C50.3136 168.322 49.0069 168.322 48.3534 168.648Z" fill="#16110D"/>
<path d="M42.1456 165.055C41.4922 165.381 41.4922 166.035 42.1456 166.362C42.799 166.688 43.7798 166.688 44.4333 166.362C45.0867 166.035 45.0867 165.381 44.4333 165.055C44.1065 164.728 42.799 164.728 42.1456 165.055Z" fill="#16110D"/>
<path d="M36.2655 161.46C35.6121 161.787 35.6121 162.44 36.2655 162.767C36.919 163.094 37.899 163.094 38.5524 162.767C39.2058 162.44 39.2058 161.787 38.5524 161.46C37.899 161.134 36.919 161.134 36.2655 161.46Z" fill="#16110D"/>
<path d="M31.0383 159.5C30.1361 159.5 29.4047 159.061 29.4047 158.52C29.4047 157.979 30.1361 157.54 31.0383 157.54C31.9405 157.54 32.6719 157.979 32.6719 158.52C32.6719 159.061 31.9405 159.5 31.0383 159.5Z" fill="#16110D"/>
<path d="M23.85 154.272C23.1966 154.599 23.1966 155.253 23.85 155.579C24.5034 155.906 25.4834 155.906 26.1369 155.579C26.7903 155.253 26.7903 154.599 26.1369 154.272C25.4834 153.946 24.5034 153.946 23.85 154.272Z" fill="#16110D"/>
<path d="M17.6417 150.679C16.9883 151.005 16.9883 151.659 17.6417 151.985C18.2951 152.312 19.2759 152.312 19.9294 151.985C20.5828 151.659 20.5828 151.005 19.9294 150.679C19.2759 150.352 18.2951 150.352 17.6417 150.679Z" fill="#16110D"/>
<path d="M104.222 193.806C103.569 194.132 103.569 194.786 104.222 195.112C104.876 195.439 105.856 195.439 106.51 195.112C107.163 194.786 107.163 194.132 106.51 193.806C105.856 193.152 104.876 193.152 104.222 193.806Z" fill="#16110D"/>
<path d="M98.015 190.212C97.3616 190.539 97.3616 191.192 98.015 191.519C98.6685 191.846 99.6485 191.846 100.302 191.519C100.955 191.192 100.955 190.539 100.302 190.212C99.6485 189.885 98.6685 189.885 98.015 190.212Z" fill="#16110D"/>
<path d="M91.8075 186.618C91.1541 186.945 91.1541 187.598 91.8075 187.925C92.461 188.252 93.441 188.252 94.0944 187.925C94.7478 187.598 94.7478 186.945 94.0944 186.618C93.441 186.291 92.461 186.291 91.8075 186.618Z" fill="#16110D"/>
<path d="M86.9069 184.657C86.0047 184.657 85.2733 184.219 85.2733 183.677C85.2733 183.136 86.0047 182.697 86.9069 182.697C87.8091 182.697 88.5405 183.136 88.5405 183.677C88.5405 184.219 87.8091 184.657 86.9069 184.657Z" fill="#16110D"/>
<path d="M79.3925 179.43C78.739 179.757 78.739 180.41 79.3925 180.737C80.0459 181.064 81.0259 181.064 81.6794 180.737C82.3328 180.41 82.3328 179.757 81.6794 179.43C81.0259 179.103 80.0459 179.103 79.3925 179.43Z" fill="#16110D"/>
<path d="M74.4919 177.47C73.5897 177.47 72.8583 177.031 72.8583 176.489C72.8583 175.948 73.5897 175.509 74.4919 175.509C75.3941 175.509 76.1255 175.948 76.1255 176.489C76.1255 177.031 75.3941 177.47 74.4919 177.47Z" fill="#16110D"/>
<path d="M66.9765 172.242C66.323 172.569 66.323 173.222 66.9765 173.549C67.6299 173.876 68.6099 173.876 69.2633 173.549C69.9168 173.222 69.9168 172.569 69.2633 172.242C68.9366 171.915 67.6299 171.915 66.9765 172.242Z" fill="#16110D"/>
<path d="M60.7694 168.648C60.116 168.975 60.116 169.628 60.7694 169.955C61.4229 170.282 62.4029 170.282 63.0563 169.955C63.7097 169.628 63.7097 168.975 63.0563 168.648C62.7296 168.322 61.4229 168.322 60.7694 168.648Z" fill="#16110D"/>
<path d="M54.5609 165.055C53.9075 165.381 53.9075 166.035 54.5609 166.362C55.2144 166.688 56.1944 166.688 56.8478 166.362C57.5012 166.035 57.5012 165.381 56.8478 165.055C56.5211 164.728 55.2144 164.728 54.5609 165.055Z" fill="#16110D"/>
<path d="M48.3534 161.46C47.7 161.787 47.7 162.44 48.3534 162.767C49.0069 163.094 49.9869 163.094 50.6403 162.767C51.2937 162.44 51.2937 161.787 50.6403 161.46C50.3136 161.134 49.0069 161.134 48.3534 161.46Z" fill="#16110D"/>
<path d="M42.1456 157.866C41.4922 158.193 41.4922 158.846 42.1456 159.173C42.799 159.5 43.7798 159.5 44.4333 159.173C45.0867 158.846 45.0867 158.193 44.4333 157.866C44.1065 157.539 42.799 157.539 42.1456 157.866Z" fill="#16110D"/>
<path d="M36.2655 154.272C35.6121 154.599 35.6121 155.253 36.2655 155.579C36.919 155.906 37.899 155.906 38.5524 155.579C39.2058 155.253 39.2058 154.599 38.5524 154.272C37.899 153.946 36.919 153.946 36.2655 154.272Z" fill="#16110D"/>
<path d="M31.0383 152.312C30.1361 152.312 29.4047 151.873 29.4047 151.332C29.4047 150.791 30.1361 150.352 31.0383 150.352C31.9405 150.352 32.6719 150.791 32.6719 151.332C32.6719 151.873 31.9405 152.312 31.0383 152.312Z" fill="#16110D"/>
<path d="M23.85 147.085C23.1966 147.412 23.1966 148.065 23.85 148.392C24.5034 148.719 25.4834 148.719 26.1369 148.392C26.7903 148.065 26.7903 147.412 26.1369 147.085C25.4834 146.758 24.5034 146.758 23.85 147.085Z" fill="#16110D"/>
<path d="M17.6417 143.491C16.9883 143.818 16.9883 144.471 17.6417 144.798C18.2951 145.125 19.2759 145.125 19.9294 144.798C20.5828 144.471 20.5828 143.818 19.9294 143.491C19.2759 143.164 18.2951 143.164 17.6417 143.491Z" fill="#16110D"/>
<path d="M110.43 190.212C109.777 190.539 109.777 191.192 110.43 191.519C111.084 191.846 112.064 191.846 112.717 191.519C113.37 191.192 113.37 190.539 112.717 190.212C112.064 189.885 111.084 189.885 110.43 190.212Z" fill="#16110D"/>
<path d="M104.222 186.618C103.569 186.945 103.569 187.598 104.222 187.925C104.876 188.252 105.856 188.252 106.51 187.925C107.163 187.598 107.163 186.945 106.51 186.618C105.856 186.291 104.876 186.291 104.222 186.618Z" fill="#16110D"/>
<path d="M98.015 183.024C97.3616 183.351 97.3616 184.004 98.015 184.331C98.6685 184.658 99.6485 184.658 100.302 184.331C100.955 184.004 100.955 183.351 100.302 183.024C99.6485 182.697 98.6685 182.697 98.015 183.024Z" fill="#16110D"/>
<path d="M91.8075 179.43C91.1541 179.757 91.1541 180.41 91.8075 180.737C92.461 181.064 93.441 181.064 94.0944 180.737C94.7478 180.41 94.7478 179.757 94.0944 179.43C93.441 179.103 92.461 179.103 91.8075 179.43Z" fill="#16110D"/>
<path d="M86.9069 177.47C86.0047 177.47 85.2733 177.031 85.2733 176.489C85.2733 175.948 86.0047 175.509 86.9069 175.509C87.8091 175.509 88.5405 175.948 88.5405 176.489C88.5405 177.031 87.8091 177.47 86.9069 177.47Z" fill="#16110D"/>
<path d="M79.3925 172.242C78.739 172.569 78.739 173.222 79.3925 173.549C80.0459 173.876 81.0259 173.876 81.6794 173.549C82.3328 173.222 82.3328 172.569 81.6794 172.242C81.0259 171.915 80.0459 171.915 79.3925 172.242Z" fill="#16110D"/>
<path d="M74.4919 170.282C73.5897 170.282 72.8583 169.843 72.8583 169.301C72.8583 168.76 73.5897 168.321 74.4919 168.321C75.3941 168.321 76.1255 168.76 76.1255 169.301C76.1255 169.843 75.3941 170.282 74.4919 170.282Z" fill="#16110D"/>
<path d="M68.2834 166.688C67.3812 166.688 66.6498 166.249 66.6498 165.708C66.6498 165.166 67.3812 164.728 68.2834 164.728C69.1856 164.728 69.917 165.166 69.917 165.708C69.917 166.249 69.1856 166.688 68.2834 166.688Z" fill="#16110D"/>
<path d="M60.7694 161.46C60.116 161.787 60.116 162.44 60.7694 162.767C61.4229 163.094 62.4029 163.094 63.0563 162.767C63.7097 162.44 63.7097 161.787 63.0563 161.46C62.7296 161.134 61.4229 161.134 60.7694 161.46Z" fill="#16110D"/>
<path d="M54.5609 157.866C53.9075 158.193 53.9075 158.846 54.5609 159.173C55.2144 159.5 56.1944 159.5 56.8478 159.173C57.5012 158.846 57.5012 158.193 56.8478 157.866C56.5211 157.539 55.2144 157.539 54.5609 157.866Z" fill="#16110D"/>
<path d="M48.3534 154.272C47.7 154.599 47.7 155.253 48.3534 155.579C49.0069 155.906 49.9869 155.906 50.6403 155.579C51.2937 155.253 51.2937 154.599 50.6403 154.272C50.3136 153.946 49.0069 153.946 48.3534 154.272Z" fill="#16110D"/>
<path d="M42.1456 150.679C41.4922 151.005 41.4922 151.659 42.1456 151.985C42.799 152.312 43.7798 152.312 44.4333 151.985C45.0867 151.659 45.0867 151.005 44.4333 150.679C44.1065 150.352 42.799 150.352 42.1456 150.679Z" fill="#16110D"/>
<path d="M36.2655 147.085C35.6121 147.412 35.6121 148.065 36.2655 148.392C36.919 148.719 37.899 148.719 38.5524 148.392C39.2058 148.065 39.2058 147.412 38.5524 147.085C37.899 146.758 36.919 146.758 36.2655 147.085Z" fill="#16110D"/>
<path d="M30.057 143.491C29.4036 143.818 29.4036 144.471 30.057 144.798C30.7105 145.125 31.6905 145.125 32.3439 144.798C32.9973 144.471 32.9973 143.818 32.3439 143.491C31.6905 143.164 30.7105 143.164 30.057 143.491Z" fill="#16110D"/>
<path d="M23.85 140.224C23.1966 140.551 23.1966 141.204 23.85 141.531C24.5034 141.857 25.4834 141.857 26.1369 141.531C26.7903 141.204 26.7903 140.551 26.1369 140.224C25.4834 139.897 24.5034 139.571 23.85 140.224Z" fill="#16110D"/>
<path d="M9.80082 36.0003C5.22676 32.4063 1.63317 32.0797 0.326298 32.4064L44.7595 6.92242C44.7595 6.92242 49.0074 6.2689 54.2349 10.5162L9.80082 36.0003Z" fill="white"/>
<path d="M61.4228 19.6641C64.3632 25.545 66.3237 33.3862 67.3038 41.8809C68.9374 55.9298 85.5996 65.7315 85.5996 65.7315L40.8393 91.2155C40.8393 91.2155 24.5031 81.7407 22.5428 67.3651C21.5626 58.8704 19.6029 51.3558 16.6625 45.4749L61.4228 19.6641Z" fill="white"/>
<path d="M43.1266 85.3349L88.8672 59.1974L87.8869 58.8706C87.8869 58.8706 71.5509 49.3958 69.9173 35.6737C68.2838 21.298 64.0369 10.5163 58.156 4.96204C51.9483 -0.918896 46.7208 0.0612597 46.7208 0.0612597H46.3938L-0.000114441 26.8522H2.28675C3.59363 26.8522 7.51457 26.8522 12.4154 31.753C17.9696 36.9805 21.8902 47.7623 23.8505 61.8111C26.1375 75.2066 42.1464 84.6815 43.1266 85.3349ZM86.5803 59.1974L42.8003 84.028C40.84 82.7211 26.7906 73.5731 25.1571 60.831C23.5235 46.4554 19.2766 35.6736 13.3957 30.1194C9.80176 26.5255 6.2077 25.5454 4.24738 25.2186L47.047 0.714737C47.7005 0.714737 52.2752 0.388098 57.5027 5.28888C63.0569 10.5164 66.9775 21.2979 68.9378 35.3468C70.5714 48.0889 83.3131 56.9104 86.5803 59.1974Z" fill="#16110D"/>
<path d="M32.9986 99.0572L99.6489 60.5044C99.6489 60.5044 99.6492 60.5044 99.9759 60.5044C101.61 59.5243 103.896 59.8511 106.183 61.8114L233.604 155.58C236.217 157.54 238.504 160.48 240.138 164.074L242.752 178.123C243.732 180.41 243.405 182.044 242.099 182.37L176.101 220.597L32.9986 99.0572Z" fill="#36A9E1"/>
<path d="M233.931 189.885L232.623 183.351C231.97 179.757 227.723 177.797 224.455 179.757L187.536 201.32C184.269 203.281 182.308 207.201 182.635 211.122L183.616 218.963L233.931 189.885Z" fill="white"/>
<path d="M175.447 221.25L241.771 182.697C242.098 182.697 242.751 182.044 243.078 181.717C243.404 180.737 243.405 179.43 242.751 177.796L240.138 163.747C238.504 160.153 236.217 156.886 233.603 154.926L106.183 61.1576C103.569 59.1973 101.282 58.8705 99.3215 59.8506H98.9953L32.6712 98.4036L32.3442 99.3837L175.447 221.25ZM101.609 60.5041C102.916 60.5041 104.223 61.1575 105.53 62.1377L232.95 155.906C235.564 157.866 237.85 160.807 239.157 164.074L241.771 178.123C242.425 179.43 242.425 180.41 242.098 181.39C242.098 181.717 241.771 182.043 241.444 182.043L175.447 220.27L33.6516 99.3837L99.6486 61.1576C100.302 60.5041 100.956 60.5041 101.609 60.5041Z" fill="#16110D"/>
<path d="M23.1969 127.809L30.3846 102.324C30.7113 100.364 31.6911 99.0574 33.3247 98.404C34.9583 97.7505 37.5725 98.0773 39.5328 100.038L166.953 193.806C169.567 195.766 172.181 199.033 173.487 202.627L176.101 216.676C176.754 218.636 176.754 220.27 175.774 221.25C175.448 221.577 174.794 221.904 174.467 221.904C173.814 221.904 173.487 221.903 172.833 221.577L27.4436 137.283C24.8298 135.323 22.5435 131.076 23.1969 127.809Z" fill="#16110D"/>
<path d="M57.5024 102.978L109.123 73.5731C110.757 72.593 113.045 72.5931 114.678 73.9L174.794 118.007C175.448 118.334 175.774 118.987 175.774 119.641C175.774 120.294 175.448 120.947 174.794 121.274L123.826 151.005C122.846 151.659 121.866 151.659 120.886 151.659C119.579 151.659 118.598 151.332 117.291 150.679L57.5024 106.572C56.849 105.918 56.5221 105.265 56.5221 104.611C56.1954 103.958 56.849 103.305 57.5024 102.978Z" fill="#16110D"/>
<path d="M35.9385 85.335L50.9678 79.7807L88.2134 58.544C89.847 57.5638 91.8073 57.8905 93.1142 58.8706L97.688 62.1378L100.629 61.1577V65.405C100.629 65.7317 100.302 66.3852 99.9756 66.712L49.0072 96.4433C47.3736 97.4234 45.74 97.4235 44.1064 96.7701C44.1064 96.7701 41.8191 95.7898 40.5122 95.7898C39.2053 95.7898 38.5524 96.1166 38.5524 96.1166L35.9385 97.7502V85.335Z" fill="#36A9E1"/>
<path d="M117.618 150.679L59.1362 107.552L109.778 78.8008C111.411 77.8207 113.371 78.1473 114.678 79.1275L173.161 122.254L123.5 151.006C121.539 151.986 119.252 151.659 117.618 150.679Z" fill="#36A9E1"/>
<path d="M59.1356 146.758C59.4624 146.758 60.1155 146.758 60.4422 146.432C61.4223 146.105 62.0761 145.125 62.4028 144.145L64.6897 135.65C65.0164 134.016 64.363 132.709 63.0561 131.729L44.4333 120.948C43.4531 120.294 42.4725 120.294 41.4923 120.621C40.5122 120.948 39.8592 121.928 39.5325 122.908L37.2449 131.403C36.9181 133.036 37.5716 134.343 38.8784 135.323L57.502 146.105C58.1555 146.432 58.4822 146.758 59.1356 146.758ZM43.1259 121.928C43.4527 121.928 43.7799 121.928 44.4333 122.254L63.0561 133.036C64.0363 133.69 64.3631 134.67 64.0364 135.65L61.7487 144.145C61.422 144.798 61.0956 145.452 60.4422 145.778C59.7888 146.105 59.135 146.105 58.4816 145.778L39.8588 134.996C38.8786 134.343 38.5517 133.363 38.8784 132.383L41.1661 123.888C41.4928 123.235 41.8192 122.581 42.4727 122.254C42.4727 121.928 42.7992 121.928 43.1259 121.928Z" fill="#36A9E1"/>
<path d="M184.923 215.696L235.89 186.291L234.584 179.43C234.257 177.47 232.95 175.836 231.316 175.183C229.683 174.53 227.723 174.529 225.762 175.51L188.843 197.073C185.249 199.033 183.289 203.281 183.942 207.201L184.923 215.696Z" fill="#16110D"/>
<path d="M197.665 153.292L208.773 147.085C210.08 146.431 211.713 146.431 213.02 147.412L216.941 150.025C217.267 150.352 217.595 151.005 217.595 151.332C217.595 151.985 217.267 152.312 216.941 152.639L206.16 159.173C205.506 159.5 204.852 159.827 203.872 159.827C202.892 159.827 202.239 159.5 201.259 158.847L197.665 156.233C197.011 155.906 197.011 155.253 197.011 154.599C197.011 154.273 197.338 153.619 197.665 153.292Z" fill="#16110D"/>
<path d="M216.287 150.025L205.505 156.56C204.198 157.213 202.565 157.213 201.258 156.233L197.664 153.619C197.011 152.966 197.011 151.659 197.664 151.332L208.772 145.124C209.752 144.471 211.386 144.471 212.366 145.451L216.287 148.065C216.94 148.718 216.94 149.698 216.287 150.025Z" fill="#36A9E1"/>
<path d="M212.694 148.065L215.634 150.352L205.506 156.56C204.199 157.213 202.566 157.213 201.259 156.233L197.992 153.946L208.773 148.065C210.08 147.411 211.714 147.411 212.694 148.065Z" fill="white"/>
<path d="M203.546 157.54C204.199 157.54 205.179 157.213 205.832 156.886L216.614 150.352C216.941 150.025 217.268 149.699 217.268 149.045C217.268 148.392 216.941 148.065 216.614 147.738L212.694 145.124C211.387 144.144 209.753 144.144 208.446 144.798L197.337 151.005C196.684 151.332 196.358 151.986 196.358 152.639C196.358 153.292 196.684 153.946 197.011 154.273L200.605 156.886C201.911 157.213 202.892 157.54 203.546 157.54ZM210.733 145.451C211.387 145.451 211.713 145.778 212.367 146.105L216.287 148.718L216.614 149.045C216.614 149.372 216.614 149.372 216.287 149.372L205.505 155.906C204.525 156.56 202.892 156.56 201.912 155.58L198.318 152.966C197.991 152.639 197.991 152.639 197.991 152.312C197.991 151.986 198.318 151.659 198.318 151.659L209.427 145.451C209.753 145.451 210.08 145.451 210.733 145.451Z" fill="#16110D"/>
<path d="M183.943 143.164L195.051 136.957C196.358 136.303 197.991 136.303 199.298 137.284L203.219 139.897C203.546 140.224 203.872 140.877 203.872 141.204C203.872 141.858 203.546 142.184 203.219 142.511L192.437 149.046C191.783 149.372 191.13 149.699 190.15 149.699C189.17 149.699 188.516 149.372 187.536 148.719L183.943 146.105C183.289 145.778 183.289 145.125 183.289 144.471C182.963 144.145 183.289 143.491 183.943 143.164Z" fill="#16110D"/>
<path d="M202.565 139.571L191.783 146.105C190.476 146.758 188.843 146.758 187.536 145.778L183.942 143.164C183.289 142.511 183.289 141.204 183.942 140.878L195.05 134.67C196.031 134.016 197.664 134.016 198.645 134.996L202.565 137.61C203.219 138.264 203.219 139.244 202.565 139.571Z" fill="#36A9E1"/>
<path d="M198.645 137.937L201.585 140.224L191.457 146.432C190.15 147.085 188.517 147.085 187.21 146.105L183.942 143.818L194.724 137.937C196.358 136.957 197.665 136.957 198.645 137.937Z" fill="white"/>
<path d="M189.823 147.085C190.477 147.085 191.457 146.758 192.11 146.432L202.892 139.897C203.219 139.57 203.545 139.244 203.545 138.59C203.545 137.937 203.219 137.61 202.892 137.283L198.971 134.67C197.664 133.69 196.031 133.69 194.724 134.343L183.615 140.551C182.962 140.877 182.635 141.531 182.635 142.184C182.635 142.838 182.962 143.491 183.289 143.818L186.882 146.432C188.189 147.085 188.843 147.085 189.823 147.085ZM196.684 134.996C197.337 134.996 197.664 135.323 198.318 135.65L202.238 138.264L202.565 138.59C202.565 138.917 202.565 138.917 202.238 138.917L191.457 145.451C190.477 146.105 188.843 146.105 187.863 145.125L184.269 142.511C183.942 142.184 183.942 142.184 183.942 141.858C183.942 141.531 184.269 141.204 184.269 141.204L195.377 134.996C196.031 134.996 196.357 134.996 196.684 134.996Z" fill="#16110D"/>
<path d="M170.221 133.036L181.329 126.828C182.636 126.175 184.269 126.175 185.576 127.155L189.497 129.769C189.823 130.096 190.15 130.749 190.15 131.076C190.15 131.729 189.823 132.056 189.497 132.383L178.715 138.917C178.061 139.244 177.408 139.571 176.428 139.571C175.448 139.571 174.794 139.244 173.814 138.59L170.221 135.977C169.567 135.65 169.566 134.997 169.566 134.343C169.24 134.016 169.567 133.363 170.221 133.036Z" fill="#16110D"/>
<path d="M188.517 129.442L177.735 135.977C176.428 136.63 174.795 136.63 173.488 135.65L169.894 133.036C169.24 132.383 169.24 131.076 169.894 130.749L181.002 124.541C181.982 123.888 183.616 123.888 184.596 124.868L188.517 127.482C189.497 128.135 189.17 129.115 188.517 129.442Z" fill="#36A9E1"/>
<path d="M184.923 127.809L187.863 130.096L177.734 136.303C176.427 136.957 174.794 136.957 173.487 135.977L170.22 133.69L181.001 127.809C182.635 126.829 183.942 126.829 184.923 127.809Z" fill="white"/>
<path d="M176.1 137.283C176.754 137.283 177.735 136.957 178.388 136.63L189.169 130.095C189.496 129.769 189.823 129.442 189.823 128.789C189.823 128.135 189.496 127.808 189.169 127.482L185.249 124.868C183.942 123.888 182.308 123.888 181.001 124.541L169.893 130.749C169.24 131.076 168.913 131.729 168.913 132.383C168.913 133.036 169.239 133.689 169.566 134.016L173.16 136.63C174.14 136.957 175.12 137.283 176.1 137.283ZM182.962 124.868C183.615 124.868 183.942 125.195 184.595 125.521L188.516 128.135L188.843 128.462C188.843 128.789 188.843 128.789 188.516 128.789L177.734 135.323C176.754 135.976 175.121 135.976 174.141 134.996L170.546 132.383C170.22 132.056 170.22 132.056 170.22 131.729C170.22 131.402 170.546 131.076 170.546 131.076L181.655 124.868C181.982 124.868 182.635 124.868 182.962 124.868Z" fill="#16110D"/>
<path d="M178.389 164.728L189.497 158.52C190.804 157.867 192.437 157.867 193.744 158.847L197.665 161.461C197.991 161.788 198.318 162.441 198.318 162.768C198.318 163.421 197.991 163.748 197.665 164.075L186.883 170.609C186.229 170.936 185.576 171.262 184.596 171.262C183.616 171.262 182.962 170.936 181.982 170.282L178.389 167.668C177.735 167.342 177.734 166.688 177.734 166.035C177.408 165.708 177.735 165.055 178.389 164.728Z" fill="#16110D"/>
<path d="M196.685 161.461L185.903 167.995C184.596 168.649 182.963 168.648 181.656 167.668L178.062 165.055C177.408 164.401 177.408 163.094 178.062 162.767L189.17 156.56C190.15 155.906 191.784 155.906 192.764 156.887L196.685 159.5C197.665 160.154 197.338 161.134 196.685 161.461Z" fill="#36A9E1"/>
<path d="M193.091 159.5L196.031 161.787L185.902 167.995C184.595 168.648 182.962 168.648 181.655 167.668L178.388 165.381L189.169 159.5C190.803 158.846 192.11 158.846 193.091 159.5Z" fill="white"/>
<path d="M184.268 168.975C184.922 168.975 185.903 168.649 186.556 168.322L197.337 161.787C197.664 161.461 197.991 161.134 197.991 160.481C197.991 159.827 197.664 159.5 197.337 159.174L193.417 156.56C192.11 155.58 190.476 155.58 189.169 156.233L178.061 162.441C177.408 162.768 177.081 163.421 177.081 164.075C177.081 164.728 177.407 165.381 177.734 165.708L181.328 168.322C182.308 168.649 183.288 168.975 184.268 168.975ZM191.13 156.887C191.783 156.887 192.11 157.213 192.763 157.54L196.684 160.154L197.011 160.481C197.011 160.807 197.011 160.807 196.684 160.807L185.902 167.342C184.922 167.995 183.289 167.995 182.309 167.015L178.714 164.401C178.388 164.074 178.388 164.075 178.388 163.748C178.388 163.421 178.714 163.094 178.714 163.094L189.823 156.887C190.15 156.887 190.803 156.887 191.13 156.887Z" fill="#16110D"/>
<path d="M164.339 154.599L175.447 148.392C176.754 147.739 178.388 147.738 179.695 148.719L183.615 151.332C183.942 151.659 184.269 152.313 184.269 152.639C184.269 153.293 183.942 153.62 183.615 153.946L172.833 160.481C172.18 160.807 171.527 161.134 170.547 161.134C169.566 161.134 168.913 160.807 167.933 160.154L164.339 157.54C163.686 157.213 163.686 156.56 163.686 155.906C163.686 155.253 164.012 154.926 164.339 154.599Z" fill="#16110D"/>
<path d="M182.962 151.006L172.18 157.54C170.873 158.193 169.239 158.194 167.932 157.213L164.339 154.599C163.685 153.946 163.685 152.639 164.339 152.313L175.447 146.105C176.427 145.451 178.061 145.451 179.041 146.431L182.962 149.045C183.615 149.699 183.615 150.679 182.962 151.006Z" fill="#36A9E1"/>
<path d="M179.368 149.372L182.309 151.659L172.18 157.866C170.873 158.52 169.239 158.52 167.932 157.54L164.665 155.253L175.447 149.372C176.754 148.392 178.387 148.392 179.368 149.372Z" fill="white"/>
<path d="M170.22 158.52C170.874 158.52 171.854 158.193 172.507 157.867L183.289 151.332C183.616 151.006 183.942 150.679 183.942 150.025C183.942 149.372 183.616 149.045 183.289 148.719L179.368 146.105C178.061 145.125 176.428 145.125 175.121 145.778L164.012 151.986C163.359 152.312 163.032 152.966 163.032 153.619C163.032 154.273 163.359 154.926 163.686 155.253L167.279 157.867C168.586 158.52 169.567 158.52 170.22 158.52ZM177.408 146.431C178.061 146.431 178.388 146.758 179.042 147.085L182.962 149.699L183.289 150.025C183.289 150.352 183.289 150.352 182.962 150.352L172.18 156.887C171.2 157.54 169.567 157.54 168.587 156.56L164.993 153.946C164.666 153.619 164.666 153.619 164.666 153.293C164.666 152.966 164.993 152.639 164.993 152.639L176.101 146.431C176.427 146.431 176.755 146.431 177.408 146.431Z" fill="#16110D"/>
<path d="M150.617 144.471L161.725 138.263C163.032 137.61 164.666 137.61 165.973 138.59L169.893 141.204C170.22 141.531 170.546 142.184 170.546 142.511C170.546 143.164 170.22 143.491 169.893 143.818L159.111 150.352C158.458 150.679 157.805 151.006 156.824 151.006C155.844 151.006 155.191 150.679 154.21 150.025L150.617 147.412C149.964 147.085 149.963 146.432 149.963 145.778C149.636 145.125 149.964 144.798 150.617 144.471Z" fill="#16110D"/>
<path d="M169.239 140.877L158.458 147.412C157.151 148.065 155.517 148.065 154.21 147.085L150.617 144.471C149.963 143.818 149.963 142.511 150.617 142.184L161.725 135.976C162.705 135.323 164.339 135.323 165.319 136.303L169.239 138.917C169.893 139.57 169.893 140.55 169.239 140.877Z" fill="#36A9E1"/>
<path d="M165.319 139.244L168.259 141.531L158.131 147.739C156.824 148.392 155.191 148.392 153.884 147.412L150.617 145.125L161.398 139.244C163.031 138.264 164.339 138.264 165.319 139.244Z" fill="white"/>
<path d="M156.497 148.392C157.151 148.392 158.132 148.065 158.785 147.738L169.566 141.204C169.893 140.877 170.22 140.55 170.22 139.897C170.22 139.244 169.893 138.917 169.566 138.59L165.646 135.977C164.339 134.996 162.705 134.996 161.398 135.65L150.29 141.857C149.637 142.184 149.31 142.838 149.31 143.491C149.31 144.144 149.636 144.798 149.963 145.125L153.557 147.738C154.864 148.392 155.517 148.392 156.497 148.392ZM163.686 136.303C164.339 136.303 164.666 136.63 165.319 136.957L169.24 139.57L169.566 139.897C169.566 140.224 169.567 140.224 169.24 140.224L158.458 146.758C157.478 147.412 155.844 147.412 154.864 146.431L151.27 143.818C150.944 143.491 150.943 143.491 150.943 143.164C150.943 142.837 151.27 142.511 151.27 142.511L162.378 136.303C162.705 136.303 163.032 136.303 163.686 136.303Z" fill="#16110D"/>
<path d="M158.785 176.163L169.894 169.955C171.2 169.302 172.834 169.302 174.141 170.282L178.062 172.896C178.388 173.223 178.715 173.876 178.715 174.203C178.715 174.856 178.388 175.183 178.062 175.51L167.28 182.044C166.626 182.371 165.973 182.697 164.993 182.697C164.013 182.697 163.359 182.371 162.379 181.717L158.785 179.103C158.132 178.777 158.131 178.123 158.131 177.47C157.805 177.143 158.132 176.49 158.785 176.163Z" fill="#16110D"/>
<path d="M177.408 172.896L166.626 179.43C165.32 180.084 163.686 180.083 162.379 179.103L158.786 176.49C158.132 175.836 158.132 174.529 158.786 174.203L169.894 167.995C170.874 167.342 172.508 167.341 173.488 168.322L177.408 170.935C178.062 171.589 178.062 172.242 177.408 172.896Z" fill="#36A9E1"/>
<path d="M173.488 170.936L176.428 173.223L166.299 179.43C164.992 180.084 163.359 180.084 162.052 179.103L158.785 176.817L169.566 170.936C171.2 169.955 172.507 170.282 173.488 170.936Z" fill="white"/>
<path d="M164.666 180.41C165.319 180.41 166.3 180.084 166.954 179.757L177.735 173.223C178.061 172.896 178.389 172.569 178.389 171.916C178.389 171.262 178.061 170.936 177.735 170.609L173.814 167.995C172.507 167.015 170.874 167.015 169.567 167.668L158.459 173.876C157.805 174.203 157.478 174.856 157.478 175.51C157.478 176.163 157.805 176.816 158.131 177.143L161.726 179.757C163.033 180.084 163.686 180.41 164.666 180.41ZM171.527 167.995C172.181 167.995 172.507 168.322 173.161 168.649L177.081 171.262L177.408 171.589C177.408 171.916 177.408 171.916 177.081 171.916L166.299 178.45C165.319 179.104 163.686 179.103 162.706 178.123L159.112 175.51C158.785 175.183 158.786 175.183 158.786 174.856C158.786 174.529 159.112 174.203 159.112 174.203L170.221 167.995C170.874 168.322 171.201 167.995 171.527 167.995Z" fill="#16110D"/>
<path d="M145.062 165.708L156.171 159.5C157.478 158.847 159.112 158.847 160.418 159.827L164.339 162.441C164.666 162.768 164.992 163.421 164.992 163.748C164.992 164.401 164.666 164.728 164.339 165.055L153.557 171.589C152.904 171.916 152.25 172.242 151.27 172.242C150.29 172.242 149.636 171.916 148.656 171.262L145.062 168.649C144.409 168.322 144.409 167.668 144.409 167.015C144.082 166.688 144.409 166.035 145.062 165.708Z" fill="#16110D"/>
<path d="M163.358 162.441L152.576 168.975C151.269 169.628 149.636 169.629 148.329 168.648L144.735 166.035C144.082 165.381 144.082 164.074 144.735 163.748L155.843 157.54C156.824 156.886 158.457 156.886 159.438 157.867L163.358 160.48C164.012 161.134 164.012 162.114 163.358 162.441Z" fill="#36A9E1"/>
<path d="M159.764 160.48L162.705 162.767L152.576 168.975C151.27 169.628 149.636 169.628 148.329 168.648L145.062 166.361L155.844 160.48C157.151 159.827 158.784 159.827 159.764 160.48Z" fill="white"/>
<path d="M150.943 169.955C151.596 169.955 152.576 169.628 153.23 169.302L164.012 162.767C164.338 162.441 164.665 162.114 164.665 161.461C164.665 160.807 164.338 160.48 164.012 160.154L160.091 157.54C158.784 156.56 157.151 156.56 155.844 157.213L144.736 163.421C144.082 163.748 143.755 164.401 143.755 165.054C143.755 165.708 144.082 166.361 144.409 166.688L148.003 169.302C148.983 169.628 149.963 169.955 150.943 169.955ZM157.804 157.867C158.458 157.867 158.785 158.193 159.438 158.52L163.358 161.134L163.686 161.461C163.686 161.787 163.685 161.787 163.358 161.787L152.577 168.322C151.596 168.975 149.963 168.975 148.983 167.995L145.389 165.381C145.062 165.054 145.062 165.054 145.062 164.728C145.062 164.401 145.389 164.074 145.389 164.074L156.497 157.867C156.824 157.867 157.478 157.867 157.804 157.867Z" fill="#16110D"/>
<path d="M131.014 155.579L142.122 149.371C143.429 148.718 145.063 148.718 146.37 149.698L150.29 152.312C150.617 152.639 150.943 153.292 150.943 153.619C150.943 154.272 150.617 154.599 150.29 154.926L139.508 161.46C138.855 161.787 138.201 162.114 137.221 162.114C136.241 162.114 135.588 161.787 134.607 161.133L131.014 158.52C130.361 158.193 130.36 157.539 130.36 156.886C130.36 156.233 130.687 155.906 131.014 155.579Z" fill="#16110D"/>
<path d="M149.636 152.312L138.855 158.847C137.548 159.5 135.914 159.5 134.607 158.52L131.014 155.906C130.36 155.253 130.36 153.946 131.014 153.619L142.122 147.411C143.102 146.758 144.736 146.758 145.716 147.738L149.636 150.352C150.29 151.005 150.29 151.986 149.636 152.312Z" fill="#36A9E1"/>
<path d="M146.042 150.352L148.983 152.639L138.855 158.847C137.548 159.5 135.914 159.5 134.607 158.52L131.34 156.233L142.122 150.352C143.429 149.698 144.736 149.698 146.042 150.352Z" fill="white"/>
<path d="M136.894 159.827C137.548 159.827 138.529 159.5 139.182 159.173L149.963 152.639C150.29 152.312 150.617 151.985 150.617 151.332C150.617 150.679 150.29 150.352 149.963 150.025L146.043 147.412C144.736 146.431 143.102 146.431 141.795 147.085L130.687 153.292C130.034 153.619 129.707 154.273 129.707 154.926C129.707 155.58 130.033 156.233 130.36 156.56L133.954 159.173C135.261 159.5 136.241 159.827 136.894 159.827ZM144.083 147.738C144.736 147.738 145.063 148.065 145.716 148.392L149.637 151.005L149.963 151.332C149.963 151.659 149.964 151.659 149.637 151.659L138.855 158.193C137.875 158.847 136.241 158.847 135.261 157.866L131.667 155.253C131.341 154.926 131.34 154.926 131.34 154.599C131.34 154.273 131.667 153.946 131.667 153.946L142.775 147.738C143.102 147.738 143.429 147.738 144.083 147.738Z" fill="#16110D"/>
<path d="M77.7588 151.006C79.0656 150.352 80.6991 150.679 81.6792 151.332L138.528 188.905C141.142 190.538 143.103 193.152 144.083 196.42L147.023 205.568L145.716 204.914L143.102 196.746C142.122 193.806 140.488 191.519 137.875 189.885L81.026 152.313C80.3725 151.986 79.7188 151.659 79.0653 151.659C78.7386 151.659 78.4122 151.659 77.7588 151.986C76.7786 152.312 76.1249 153.293 75.7981 154.273L73.1842 163.094L72.2047 162.441L74.8178 153.619C75.1445 152.639 76.4519 151.659 77.7588 151.006Z" fill="#36A9E1"/>
<path d="M100.302 62.1382L49.3341 91.8697C47.3738 92.8498 45.0866 92.8497 43.453 91.5428L36.9187 86.642C35.9385 85.6619 35.938 84.0283 37.2449 83.3749L88.8666 53.9702C90.5002 52.99 92.4605 53.3169 93.7674 54.297L100.629 59.5244C101.282 60.5046 100.955 61.8114 100.302 62.1382Z" fill="#36A9E1"/>
<path d="M100.302 66.3852L49.3341 96.1167C47.3738 97.0969 45.0866 97.0968 43.453 95.7899L36.9187 90.8891C35.9385 89.909 35.938 88.2754 37.2449 87.6219L88.8666 58.2173C90.5002 57.2371 92.4605 57.5639 93.7674 58.5441L100.629 63.7715C101.282 64.425 100.955 65.7318 100.302 66.3852Z" fill="white"/>
<path d="M46.3938 93.1763C47.374 93.1763 48.3546 92.8496 49.3348 92.5229L100.302 62.7915C100.956 62.4648 101.283 61.8114 101.283 61.1579C101.283 60.5045 100.956 59.8511 100.302 59.5244L93.4418 54.2969C91.8082 52.9901 89.5205 52.9899 87.8869 53.9701L36.266 83.3748C35.6126 83.7015 34.9587 84.6818 34.9587 85.3352C34.9587 86.3154 35.2856 86.9687 35.939 87.2954L42.4734 92.1962C44.107 92.8497 45.0869 93.1763 46.3938 93.1763ZM90.5008 54.2969C91.481 54.2969 92.1343 54.6235 92.7877 54.9502L99.6491 60.1778C99.9758 60.5046 99.9762 60.8312 99.9762 61.1579C99.9762 61.4847 99.6488 61.8114 99.3221 61.8114L48.3545 91.5427C46.7209 92.5229 44.7602 92.523 43.1266 91.2161L36.5923 86.3153C36.2655 85.9886 35.939 85.6618 35.939 85.0084C35.939 84.6816 36.2655 84.0282 36.5923 84.0282L88.214 54.6236C89.1941 54.2969 89.8474 54.2969 90.5008 54.2969Z" fill="#16110D"/>
<path d="M114.351 83.0481L167.933 122.581L123.172 148.718C121.212 149.699 118.925 149.699 117.291 148.392L63.7097 108.859L109.45 83.0481C111.084 82.0679 113.044 82.0679 114.351 83.0481Z" fill="white"/>
<path d="M120.559 151.985C121.539 151.985 122.519 151.659 123.5 151.332L173.814 121.927L114.678 78.4736C113.045 77.1667 110.757 77.1668 109.124 78.1469L57.8289 107.225L116.965 150.679C118.272 151.659 119.252 151.985 120.559 151.985ZM171.854 121.927L122.846 150.352C121.213 151.332 119.252 151.332 117.619 150.025L59.7895 107.225L109.778 78.8004C111.084 78.147 113.044 78.1469 114.024 79.1271L171.854 121.927Z" fill="#16110D"/>
<path d="M35.2853 97.7504V85.0083L35.9386 84.6816C35.9386 85.3351 35.9389 85.9885 36.2656 86.3152L42.473 91.216L43.4533 91.5426C44.1067 91.8694 44.7597 92.1961 45.4131 92.1961H45.7402H46.0672C47.0474 92.1961 48.3542 92.1961 49.3344 91.5426V95.1367L99.9758 65.732C100.303 65.4053 100.302 65.4052 100.629 65.0785V62.138C100.956 61.8112 101.282 61.1578 100.955 60.5044L101.609 60.1777V65.0785C101.609 65.732 101.282 66.3854 100.629 66.7121L49.6606 96.4434C48.3538 97.0969 46.7205 97.4236 45.0869 97.0969L44.4336 96.7703C44.4336 96.7703 42.1463 95.7899 40.8394 95.7899C39.5325 95.7899 39.2058 96.1168 39.2058 96.1168L35.6116 98.077V97.7504H35.2853Z" fill="#16110D"/>
<path d="M191.783 207.201L230.663 184.657C232.297 183.677 232.95 181.717 231.97 180.083C230.989 178.45 229.029 178.123 227.396 178.776L188.516 201.32C186.882 202.3 186.229 204.26 187.209 205.894C188.189 207.528 190.149 208.181 191.783 207.201Z" fill="#36A9E1"/>
<path d="M189.823 205.894L230.663 182.044C231.317 181.717 231.316 181.063 230.989 180.41C230.663 179.756 230.009 179.757 229.356 180.083L188.516 203.934C187.862 204.26 187.863 204.914 188.19 205.567C188.516 205.894 189.17 206.221 189.823 205.894Z" fill="#16110D"/>
<path d="M194.397 202.627L228.049 183.023L252.226 197.399H253.207V198.706C253.207 199.033 252.88 199.359 252.553 199.686L220.208 218.962C218.901 219.616 217.594 219.616 216.287 218.962L190.15 203.607L191.457 202.953L194.397 202.627Z" fill="#36A9E1"/>
<path d="M217.921 220.269C218.574 220.269 219.227 219.943 220.208 219.616L252.553 200.339C252.88 200.013 253.207 199.686 253.207 199.033V197.399H251.9L227.722 183.023L194.07 202.3L190.803 202.627L189.169 203.607L215.634 219.289C216.614 219.943 217.267 220.269 217.921 220.269ZM252.553 197.726V198.706C252.553 199.033 252.226 199.359 252.226 199.359L219.881 218.636C218.901 219.289 217.267 219.289 216.287 218.636L190.477 203.28L191.457 202.627L194.724 202.3L228.049 183.023L252.226 197.399L252.553 197.726Z" fill="#16110D"/>
<path d="M227.722 181.717L252.226 196.419C253.206 196.746 253.206 198.053 252.226 198.706L219.881 217.982C218.575 218.636 217.268 218.636 215.961 217.982L191.13 203.28L227.722 181.717Z" fill="#36A9E1"/>
<path d="M218.248 216.676C216.941 217.329 215.634 217.329 214.327 216.676L197.337 206.548C195.704 205.567 195.704 203.28 197.337 202.627L223.802 187.271C226.416 185.964 229.356 185.964 231.97 187.271L246.345 195.766C247.979 196.746 247.979 199.033 246.345 199.687L218.248 216.676Z" fill="white"/>
<path d="M217.921 218.636C218.574 218.636 219.227 218.309 220.208 217.983L252.553 198.706C252.88 198.379 253.207 198.053 253.207 197.399C253.207 196.746 252.88 196.419 252.553 196.092L227.722 181.39L190.477 202.954L215.961 217.983C216.614 218.309 217.267 218.636 217.921 218.636ZM227.722 182.044L252.226 196.746C252.553 197.073 252.553 197.399 252.553 197.726C252.553 198.053 252.226 198.379 252.226 198.706L219.881 217.983C218.901 218.636 217.267 218.636 216.287 217.983L191.783 203.28L227.722 182.044Z" fill="#16110D"/>
<path d="M222.822 200.667L224.455 201.647L230.009 198.379L228.376 197.399C227.722 197.073 226.742 197.073 226.089 197.399L222.822 199.36C222.168 199.686 222.168 200.34 222.822 200.667Z" fill="#16110D"/>
<path d="M229.029 203.934L230.663 204.914C231.316 205.241 232.296 205.241 232.95 204.914L236.217 202.954C236.87 202.627 236.87 201.973 236.217 201.647L234.583 200.667L229.029 203.934Z" fill="#16110D"/>
<path d="M225.109 201.973L228.376 203.607L233.931 200.666L230.663 198.706L225.109 201.973Z" fill="#16110D"/>
<path d="M219.229 211.449C218.248 212.102 217.921 212.429 218.574 213.082C219.228 213.409 220.208 213.409 221.188 212.755C222.169 212.102 222.168 211.775 221.842 211.122C221.188 210.795 220.209 210.795 219.229 211.449ZM220.862 212.429C220.209 212.755 219.555 213.082 219.229 212.755C218.902 212.429 219.228 212.102 219.882 211.775C220.535 211.448 221.189 211.122 221.515 211.449C221.842 211.449 221.516 211.775 220.862 212.429Z" fill="#16110D"/>
<path d="M216.94 210.141C215.96 210.795 215.633 211.122 216.287 211.775C216.94 212.102 217.921 212.102 218.901 211.448C219.881 210.795 219.881 210.468 219.554 209.815C218.574 209.488 217.92 209.488 216.94 210.141ZM218.574 211.122C217.92 211.448 217.267 211.775 216.94 211.448C216.613 211.122 216.941 210.795 217.594 210.468C218.248 210.141 218.901 209.815 219.228 210.141C219.555 210.141 219.227 210.468 218.574 211.122Z" fill="#16110D"/>
<path d="M214.654 208.834C213.673 209.488 213.347 209.815 214 210.468C214.654 210.795 215.634 210.795 216.614 210.141C217.594 209.488 217.594 209.161 217.267 208.508C216.287 208.181 215.634 208.181 214.654 208.834ZM215.961 209.814C215.307 210.141 214.654 210.468 214.327 210.141C214.001 209.814 214.327 209.488 214.981 209.161C215.634 208.834 216.287 208.508 216.614 208.834C216.941 208.834 216.941 209.161 215.961 209.814Z" fill="#16110D"/>
<path d="M214.328 207.528L214.654 207.855H214.981L214.328 207.528V207.201L211.387 208.835L211.714 209.161L214.328 207.528Z" fill="#16110D"/>
<path d="M209.099 205.567C208.119 206.221 207.793 206.547 208.446 207.201C209.099 207.528 210.08 207.527 211.06 206.874C212.04 206.221 212.04 205.894 211.713 205.24C210.733 204.914 209.753 204.914 209.099 205.567ZM210.406 206.547C209.752 206.874 209.099 207.201 208.772 206.874C208.446 206.547 208.773 206.221 209.426 205.894C210.08 205.567 210.733 205.241 211.06 205.567C211.387 205.567 211.386 205.894 210.406 206.547Z" fill="#16110D"/>
<path d="M207.139 206.221L207.466 205.567C207.466 204.587 207.466 204.26 207.793 203.934C208.12 203.607 208.446 203.607 209.1 203.934C209.426 203.934 209.427 204.26 209.427 204.587H209.753C209.753 204.26 209.426 204.26 209.1 203.934C208.446 203.607 207.793 203.607 207.466 203.934C206.813 204.26 206.813 204.587 206.813 205.567V205.894L205.505 205.24L205.179 205.567L207.139 206.221Z" fill="#16110D"/>
<path d="M204.199 202.954C203.219 203.607 202.892 203.934 203.546 204.587C204.199 204.914 205.179 204.914 206.16 204.26C207.14 203.607 207.14 203.28 206.813 202.627C206.159 202.3 205.179 202.3 204.199 202.954ZM205.833 203.607C205.179 203.934 204.526 204.26 204.199 203.934C203.872 203.607 204.199 203.28 204.852 202.954C205.506 202.627 206.159 202.3 206.486 202.627C206.813 202.953 206.813 203.28 205.833 203.607Z" fill="#16110D"/>
<path d="M204.199 201.32L204.526 201.647H204.852L204.199 201.32V200.993L201.259 202.627L201.585 202.954L204.199 201.32Z" fill="#16110D"/>
<path d="M198.645 199.686C197.665 200.34 197.338 200.667 197.992 201.32C198.645 201.647 199.625 201.647 200.605 200.993C201.585 200.34 201.586 200.013 201.259 199.36C200.605 199.033 199.625 199.033 198.645 199.686ZM200.279 200.667C199.625 200.993 198.972 201.32 198.645 200.993C198.318 200.666 198.645 200.34 199.298 200.013C199.952 199.686 200.605 199.36 200.932 199.686C201.259 199.686 200.932 200.013 200.279 200.667Z" fill="#16110D"/>
<path d="M217.92 218.309V219.943L216.614 219.616L189.823 203.934L191.13 202.954L216.94 218.309H217.92Z" fill="#16110D"/>
</svg>
