<svg width="1280" height="891" viewBox="0 0 1280 891" fill="none" xmlns="http://www.w3.org/2000/svg">
<path d="M939.371 226.538C937.328 221.262 935.828 215.714 934.941 209.965L934.446 210.041C933.823 206.005 933.5 201.869 933.5 197.659V186.094H934V170.004H933.5V146.875H934V130.784H933.5V107.655H934V91.5647H933.5V80C933.5 75.8408 933.181 71.7566 932.565 67.7704L933.059 67.6941C932.172 61.9447 930.672 56.3974 928.629 51.1208L928.162 51.3014C925.177 43.5919 921.024 36.4638 915.92 30.1341L916.309 29.8203C912.711 25.3575 908.642 21.2893 904.18 17.6908L903.866 18.08C897.536 12.976 890.408 8.82297 882.699 5.83759L882.879 5.37132C877.603 3.32805 872.055 1.82826 866.306 0.94062L866.23 1.43476C862.243 0.819344 858.159 0.5 854 0.5H842.513V0H826.532V0.5H803.559V0H787.578V0.5H764.604V0H748.623V0.5H725.65V0H709.668V0.5H686.695V0H670.714V0.5H647.741V0H631.759V0.5H608.786V0H592.805V0.5H569.832V0H553.85V0.5H530.877V0H514.896V0.5H491.922V0H475.941V0.5H452.968V0H436.987V0.5H425.5C421.341 0.5 417.257 0.819343 413.27 1.43476L413.194 0.940614C407.445 1.82825 401.897 3.32804 396.621 5.37132L396.801 5.83758C389.092 8.82296 381.964 12.976 375.634 18.08L375.32 17.6907C370.858 21.2893 366.789 25.3575 363.191 29.8203L363.58 30.1341C358.476 36.4638 354.323 43.5919 351.338 51.3014L350.871 51.1208C348.828 56.3974 347.328 61.9447 346.441 67.6941L346.935 67.7704C346.319 71.7566 346 75.8408 346 80V91.5647H345.5V107.655H346V130.784H345.5V146.875H346V170.004H345.5V186.094H346V197.659C346 201.869 345.677 206.005 345.054 210.041L344.559 209.965C343.672 215.714 342.172 221.262 340.129 226.538L340.595 226.719C337.572 234.526 333.366 241.744 328.198 248.153L327.809 247.839C324.211 252.302 320.142 256.37 315.68 259.968L315.994 260.358C309.585 265.525 302.367 269.731 294.56 272.754L294.379 272.288C289.103 274.331 283.555 275.831 277.806 276.718L277.882 277.213C273.846 277.836 269.71 278.159 265.5 278.159H254.56V277.659H239.34V278.159H217.46V277.659H202.24V278.159H180.36V277.659H165.14V278.159H143.26V277.659H128.04V278.159H106.16V277.659H90.9397V278.159H80C75.8408 278.159 71.7566 278.478 67.7704 279.094L67.6941 278.6C61.9447 279.487 56.3973 280.987 51.1208 283.03L51.3014 283.497C43.5919 286.482 36.4639 290.635 30.1342 295.739L29.8203 295.35C25.3575 298.948 21.2893 303.017 17.6908 307.479L18.08 307.793C12.9761 314.123 8.823 321.251 5.83765 328.96L5.37134 328.78C3.32812 334.056 1.82837 339.604 0.940674 345.353L1.43481 345.429C0.819336 349.416 0.5 353.5 0.5 357.659V368.799H0V384.298H0.5V406.577H0V422.076H0.5V444.356H0V459.855H0.5V482.134H0V497.633H0.5V519.913H0V535.411H0.5V557.691H0V573.19H0.5V595.469H0V610.968H0.5V633.248H0V648.747H0.5V671.026H0V686.525H0.5V708.805H0V724.303H0.5V746.583H0V762.082H0.5V784.362H0V799.86H0.5V811C0.5 815.159 0.819336 819.243 1.43481 823.23L0.940674 823.306C1.82837 829.055 3.328 834.603 5.37134 839.879L5.83765 839.699C8.823 847.408 12.9761 854.536 18.08 860.866L17.6908 861.18C21.2893 865.643 25.3575 869.711 29.8203 873.309L30.1342 872.92C36.4639 878.024 43.5919 882.177 51.3014 885.162L51.1208 885.629C56.3973 887.672 61.9447 889.172 67.6941 890.059L67.7704 889.565C71.7566 890.181 75.8408 890.5 80 890.5H91.3885V891H107.233V890.5H130.009V891H145.854V890.5H168.63V891H184.474V890.5H207.25V891H223.095V890.5H245.871V891H261.716V890.5H284.492V891H300.336V890.5H323.112V891H338.957V890.5H361.733V891H377.578V890.5H400.354V891H416.198V890.5H438.974V891H454.819V890.5H477.595V891H493.44V890.5H516.216V891H532.06V890.5H554.836V891H570.681V890.5H593.457V891H609.302V890.5H632.078V891H647.922V890.5H670.698V891H686.543V890.5H709.319V891H725.164V890.5H747.94V891H763.784V890.5H786.561V891H802.405V890.5H825.181V891H841.026V890.5H863.802V891H879.646V890.5H902.423V891H918.267V890.5H941.043V891H956.888V890.5H979.664V891H995.508V890.5H1018.28V891H1034.13V890.5H1056.91V891H1072.75V890.5H1095.53V891H1111.37V890.5H1134.15V891H1149.99V890.5H1172.77V891H1188.61V890.5H1200C1204.16 890.5 1208.24 890.181 1212.23 889.565L1212.31 890.059C1218.06 889.172 1223.6 887.672 1228.88 885.629L1228.7 885.162C1236.41 882.177 1243.54 878.024 1249.87 872.92L1250.18 873.309C1254.64 869.711 1258.71 865.642 1262.31 861.18L1261.92 860.866C1267.02 854.536 1271.18 847.408 1274.16 839.699L1274.63 839.879C1276.67 834.603 1278.17 829.055 1279.06 823.306L1278.57 823.23C1279.18 819.243 1279.5 815.159 1279.5 811V799.86H1280V784.361H1279.5V762.082H1280V746.583H1279.5V724.303H1280V708.805H1279.5V686.525H1280V671.026H1279.5V648.747H1280V633.248H1279.5V610.968H1280V595.469H1279.5V573.19H1280V557.691H1279.5V535.411H1280V519.912H1279.5V497.633H1280V482.134H1279.5V459.854H1280V444.356H1279.5V422.076H1280V406.577H1279.5V384.298H1280V368.799H1279.5V357.659C1279.5 353.5 1279.18 349.416 1278.57 345.429L1279.06 345.353C1278.17 339.604 1276.67 334.056 1274.63 328.78L1274.16 328.96C1271.18 321.251 1267.02 314.123 1261.92 307.793L1262.31 307.479C1258.71 303.017 1254.64 298.948 1250.18 295.35L1249.87 295.739C1243.54 290.635 1236.41 286.482 1228.7 283.497L1228.88 283.03C1223.6 280.987 1218.06 279.487 1212.31 278.6L1212.23 279.094C1208.24 278.478 1204.16 278.159 1200 278.159H1189.03V277.659H1173.77V278.159H1151.83V277.659H1136.57V278.159H1114.63V277.659H1099.37V278.159H1077.43V277.659H1062.17V278.159H1040.23V277.659H1024.97V278.159H1014C1009.79 278.159 1005.65 277.836 1001.62 277.213L1001.69 276.718C995.945 275.831 990.397 274.331 985.121 272.288L984.94 272.754C977.133 269.731 969.915 265.525 963.506 260.358L963.82 259.968C959.358 256.37 955.289 252.302 951.691 247.839L951.302 248.153C946.134 241.744 941.928 234.526 938.905 226.719L939.371 226.538Z" fill="white" stroke="black" stroke-dasharray="23 16"/>
</svg>
