<svg width="162" height="270" viewBox="0 0 162 270" fill="none" xmlns="http://www.w3.org/2000/svg">
<path d="M67.034 252.618C68.5873 252.618 69.8462 251.899 69.8462 251.011C69.8462 250.123 68.5873 249.404 67.034 249.404C65.4808 249.404 64.2209 250.123 64.2209 251.011C64.2209 251.899 65.4808 252.618 67.034 252.618Z" fill="#16110D"/>
<path d="M77.0782 246.993C78.6314 246.993 79.8904 246.273 79.8904 245.386C79.8904 244.498 78.6314 243.779 77.0782 243.779C75.525 243.779 74.265 244.498 74.265 245.386C74.265 246.273 75.525 246.993 77.0782 246.993Z" fill="#16110D"/>
<path d="M87.1224 240.966C88.6757 240.966 89.9346 240.247 89.9346 239.359C89.9346 238.471 88.6757 237.752 87.1224 237.752C85.5692 237.752 84.3093 238.471 84.3093 239.359C84.3093 240.247 85.5692 240.966 87.1224 240.966Z" fill="#16110D"/>
<path d="M99.5753 232.529C100.781 233.333 100.781 234.136 99.5753 234.94C98.37 235.743 96.7629 235.743 95.5576 234.94C94.3523 234.136 94.3523 233.333 95.5576 232.529C96.7629 231.726 98.37 231.726 99.5753 232.529Z" fill="#16110D"/>
<path d="M58.5961 244.181C59.8014 244.985 59.8014 245.788 58.5961 246.592C57.3908 247.395 55.7837 247.395 54.5784 246.592C53.3731 245.788 53.3731 244.985 54.5784 244.181C55.7837 243.377 57.7926 243.377 58.5961 244.181Z" fill="#16110D"/>
<path d="M69.0405 238.154C70.2458 238.958 70.2458 239.761 69.0405 240.565C67.8352 241.369 66.2281 241.369 65.0228 240.565C63.8175 239.761 63.8175 238.958 65.0228 238.154C66.2281 237.753 67.8352 237.753 69.0405 238.154Z" fill="#16110D"/>
<path d="M79.0847 232.529C80.29 233.333 80.29 234.136 79.0847 234.94C77.8794 235.743 76.2723 235.743 75.067 234.94C73.8617 234.136 73.8617 233.333 75.067 232.529C76.2723 231.726 77.8794 231.726 79.0847 232.529Z" fill="#16110D"/>
<path d="M87.1224 229.315C88.6757 229.315 89.9346 228.596 89.9346 227.708C89.9346 226.821 88.6757 226.101 87.1224 226.101C85.5692 226.101 84.3093 226.821 84.3093 227.708C84.3093 228.596 85.5692 229.315 87.1224 229.315Z" fill="#16110D"/>
<path d="M46.5424 240.966C48.0957 240.966 49.3546 240.247 49.3546 239.359C49.3546 238.471 48.0957 237.752 46.5424 237.752C44.9892 237.752 43.7303 238.471 43.7303 239.359C43.7303 240.247 44.9892 240.966 46.5424 240.966Z" fill="#16110D"/>
<path d="M58.5961 232.529C59.8014 233.333 59.8014 234.136 58.5961 234.94C57.3908 235.743 55.7837 235.743 54.5784 234.94C53.3731 234.136 53.3731 233.333 54.5784 232.529C55.7837 231.726 57.7926 231.726 58.5961 232.529Z" fill="#16110D"/>
<path d="M67.034 229.315C68.5873 229.315 69.8462 228.596 69.8462 227.708C69.8462 226.821 68.5873 226.101 67.034 226.101C65.4808 226.101 64.2209 226.821 64.2209 227.708C64.2209 228.596 65.4808 229.315 67.034 229.315Z" fill="#16110D"/>
<path d="M77.0782 223.289C78.6314 223.289 79.8904 222.569 79.8904 221.682C79.8904 220.794 78.6314 220.074 77.0782 220.074C75.525 220.074 74.265 220.794 74.265 221.682C74.265 222.569 75.525 223.289 77.0782 223.289Z" fill="#16110D"/>
<path d="M38.5077 232.529C39.713 233.333 39.713 234.136 38.5077 234.94C37.3024 235.743 35.6953 235.743 34.49 234.94C33.2847 234.136 33.2847 233.333 34.49 232.529C35.6953 231.726 37.3024 231.726 38.5077 232.529Z" fill="#16110D"/>
<path d="M48.5519 226.503C49.7572 227.306 49.7572 228.11 48.5519 228.913C47.3466 229.717 45.7395 229.717 44.5342 228.913C43.3289 228.11 43.3289 227.306 44.5342 226.503C45.7395 225.699 47.3466 225.699 48.5519 226.503Z" fill="#16110D"/>
<path d="M58.5961 220.476C59.8014 221.279 59.8014 222.083 58.5961 222.887C57.3908 223.69 55.7837 223.69 54.5784 222.887C53.3731 222.083 53.3731 221.279 54.5784 220.476C55.7837 220.074 57.7926 220.074 58.5961 220.476Z" fill="#16110D"/>
<path d="M67.034 217.664C68.5873 217.664 69.8462 216.945 69.8462 216.057C69.8462 215.17 68.5873 214.45 67.034 214.45C65.4808 214.45 64.2209 215.17 64.2209 216.057C64.2209 216.945 65.4808 217.664 67.034 217.664Z" fill="#16110D"/>
<path d="M26.454 229.315C28.0072 229.315 29.2662 228.596 29.2662 227.708C29.2662 226.821 28.0072 226.101 26.454 226.101C24.9008 226.101 23.6418 226.821 23.6418 227.708C23.6418 228.596 24.9008 229.315 26.454 229.315Z" fill="#16110D"/>
<path d="M38.5077 220.476C39.713 221.279 39.713 222.083 38.5077 222.887C37.3024 223.69 35.6953 223.69 34.49 222.887C33.2847 222.083 33.2847 221.279 34.49 220.476C35.6953 220.074 37.3024 220.074 38.5077 220.476Z" fill="#16110D"/>
<path d="M48.5519 214.852C49.7572 215.655 49.7572 216.459 48.5519 217.262C47.3466 218.066 45.7395 218.066 44.5342 217.262C43.3289 216.459 43.3289 215.655 44.5342 214.852C45.7395 214.048 47.3466 214.048 48.5519 214.852Z" fill="#16110D"/>
<path d="M58.5961 208.825C59.8014 209.628 59.8014 210.432 58.5961 211.235C57.3908 212.039 55.7837 212.039 54.5784 211.235C53.3731 210.432 53.3731 209.628 54.5784 208.825C55.7837 208.021 57.7926 208.423 58.5961 208.825Z" fill="#16110D"/>
<path d="M16.0076 223.289C17.5609 223.289 18.8208 222.569 18.8208 221.682C18.8208 220.794 17.5609 220.074 16.0076 220.074C14.4544 220.074 13.1954 220.794 13.1954 221.682C13.1954 222.569 14.4544 223.289 16.0076 223.289Z" fill="#16110D"/>
<path d="M28.0593 214.852C29.2646 215.655 29.2646 216.459 28.0593 217.262C26.854 218.066 25.2469 218.066 24.0416 217.262C22.8363 216.459 22.8363 215.655 24.0416 214.852C25.2469 214.048 26.854 214.048 28.0593 214.852Z" fill="#16110D"/>
<path d="M38.1035 208.825C39.3089 209.629 39.3089 210.432 38.1035 211.236C36.8982 212.039 35.2912 212.039 34.0859 211.236C32.8806 210.432 32.8806 209.629 34.0859 208.825C35.2912 208.022 37.3 208.022 38.1035 208.825Z" fill="#16110D"/>
<path d="M48.5519 202.798C49.7572 203.602 49.7572 204.405 48.5519 205.209C47.3466 206.012 45.7395 206.012 44.5342 205.209C43.3289 204.405 43.3289 203.602 44.5342 202.798C45.7395 202.397 47.3466 202.397 48.5519 202.798Z" fill="#16110D"/>
<path d="M16.0076 211.638C17.5609 211.638 18.8208 210.918 18.8208 210.031C18.8208 209.143 17.5609 208.424 16.0076 208.424C14.4544 208.424 13.1954 209.143 13.1954 210.031C13.1954 210.918 14.4544 211.638 16.0076 211.638Z" fill="#16110D"/>
<path d="M28.0593 202.798C29.2646 203.602 29.2646 204.405 28.0593 205.209C26.854 206.012 25.2469 206.012 24.0416 205.209C22.8363 204.405 22.8363 203.602 24.0416 202.798C25.2469 202.397 26.854 202.397 28.0593 202.798Z" fill="#16110D"/>
<path d="M118.058 269.492C119.612 269.492 120.871 268.772 120.871 267.885C120.871 266.997 119.612 266.278 118.058 266.278C116.505 266.278 115.246 266.997 115.246 267.885C115.246 268.772 116.505 269.492 118.058 269.492Z" fill="#16110D"/>
<path d="M128.503 263.466C130.056 263.466 131.316 262.746 131.316 261.859C131.316 260.971 130.056 260.251 128.503 260.251C126.95 260.251 125.691 260.971 125.691 261.859C125.691 262.746 126.95 263.466 128.503 263.466Z" fill="#16110D"/>
<path d="M99.9775 266.68C101.183 267.483 101.183 268.287 99.9775 269.09C98.7722 269.894 97.1651 269.894 95.9598 269.09C94.7545 268.287 94.7545 267.483 95.9598 266.68C97.1651 265.876 98.7722 265.876 99.9775 266.68Z" fill="#16110D"/>
<path d="M110.022 260.653C111.227 261.456 111.227 262.26 110.022 263.063C108.816 263.867 107.209 263.867 106.004 263.063C104.799 262.26 104.799 261.456 106.004 260.653C107.209 260.251 108.816 260.251 110.022 260.653Z" fill="#16110D"/>
<path d="M120.066 255.029C121.271 255.832 121.271 256.636 120.066 257.439C118.861 258.243 117.254 258.243 116.048 257.439C114.843 256.636 114.843 255.832 116.048 255.029C117.254 254.225 118.861 254.225 120.066 255.029Z" fill="#16110D"/>
<path d="M128.503 251.815C130.056 251.815 131.316 251.095 131.316 250.208C131.316 249.32 130.056 248.601 128.503 248.601C126.95 248.601 125.691 249.32 125.691 250.208C125.691 251.095 126.95 251.815 128.503 251.815Z" fill="#16110D"/>
<path d="M87.5217 263.466C89.0749 263.466 90.3338 262.746 90.3338 261.859C90.3338 260.971 89.0749 260.251 87.5217 260.251C85.9684 260.251 84.7095 260.971 84.7095 261.859C84.7095 262.746 85.9684 263.466 87.5217 263.466Z" fill="#16110D"/>
<path d="M99.9775 255.029C101.183 255.832 101.183 256.636 99.9775 257.439C98.7722 258.243 97.1651 258.243 95.9598 257.439C94.7545 256.636 94.7545 255.832 95.9598 255.029C97.1651 254.225 98.7722 254.225 99.9775 255.029Z" fill="#16110D"/>
<path d="M108.014 251.815C109.567 251.815 110.826 251.095 110.826 250.208C110.826 249.32 109.567 248.601 108.014 248.601C106.461 248.601 105.202 249.32 105.202 250.208C105.202 251.095 106.461 251.815 108.014 251.815Z" fill="#16110D"/>
<path d="M118.058 245.788C119.612 245.788 120.871 245.069 120.871 244.181C120.871 243.293 119.612 242.574 118.058 242.574C116.505 242.574 115.246 243.293 115.246 244.181C115.246 245.069 116.505 245.788 118.058 245.788Z" fill="#16110D"/>
<path d="M79.4869 255.029C80.6922 255.832 80.6922 256.636 79.4869 257.439C78.2816 258.243 76.6745 258.243 75.4692 257.439C74.2639 256.636 74.2639 255.832 75.4692 255.029C76.6745 254.225 78.2816 254.225 79.4869 255.029Z" fill="#16110D"/>
<path d="M89.5311 249.002C90.7364 249.805 90.7364 250.609 89.5311 251.412C88.3258 252.216 86.7187 252.216 85.5134 251.412C84.3081 250.609 84.3081 249.805 85.5134 249.002C86.7187 248.6 88.7276 248.6 89.5311 249.002Z" fill="#16110D"/>
<path d="M99.9775 242.975C101.183 243.779 101.183 244.582 99.9775 245.386C98.7722 246.189 97.1651 246.189 95.9598 245.386C94.7545 244.582 94.7545 243.779 95.9598 242.975C97.1651 242.574 98.7722 242.574 99.9775 242.975Z" fill="#16110D"/>
<path d="M108.014 240.163C109.567 240.163 110.826 239.443 110.826 238.556C110.826 237.668 109.567 236.948 108.014 236.948C106.461 236.948 105.202 237.668 105.202 238.556C105.202 239.443 106.461 240.163 108.014 240.163Z" fill="#16110D"/>
<path d="M149.396 70.2155L90.7379 9.95025L32.0793 1.91488C29.2669 1.11134 26.8565 1.5131 25.2494 2.7184L6.36646 13.9679L18.4195 39.2794V79.4562C18.4195 79.4562 24.8482 131.686 56.9897 181.907C82.3011 221.682 87.5235 224.897 87.5235 224.897C87.5235 224.897 90.7381 226.504 103.996 222.486L107.612 224.093L121.273 216.058C123.683 214.852 128.103 212.843 130.111 211.236H130.513C154.619 194.362 159.441 158.605 159.441 158.605L161.047 91.1075C159.842 84.6792 155.825 75.8403 149.396 70.2155Z" fill="#36A9E1"/>
<path d="M153.814 98.741C157.43 96.7322 158.636 92.3127 157.029 88.295C155.02 84.2773 152.609 80.2596 148.993 77.4473L95.1567 22.0032L65.8274 39.681C65.0239 39.681 62.2109 37.2704 58.1932 34.458L55.381 36.0651L117.254 119.633L153.814 98.741Z" fill="white"/>
<path d="M89.1311 227.307C87.1223 227.307 86.3179 226.905 86.3179 226.905C85.5144 226.503 80.2916 222.084 55.382 183.514C23.2405 133.293 16.4106 80.6612 16.4106 80.2594V40.4843L3.95538 13.9676L24.0438 2.3163C26.0527 1.111 28.865 0.70924 32.0792 1.51278L91.14 9.54815L150.2 70.2152C156.628 76.2417 161.047 85.0806 161.047 92.3124L159.441 159.81C159.039 161.417 154.217 195.567 130.512 213.245L129.709 213.647C127.299 215.254 122.879 217.263 120.468 218.468L106.406 226.905L102.791 225.298C95.9608 226.503 91.9435 227.307 89.1311 227.307ZM87.9256 224.093C88.3274 224.093 91.9435 224.896 103.193 221.28H103.594L106.809 222.887L119.665 215.254C122.076 214.048 126.093 212.04 128.504 210.432H128.906C152.208 193.96 157.03 159.408 157.03 159.006L158.636 91.9107C158.636 85.4824 154.619 77.0453 148.592 71.8223L90.3356 11.9587L32.0792 4.32515C29.6686 3.52161 27.6601 3.92334 26.4548 4.72688L8.37523 15.1729L20.0261 40.0825V80.2594C20.0261 80.6612 26.8566 132.489 58.5963 181.907C81.8989 219.271 87.5238 223.691 87.9256 224.093Z" fill="#16110D"/>
<path d="M89.5304 11.1545C89.9322 10.7527 89.9322 10.351 89.5304 10.351L32.0773 2.71735C29.2649 1.91381 26.8545 2.31563 25.2474 3.52094L6.36452 14.7704L12.391 28.0288L71.4508 22.0023L89.5304 11.1545Z" fill="#36A9E1"/>
<path d="M91.5393 15.9765C91.941 15.5747 91.941 15.173 91.5393 15.173L34.0861 7.53939C31.2738 6.73585 28.8634 7.13761 27.2563 8.34291L8.37335 19.5924L14.3999 32.8508L73.4597 26.8242L91.5393 15.9765Z" fill="white"/>
<path d="M11.1842 29.2345L4.7565 15.5744C4.35473 14.3691 4.7563 13.1637 5.55984 12.7619L24.0406 1.9142C26.0494 0.708897 28.8618 0.307141 32.076 1.11068L89.1279 8.74426C89.9314 8.74426 90.7346 9.54783 90.7346 10.3514C90.7346 11.1549 90.333 11.9584 89.9312 12.3602L71.0483 23.208L11.1842 29.2345ZM7.96986 14.7708L13.193 26.0203L70.6462 20.3956L86.3147 11.5567L31.6748 4.32484C29.2642 3.5213 27.2548 3.92303 26.0494 4.72657L7.96986 14.7708Z" fill="#16110D"/>
<path d="M129.709 81.8666L71.0515 21.6013L12.3929 13.5659C6.36638 11.9588 1.94653 15.5747 1.94653 22.8065V89.0983C1.94653 89.0983 8.37522 141.328 40.5167 191.549C65.8281 231.324 71.0515 234.539 71.0515 234.539C71.0515 234.539 76.2739 236.949 101.585 226.905C134.129 214.048 140.156 169.05 140.156 169.05V102.759C140.156 95.9284 136.137 87.4913 129.709 81.8666Z" fill="#16110D"/>
<path d="M73.0584 236.546C71.0496 236.546 70.2452 236.144 70.2452 236.144C69.4417 235.742 64.2189 231.323 39.3092 192.753C7.16776 142.532 0.337891 89.9005 0.337891 89.4987V23.2069C0.337891 19.1892 1.5432 15.9751 4.35558 13.9662C6.76619 12.3591 9.57896 11.9574 12.7931 12.7609L71.8529 20.7963L130.913 81.4633C137.341 87.4899 141.76 96.3288 141.76 103.561V169.852C141.358 171.861 134.931 216.056 101.986 229.314C85.1113 235.341 77.0761 236.546 73.0584 236.546ZM71.8529 233.332C71.8529 233.332 77.8796 234.939 101.182 225.296C132.52 212.842 138.948 169.049 138.948 168.647V102.757C138.948 96.3288 134.93 87.8917 128.904 82.6687L70.6474 22.8051L12.3909 15.1715C9.98034 14.368 7.56973 14.7698 6.36442 15.9751C4.75735 17.1804 3.55224 19.591 3.55224 22.8051V89.0969C3.55224 89.4987 10.3817 141.327 42.1214 190.744C66.2275 228.912 71.4511 233.332 71.8529 233.332Z" fill="#16110D"/>
<path d="M73.0574 222.083C71.4503 222.083 70.646 221.681 70.2443 221.681C69.4407 221.28 65.0215 217.664 43.326 183.915C15.6039 140.524 9.57779 94.7224 9.57779 94.3207V36.8678C9.57779 33.2518 10.7833 30.4395 12.7921 28.8324C14.801 27.2253 17.613 26.8236 20.4253 27.6271L71.8519 34.4572L123.278 87.0888C128.903 92.3118 132.921 99.9454 132.921 106.776V164.228C132.519 166.237 127.295 204.405 98.368 216.057C83.5026 220.878 76.2716 222.083 73.0574 222.083ZM71.8519 218.869C72.2537 218.869 77.0751 220.074 97.1635 212.039C124.082 201.191 129.706 163.425 129.706 163.023V105.57C129.706 99.9454 126.091 92.7136 121.27 88.2941L70.6464 36.466L20.0232 29.636C18.0143 29.2342 16.0063 29.2342 14.801 30.4395C13.1939 31.6448 12.39 33.6536 12.39 36.0642V93.5171C12.39 93.9189 18.4167 138.917 45.737 181.906C67.0307 214.851 71.8519 218.869 71.8519 218.869Z" fill="#36A9E1"/>
</svg>
