<svg width="194" height="242" viewBox="0 0 194 242" fill="none" xmlns="http://www.w3.org/2000/svg">
<path d="M60.8021 238.925C61.9091 239.663 61.9091 240.401 60.8021 241.139C59.6951 241.877 58.2192 241.877 57.1122 241.139C56.0052 240.401 56.0052 239.663 57.1122 238.925C58.2192 238.187 60.0641 238.187 60.8021 238.925Z" fill="#16110D"/>
<path d="M70.3941 233.39C71.5011 234.128 71.5011 234.866 70.3941 235.604C69.2872 236.342 67.8112 236.342 66.7042 235.604C65.5973 234.866 65.5973 234.128 66.7042 233.39C67.8112 232.652 69.2872 232.652 70.3941 233.39Z" fill="#16110D"/>
<path d="M79.6186 227.856C80.7256 228.594 80.7256 229.332 79.6186 230.07C78.5117 230.808 77.0357 230.808 75.9287 230.07C74.8218 229.332 74.8218 228.594 75.9287 227.856C77.0357 227.487 78.5117 227.487 79.6186 227.856Z" fill="#16110D"/>
<path d="M88.8431 222.689C89.9501 223.427 89.9501 224.165 88.8431 224.903C87.7361 225.641 86.2602 225.641 85.1532 224.903C84.0463 224.165 84.0463 223.427 85.1532 222.689C86.2602 221.951 88.1051 221.951 88.8431 222.689Z" fill="#16110D"/>
<path d="M98.0683 217.154C99.1753 217.892 99.1753 218.63 98.0683 219.368C96.9614 220.106 95.4854 220.106 94.3784 219.368C93.2715 218.63 93.2715 217.892 94.3784 217.154C95.4854 216.785 97.3304 216.785 98.0683 217.154Z" fill="#16110D"/>
<path d="M105.817 214.203C107.244 214.203 108.4 213.542 108.4 212.727C108.4 211.912 107.244 211.251 105.817 211.251C104.39 211.251 103.234 211.912 103.234 212.727C103.234 213.542 104.39 214.203 105.817 214.203Z" fill="#16110D"/>
<path d="M42.3524 238.925C43.4594 239.663 43.4594 240.401 42.3524 241.139C41.2454 241.877 39.7695 241.877 38.6625 241.139C37.5555 240.401 37.5555 239.663 38.6625 238.925C39.7695 238.187 41.2454 238.187 42.3524 238.925Z" fill="#16110D"/>
<path d="M49.7309 235.973C51.1574 235.973 52.3137 235.312 52.3137 234.497C52.3137 233.682 51.1574 233.021 49.7309 233.021C48.3044 233.021 47.1482 233.682 47.1482 234.497C47.1482 235.312 48.3044 235.973 49.7309 235.973Z" fill="#16110D"/>
<path d="M58.9563 230.438C60.3828 230.438 61.539 229.777 61.539 228.962C61.539 228.147 60.3828 227.486 58.9563 227.486C57.5298 227.486 56.3735 228.147 56.3735 228.962C56.3735 229.777 57.5298 230.438 58.9563 230.438Z" fill="#16110D"/>
<path d="M70.3941 222.689C71.5011 223.427 71.5011 224.165 70.3941 224.903C69.2872 225.641 67.8112 225.641 66.7042 224.903C65.5973 224.165 65.5973 223.427 66.7042 222.689C67.8112 221.951 69.2872 221.951 70.3941 222.689Z" fill="#16110D"/>
<path d="M77.7753 219.738C79.2018 219.738 80.358 219.077 80.358 218.262C80.358 217.446 79.2018 216.786 77.7753 216.786C76.3488 216.786 75.1917 217.446 75.1917 218.262C75.1917 219.077 76.3488 219.738 77.7753 219.738Z" fill="#16110D"/>
<path d="M88.8431 211.989C89.9501 212.727 89.9501 213.465 88.8431 214.203C87.7361 214.941 86.2602 214.941 85.1532 214.203C84.0463 213.465 84.0463 212.727 85.1532 211.989C86.2602 211.251 88.1051 211.251 88.8431 211.989Z" fill="#16110D"/>
<path d="M98.0683 206.454C99.1753 207.192 99.1753 207.93 98.0683 208.668C96.9614 209.406 95.4854 209.406 94.3784 208.668C93.2715 207.93 93.2715 207.192 94.3784 206.454C95.4854 205.716 97.3304 205.716 98.0683 206.454Z" fill="#16110D"/>
<path d="M32.7562 233.39C33.8632 234.128 33.8632 234.866 32.7562 235.604C31.6492 236.342 30.1733 236.342 29.0663 235.604C27.9593 234.866 27.9593 234.128 29.0663 233.39C30.1733 232.652 32.0182 232.652 32.7562 233.39Z" fill="#16110D"/>
<path d="M42.3524 227.856C43.4594 228.594 43.4594 229.332 42.3524 230.07C41.2454 230.808 39.7695 230.808 38.6625 230.07C37.5555 229.332 37.5555 228.594 38.6625 227.856C39.7695 227.487 41.2454 227.487 42.3524 227.856Z" fill="#16110D"/>
<path d="M21.6875 230.438C23.114 230.438 24.2711 229.777 24.2711 228.962C24.2711 228.147 23.114 227.486 21.6875 227.486C20.261 227.486 19.1047 228.147 19.1047 228.962C19.1047 229.777 20.261 230.438 21.6875 230.438Z" fill="#16110D"/>
<path d="M32.7562 222.689C33.8632 223.427 33.8632 224.165 32.7562 224.903C31.6492 225.641 30.1733 225.641 29.0663 224.903C27.9593 224.165 27.9593 223.427 29.0663 222.689C30.1733 221.951 32.0182 221.951 32.7562 222.689Z" fill="#16110D"/>
<path d="M13.9389 222.689C15.0459 223.427 15.0459 224.165 13.9389 224.903C12.832 225.641 11.356 225.641 10.249 224.903C9.14208 224.165 9.14208 223.427 10.249 222.689C11.356 221.951 13.201 221.951 13.9389 222.689Z" fill="#16110D"/>
<path d="M23.5317 217.155C24.6387 217.893 24.6387 218.63 23.5317 219.368C22.4247 220.106 20.9488 220.106 19.8418 219.368C18.7349 218.63 18.7349 217.893 19.8418 217.155C20.9488 216.417 22.4247 216.417 23.5317 217.155Z" fill="#16110D"/>
<path d="M4.71445 217.155C5.82142 217.893 5.82142 218.63 4.71445 219.368C3.60749 220.106 2.13153 220.106 1.02456 219.368C-0.082406 218.63 -0.082406 217.893 1.02456 217.155C2.13153 216.417 3.60749 216.417 4.71445 217.155Z" fill="#16110D"/>
<path d="M13.9389 211.62C15.0459 212.357 15.0459 213.095 13.9389 213.833C12.832 214.571 11.356 214.571 10.249 213.833C9.14208 213.095 9.14208 212.357 10.249 211.62C11.356 211.251 13.201 211.251 13.9389 211.62Z" fill="#16110D"/>
<path d="M4.71445 206.454C5.82142 207.192 5.82142 207.93 4.71445 208.668C3.60749 209.406 2.13153 209.406 1.02456 208.668C-0.082406 207.93 -0.082406 207.192 1.02456 206.454C2.13153 205.716 3.60749 205.716 4.71445 206.454Z" fill="#16110D"/>
<path d="M113.566 206.454C114.673 205.716 116.149 205.716 117.256 206.454C118.363 207.192 118.363 207.93 117.256 208.668C116.149 209.406 114.673 209.406 113.566 208.668C112.459 207.93 112.459 207.192 113.566 206.454Z" fill="#16110D"/>
<path d="M126.48 200.919C127.587 201.657 127.587 202.395 126.48 203.133C125.373 203.871 123.897 203.871 122.79 203.133C121.683 202.395 121.683 201.657 122.79 200.919C123.897 200.55 125.373 200.55 126.48 200.919Z" fill="#16110D"/>
<path d="M135.706 195.753C136.813 196.491 136.813 197.229 135.706 197.967C134.599 198.705 133.123 198.705 132.016 197.967C130.909 197.229 130.909 196.491 132.016 195.753C133.123 195.015 134.599 195.015 135.706 195.753Z" fill="#16110D"/>
<path d="M143.087 192.801C144.513 192.801 145.669 192.141 145.669 191.325C145.669 190.51 144.513 189.849 143.087 189.849C141.66 189.849 140.504 190.51 140.504 191.325C140.504 192.141 141.66 192.801 143.087 192.801Z" fill="#16110D"/>
<path d="M154.523 185.053C155.63 185.79 155.63 186.528 154.523 187.266C153.416 188.004 151.94 188.004 150.833 187.266C149.726 186.528 149.726 185.79 150.833 185.053C151.94 184.315 153.416 184.315 154.523 185.053Z" fill="#16110D"/>
<path d="M161.903 182.101C163.33 182.101 164.487 181.44 164.487 180.625C164.487 179.81 163.33 179.149 161.903 179.149C160.477 179.149 159.32 179.81 159.32 180.625C159.32 181.44 160.477 182.101 161.903 182.101Z" fill="#16110D"/>
<path d="M172.973 173.983C174.079 174.721 174.079 175.459 172.973 176.197C171.866 176.935 170.39 176.935 169.283 176.197C168.176 175.459 168.176 174.721 169.283 173.983C170.39 173.614 172.235 173.614 172.973 173.983Z" fill="#16110D"/>
<path d="M180.723 171.4C182.149 171.4 183.306 170.739 183.306 169.924C183.306 169.109 182.149 168.448 180.723 168.448C179.296 168.448 178.14 169.109 178.14 169.924C178.14 170.739 179.296 171.4 180.723 171.4Z" fill="#16110D"/>
<path d="M191.792 163.283C192.899 164.021 192.899 164.759 191.792 165.497C190.685 166.235 189.209 166.235 188.102 165.497C186.995 164.759 186.995 164.021 188.102 163.283C189.209 162.914 190.685 162.914 191.792 163.283Z" fill="#16110D"/>
<path d="M103.973 200.919C105.08 200.181 106.556 200.181 107.663 200.919C108.77 201.657 108.77 202.395 107.663 203.133C106.556 203.871 105.08 203.871 103.973 203.133C103.235 202.764 103.235 201.657 103.973 200.919Z" fill="#16110D"/>
<path d="M116.887 195.753C117.994 196.491 117.994 197.229 116.887 197.967C115.78 198.705 114.304 198.705 113.197 197.967C112.09 197.229 112.09 196.491 113.197 195.753C114.304 195.015 116.149 195.015 116.887 195.753Z" fill="#16110D"/>
<path d="M124.637 192.801C126.063 192.801 127.22 192.141 127.22 191.325C127.22 190.51 126.063 189.849 124.637 189.849C123.21 189.849 122.054 190.51 122.054 191.325C122.054 192.141 123.21 192.801 124.637 192.801Z" fill="#16110D"/>
<path d="M135.706 185.053C136.813 185.79 136.813 186.528 135.706 187.266C134.599 188.004 133.123 188.004 132.016 187.266C130.909 186.528 130.909 185.79 132.016 185.053C133.123 184.315 134.599 184.315 135.706 185.053Z" fill="#16110D"/>
<path d="M144.931 179.518C146.038 180.256 146.038 180.994 144.931 181.732C143.824 182.47 142.348 182.47 141.241 181.732C140.134 180.994 140.134 180.256 141.241 179.518C142.348 178.78 144.193 178.78 144.931 179.518Z" fill="#16110D"/>
<path d="M154.523 173.983C155.63 174.721 155.63 175.459 154.523 176.197C153.416 176.935 151.94 176.935 150.833 176.197C149.726 175.459 149.726 174.721 150.833 173.983C151.94 173.614 153.416 173.614 154.523 173.983Z" fill="#16110D"/>
<path d="M163.747 168.817C164.854 169.555 164.854 170.293 163.747 171.031C162.64 171.769 161.164 171.769 160.057 171.031C158.95 170.293 158.95 169.555 160.057 168.817C161.164 168.079 162.64 168.079 163.747 168.817Z" fill="#16110D"/>
<path d="M172.973 163.283C174.079 164.021 174.079 164.759 172.973 165.497C171.866 166.235 170.39 166.235 169.283 165.497C168.176 164.759 168.176 164.021 169.283 163.283C170.39 162.914 172.235 162.914 172.973 163.283Z" fill="#16110D"/>
<path d="M182.197 158.116C183.304 158.854 183.304 159.592 182.197 160.33C181.09 161.068 179.614 161.068 178.507 160.33C177.4 159.592 177.4 158.854 178.507 158.116C179.614 157.378 181.459 157.378 182.197 158.116Z" fill="#16110D"/>
<path d="M189.947 155.165C191.374 155.165 192.53 154.504 192.53 153.689C192.53 152.873 191.374 152.213 189.947 152.213C188.521 152.213 187.365 152.873 187.365 153.689C187.365 154.504 188.521 155.165 189.947 155.165Z" fill="#16110D"/>
<path d="M163.01 48.157C175.187 37.4563 172.973 17.8999 158.952 10.1512L148.251 4.2473C146.037 2.77135 143.085 2.77137 140.133 4.61631L14.6767 76.5692C8.03493 80.2591 2.86926 90.5908 2.86926 99.0775V191.694C2.86926 196.122 4.34522 199.443 6.55915 200.918L47.148 223.427L67.073 188.373L86.999 159.223L140.133 128.597C146.775 124.907 151.941 114.575 151.941 106.088V64.3926L163.01 48.157Z" fill="#36A9E1"/>
<path d="M54.528 181.732C47.8862 185.421 42.7205 181.363 42.7205 172.876V150.737C42.7205 150.368 42.7205 150.367 42.7205 149.999C42.3515 133.763 33.4956 119.372 19.474 111.255L2.50012 102.399V191.694C2.50012 196.122 3.97608 199.443 6.19001 200.919L46.7788 223.427L66.7048 188.373L81.8328 166.234L54.528 181.732Z" fill="#16110D"/>
<path d="M48.2555 224.903C47.8866 225.641 47.1486 225.641 46.4106 225.272L4.34529 202.026V201.657C1.76236 199.443 0.655396 196.122 0.655396 191.325V98.7086C0.655396 89.1148 6.19023 78.4141 13.57 74.3553L139.026 2.40236C142.716 0.188428 146.037 0.188406 148.989 2.03335L158.952 7.56819C165.963 11.6271 171.129 18.2689 172.605 26.0176C174.081 34.5044 170.76 42.9912 164.487 48.526L153.786 64.3926V105.35C153.786 114.944 148.251 125.645 140.871 129.704L88.1057 159.961L68.5499 188.742L48.2555 224.903ZM7.66673 199.812L46.0412 220.844L64.8601 187.266L85.5229 157.378L138.658 126.752C144.562 123.431 149.728 113.837 149.728 105.719V63.6546L161.535 46.3121C167.07 41.5152 169.653 34.8734 168.915 27.8626C168.177 20.8518 164.118 14.948 157.845 11.2581L148.251 5.72324L147.144 4.98528C144.93 3.50932 142.716 4.24732 140.871 5.35429L15.415 77.3072C9.51114 80.6281 4.34529 90.2218 4.34529 98.3395V190.956C4.34529 195.384 5.4528 198.336 7.66673 199.812Z" fill="#16110D"/>
<path d="M172.972 154.425L54.5273 222.688C47.8855 226.378 42.7198 222.319 42.7198 213.832V121.216C42.7198 112.36 47.8855 102.398 54.5273 98.7078L172.972 30.4448C179.614 26.755 184.781 30.8138 184.781 39.3006V131.548C184.781 140.404 179.614 150.366 172.972 154.425Z" fill="#36A9E1"/>
<path d="M49.73 226.009C48.254 226.009 47.1467 225.64 45.6707 224.902C42.3498 223.057 40.5052 218.999 40.5052 213.833V121.216C40.5052 111.623 46.0401 100.922 53.4199 96.8632L171.866 28.6002C175.187 26.7552 178.876 26.3862 181.459 27.8621C184.78 29.7071 186.625 33.766 186.625 38.9318V131.548C186.625 141.142 181.09 151.843 173.711 155.901L55.2648 224.164C53.4199 225.271 51.5749 226.009 49.73 226.009ZM177.769 30.4451C176.293 30.4451 175.186 31.183 174.079 31.552L55.6342 99.815C49.7303 103.136 44.5645 112.73 44.5645 120.847V213.464C44.5645 217.523 45.6711 220.106 47.885 221.581C49.73 222.688 52.3133 221.951 53.7892 220.844L172.234 152.581C178.138 149.26 183.304 139.666 183.304 131.548V38.9318C183.304 34.8729 182.197 32.29 179.983 30.8141C179.245 30.4451 178.507 30.4451 177.769 30.4451Z" fill="#16110D"/>
<path d="M168.915 16.0549L153.418 7.19923L149.359 4.98527L147.883 4.2473C145.669 2.77135 142.716 2.77137 139.765 4.61631L14.3082 76.5692C11.3563 78.0452 8.77334 80.997 6.9284 84.3179C5.45244 86.9009 6.19042 90.2218 8.77334 91.6977L19.1052 97.6016C33.1268 105.35 41.9827 120.11 42.3517 136.345C42.3517 136.714 42.3517 136.714 42.3517 137.083V159.223C42.3517 168.078 47.5174 172.137 54.1592 168.078L179.616 96.1256C186.257 92.4357 191.423 82.104 191.423 73.6173V51.8469C190.685 36.7183 181.83 23.4347 168.915 16.0549Z" fill="#36A9E1"/>
<path d="M63.0155 124.169L177.402 57.7508C184.782 53.323 186.995 43.3603 181.46 36.7185C178.14 32.6596 173.712 28.9697 168.915 26.3868L153.418 17.531L149.359 15.3171L147.883 14.5791C145.669 13.1032 142.716 13.1031 139.765 14.9481L14.3082 86.901C11.3563 88.3769 9.14233 91.3289 6.9284 94.6498C5.45244 97.2327 6.19042 100.554 8.77334 102.03L19.1052 107.933C23.9021 110.885 28.3299 114.575 32.0198 118.634C39.7686 127.49 52.6838 130.073 63.0155 124.169Z" fill="white"/>
<path d="M49.7308 171.03C48.2548 171.03 47.1475 170.661 45.6715 169.923C42.3506 168.078 40.506 164.02 40.506 158.854V135.976C40.137 120.848 31.6503 106.457 18.3667 98.7086L8.03481 92.8047C6.18986 91.6977 5.08326 90.2218 4.71427 88.3769C4.34528 86.5319 4.3451 84.687 5.45207 82.842C7.666 79.1521 10.6177 76.2002 13.5696 74.3553L139.026 2.40236C142.716 0.188428 146.406 0.188406 148.988 2.03335L154.155 4.98528L169.652 13.8411C183.305 21.5898 192.161 35.2424 193.637 50.74V72.8793C193.637 82.473 188.102 93.1737 180.722 97.2326L55.2656 169.186C53.4207 170.661 51.5757 171.03 49.7308 171.03ZM144.561 4.98528C143.085 4.98528 141.978 5.35428 140.871 6.09226L15.4146 78.0451C12.8317 79.5211 10.6176 82.104 8.77261 85.0559C8.40362 85.7939 8.03517 86.9009 8.40416 87.6389C8.77315 88.3769 9.14214 89.4838 10.2491 89.8528L20.581 95.7566C35.3406 104.243 44.5647 119.372 44.9337 135.976V136.714V158.854C44.9337 162.913 46.0412 165.496 48.2552 166.972C50.1001 168.079 52.6825 167.341 54.1585 166.234L179.615 94.2807C185.519 90.9597 190.684 81.366 190.684 73.2483V51.4779C189.577 37.4564 181.091 24.9107 168.545 17.8999L147.882 6.09226C146.406 4.98529 145.299 4.98528 144.561 4.98528Z" fill="#16110D"/>
<path d="M136.446 107.196C136.446 106.827 136.445 106.827 136.076 106.458L130.173 103.137C129.435 102.768 128.697 102.768 127.59 103.137L111.354 112.362C109.509 113.469 108.034 116.421 108.034 119.004V142.988C108.034 144.464 108.403 145.202 109.141 145.94L115.044 149.261C115.413 149.261 115.782 149.261 115.782 148.892L116.521 142.619L127.59 136.346C129.435 135.239 130.911 132.287 130.911 129.704V113.838L133.863 111.993L136.446 107.196Z" fill="#36A9E1"/>
<path d="M136.446 110.148C136.446 109.779 136.445 109.779 136.076 109.41L130.173 106.089C129.435 105.72 128.697 105.72 127.59 106.089L111.354 115.314C109.509 116.421 108.034 119.373 108.034 121.955V142.619C108.034 144.095 108.403 144.833 109.141 145.571L110.986 147.416L114.676 149.63C115.045 149.63 115.413 149.63 115.413 149.261L116.151 145.94L127.221 139.667C129.066 138.56 130.541 135.608 130.541 133.025V116.79L133.493 114.945L136.446 110.148Z" fill="white"/>
<path d="M115.78 150.737C115.411 150.737 115.042 150.737 115.042 150.368L109.139 147.047C108.032 146.309 107.294 144.833 107.294 142.988V119.004C107.294 116.052 109.139 112.731 111.353 111.255L127.589 102.03C129.065 101.292 130.54 101.292 131.647 102.03L137.551 105.351C138.289 105.72 138.658 106.827 138.289 107.565L136.075 112.731L133.492 114.207V129.335C133.492 132.287 131.647 135.608 129.434 137.084L118.732 143.357L117.995 148.892C117.995 149.63 117.625 149.999 116.887 150.368C116.149 150.737 115.78 150.737 115.78 150.737ZM129.434 104.244C129.065 104.244 129.064 104.244 128.695 104.613L112.46 113.838C110.984 114.576 109.877 117.159 109.877 119.373V143.357C109.877 144.464 110.245 144.833 110.245 144.833L114.674 147.416L115.412 141.881L127.219 135.239C128.695 134.501 129.802 131.918 129.802 129.704V113.1L133.123 111.255L134.599 107.565L129.434 104.613C129.803 104.244 129.434 104.244 129.434 104.244Z" fill="#16110D"/>
<path d="M134.23 140.036L117.995 149.261C116.15 150.368 114.675 149.261 114.675 146.678V122.694C114.675 120.111 116.15 117.159 117.995 116.052L134.23 106.827C136.075 105.72 137.552 106.827 137.552 109.41V133.394C137.921 135.977 136.444 138.929 134.23 140.036Z" fill="#36A9E1"/>
<path d="M116.889 151.106C116.151 151.106 115.782 151.106 115.413 150.737C114.306 149.999 113.568 148.523 113.568 146.678V122.694C113.568 119.742 115.413 116.421 117.627 114.945L133.863 105.72C134.97 104.982 136.446 104.982 137.553 105.72C138.66 106.458 139.398 107.934 139.398 109.779V133.763C139.398 136.715 137.552 140.036 135.338 141.512L119.103 150.737C118.365 151.106 117.627 151.106 116.889 151.106ZM135.708 107.934C135.708 107.934 135.339 107.934 134.97 108.303L118.734 117.528C117.258 118.266 116.151 120.849 116.151 123.062V147.047C116.151 147.785 116.52 148.523 116.52 148.523C116.52 148.523 116.889 148.523 117.258 148.523L133.493 139.298C134.969 138.56 136.076 135.977 136.076 133.763V109.41C136.445 108.672 136.077 108.303 135.708 107.934C135.708 107.934 136.077 107.934 135.708 107.934Z" fill="#16110D"/>
<path d="M129.803 130.073L124.637 133.025C123.899 133.394 123.161 134.87 123.161 135.977V146.678L131.648 141.881V131.18C131.279 130.073 130.541 129.335 129.803 130.073Z" fill="#36A9E1"/>
<path d="M132.385 132.656L127.219 135.608C126.482 135.977 125.744 137.453 125.744 138.559V149.26L134.23 144.463V133.763C134.23 132.656 133.492 131.918 132.385 132.656Z" fill="white"/>
<path d="M121.685 149.26V135.977C121.685 134.132 122.792 132.287 123.899 131.549L129.064 128.597C129.802 128.228 130.909 128.228 131.647 128.597C132.385 128.966 132.754 130.073 132.754 131.18V142.619L121.685 149.26ZM129.802 131.18L125.005 133.763C124.636 134.132 123.899 134.87 123.899 135.608V144.095L129.434 140.774V131.18H129.802Z" fill="#16110D"/>
<path d="M129.066 20.8521L115.413 12.3653C114.675 11.6273 113.937 11.2584 113.199 10.8894C110.616 9.78241 107.295 10.1514 103.974 12.3653L79.9899 26.3869C71.8722 31.1838 65.5997 42.2535 65.5997 51.4782V56.2751L56.375 61.8099V71.4036L73.7173 61.4409L81.0971 65.8687L93.6424 41.1465L110.247 32.2908V40.4085L127.221 30.8148V22.697L129.066 20.8521Z" fill="#36A9E1"/>
<path d="M129.803 25.2798L116.15 16.7931C115.412 16.0551 114.674 15.6861 113.936 15.3171C111.353 14.2101 108.032 14.5791 104.711 16.7931L80.7268 30.8147C72.609 35.6115 66.3365 46.6812 66.3365 55.9059V60.7028L57.1118 66.2376V70.6655L74.4541 65.8686L81.8339 70.2965L94.3801 45.5742L110.985 36.7185L119.84 40.0394L127.958 35.2425V27.1248L129.803 25.2798Z" fill="white"/>
<path d="M54.8978 71.4034V61.0717L64.1226 55.5368V51.478C64.1226 41.8843 70.7647 30.0766 79.2515 25.2797L103.236 11.2581C106.926 9.0442 110.616 8.67524 113.568 9.7822C114.675 10.1512 115.412 10.5202 116.15 11.2581L131.279 20.8519L127.589 23.4348V31.5525L108.033 41.1463V34.5045L93.6417 41.8842L80.7271 67.7135L72.9788 62.9166L54.8978 71.4034ZM57.4815 62.5477V68.8205L73.7166 59.5957L80.3586 63.6546L92.1661 39.6703L111.353 29.7076V37.8254L125.375 29.7076V21.5898L126.851 20.4829L115.043 13.1031C114.305 12.3651 113.936 11.9962 113.198 11.9962C110.984 11.2582 108.033 11.6271 105.081 13.4721L81.0964 27.4937C73.3476 31.9216 67.444 42.6222 67.444 51.478V57.0128L57.4815 62.5477Z" fill="#16110D"/>
<path d="M141.98 30.445L126.113 20.1133L132.755 41.1457L141.98 30.445Z" fill="#36A9E1"/>
<path d="M141.98 33.7663L126.113 23.4346L132.755 44.4669L141.98 33.7663Z" fill="white"/>
<path d="M132.386 43.7289L123.531 16.7927L143.456 29.7073L143.087 31.5523L132.386 43.7289ZM128.696 23.4345L133.493 38.1941L140.135 30.8143L128.696 23.4345Z" fill="#16110D"/>
<path d="M65.5982 56.2754L80.7262 65.8691L71.5015 71.4039L56.0042 61.8102L65.5982 56.2754Z" fill="#36A9E1"/>
<path d="M65.5982 61.0713L80.7262 70.665L71.5015 75.8309L56.0042 66.2372L65.5982 61.0713Z" fill="white"/>
<path d="M108.402 31.5521V41.1459L125.006 51.4776L126.483 50.7396V24.1724L108.402 31.5521Z" fill="#16110D"/>
<path d="M141.981 40.4077L125.007 50.0014V35.6108C125.007 31.9209 122.424 30.445 119.472 32.2899L95.4876 46.3115C92.1667 48.1564 89.9528 52.5843 89.9528 56.2742V70.6648L71.8727 80.9965V71.4028L81.0974 65.8679V61.0711C81.0974 51.8463 87.7389 40.4077 95.4876 35.9798L119.472 21.9582C127.59 17.1614 133.863 21.2203 133.863 30.445V35.2418L141.981 30.445V40.4077Z" fill="#36A9E1"/>
<path d="M141.98 28.9694L135.338 32.6593V30.4454C135.338 25.6485 133.493 21.5896 130.541 19.7446C127.22 17.8997 123.161 18.2687 118.733 20.8516L94.7491 34.8732C86.2623 39.6701 79.6211 51.4777 79.6211 61.0714V63.2854L65.5993 54.7986L54.8981 61.0714V72.1411L71.5026 82.4728L91.0592 71.0342V55.9056C91.0592 52.9537 93.2737 48.8948 96.2256 47.4188L120.21 33.3972C121.317 32.6592 122.055 32.6593 122.793 33.0283C123.531 33.3973 123.9 34.1352 123.9 35.6112V50.7398L125.375 51.8467L143.455 41.146V30.0763L141.98 28.9694ZM64.4922 65.4993L58.9573 61.8094L65.5993 58.1195L78.1446 65.8683L71.5026 69.5582L64.4922 65.4993ZM140.504 39.3011L126.483 47.4188V35.6112C126.483 33.3973 125.744 31.5523 124.268 30.8143C122.792 30.0763 120.947 30.0764 118.733 31.1833L94.7491 45.2049C91.0592 47.4189 88.4764 52.2157 88.4764 56.2746V69.9272L72.9791 78.7829V72.5101L82.2038 66.9753V61.4404C82.2038 52.5847 88.4764 41.884 95.8562 37.4561L119.841 23.4345C123.161 21.5896 126.482 21.2206 128.696 22.3276C130.91 23.8035 132.386 26.3865 132.386 30.4454V37.4561L140.504 32.6593V39.3011Z" fill="#16110D"/>
<path d="M35.7099 166.234C35.7099 171.4 37.5554 175.459 40.8763 177.303C40.8763 177.303 41.2448 177.303 41.2448 177.672V173.245C40.1378 171.769 39.3998 169.555 39.3998 166.234V144.094V143.357C38.2929 138.929 36.0789 135.239 33.865 131.549C34.972 135.608 35.7099 139.667 35.7099 143.725V166.234Z" fill="#36A9E1"/>
<path d="M108.402 118.265L114.675 122.324L115.413 148.522L108.402 145.201V118.265Z" fill="#16110D"/>
<path d="M124.269 168.817C123.162 166.972 123.901 164.758 125.745 163.651L163.013 142.619C167.441 140.036 170.024 135.608 170.024 130.442V116.051C170.024 113.838 171.5 112.362 173.714 112.362C175.928 112.362 177.404 113.838 177.404 116.051V130.442C177.404 138.191 173.345 145.202 166.703 148.892L129.435 169.924C127.221 171.031 125.007 170.293 124.269 168.817Z" fill="white"/>
<path d="M101.76 185.422L115.781 177.304C116.888 176.566 117.626 175.459 117.626 173.983C117.626 171.031 114.674 169.555 112.091 170.662L98.0698 178.78C96.9628 179.518 96.2249 180.625 96.2249 182.101C96.2249 185.053 99.5458 186.897 101.76 185.422Z" fill="white"/>
<path d="M68.5505 40.4087L83.6785 49.6334L79.9886 62.548L80.358 65.5L65.5984 56.2752L65.9668 47.4195L68.5505 40.4087Z" fill="#16110D"/>
</svg>
