<svg width="213" height="240" viewBox="0 0 213 240" fill="none" xmlns="http://www.w3.org/2000/svg">
<path d="M39.557 163.423C40.5762 164.103 40.5762 164.782 39.557 165.462C38.5378 166.141 37.1789 166.141 36.1597 165.462C35.1405 164.782 35.1405 164.103 36.1597 163.423C37.1789 163.084 38.5378 163.084 39.557 163.423Z" fill="#16110D"/>
<path d="M48.0505 158.668C49.0697 159.347 49.0697 160.026 48.0505 160.706C47.0313 161.385 45.6724 161.385 44.6532 160.706C43.634 160.026 43.634 159.347 44.6532 158.668C45.6724 157.988 47.0313 157.988 48.0505 158.668Z" fill="#16110D"/>
<path d="M54.8456 155.949C56.159 155.949 57.2244 155.341 57.2244 154.59C57.2244 153.84 56.159 153.231 54.8456 153.231C53.5322 153.231 52.4685 153.84 52.4685 154.59C52.4685 155.341 53.5322 155.949 54.8456 155.949Z" fill="#16110D"/>
<path d="M63.6782 150.853C64.9916 150.853 66.057 150.245 66.057 149.494C66.057 148.744 64.9916 148.135 63.6782 148.135C62.3648 148.135 61.3011 148.744 61.3011 149.494C61.3011 150.245 62.3648 150.853 63.6782 150.853Z" fill="#16110D"/>
<path d="M73.8698 143.719C74.889 144.399 74.889 145.078 73.8698 145.757C72.8506 146.437 71.4917 146.437 70.4725 145.757C69.4533 145.078 69.4533 144.399 70.4725 143.719C71.4917 143.04 72.8506 143.04 73.8698 143.719Z" fill="#16110D"/>
<path d="M82.3631 138.623C83.3822 139.302 83.3822 139.982 82.3631 140.661C81.3439 141.341 79.9849 141.341 78.9657 140.661C77.9466 139.982 77.9466 139.302 78.9657 138.623C79.9849 138.283 81.6836 138.283 82.3631 138.623Z" fill="#16110D"/>
<path d="M91.1958 133.867C92.215 134.547 92.215 135.226 91.1958 135.906C90.1766 136.585 88.8177 136.585 87.7985 135.906C86.7793 135.226 86.7793 134.547 87.7985 133.867C88.8177 133.188 90.1766 133.188 91.1958 133.867Z" fill="#16110D"/>
<path d="M99.6892 128.771C100.708 129.451 100.708 130.13 99.6892 130.81C98.67 131.489 97.3111 131.489 96.2919 130.81C95.2727 130.13 95.2727 129.451 96.2919 128.771C97.3111 128.092 98.67 128.092 99.6892 128.771Z" fill="#16110D"/>
<path d="M108.183 123.675C109.203 124.355 109.203 125.034 108.183 125.714C107.164 126.393 105.805 126.393 104.786 125.714C103.767 125.034 103.767 124.355 104.786 123.675C105.805 123.335 107.504 123.335 108.183 123.675Z" fill="#16110D"/>
<path d="M29.3649 160.706C30.6783 160.706 31.7437 160.097 31.7437 159.347C31.7437 158.596 30.6783 157.988 29.3649 157.988C28.0515 157.988 26.9878 158.596 26.9878 159.347C26.9878 160.097 28.0515 160.706 29.3649 160.706Z" fill="#16110D"/>
<path d="M39.557 153.572C40.5762 154.251 40.5762 154.93 39.557 155.61C38.5378 156.289 37.1789 156.289 36.1597 155.61C35.1405 154.93 35.1405 154.251 36.1597 153.572C37.1789 152.892 38.5378 152.892 39.557 153.572Z" fill="#16110D"/>
<path d="M48.0505 148.476C49.0697 149.155 49.0697 149.834 48.0505 150.514C47.0313 151.193 45.6724 151.193 44.6532 150.514C43.634 149.834 43.634 149.155 44.6532 148.476C45.6724 148.136 47.0313 148.136 48.0505 148.476Z" fill="#16110D"/>
<path d="M56.5438 143.719C57.563 144.399 57.563 145.078 56.5438 145.757C55.5246 146.437 54.1657 146.437 53.1465 145.757C52.1273 145.078 52.1273 144.399 53.1465 143.719C54.1657 143.04 55.8644 143.04 56.5438 143.719Z" fill="#16110D"/>
<path d="M65.3765 138.623C66.3957 139.302 66.3957 139.982 65.3765 140.661C64.3573 141.341 62.9984 141.341 61.9792 140.661C60.96 139.982 60.96 139.302 61.9792 138.623C62.9984 138.283 64.3573 138.283 65.3765 138.623Z" fill="#16110D"/>
<path d="M73.8698 133.867C74.889 134.547 74.889 135.226 73.8698 135.906C72.8506 136.585 71.4917 136.585 70.4725 135.906C69.4533 135.226 69.4533 134.547 70.4725 133.867C71.4917 133.188 72.8506 133.188 73.8698 133.867Z" fill="#16110D"/>
<path d="M80.6649 131.149C81.9783 131.149 83.0437 130.541 83.0437 129.791C83.0437 129.04 81.9783 128.432 80.6649 128.432C79.3515 128.432 78.2878 129.04 78.2878 129.791C78.2878 130.541 79.3515 131.149 80.6649 131.149Z" fill="#16110D"/>
<path d="M91.1958 123.675C92.215 124.355 92.215 125.034 91.1958 125.714C90.1766 126.393 88.8177 126.393 87.7985 125.714C86.7793 125.034 86.7793 124.355 87.7985 123.675C88.8177 123.335 90.1766 123.335 91.1958 123.675Z" fill="#16110D"/>
<path d="M97.9914 121.297C99.3048 121.297 100.37 120.689 100.37 119.938C100.37 119.188 99.3048 118.579 97.9914 118.579C96.678 118.579 95.6126 119.188 95.6126 119.938C95.6126 120.689 96.678 121.297 97.9914 121.297Z" fill="#16110D"/>
<path d="M20.533 155.949C21.8464 155.949 22.9101 155.341 22.9101 154.59C22.9101 153.84 21.8464 153.231 20.533 153.231C19.2196 153.231 18.1542 153.84 18.1542 154.59C18.1542 155.341 19.2196 155.949 20.533 155.949Z" fill="#16110D"/>
<path d="M30.7251 148.476C31.7442 149.155 31.7442 149.834 30.7251 150.514C29.7059 151.193 28.3469 151.193 27.3277 150.514C26.3086 149.834 26.3086 149.155 27.3277 148.476C28.3469 148.136 30.0456 148.136 30.7251 148.476Z" fill="#16110D"/>
<path d="M39.557 143.719C40.5762 144.399 40.5762 145.078 39.557 145.757C38.5378 146.437 37.1789 146.437 36.1597 145.757C35.1405 145.078 35.1405 144.399 36.1597 143.719C37.1789 143.04 38.5378 143.04 39.557 143.719Z" fill="#16110D"/>
<path d="M46.3515 141.001C47.6649 141.001 48.7303 140.393 48.7303 139.642C48.7303 138.892 47.6649 138.283 46.3515 138.283C45.0381 138.283 43.9744 138.892 43.9744 139.642C43.9744 140.393 45.0381 141.001 46.3515 141.001Z" fill="#16110D"/>
<path d="M54.8456 135.905C56.159 135.905 57.2244 135.297 57.2244 134.546C57.2244 133.796 56.159 133.188 54.8456 133.188C53.5322 133.188 52.4685 133.796 52.4685 134.546C52.4685 135.297 53.5322 135.905 54.8456 135.905Z" fill="#16110D"/>
<path d="M63.6782 131.149C64.9916 131.149 66.057 130.541 66.057 129.791C66.057 129.04 64.9916 128.432 63.6782 128.432C62.3648 128.432 61.3011 129.04 61.3011 129.791C61.3011 130.541 62.3648 131.149 63.6782 131.149Z" fill="#16110D"/>
<path d="M73.8698 123.675C74.889 124.355 74.889 125.034 73.8698 125.714C72.8506 126.393 71.4917 126.393 70.4725 125.714C69.4533 125.034 69.4533 124.355 70.4725 123.675C71.4917 123.335 72.8506 123.335 73.8698 123.675Z" fill="#16110D"/>
<path d="M82.3631 118.919C83.3822 119.598 83.3822 120.277 82.3631 120.957C81.3439 121.636 79.9849 121.636 78.9657 120.957C77.9466 120.277 77.9466 119.598 78.9657 118.919C79.9849 118.239 81.6836 118.239 82.3631 118.919Z" fill="#16110D"/>
<path d="M91.1958 113.823C92.215 114.503 92.215 115.182 91.1958 115.862C90.1766 116.541 88.8177 116.541 87.7985 115.862C86.7793 115.182 86.7793 114.503 87.7985 113.823C88.8177 113.483 90.1766 113.483 91.1958 113.823Z" fill="#16110D"/>
<path d="M12.0405 150.853C13.3539 150.853 14.4176 150.245 14.4176 149.494C14.4176 148.744 13.3539 148.135 12.0405 148.135C10.7271 148.135 9.66168 148.744 9.66168 149.494C9.66168 150.245 10.7271 150.853 12.0405 150.853Z" fill="#16110D"/>
<path d="M20.533 146.097C21.8464 146.097 22.9101 145.489 22.9101 144.738C22.9101 143.988 21.8464 143.379 20.533 143.379C19.2196 143.379 18.1542 143.988 18.1542 144.738C18.1542 145.489 19.2196 146.097 20.533 146.097Z" fill="#16110D"/>
<path d="M30.7251 138.623C31.7442 139.302 31.7442 139.982 30.7251 140.661C29.7059 141.341 28.3469 141.341 27.3277 140.661C26.3086 139.982 26.3086 139.302 27.3277 138.623C28.3469 138.283 30.0456 138.283 30.7251 138.623Z" fill="#16110D"/>
<path d="M39.557 133.867C40.5762 134.547 40.5762 135.226 39.557 135.906C38.5378 136.585 37.1789 136.585 36.1597 135.906C35.1405 135.226 35.1405 134.547 36.1597 133.867C37.1789 133.188 38.5378 133.188 39.557 133.867Z" fill="#16110D"/>
<path d="M48.0505 128.771C49.0697 129.451 49.0697 130.13 48.0505 130.81C47.0313 131.489 45.6724 131.489 44.6532 130.81C43.634 130.13 43.634 129.451 44.6532 128.771C45.6724 128.092 47.0313 128.092 48.0505 128.771Z" fill="#16110D"/>
<path d="M54.8456 126.054C56.159 126.054 57.2244 125.445 57.2244 124.695C57.2244 123.944 56.159 123.336 54.8456 123.336C53.5322 123.336 52.4685 123.944 52.4685 124.695C52.4685 125.445 53.5322 126.054 54.8456 126.054Z" fill="#16110D"/>
<path d="M63.6782 121.297C64.9916 121.297 66.057 120.689 66.057 119.938C66.057 119.188 64.9916 118.579 63.6782 118.579C62.3648 118.579 61.3011 119.188 61.3011 119.938C61.3011 120.689 62.3648 121.297 63.6782 121.297Z" fill="#16110D"/>
<path d="M73.8698 113.823C74.889 114.503 74.889 115.182 73.8698 115.862C72.8506 116.541 71.4917 116.541 70.4725 115.862C69.4533 115.182 69.4533 114.503 70.4725 113.823C71.4917 113.483 72.8506 113.483 73.8698 113.823Z" fill="#16110D"/>
<path d="M80.6649 111.105C81.9783 111.105 83.0437 110.497 83.0437 109.746C83.0437 108.996 81.9783 108.387 80.6649 108.387C79.3515 108.387 78.2878 108.996 78.2878 109.746C78.2878 110.497 79.3515 111.105 80.6649 111.105Z" fill="#16110D"/>
<path d="M3.54699 146.097C4.86038 146.097 5.92411 145.489 5.92411 144.738C5.92411 143.988 4.86038 143.379 3.54699 143.379C2.23359 143.379 1.16821 143.988 1.16821 144.738C1.16821 145.489 2.23359 146.097 3.54699 146.097Z" fill="#16110D"/>
<path d="M12.0405 141.001C13.3539 141.001 14.4176 140.393 14.4176 139.642C14.4176 138.892 13.3539 138.283 12.0405 138.283C10.7271 138.283 9.66168 138.892 9.66168 139.642C9.66168 140.393 10.7271 141.001 12.0405 141.001Z" fill="#16110D"/>
<path d="M20.533 135.905C21.8464 135.905 22.9101 135.297 22.9101 134.546C22.9101 133.796 21.8464 133.188 20.533 133.188C19.2196 133.188 18.1542 133.796 18.1542 134.546C18.1542 135.297 19.2196 135.905 20.533 135.905Z" fill="#16110D"/>
<path d="M29.3649 131.149C30.6783 131.149 31.7437 130.541 31.7437 129.791C31.7437 129.04 30.6783 128.432 29.3649 128.432C28.0515 128.432 26.9878 129.04 26.9878 129.791C26.9878 130.541 28.0515 131.149 29.3649 131.149Z" fill="#16110D"/>
<path d="M39.557 123.675C40.5762 124.355 40.5762 125.034 39.557 125.714C38.5378 126.393 37.1789 126.393 36.1597 125.714C35.1405 125.034 35.1405 124.355 36.1597 123.675C37.1789 123.335 38.5378 123.335 39.557 123.675Z" fill="#16110D"/>
<path d="M48.0505 118.919C49.0697 119.598 49.0697 120.277 48.0505 120.957C47.0313 121.636 45.6724 121.636 44.6532 120.957C43.634 120.277 43.634 119.598 44.6532 118.919C45.6724 118.239 47.0313 118.239 48.0505 118.919Z" fill="#16110D"/>
<path d="M56.5438 113.823C57.563 114.503 57.563 115.182 56.5438 115.862C55.5246 116.541 54.1657 116.541 53.1465 115.862C52.1273 115.182 52.1273 114.503 53.1465 113.823C54.1657 113.483 55.8644 113.483 56.5438 113.823Z" fill="#16110D"/>
<path d="M65.3765 109.067C66.3957 109.746 66.3957 110.426 65.3765 111.105C64.3573 111.785 62.9984 111.785 61.9792 111.105C60.96 110.426 60.96 109.746 61.9792 109.067C62.9984 108.387 64.3573 108.387 65.3765 109.067Z" fill="#16110D"/>
<path d="M73.8698 103.971C74.889 104.65 74.889 105.33 73.8698 106.009C72.8506 106.689 71.4917 106.689 70.4725 106.009C69.4533 105.33 69.4533 104.65 70.4725 103.971C71.4917 103.291 72.8506 103.291 73.8698 103.971Z" fill="#16110D"/>
<path d="M3.20708 135.905C4.52048 135.905 5.5842 135.297 5.5842 134.546C5.5842 133.796 4.52048 133.188 3.20708 133.188C1.89369 133.188 0.828308 133.796 0.828308 134.546C0.828308 135.297 1.89369 135.905 3.20708 135.905Z" fill="#16110D"/>
<path d="M10.3417 128.771C11.3609 128.092 12.7198 128.092 13.739 128.771C14.7582 129.451 14.7582 130.13 13.739 130.81C12.7198 131.489 11.3609 131.489 10.3417 130.81C9.32247 130.13 9.32247 129.111 10.3417 128.771C11.3609 128.092 9.32247 129.111 10.3417 128.771Z" fill="#16110D"/>
<path d="M22.2316 123.676C23.2508 124.355 23.2508 125.034 22.2316 125.714C21.2124 126.393 19.8535 126.393 18.8343 125.714C17.8151 125.034 21.2124 123.336 22.2316 123.676Z" fill="#16110D"/>
<path d="M30.7252 118.919C31.7444 119.598 31.7444 120.278 30.7252 120.957C29.706 121.637 28.3471 121.637 27.3279 120.957C26.6485 120.278 29.706 118.24 30.7252 118.919Z" fill="#16110D"/>
<path d="M39.2185 113.823C40.2377 114.502 40.2377 115.182 39.2185 115.861C38.1993 116.541 36.8404 116.541 35.8212 115.861C35.1418 115.182 38.5391 113.144 39.2185 113.823Z" fill="#16110D"/>
<path d="M48.0496 108.727C49.0688 109.406 49.0688 110.086 48.0496 110.765C47.0305 111.445 45.6715 111.445 44.6523 110.765C43.6332 110.086 47.0305 108.387 48.0496 108.727Z" fill="#16110D"/>
<path d="M56.5438 103.971C57.563 104.651 57.563 105.33 56.5438 106.01C55.5247 106.689 54.1657 106.689 53.1465 106.01C52.4671 105.33 55.5247 103.292 56.5438 103.971Z" fill="#16110D"/>
<path d="M65.0365 98.875C66.0557 99.5545 66.0557 100.234 65.0365 100.913C64.0173 101.593 62.6584 101.593 61.6392 100.913C60.9597 100.234 64.3571 98.5353 65.0365 98.875Z" fill="#16110D"/>
<path d="M65.7165 237.145C66.7357 237.824 66.7357 238.504 65.7165 239.183C64.6973 239.863 63.3384 239.863 62.3192 239.183C61.3 238.504 61.3 237.824 62.3192 237.145C63.3384 236.805 64.6973 236.805 65.7165 237.145Z" fill="#16110D"/>
<path d="M74.2097 232.389C75.2289 233.068 75.2289 233.748 74.2097 234.427C73.1905 235.107 71.8316 235.107 70.8124 234.427C69.7932 233.748 69.7932 233.068 70.8124 232.389C71.8316 231.71 73.1905 231.71 74.2097 232.389Z" fill="#16110D"/>
<path d="M82.7033 227.293C83.7225 227.972 83.7225 228.652 82.7033 229.331C81.6841 230.011 80.3251 230.011 79.306 229.331C78.2868 228.652 78.2868 227.972 79.306 227.293C80.3251 226.953 82.0238 226.953 82.7033 227.293Z" fill="#16110D"/>
<path d="M89.8379 224.575C91.1513 224.575 92.215 223.967 92.215 223.216C92.215 222.466 91.1513 221.857 89.8379 221.857C88.5245 221.857 87.4591 222.466 87.4591 223.216C87.4591 223.967 88.5245 224.575 89.8379 224.575Z" fill="#16110D"/>
<path d="M100.03 217.44C101.049 218.12 101.049 218.799 100.03 219.479C99.0109 220.158 97.6519 220.158 96.6327 219.479C95.6135 218.799 95.6135 218.12 96.6327 217.44C97.6519 216.761 99.0109 216.761 100.03 217.44Z" fill="#16110D"/>
<path d="M108.523 212.345C109.542 213.025 109.542 213.704 108.523 214.384C107.504 215.063 106.145 215.063 105.126 214.384C104.107 213.704 104.107 213.025 105.126 212.345C106.145 212.005 107.844 212.005 108.523 212.345Z" fill="#16110D"/>
<path d="M117.357 207.588C118.376 208.268 118.376 208.947 117.357 209.627C116.337 210.306 114.979 210.306 113.959 209.627C112.94 208.947 112.94 208.268 113.959 207.588C114.979 206.909 116.337 206.909 117.357 207.588Z" fill="#16110D"/>
<path d="M125.849 202.493C126.868 203.172 126.868 203.851 125.849 204.531C124.83 205.21 123.471 205.21 122.452 204.531C121.433 203.851 121.433 203.172 122.452 202.493C123.471 201.813 124.83 201.813 125.849 202.493Z" fill="#16110D"/>
<path d="M134.343 197.396C135.362 198.076 135.362 198.755 134.343 199.435C133.323 200.114 131.964 200.114 130.945 199.435C129.926 198.755 129.926 198.076 130.945 197.396C131.964 197.057 133.663 197.057 134.343 197.396Z" fill="#16110D"/>
<path d="M141.476 195.018C142.79 195.018 143.855 194.41 143.855 193.659C143.855 192.909 142.79 192.3 141.476 192.3C140.163 192.3 139.099 192.909 139.099 193.659C139.099 194.41 140.163 195.018 141.476 195.018Z" fill="#16110D"/>
<path d="M151.668 187.545C152.687 188.224 152.687 188.903 151.668 189.583C150.649 190.262 149.29 190.262 148.271 189.583C147.252 188.903 147.252 188.224 148.271 187.545C149.29 187.205 150.649 187.205 151.668 187.545Z" fill="#16110D"/>
<path d="M158.463 184.826C159.777 184.826 160.842 184.218 160.842 183.467C160.842 182.717 159.777 182.108 158.463 182.108C157.15 182.108 156.086 182.717 156.086 183.467C156.086 184.218 157.15 184.826 158.463 184.826Z" fill="#16110D"/>
<path d="M167.296 180.07C168.609 180.07 169.675 179.462 169.675 178.711C169.675 177.961 168.609 177.353 167.296 177.353C165.983 177.353 164.919 177.961 164.919 178.711C164.919 179.462 165.983 180.07 167.296 180.07Z" fill="#16110D"/>
<path d="M175.789 174.974C177.103 174.974 178.168 174.366 178.168 173.615C178.168 172.865 177.103 172.257 175.789 172.257C174.476 172.257 173.412 172.865 173.412 173.615C173.412 174.366 174.476 174.974 175.789 174.974Z" fill="#16110D"/>
<path d="M48.3905 237.145C49.4096 237.824 49.4096 238.504 48.3905 239.183C47.3713 239.863 46.0123 239.863 44.9932 239.183C43.974 238.504 43.974 237.824 44.9932 237.145C46.0123 236.805 47.711 236.805 48.3905 237.145Z" fill="#16110D"/>
<path d="M57.2233 232.389C58.2425 233.068 58.2425 233.748 57.2233 234.427C56.2041 235.107 54.8452 235.107 53.826 234.427C52.8068 233.748 52.8068 233.068 53.826 232.389C54.8452 231.71 56.2041 231.71 57.2233 232.389Z" fill="#16110D"/>
<path d="M65.7165 227.293C66.7357 227.972 66.7357 228.652 65.7165 229.331C64.6973 230.011 63.3384 230.011 62.3192 229.331C61.3 228.652 61.3 227.972 62.3192 227.293C63.3384 226.953 64.6973 226.953 65.7165 227.293Z" fill="#16110D"/>
<path d="M74.2097 222.197C75.2289 222.876 75.2289 223.556 74.2097 224.235C73.1905 224.915 71.8316 224.915 70.8124 224.235C69.7932 223.556 69.7932 222.876 70.8124 222.197C71.8316 221.857 73.1905 221.857 74.2097 222.197Z" fill="#16110D"/>
<path d="M82.7033 217.441C83.7225 218.12 83.7225 218.799 82.7033 219.479C81.6841 220.158 80.3251 220.158 79.306 219.479C78.2868 218.799 78.2868 218.12 79.306 217.441C80.3251 216.761 82.0238 216.761 82.7033 217.441Z" fill="#16110D"/>
<path d="M89.8379 214.723C91.1513 214.723 92.215 214.114 92.215 213.364C92.215 212.613 91.1513 212.005 89.8379 212.005C88.5245 212.005 87.4591 212.613 87.4591 213.364C87.4591 214.114 88.5245 214.723 89.8379 214.723Z" fill="#16110D"/>
<path d="M100.03 207.588C101.049 208.268 101.049 208.947 100.03 209.627C99.0109 210.306 97.6519 210.306 96.6327 209.627C95.6135 208.947 95.6135 208.268 96.6327 207.588C97.6519 206.909 99.0109 206.909 100.03 207.588Z" fill="#16110D"/>
<path d="M107.165 204.871C108.478 204.871 109.542 204.262 109.542 203.512C109.542 202.761 108.478 202.153 107.165 202.153C105.851 202.153 104.786 202.761 104.786 203.512C104.786 204.262 105.851 204.871 107.165 204.871Z" fill="#16110D"/>
<path d="M115.658 199.775C116.971 199.775 118.035 199.167 118.035 198.416C118.035 197.666 116.971 197.057 115.658 197.057C114.345 197.057 113.279 197.666 113.279 198.416C113.279 199.167 114.345 199.775 115.658 199.775Z" fill="#16110D"/>
<path d="M124.151 195.018C125.465 195.018 126.528 194.41 126.528 193.659C126.528 192.909 125.465 192.3 124.151 192.3C122.838 192.3 121.773 192.909 121.773 193.659C121.773 194.41 122.838 195.018 124.151 195.018Z" fill="#16110D"/>
<path d="M134.343 187.545C135.362 188.224 135.362 188.903 134.343 189.583C133.323 190.262 131.964 190.262 130.945 189.583C129.926 188.903 129.926 188.224 130.945 187.545C131.964 187.205 133.663 187.205 134.343 187.545Z" fill="#16110D"/>
<path d="M143.174 182.788C144.194 183.468 144.194 184.147 143.174 184.827C142.155 185.506 140.796 185.506 139.777 184.827C138.758 184.147 138.758 183.468 139.777 182.788C140.796 182.109 142.155 182.109 143.174 182.788Z" fill="#16110D"/>
<path d="M151.668 177.692C152.687 178.372 152.687 179.051 151.668 179.731C150.649 180.41 149.29 180.41 148.271 179.731C147.252 179.051 147.252 178.372 148.271 177.692C149.29 177.013 150.649 177.013 151.668 177.692Z" fill="#16110D"/>
<path d="M158.463 174.974C159.777 174.974 160.842 174.366 160.842 173.615C160.842 172.865 159.777 172.257 158.463 172.257C157.15 172.257 156.086 172.865 156.086 173.615C156.086 174.366 157.15 174.974 158.463 174.974Z" fill="#16110D"/>
<path d="M167.296 169.878C168.609 169.878 169.675 169.27 169.675 168.52C169.675 167.769 168.609 167.161 167.296 167.161C165.983 167.161 164.919 167.769 164.919 168.52C164.919 169.27 165.983 169.878 167.296 169.878Z" fill="#16110D"/>
<path d="M175.789 165.123C177.103 165.123 178.168 164.514 178.168 163.764C178.168 163.013 177.103 162.405 175.789 162.405C174.476 162.405 173.412 163.013 173.412 163.764C173.412 164.514 174.476 165.123 175.789 165.123Z" fill="#16110D"/>
<path d="M38.1988 234.427C39.5122 234.427 40.5776 233.819 40.5776 233.068C40.5776 232.318 39.5122 231.709 38.1988 231.709C36.8854 231.709 35.8217 232.318 35.8217 233.068C35.8217 233.819 36.8854 234.427 38.1988 234.427Z" fill="#16110D"/>
<path d="M48.3905 227.293C49.4096 227.972 49.4096 228.652 48.3905 229.331C47.3713 230.011 46.0123 230.011 44.9932 229.331C43.974 228.652 43.974 227.972 44.9932 227.293C46.0123 226.953 47.711 226.953 48.3905 227.293Z" fill="#16110D"/>
<path d="M55.5253 224.575C56.8387 224.575 57.9041 223.967 57.9041 223.216C57.9041 222.466 56.8387 221.857 55.5253 221.857C54.2119 221.857 53.1465 222.466 53.1465 223.216C53.1465 223.967 54.2119 224.575 55.5253 224.575Z" fill="#16110D"/>
<path d="M64.0185 219.819C65.3319 219.819 66.3973 219.21 66.3973 218.46C66.3973 217.709 65.3319 217.101 64.0185 217.101C62.7052 217.101 61.6398 217.709 61.6398 218.46C61.6398 219.21 62.7052 219.819 64.0185 219.819Z" fill="#16110D"/>
<path d="M72.5117 214.723C73.8251 214.723 74.8905 214.114 74.8905 213.364C74.8905 212.613 73.8251 212.005 72.5117 212.005C71.1983 212.005 70.1329 212.613 70.1329 213.364C70.1329 214.114 71.1983 214.723 72.5117 214.723Z" fill="#16110D"/>
<path d="M82.7033 207.588C83.7225 208.268 83.7225 208.947 82.7033 209.627C81.6841 210.306 80.3251 210.306 79.306 209.627C78.2868 208.947 78.2868 208.268 79.306 207.588C80.3251 206.909 82.0238 206.909 82.7033 207.588Z" fill="#16110D"/>
<path d="M91.5365 202.493C92.5557 203.172 92.5557 203.851 91.5365 204.531C90.5173 205.21 89.1584 205.21 88.1392 204.531C87.12 203.851 87.12 203.172 88.1392 202.493C89.1584 201.813 90.5173 201.813 91.5365 202.493Z" fill="#16110D"/>
<path d="M100.03 197.396C101.049 198.076 101.049 198.755 100.03 199.435C99.0109 200.114 97.6519 200.114 96.6327 199.435C95.6135 198.755 95.6135 198.076 96.6327 197.396C97.6519 197.057 99.0109 197.057 100.03 197.396Z" fill="#16110D"/>
<path d="M108.523 192.641C109.542 193.32 109.542 194 108.523 194.679C107.504 195.358 106.145 195.358 105.126 194.679C104.107 194 104.107 193.32 105.126 192.641C106.145 191.961 107.844 191.961 108.523 192.641Z" fill="#16110D"/>
<path d="M115.658 189.922C116.971 189.922 118.035 189.314 118.035 188.563C118.035 187.813 116.971 187.204 115.658 187.204C114.345 187.204 113.279 187.813 113.279 188.563C113.279 189.314 114.345 189.922 115.658 189.922Z" fill="#16110D"/>
<path d="M125.849 182.788C126.868 183.468 126.868 184.147 125.849 184.827C124.83 185.506 123.471 185.506 122.452 184.827C121.433 184.147 121.433 183.468 122.452 182.788C123.471 182.109 124.83 182.109 125.849 182.788Z" fill="#16110D"/>
<path d="M134.343 177.692C135.362 178.372 135.362 179.051 134.343 179.731C133.323 180.41 131.964 180.41 130.945 179.731C129.926 179.051 129.926 178.372 130.945 177.692C131.964 177.013 133.663 177.013 134.343 177.692Z" fill="#16110D"/>
<path d="M141.476 174.974C142.79 174.974 143.855 174.366 143.855 173.615C143.855 172.865 142.79 172.257 141.476 172.257C140.163 172.257 139.099 172.865 139.099 173.615C139.099 174.366 140.163 174.974 141.476 174.974Z" fill="#16110D"/>
<path d="M151.668 167.84C152.687 168.52 152.687 169.199 151.668 169.879C150.649 170.558 149.29 170.558 148.271 169.879C147.252 169.199 147.252 168.52 148.271 167.84C149.29 167.161 150.649 167.161 151.668 167.84Z" fill="#16110D"/>
<path d="M158.463 165.123C159.777 165.123 160.842 164.514 160.842 163.764C160.842 163.013 159.777 162.405 158.463 162.405C157.15 162.405 156.086 163.013 156.086 163.764C156.086 164.514 157.15 165.123 158.463 165.123Z" fill="#16110D"/>
<path d="M168.994 157.648C170.013 158.328 170.013 159.007 168.994 159.687C167.975 160.366 166.616 160.366 165.597 159.687C164.578 159.007 164.578 158.328 165.597 157.648C166.616 157.308 167.975 157.308 168.994 157.648Z" fill="#16110D"/>
<path d="M31.4037 227.293C32.4229 227.972 32.4229 228.652 31.4037 229.331C30.3845 230.011 29.0256 230.011 28.0064 229.331C26.9872 228.652 26.9872 227.972 28.0064 227.293C29.0256 226.953 30.3845 226.953 31.4037 227.293Z" fill="#16110D"/>
<path d="M39.8971 222.197C40.9163 222.876 40.9163 223.556 39.8971 224.235C38.8779 224.915 37.519 224.915 36.4998 224.235C35.4806 223.556 35.4806 222.876 36.4998 222.197C37.519 221.857 38.8779 221.857 39.8971 222.197Z" fill="#16110D"/>
<path d="M48.3905 217.441C49.4096 218.12 49.4096 218.799 48.3905 219.479C47.3713 220.158 46.0123 220.158 44.9932 219.479C43.974 218.799 43.974 218.12 44.9932 217.441C46.0123 216.761 47.711 216.761 48.3905 217.441Z" fill="#16110D"/>
<path d="M55.5253 214.723C56.8387 214.723 57.9041 214.114 57.9041 213.364C57.9041 212.613 56.8387 212.005 55.5253 212.005C54.2119 212.005 53.1465 212.613 53.1465 213.364C53.1465 214.114 54.2119 214.723 55.5253 214.723Z" fill="#16110D"/>
<path d="M65.7165 207.588C66.7357 208.268 66.7357 208.947 65.7165 209.627C64.6973 210.306 63.3384 210.306 62.3192 209.627C61.3 208.947 61.3 208.268 62.3192 207.588C63.3384 206.909 64.6973 206.909 65.7165 207.588Z" fill="#16110D"/>
<path d="M74.2097 202.493C75.2289 203.172 75.2289 203.851 74.2097 204.531C73.1905 205.21 71.8316 205.21 70.8124 204.531C69.7932 203.851 69.7932 203.172 70.8124 202.493C71.8316 201.813 73.1905 201.813 74.2097 202.493Z" fill="#16110D"/>
<path d="M82.7033 197.396C83.7225 198.076 83.7225 198.755 82.7033 199.435C81.6841 200.114 80.3251 200.114 79.306 199.435C78.2868 198.755 78.2868 198.076 79.306 197.396C80.3251 197.057 82.0238 197.057 82.7033 197.396Z" fill="#16110D"/>
<path d="M89.8379 195.018C91.1513 195.018 92.215 194.41 92.215 193.659C92.215 192.909 91.1513 192.3 89.8379 192.3C88.5245 192.3 87.4591 192.909 87.4591 193.659C87.4591 194.41 88.5245 195.018 89.8379 195.018Z" fill="#16110D"/>
<path d="M100.03 187.545C101.049 188.224 101.049 188.903 100.03 189.583C99.0109 190.262 97.6519 190.262 96.6327 189.583C95.6135 188.903 95.6135 188.224 96.6327 187.545C97.6519 187.205 99.0109 187.205 100.03 187.545Z" fill="#16110D"/>
<path d="M107.165 184.826C108.478 184.826 109.542 184.218 109.542 183.467C109.542 182.717 108.478 182.108 107.165 182.108C105.851 182.108 104.786 182.717 104.786 183.467C104.786 184.218 105.851 184.826 107.165 184.826Z" fill="#16110D"/>
<path d="M117.357 177.692C118.376 178.372 118.376 179.051 117.357 179.731C116.337 180.41 114.979 180.41 113.959 179.731C112.94 179.051 112.94 178.372 113.959 177.692C114.979 177.013 116.337 177.013 117.357 177.692Z" fill="#16110D"/>
<path d="M125.849 172.596C126.868 173.276 126.868 173.955 125.849 174.635C124.83 175.314 123.471 175.314 122.452 174.635C121.433 173.955 121.433 173.276 122.452 172.596C123.471 172.256 124.83 172.256 125.849 172.596Z" fill="#16110D"/>
<path d="M134.343 167.84C135.362 168.52 135.362 169.199 134.343 169.879C133.323 170.558 131.964 170.558 130.945 169.879C129.926 169.199 129.926 168.52 130.945 167.84C131.964 167.161 133.663 167.161 134.343 167.84Z" fill="#16110D"/>
<path d="M143.174 162.744C144.194 163.424 144.194 164.103 143.174 164.782C142.155 165.462 140.796 165.462 139.777 164.782C138.758 164.103 138.758 163.424 139.777 162.744C140.796 162.404 142.155 162.404 143.174 162.744Z" fill="#16110D"/>
<path d="M151.668 157.648C152.687 158.328 152.687 159.007 151.668 159.687C150.649 160.366 149.29 160.366 148.271 159.687C147.252 159.007 147.252 158.328 148.271 157.648C149.29 157.308 150.649 157.308 151.668 157.648Z" fill="#16110D"/>
<path d="M158.463 155.27C159.777 155.27 160.842 154.661 160.842 153.911C160.842 153.16 159.777 152.552 158.463 152.552C157.15 152.552 156.086 153.16 156.086 153.911C156.086 154.661 157.15 155.27 158.463 155.27Z" fill="#16110D"/>
<path d="M22.5704 222.197C23.5896 222.876 23.5896 223.556 22.5704 224.235C21.5512 224.915 20.1923 224.915 19.1731 224.235C18.1539 223.556 18.1539 222.876 19.1731 222.197C20.1923 221.857 21.8909 221.857 22.5704 222.197Z" fill="#16110D"/>
<path d="M29.7055 219.819C31.0189 219.819 32.0843 219.21 32.0843 218.46C32.0843 217.709 31.0189 217.101 29.7055 217.101C28.3922 217.101 27.3284 217.709 27.3284 218.46C27.3284 219.21 28.3922 219.819 29.7055 219.819Z" fill="#16110D"/>
<path d="M38.1988 214.723C39.5122 214.723 40.5776 214.114 40.5776 213.364C40.5776 212.613 39.5122 212.005 38.1988 212.005C36.8854 212.005 35.8217 212.613 35.8217 213.364C35.8217 214.114 36.8854 214.723 38.1988 214.723Z" fill="#16110D"/>
<path d="M48.3905 207.588C49.4096 208.268 49.4096 208.947 48.3905 209.627C47.3713 210.306 46.0123 210.306 44.9932 209.627C43.974 208.947 43.974 208.268 44.9932 207.588C46.0123 206.909 47.711 206.909 48.3905 207.588Z" fill="#16110D"/>
<path d="M55.5253 204.871C56.8387 204.871 57.9041 204.262 57.9041 203.512C57.9041 202.761 56.8387 202.153 55.5253 202.153C54.2119 202.153 53.1465 202.761 53.1465 203.512C53.1465 204.262 54.2119 204.871 55.5253 204.871Z" fill="#16110D"/>
<path d="M65.7165 197.396C66.7357 198.076 66.7357 198.755 65.7165 199.435C64.6973 200.114 63.3384 200.114 62.3192 199.435C61.3 198.755 61.3 198.076 62.3192 197.396C63.3384 197.057 64.6973 197.057 65.7165 197.396Z" fill="#16110D"/>
<path d="M74.2097 192.641C75.2289 193.32 75.2289 194 74.2097 194.679C73.1905 195.358 71.8316 195.358 70.8124 194.679C69.7932 194 69.7932 193.32 70.8124 192.641C71.8316 191.961 73.1905 191.961 74.2097 192.641Z" fill="#16110D"/>
<path d="M82.7033 187.545C83.7225 188.224 83.7225 188.903 82.7033 189.583C81.6841 190.262 80.3251 190.262 79.306 189.583C78.2868 188.903 78.2868 188.224 79.306 187.545C80.3251 187.205 82.0238 187.205 82.7033 187.545Z" fill="#16110D"/>
<path d="M91.5365 182.788C92.5557 183.468 92.5557 184.147 91.5365 184.827C90.5173 185.506 89.1584 185.506 88.1392 184.827C87.12 184.147 87.12 183.468 88.1392 182.788C89.1584 182.109 90.5173 182.109 91.5365 182.788Z" fill="#16110D"/>
<path d="M100.03 177.692C101.049 178.372 101.049 179.051 100.03 179.731C99.0109 180.41 97.6519 180.41 96.6327 179.731C95.6135 179.051 95.6135 178.372 96.6327 177.692C97.6519 177.013 99.0109 177.013 100.03 177.692Z" fill="#16110D"/>
<path d="M107.165 174.974C108.478 174.974 109.542 174.366 109.542 173.615C109.542 172.865 108.478 172.257 107.165 172.257C105.851 172.257 104.786 172.865 104.786 173.615C104.786 174.366 105.851 174.974 107.165 174.974Z" fill="#16110D"/>
<path d="M115.658 169.878C116.971 169.878 118.035 169.27 118.035 168.52C118.035 167.769 116.971 167.161 115.658 167.161C114.345 167.161 113.279 167.769 113.279 168.52C113.279 169.27 114.345 169.878 115.658 169.878Z" fill="#16110D"/>
<path d="M125.849 162.744C126.868 163.424 126.868 164.103 125.849 164.782C124.83 165.462 123.471 165.462 122.452 164.782C121.433 164.103 121.433 163.424 122.452 162.744C123.471 162.404 124.83 162.404 125.849 162.744Z" fill="#16110D"/>
<path d="M134.343 157.648C135.362 158.328 135.362 159.007 134.343 159.687C133.323 160.366 131.964 160.366 130.945 159.687C129.926 159.007 129.926 158.328 130.945 157.648C131.964 157.308 133.663 157.308 134.343 157.648Z" fill="#16110D"/>
<path d="M143.174 152.892C144.194 153.571 144.194 154.251 143.174 154.93C142.155 155.61 140.796 155.61 139.777 154.93C138.758 154.251 138.758 153.571 139.777 152.892C140.796 152.212 142.155 152.212 143.174 152.892Z" fill="#16110D"/>
<path d="M151.668 147.796C152.687 148.476 152.687 149.155 151.668 149.835C150.649 150.514 149.29 150.514 148.271 149.835C147.252 149.155 147.252 148.476 148.271 147.796C149.29 147.457 150.649 147.457 151.668 147.796Z" fill="#16110D"/>
<path d="M14.077 217.441C15.0962 218.12 15.0962 218.799 14.077 219.479C13.0578 220.158 11.6989 220.158 10.6797 219.479C9.66049 218.799 9.66049 218.12 10.6797 217.441C11.6989 216.761 13.0578 216.761 14.077 217.441Z" fill="#16110D"/>
<path d="M22.5704 212.345C23.5896 213.025 23.5896 213.704 22.5704 214.384C21.5512 215.063 20.1923 215.063 19.1731 214.384C18.1539 213.704 18.1539 213.025 19.1731 212.345C20.1923 212.005 21.5512 212.005 22.5704 212.345Z" fill="#16110D"/>
<path d="M29.7055 209.627C31.0189 209.627 32.0843 209.018 32.0843 208.268C32.0843 207.517 31.0189 206.909 29.7055 206.909C28.3922 206.909 27.3284 207.517 27.3284 208.268C27.3284 209.018 28.3922 209.627 29.7055 209.627Z" fill="#16110D"/>
<path d="M39.8971 202.493C40.9163 203.172 40.9163 203.851 39.8971 204.531C38.8779 205.21 37.519 205.21 36.4998 204.531C35.4806 203.851 35.4806 203.172 36.4998 202.493C37.519 201.813 38.8779 201.813 39.8971 202.493Z" fill="#16110D"/>
<path d="M46.6923 199.775C48.0057 199.775 49.0711 199.167 49.0711 198.416C49.0711 197.666 48.0057 197.057 46.6923 197.057C45.3789 197.057 44.3152 197.666 44.3152 198.416C44.3152 199.167 45.3789 199.775 46.6923 199.775Z" fill="#16110D"/>
<path d="M56.883 192.641C57.9022 193.32 57.9022 194 56.883 194.679C55.8638 195.358 54.5049 195.358 53.4857 194.679C52.4665 194 52.4665 193.32 53.4857 192.641C54.5049 191.961 56.2035 191.961 56.883 192.641Z" fill="#16110D"/>
<path d="M65.7165 187.545C66.7357 188.224 66.7357 188.904 65.7165 189.583C64.6973 190.263 63.3384 190.263 62.3192 189.583C61.3 188.904 61.3 188.224 62.3192 187.545C63.3384 186.865 64.6973 186.865 65.7165 187.545Z" fill="#16110D"/>
<path d="M74.2097 182.449C75.2289 183.128 75.2289 183.807 74.2097 184.487C73.1905 185.166 71.8316 185.166 70.8124 184.487C69.7932 183.807 69.7932 183.128 70.8124 182.449C71.8316 182.109 73.1905 182.109 74.2097 182.449Z" fill="#16110D"/>
<path d="M82.7033 177.692C83.7225 178.372 83.7225 179.051 82.7033 179.731C81.6841 180.41 80.3251 180.41 79.306 179.731C78.2868 179.051 78.2868 178.372 79.306 177.692C80.3251 177.013 82.0238 177.013 82.7033 177.692Z" fill="#16110D"/>
<path d="M91.5365 172.596C92.5557 173.276 92.5557 173.955 91.5365 174.635C90.5173 175.314 89.1584 175.314 88.1392 174.635C87.12 173.955 87.12 173.276 88.1392 172.596C89.1584 172.256 90.5173 172.256 91.5365 172.596Z" fill="#16110D"/>
<path d="M98.3314 169.878C99.6447 169.878 100.708 169.27 100.708 168.52C100.708 167.769 99.6447 167.161 98.3314 167.161C97.018 167.161 95.9526 167.769 95.9526 168.52C95.9526 169.27 97.018 169.878 98.3314 169.878Z" fill="#16110D"/>
<path d="M106.825 165.123C108.138 165.123 109.202 164.514 109.202 163.764C109.202 163.013 108.138 162.405 106.825 162.405C105.511 162.405 104.446 163.013 104.446 163.764C104.446 164.514 105.511 165.123 106.825 165.123Z" fill="#16110D"/>
<path d="M115.658 160.027C116.971 160.027 118.035 159.418 118.035 158.668C118.035 157.917 116.971 157.309 115.658 157.309C114.345 157.309 113.279 157.917 113.279 158.668C113.279 159.418 114.345 160.027 115.658 160.027Z" fill="#16110D"/>
<path d="M125.849 152.892C126.868 153.571 126.868 154.251 125.849 154.93C124.83 155.61 123.471 155.61 122.452 154.93C121.433 154.251 121.433 153.571 122.452 152.892C123.471 152.212 124.83 152.212 125.849 152.892Z" fill="#16110D"/>
<path d="M134.343 147.796C135.362 148.476 135.362 149.155 134.343 149.835C133.323 150.514 131.964 150.514 130.945 149.835C129.926 149.155 129.926 148.476 130.945 147.796C131.964 147.457 133.323 147.457 134.343 147.796Z" fill="#16110D"/>
<path d="M142.836 142.7C143.855 143.38 143.855 144.059 142.836 144.739C141.817 145.418 140.458 145.418 139.439 144.739C138.42 144.059 138.42 143.38 139.439 142.7C140.458 142.361 142.157 142.361 142.836 142.7Z" fill="#16110D"/>
<path d="M14.077 207.249C15.0962 207.929 15.0962 208.608 14.077 209.288C13.0578 209.967 11.6989 209.967 10.6797 209.288C9.66049 208.608 9.66049 207.929 10.6797 207.249C11.6989 206.909 13.0578 206.909 14.077 207.249Z" fill="#16110D"/>
<path d="M22.5704 202.493C23.5896 203.172 23.5896 203.851 22.5704 204.531C21.5512 205.21 20.1923 205.21 19.1731 204.531C18.1539 203.851 18.1539 203.172 19.1731 202.493C20.1923 201.813 21.5512 201.813 22.5704 202.493Z" fill="#16110D"/>
<path d="M56.884 182.448C57.9032 183.127 57.9032 183.807 56.884 184.486C55.8648 185.166 54.5059 185.166 53.4867 184.486C52.8072 183.807 56.2045 182.108 56.884 182.448Z" fill="#16110D"/>
<path d="M64.0185 180.07C65.3319 180.07 66.3973 179.462 66.3973 178.711C66.3973 177.961 65.3319 177.353 64.0185 177.353C62.7052 177.353 61.6398 177.961 61.6398 178.711C61.6398 179.462 62.7052 180.07 64.0185 180.07Z" fill="#16110D"/>
<path d="M74.2097 172.596C75.2289 173.276 75.2289 173.955 74.2097 174.635C73.1905 175.314 71.8316 175.314 70.8124 174.635C69.7932 173.955 69.7932 173.276 70.8124 172.596C71.8316 172.256 73.1905 172.256 74.2097 172.596Z" fill="#16110D"/>
<path d="M82.7033 167.84C83.7225 168.52 83.7225 169.199 82.7033 169.879C81.6841 170.558 80.3251 170.558 79.306 169.879C78.2868 169.199 78.2868 168.52 79.306 167.84C80.3251 167.161 82.0238 167.161 82.7033 167.84Z" fill="#16110D"/>
<path d="M91.5365 162.744C92.5557 163.424 92.5557 164.103 91.5365 164.783C90.5173 165.462 89.1584 165.462 88.1392 164.783C87.12 164.103 87.12 163.424 88.1392 162.744C89.1584 162.065 90.5173 162.065 91.5365 162.744Z" fill="#16110D"/>
<path d="M100.03 157.648C101.049 158.328 101.049 159.007 100.03 159.687C99.0109 160.366 97.6519 160.366 96.6327 159.687C95.6135 159.007 95.6135 158.328 96.6327 157.648C97.6519 157.308 99.0109 157.308 100.03 157.648Z" fill="#16110D"/>
<path d="M108.523 152.892C109.542 153.571 109.542 154.251 108.523 154.93C107.504 155.61 106.145 155.61 105.126 154.93C104.107 154.251 104.107 153.571 105.126 152.892C106.145 152.212 107.504 152.212 108.523 152.892Z" fill="#16110D"/>
<path d="M115.658 150.174C116.971 150.174 118.035 149.565 118.035 148.815C118.035 148.064 116.971 147.456 115.658 147.456C114.345 147.456 113.279 148.064 113.279 148.815C113.279 149.565 114.345 150.174 115.658 150.174Z" fill="#16110D"/>
<path d="M125.849 142.7C126.868 143.38 126.868 144.059 125.849 144.739C124.83 145.418 123.471 145.418 122.452 144.739C121.433 144.059 121.433 143.38 122.452 142.7C123.471 142.361 124.83 142.361 125.849 142.7Z" fill="#16110D"/>
<path d="M132.645 140.322C133.958 140.322 135.022 139.714 135.022 138.963C135.022 138.213 133.958 137.604 132.645 137.604C131.331 137.604 130.266 138.213 130.266 138.963C130.266 139.714 131.331 140.322 132.645 140.322Z" fill="#16110D"/>
<path d="M74.2097 162.744C75.2289 163.424 75.2289 164.103 74.2097 164.783C73.1905 165.462 71.8316 165.462 70.8124 164.783C69.7932 164.103 69.7932 163.424 70.8124 162.744C71.8316 162.065 73.1905 162.065 74.2097 162.744Z" fill="#16110D"/>
<path d="M81.0053 160.027C82.3187 160.027 83.3841 159.418 83.3841 158.668C83.3841 157.917 82.3187 157.309 81.0053 157.309C79.6919 157.309 78.6265 157.917 78.6265 158.668C78.6265 159.418 79.6919 160.027 81.0053 160.027Z" fill="#16110D"/>
<path d="M91.5365 152.892C92.5557 153.571 92.5557 154.251 91.5365 154.93C90.5173 155.61 89.1584 155.61 88.1392 154.93C87.12 154.251 87.12 153.571 88.1392 152.892C89.1584 152.212 90.5173 152.212 91.5365 152.892Z" fill="#16110D"/>
<path d="M98.3314 150.174C99.6447 150.174 100.708 149.565 100.708 148.815C100.708 148.064 99.6447 147.456 98.3314 147.456C97.018 147.456 95.9526 148.064 95.9526 148.815C95.9526 149.565 97.018 150.174 98.3314 150.174Z" fill="#16110D"/>
<path d="M106.825 145.078C108.138 145.078 109.202 144.47 109.202 143.719C109.202 142.968 108.138 142.36 106.825 142.36C105.511 142.36 104.446 142.968 104.446 143.719C104.446 144.47 105.511 145.078 106.825 145.078Z" fill="#16110D"/>
<path d="M117.016 137.944C118.036 138.623 118.036 139.303 117.016 139.982C115.997 140.662 114.638 140.662 113.619 139.982C112.6 139.303 112.6 138.623 113.619 137.944C114.638 137.264 116.337 137.264 117.016 137.944Z" fill="#16110D"/>
<path d="M125.849 132.848C126.868 133.527 126.868 134.207 125.849 134.886C124.83 135.565 123.471 135.565 122.452 134.886C121.433 134.207 121.433 133.527 122.452 132.848C123.471 132.508 124.83 132.508 125.849 132.848Z" fill="#16110D"/>
<path d="M55.1849 165.123C56.4983 165.123 57.5636 164.514 57.5636 163.764C57.5636 163.013 56.4983 162.405 55.1849 162.405C53.8715 162.405 52.8077 163.013 52.8077 163.764C52.8077 164.514 53.8715 165.123 55.1849 165.123Z" fill="#16110D"/>
<path d="M65.7165 157.648C66.7357 158.328 66.7357 159.007 65.7165 159.687C64.6973 160.366 63.3384 160.366 62.3192 159.687C61.3 159.007 61.3 158.328 62.3192 157.648C63.3384 157.308 64.6973 157.308 65.7165 157.648Z" fill="#16110D"/>
<path d="M74.2097 152.892C75.2289 153.571 75.2289 154.251 74.2097 154.93C73.1905 155.61 71.8316 155.61 70.8124 154.93C69.7932 154.251 69.7932 153.571 70.8124 152.892C71.8316 152.212 73.1905 152.212 74.2097 152.892Z" fill="#16110D"/>
<path d="M82.7033 147.796C83.7225 148.476 83.7225 149.155 82.7033 149.835C81.6841 150.514 80.3251 150.514 79.306 149.835C78.2868 149.155 78.2868 148.476 79.306 147.796C80.3251 147.457 82.0238 147.457 82.7033 147.796Z" fill="#16110D"/>
<path d="M91.5365 142.7C92.5557 143.38 92.5557 144.059 91.5365 144.739C90.5173 145.418 89.1584 145.418 88.1392 144.739C87.12 144.059 87.12 143.38 88.1392 142.7C89.1584 142.361 90.5173 142.361 91.5365 142.7Z" fill="#16110D"/>
<path d="M98.3314 140.322C99.6447 140.322 100.708 139.714 100.708 138.963C100.708 138.213 99.6447 137.604 98.3314 137.604C97.018 137.604 95.9526 138.213 95.9526 138.963C95.9526 139.714 97.018 140.322 98.3314 140.322Z" fill="#16110D"/>
<path d="M106.825 135.226C108.138 135.226 109.202 134.618 109.202 133.867C109.202 133.117 108.138 132.508 106.825 132.508C105.511 132.508 104.446 133.117 104.446 133.867C104.446 134.618 105.511 135.226 106.825 135.226Z" fill="#16110D"/>
<path d="M115.658 130.13C116.971 130.13 118.035 129.522 118.035 128.771C118.035 128.021 116.971 127.412 115.658 127.412C114.345 127.412 113.279 128.021 113.279 128.771C113.279 129.522 114.345 130.13 115.658 130.13Z" fill="#16110D"/>
<path d="M117.016 118.919C118.036 119.598 118.036 120.277 117.016 120.957C115.997 121.636 114.638 121.636 113.619 120.957C112.6 120.277 112.6 119.598 113.619 118.919C114.638 118.239 115.997 118.239 117.016 118.919Z" fill="#16110D"/>
<path d="M125.51 113.823C126.529 114.503 126.529 115.182 125.51 115.862C124.491 116.541 123.132 116.541 122.113 115.862C121.094 115.182 121.094 114.503 122.113 113.823C123.132 113.483 124.491 113.483 125.51 113.823Z" fill="#16110D"/>
<path d="M132.304 111.105C133.617 111.105 134.681 110.496 134.681 109.746C134.681 108.995 133.617 108.387 132.304 108.387C130.991 108.387 129.925 108.995 129.925 109.746C129.925 110.496 130.991 111.105 132.304 111.105Z" fill="#16110D"/>
<path d="M141.138 106.349C142.452 106.349 143.515 105.741 143.515 104.99C143.515 104.239 142.452 103.631 141.138 103.631C139.825 103.631 138.759 104.239 138.759 104.99C138.759 105.741 139.825 106.349 141.138 106.349Z" fill="#16110D"/>
<path d="M149.631 101.253C150.945 101.253 152.008 100.645 152.008 99.8941C152.008 99.1435 150.945 98.5352 149.631 98.5352C148.318 98.5352 147.253 99.1435 147.253 99.8941C147.253 100.645 148.318 101.253 149.631 101.253Z" fill="#16110D"/>
<path d="M159.823 94.119C160.842 94.7984 160.842 95.4779 159.823 96.1574C158.804 96.8368 157.445 96.8368 156.425 96.1574C155.406 95.4779 155.406 94.7984 156.425 94.119C157.445 93.4395 159.143 93.4395 159.823 94.119Z" fill="#16110D"/>
<path d="M168.654 89.0229C169.673 89.7023 169.673 90.3818 168.654 91.0613C167.635 91.7407 166.276 91.7407 165.257 91.0613C164.238 90.3818 164.238 89.7023 165.257 89.0229C166.276 88.6831 167.635 88.6831 168.654 89.0229Z" fill="#16110D"/>
<path d="M177.147 84.2662C178.167 84.9456 178.167 85.6251 177.147 86.3045C176.128 86.984 174.769 86.984 173.75 86.3045C172.731 85.6251 172.731 84.9456 173.75 84.2662C174.769 83.5867 176.128 83.5867 177.147 84.2662Z" fill="#16110D"/>
<path d="M183.942 81.5487C185.256 81.5487 186.321 80.9403 186.321 80.1898C186.321 79.4393 185.256 78.8308 183.942 78.8308C182.629 78.8308 181.565 79.4393 181.565 80.1898C181.565 80.9403 182.629 81.5487 183.942 81.5487Z" fill="#16110D"/>
<path d="M192.776 76.4527C194.089 76.4527 195.155 75.8443 195.155 75.0938C195.155 74.3433 194.089 73.7349 192.776 73.7349C191.463 73.7349 190.399 74.3433 190.399 75.0938C190.399 75.8443 191.463 76.4527 192.776 76.4527Z" fill="#16110D"/>
<path d="M202.967 69.3184C203.987 69.9979 203.987 70.6774 202.967 71.3568C201.948 72.0363 200.589 72.0363 199.57 71.3568C198.551 70.6774 198.551 69.9979 199.57 69.3184C200.589 68.639 201.948 68.639 202.967 69.3184Z" fill="#16110D"/>
<path d="M211.461 64.2223C212.48 64.9018 212.48 65.5813 211.461 66.2607C210.442 66.9402 209.083 66.9402 208.064 66.2607C207.044 65.5813 207.044 64.9018 208.064 64.2223C209.083 63.8826 210.442 63.8826 211.461 64.2223Z" fill="#16110D"/>
<path d="M105.126 113.823C106.145 113.143 107.504 113.143 108.523 113.823C109.542 114.502 109.542 115.182 108.523 115.861C107.504 116.54 106.145 116.54 105.126 115.861C104.107 115.182 104.107 114.502 105.126 113.823Z" fill="#16110D"/>
<path d="M117.016 109.067C118.036 109.746 118.036 110.426 117.016 111.105C115.997 111.785 114.638 111.785 113.619 111.105C112.6 110.426 112.6 109.746 113.619 109.067C114.638 108.387 115.997 108.387 117.016 109.067Z" fill="#16110D"/>
<path d="M125.51 103.971C126.529 104.65 126.529 105.33 125.51 106.009C124.491 106.689 123.132 106.689 122.113 106.009C121.094 105.33 121.094 104.65 122.113 103.971C123.132 103.291 124.491 103.291 125.51 103.971Z" fill="#16110D"/>
<path d="M132.304 101.253C133.617 101.253 134.681 100.645 134.681 99.8941C134.681 99.1435 133.617 98.5352 132.304 98.5352C130.991 98.5352 129.925 99.1435 129.925 99.8941C129.925 100.645 130.991 101.253 132.304 101.253Z" fill="#16110D"/>
<path d="M141.138 96.4964C142.452 96.4964 143.515 95.888 143.515 95.1375C143.515 94.387 142.452 93.7786 141.138 93.7786C139.825 93.7786 138.759 94.387 138.759 95.1375C138.759 95.888 139.825 96.4964 141.138 96.4964Z" fill="#16110D"/>
<path d="M151.329 89.0229C152.348 89.7023 152.348 90.3818 151.329 91.0613C150.31 91.7407 148.951 91.7407 147.932 91.0613C146.913 90.3818 146.913 89.7023 147.932 89.0229C148.951 88.6831 150.31 88.6831 151.329 89.0229Z" fill="#16110D"/>
<path d="M159.823 84.2662C160.842 84.9456 160.842 85.6251 159.823 86.3045C158.804 86.984 157.445 86.984 156.425 86.3045C155.406 85.6251 155.406 84.9456 156.425 84.2662C157.445 83.5867 159.143 83.5867 159.823 84.2662Z" fill="#16110D"/>
<path d="M168.654 79.1702C169.673 79.8497 169.673 80.5291 168.654 81.2086C167.635 81.8881 166.276 81.8881 165.257 81.2086C164.238 80.5291 164.238 79.8497 165.257 79.1702C166.276 78.4908 167.635 78.4908 168.654 79.1702Z" fill="#16110D"/>
<path d="M177.147 74.0741C178.167 74.7536 178.167 75.433 177.147 76.1125C176.128 76.7919 174.769 76.7919 173.75 76.1125C172.731 75.433 172.731 74.7536 173.75 74.0741C174.769 73.7344 176.128 73.7344 177.147 74.0741Z" fill="#16110D"/>
<path d="M185.641 69.3184C186.66 69.9979 186.66 70.6774 185.641 71.3568C184.621 72.0363 183.262 72.0363 182.243 71.3568C181.224 70.6774 181.224 69.9979 182.243 69.3184C183.262 68.639 184.961 68.639 185.641 69.3184Z" fill="#16110D"/>
<path d="M192.776 66.6007C194.089 66.6007 195.155 65.9922 195.155 65.2417C195.155 64.4912 194.089 63.8828 192.776 63.8828C191.463 63.8828 190.399 64.4912 190.399 65.2417C190.399 65.9922 191.463 66.6007 192.776 66.6007Z" fill="#16110D"/>
<path d="M202.967 59.1264C203.987 59.8058 203.987 60.4853 202.967 61.1648C201.948 61.8442 200.589 61.8442 199.57 61.1648C198.551 60.4853 198.551 59.8058 199.57 59.1264C200.589 58.7866 201.948 58.7866 202.967 59.1264Z" fill="#16110D"/>
<path d="M96.2929 109.067C97.3121 108.387 98.671 108.387 99.6902 109.067C100.709 109.746 100.709 110.426 99.6902 111.105C98.671 111.785 97.3121 111.785 96.2929 111.105C95.6135 110.426 95.6135 109.406 96.2929 109.067Z" fill="#16110D"/>
<path d="M108.183 103.971C109.203 104.65 109.203 105.33 108.183 106.009C107.164 106.689 105.805 106.689 104.786 106.009C103.767 105.33 103.767 104.65 104.786 103.971C105.805 103.291 107.504 103.291 108.183 103.971Z" fill="#16110D"/>
<path d="M117.016 98.8747C118.036 99.5541 118.036 100.234 117.016 100.913C115.997 101.592 114.638 101.592 113.619 100.913C112.6 100.234 112.6 99.5541 113.619 98.8747C114.638 98.5349 115.997 98.5349 117.016 98.8747Z" fill="#16110D"/>
<path d="M125.51 94.119C126.529 94.7984 126.529 95.4779 125.51 96.1574C124.491 96.8368 123.132 96.8368 122.113 96.1574C121.094 95.4779 121.094 94.7984 122.113 94.119C123.132 93.4395 124.491 93.4395 125.51 94.119Z" fill="#16110D"/>
<path d="M134.003 89.0229C135.022 89.7023 135.022 90.3818 134.003 91.0613C132.983 91.7407 131.624 91.7407 130.605 91.0613C129.586 90.3818 129.586 89.7023 130.605 89.0229C131.624 88.6831 133.323 88.6831 134.003 89.0229Z" fill="#16110D"/>
<path d="M142.836 84.2662C143.855 84.9456 143.855 85.6251 142.836 86.3045C141.817 86.984 140.458 86.984 139.439 86.3045C138.42 85.6251 138.42 84.9456 139.439 84.2662C140.458 83.5867 141.817 83.5867 142.836 84.2662Z" fill="#16110D"/>
<path d="M151.329 79.1702C152.348 79.8497 152.348 80.5291 151.329 81.2086C150.31 81.8881 148.951 81.8881 147.932 81.2086C146.913 80.5291 146.913 79.8497 147.932 79.1702C148.951 78.4908 150.31 78.4908 151.329 79.1702Z" fill="#16110D"/>
<path d="M159.823 74.0741C160.842 74.7536 160.842 75.433 159.823 76.1125C158.804 76.7919 157.445 76.7919 156.425 76.1125C155.406 75.433 155.406 74.7536 156.425 74.0741C157.445 73.7344 159.143 73.7344 159.823 74.0741Z" fill="#16110D"/>
<path d="M168.654 69.3184C169.673 69.9979 169.673 70.6774 168.654 71.3568C167.635 72.0363 166.276 72.0363 165.257 71.3568C164.238 70.6774 164.238 69.9979 165.257 69.3184C166.276 68.639 167.635 68.639 168.654 69.3184Z" fill="#16110D"/>
<path d="M175.449 66.6007C176.763 66.6007 177.828 65.9922 177.828 65.2417C177.828 64.4912 176.763 63.8828 175.449 63.8828C174.136 63.8828 173.072 64.4912 173.072 65.2417C173.072 65.9922 174.136 66.6007 175.449 66.6007Z" fill="#16110D"/>
<path d="M183.942 61.5047C185.256 61.5047 186.321 60.8963 186.321 60.1458C186.321 59.3953 185.256 58.7869 183.942 58.7869C182.629 58.7869 181.565 59.3953 181.565 60.1458C181.565 60.8963 182.629 61.5047 183.942 61.5047Z" fill="#16110D"/>
<path d="M192.776 56.7481C194.089 56.7481 195.155 56.1397 195.155 55.3892C195.155 54.6387 194.089 54.0303 192.776 54.0303C191.463 54.0303 190.399 54.6387 190.399 55.3892C190.399 56.1397 191.463 56.7481 192.776 56.7481Z" fill="#16110D"/>
<path d="M87.7985 103.971C88.8177 103.291 90.1766 103.291 91.1958 103.971C92.215 104.65 92.215 105.33 91.1958 106.009C90.1766 106.689 88.8177 106.689 87.7985 106.009C86.7793 105.33 86.7793 104.65 87.7985 103.971Z" fill="#16110D"/>
<path d="M99.6892 98.8747C100.708 99.5541 100.708 100.234 99.6892 100.913C98.67 101.592 97.3111 101.592 96.2919 100.913C95.2727 100.234 95.2727 99.5541 96.2919 98.8747C97.3111 98.5349 98.67 98.5349 99.6892 98.8747Z" fill="#16110D"/>
<path d="M108.183 94.119C109.203 94.7984 109.203 95.4779 108.183 96.1574C107.164 96.8368 105.805 96.8368 104.786 96.1574C103.767 95.4779 103.767 94.7984 104.786 94.119C105.805 93.4395 107.504 93.4395 108.183 94.119Z" fill="#16110D"/>
<path d="M117.016 89.0229C118.036 89.7023 118.036 90.3818 117.016 91.0613C115.997 91.7407 114.638 91.7407 113.619 91.0613C112.6 90.3818 112.6 89.7023 113.619 89.0229C114.638 88.6831 115.997 88.6831 117.016 89.0229Z" fill="#16110D"/>
<path d="M123.811 86.3045C125.125 86.3045 126.189 85.6961 126.189 84.9456C126.189 84.1951 125.125 83.5867 123.811 83.5867C122.498 83.5867 121.433 84.1951 121.433 84.9456C121.433 85.6961 122.498 86.3045 123.811 86.3045Z" fill="#16110D"/>
<path d="M132.304 81.5487C133.617 81.5487 134.681 80.9403 134.681 80.1898C134.681 79.4393 133.617 78.8308 132.304 78.8308C130.991 78.8308 129.925 79.4393 129.925 80.1898C129.925 80.9403 130.991 81.5487 132.304 81.5487Z" fill="#16110D"/>
<path d="M141.138 76.4527C142.452 76.4527 143.515 75.8443 143.515 75.0938C143.515 74.3433 142.452 73.7349 141.138 73.7349C139.825 73.7349 138.759 74.3433 138.759 75.0938C138.759 75.8443 139.825 76.4527 141.138 76.4527Z" fill="#16110D"/>
<path d="M151.329 69.3184C152.348 69.9979 152.348 70.6774 151.329 71.3568C150.31 72.0363 148.951 72.0363 147.932 71.3568C146.913 70.6774 146.913 69.9979 147.932 69.3184C148.951 68.639 150.31 68.639 151.329 69.3184Z" fill="#16110D"/>
<path d="M158.125 66.6007C159.438 66.6007 160.502 65.9922 160.502 65.2417C160.502 64.4912 159.438 63.8828 158.125 63.8828C156.811 63.8828 155.746 64.4912 155.746 65.2417C155.746 65.9922 156.811 66.6007 158.125 66.6007Z" fill="#16110D"/>
<path d="M168.654 59.4657C169.673 60.1451 169.673 60.8246 168.654 61.5041C167.635 62.1835 166.276 62.1835 165.257 61.5041C164.238 60.8246 164.238 60.1451 165.257 59.4657C166.276 58.7862 167.635 58.7862 168.654 59.4657Z" fill="#16110D"/>
<path d="M177.147 54.3697C178.167 55.0492 178.167 55.7286 177.147 56.4081C176.128 57.0876 174.769 57.0876 173.75 56.4081C172.731 55.7286 172.731 55.0492 173.75 54.3697C174.769 53.6902 176.128 53.6902 177.147 54.3697Z" fill="#16110D"/>
<path d="M185.641 49.2746C186.66 49.954 186.66 50.6335 185.641 51.313C184.621 51.9924 183.262 51.9924 182.243 51.313C181.224 50.6335 181.224 49.954 182.243 49.2746C183.262 48.9348 184.961 48.9348 185.641 49.2746Z" fill="#16110D"/>
<path d="M79.306 98.8748C80.3251 98.1954 81.6841 98.1954 82.7033 98.8748C83.7225 99.5543 83.7225 100.234 82.7033 100.913C81.6841 101.593 80.3251 101.593 79.306 100.913C78.2868 100.234 78.2868 99.5543 79.306 98.8748Z" fill="#16110D"/>
<path d="M89.4979 96.4964C90.8113 96.4964 91.8766 95.888 91.8766 95.1375C91.8766 94.387 90.8113 93.7786 89.4979 93.7786C88.1845 93.7786 87.1191 94.387 87.1191 95.1375C87.1191 95.888 88.1845 96.4964 89.4979 96.4964Z" fill="#16110D"/>
<path d="M99.6892 89.0229C100.708 89.7023 100.708 90.3818 99.6892 91.0613C98.67 91.7407 97.3111 91.7407 96.2919 91.0613C95.2727 90.3818 95.2727 89.7023 96.2919 89.0229C97.3111 88.6831 98.67 88.6831 99.6892 89.0229Z" fill="#16110D"/>
<path d="M106.825 86.3045C108.138 86.3045 109.202 85.6961 109.202 84.9456C109.202 84.1951 108.138 83.5867 106.825 83.5867C105.511 83.5867 104.446 84.1951 104.446 84.9456C104.446 85.6961 105.511 86.3045 106.825 86.3045Z" fill="#16110D"/>
<path d="M117.016 79.1702C118.036 79.8497 118.036 80.5291 117.016 81.2086C115.997 81.8881 114.638 81.8881 113.619 81.2086C112.6 80.5291 112.6 79.8497 113.619 79.1702C114.638 78.4908 115.997 78.4908 117.016 79.1702Z" fill="#16110D"/>
<path d="M125.51 74.0741C126.529 74.7536 126.529 75.433 125.51 76.1125C124.491 76.7919 123.132 76.7919 122.113 76.1125C121.094 75.433 121.094 74.7536 122.113 74.0741C123.132 73.7344 124.491 73.7344 125.51 74.0741Z" fill="#16110D"/>
<path d="M134.003 69.3184C135.022 69.9979 135.022 70.6774 134.003 71.3568C132.983 72.0363 131.624 72.0363 130.605 71.3568C129.586 70.6774 129.586 69.9979 130.605 69.3184C131.624 68.639 133.323 68.639 134.003 69.3184Z" fill="#16110D"/>
<path d="M141.138 66.6007C142.452 66.6007 143.515 65.9922 143.515 65.2417C143.515 64.4912 142.452 63.8828 141.138 63.8828C139.825 63.8828 138.759 64.4912 138.759 65.2417C138.759 65.9922 139.825 66.6007 141.138 66.6007Z" fill="#16110D"/>
<path d="M151.329 59.4657C152.348 60.1451 152.348 60.8246 151.329 61.5041C150.31 62.1835 148.951 62.1835 147.932 61.5041C146.913 60.8246 146.913 60.1451 147.932 59.4657C148.951 58.7862 150.31 58.7862 151.329 59.4657Z" fill="#16110D"/>
<path d="M158.125 56.7481C159.438 56.7481 160.502 56.1397 160.502 55.3892C160.502 54.6387 159.438 54.0303 158.125 54.0303C156.811 54.0303 155.746 54.6387 155.746 55.3892C155.746 56.1397 156.811 56.7481 158.125 56.7481Z" fill="#16110D"/>
<path d="M168.654 49.2746C169.673 49.954 169.673 50.6335 168.654 51.313C167.635 51.9924 166.276 51.9924 165.257 51.313C164.238 50.6335 164.238 49.954 165.257 49.2746C166.276 48.9348 167.635 48.9348 168.654 49.2746Z" fill="#16110D"/>
<path d="M177.147 44.5179C178.167 45.1974 178.167 45.8768 177.147 46.5562C176.128 47.2357 174.769 47.2357 173.75 46.5562C172.731 45.8768 172.731 45.1974 173.75 44.5179C174.769 43.8384 176.128 43.8384 177.147 44.5179C178.167 44.8576 176.128 43.8384 177.147 44.5179Z" fill="#16110D"/>
<path d="M73.87 94.1184C74.8891 94.7979 74.8891 95.4774 73.87 96.1568C72.8508 96.8363 71.4918 96.8363 70.4726 96.1568C69.7932 95.4774 72.8508 93.439 73.87 94.1184Z" fill="#16110D"/>
<path d="M79.306 89.023C80.3251 88.3436 81.6841 88.3436 82.7033 89.023C83.7225 89.7025 83.7225 90.382 82.7033 91.0614C81.6841 91.7409 80.3251 91.7409 79.306 91.0614C78.2868 90.382 78.2868 89.7025 79.306 89.023C79.9854 88.3436 78.2868 89.7025 79.306 89.023Z" fill="#16110D"/>
<path d="M87.7985 83.9271C88.8177 83.2476 90.1766 83.2476 91.1958 83.9271C92.215 84.6065 92.215 85.286 91.1958 85.9655C90.1766 86.6449 88.8177 86.6449 87.7985 85.9655C86.7793 85.286 86.7793 84.6065 87.7985 83.9271C88.8177 83.5873 86.7793 84.6065 87.7985 83.9271Z" fill="#16110D"/>
<path d="M99.6892 79.1702C100.708 79.8497 100.708 80.5291 99.6892 81.2086C98.67 81.8881 97.3111 81.8881 96.2919 81.2086C95.2727 80.5291 95.2727 79.8497 96.2919 79.1702C97.3111 78.4908 98.67 78.4908 99.6892 79.1702Z" fill="#16110D"/>
<path d="M108.183 74.0741C109.203 74.7536 109.203 75.433 108.183 76.1125C107.164 76.7919 105.805 76.7919 104.786 76.1125C103.767 75.433 103.767 74.7536 104.786 74.0741C105.805 73.7344 107.164 73.7344 108.183 74.0741Z" fill="#16110D"/>
<path d="M116.677 69.3184C117.696 69.9979 117.696 70.6774 116.677 71.3568C115.657 72.0363 114.298 72.0363 113.279 71.3568C112.26 70.6774 112.26 69.9979 113.279 69.3184C114.298 68.639 115.997 68.639 116.677 69.3184Z" fill="#16110D"/>
<path d="M125.51 64.2225C126.529 64.9019 126.529 65.5814 125.51 66.2609C124.491 66.9403 123.132 66.9403 122.113 66.2609C121.094 65.5814 121.094 64.9019 122.113 64.2225C123.132 63.543 124.491 63.543 125.51 64.2225Z" fill="#16110D"/>
<path d="M132.304 61.5047C133.617 61.5047 134.681 60.8963 134.681 60.1458C134.681 59.3953 133.617 58.7869 132.304 58.7869C130.991 58.7869 129.925 59.3953 129.925 60.1458C129.925 60.8963 130.991 61.5047 132.304 61.5047Z" fill="#16110D"/>
<path d="M141.138 56.7481C142.452 56.7481 143.515 56.1397 143.515 55.3892C143.515 54.6387 142.452 54.0303 141.138 54.0303C139.825 54.0303 138.759 54.6387 138.759 55.3892C138.759 56.1397 139.825 56.7481 141.138 56.7481Z" fill="#16110D"/>
<path d="M147.932 49.274C148.951 48.5945 150.31 48.5945 151.329 49.274C152.348 49.9535 152.348 50.6329 151.329 51.3124C150.31 51.9919 148.951 51.9919 147.932 51.3124C146.913 50.6329 146.913 49.9535 147.932 49.274C148.951 48.9343 146.913 49.9535 147.932 49.274Z" fill="#16110D"/>
<path d="M159.823 44.5183C160.842 45.1978 160.842 45.8772 159.823 46.5567C158.804 47.2362 157.445 47.2362 156.425 46.5567C155.746 45.8772 158.804 43.8389 159.823 44.5183Z" fill="#16110D"/>
<path d="M148.27 137.944C149.29 137.264 150.648 137.264 151.668 137.944C152.687 138.623 152.687 139.303 151.668 139.982C150.648 140.662 149.29 140.662 148.27 139.982C147.251 139.303 147.591 138.623 148.27 137.944Z" fill="#16110D"/>
<path d="M139.777 132.848C140.796 132.169 142.155 132.169 143.174 132.848C144.194 133.527 144.194 134.207 143.174 134.886C142.155 135.566 140.796 135.566 139.777 134.886C138.758 134.207 138.758 133.527 139.777 132.848Z" fill="#16110D"/>
<path d="M151.668 128.092C152.687 128.771 152.687 129.451 151.668 130.13C150.649 130.81 149.29 130.81 148.271 130.13C147.252 129.451 147.252 128.771 148.271 128.092C149.29 127.412 150.649 127.412 151.668 128.092Z" fill="#16110D"/>
<path d="M131.284 128.092C132.303 127.412 133.662 127.412 134.681 128.092C135.7 128.771 135.7 129.451 134.681 130.13C133.662 130.81 132.303 130.81 131.284 130.13C130.265 129.451 130.265 128.432 131.284 128.092Z" fill="#16110D"/>
<path d="M143.174 122.996C144.194 123.675 144.194 124.355 143.174 125.034C142.155 125.714 140.796 125.714 139.777 125.034C138.758 124.355 138.758 123.675 139.777 122.996C140.796 122.656 142.155 122.656 143.174 122.996Z" fill="#16110D"/>
<path d="M151.668 118.239C152.687 118.919 152.687 119.598 151.668 120.278C150.649 120.957 149.29 120.957 148.271 120.278C147.252 119.598 147.252 118.919 148.271 118.239C149.29 117.56 150.649 117.56 151.668 118.239Z" fill="#16110D"/>
<path d="M122.453 122.996C123.472 122.316 124.831 122.316 125.85 122.996C126.869 123.675 126.869 124.355 125.85 125.034C124.831 125.714 123.472 125.714 122.453 125.034C121.773 124.355 121.773 123.675 122.453 122.996Z" fill="#16110D"/>
<path d="M134.343 118.239C135.362 118.919 135.362 119.598 134.343 120.278C133.323 120.957 131.964 120.957 130.945 120.278C129.926 119.598 129.926 118.919 130.945 118.239C131.964 117.56 133.663 117.56 134.343 118.239Z" fill="#16110D"/>
<path d="M143.174 113.143C144.194 113.823 144.194 114.502 143.174 115.182C142.155 115.861 140.796 115.861 139.777 115.182C138.758 114.502 138.758 113.823 139.777 113.143C140.796 112.464 142.155 112.464 143.174 113.143Z" fill="#16110D"/>
<path d="M151.668 108.047C152.687 108.727 152.687 109.406 151.668 110.086C150.649 110.765 149.29 110.765 148.271 110.086C147.252 109.406 147.252 108.727 148.271 108.047C149.29 107.708 150.649 107.708 151.668 108.047Z" fill="#16110D"/>
<path d="M160.161 104.99C159.141 105.669 157.782 105.669 156.763 104.99C155.744 104.31 155.744 103.631 156.763 102.951C157.782 102.272 159.141 102.272 160.161 102.951C161.18 103.631 161.18 104.65 160.161 104.99C159.481 105.669 161.18 104.65 160.161 104.99Z" fill="#16110D"/>
<path d="M168.994 98.1955C170.013 98.8749 170.013 99.5544 168.994 100.234C167.975 100.913 166.616 100.913 165.597 100.234C164.578 99.5544 164.578 98.8749 165.597 98.1955C166.616 97.8557 167.975 97.8557 168.994 98.1955Z" fill="#16110D"/>
<path d="M175.789 95.4779C177.103 95.4779 178.168 94.8694 178.168 94.1189C178.168 93.3684 177.103 92.76 175.789 92.76C174.476 92.76 173.412 93.3684 173.412 94.1189C173.412 94.8694 174.476 95.4779 175.789 95.4779Z" fill="#16110D"/>
<path d="M184.282 90.721C185.596 90.721 186.661 90.1126 186.661 89.3621C186.661 88.6116 185.596 88.0032 184.282 88.0032C182.969 88.0032 181.905 88.6116 181.905 89.3621C181.905 90.1126 182.969 90.721 184.282 90.721Z" fill="#16110D"/>
<path d="M193.115 85.6253C194.429 85.6253 195.494 85.0169 195.494 84.2664C195.494 83.5159 194.429 82.9075 193.115 82.9075C191.802 82.9075 190.737 83.5159 190.737 84.2664C190.737 85.0169 191.802 85.6253 193.115 85.6253Z" fill="#16110D"/>
<path d="M203.308 78.491C204.327 79.1705 204.327 79.8499 203.308 80.5294C202.288 81.2089 200.929 81.2089 199.91 80.5294C198.891 79.8499 198.891 79.1705 199.91 78.491C200.929 77.8116 202.288 77.8116 203.308 78.491Z" fill="#16110D"/>
<path d="M211.801 73.3951C212.82 74.0746 212.82 74.754 211.801 75.4334C210.782 76.1129 209.423 76.1129 208.404 75.4334C207.384 74.754 207.384 74.0746 208.404 73.3951C209.423 72.7156 210.782 72.7156 211.801 73.3951Z" fill="#16110D"/>
<path d="M134.682 51.9923V27.5317L167.637 46.5566V71.0172L134.682 51.9923Z" fill="#36A9E1"/>
<path d="M134.682 27.5313L164.58 10.2051L197.872 29.23L167.637 46.5562L134.682 27.5313Z" fill="#36A9E1"/>
<path d="M135.022 35.6847L164.579 18.3584L197.872 37.3833L167.297 54.0301L135.022 35.6847Z" fill="white"/>
<path d="M164.579 8.50659L132.983 26.5123V52.6715L167.296 72.3759L198.892 54.3702V28.211L164.579 8.50659ZM166.278 68.6389L136.042 51.3126V29.9096L166.278 47.2358V68.6389ZM137.401 27.5315L164.579 11.9039L194.815 29.2302L167.636 44.8577L137.401 27.5315Z" fill="#16110D"/>
<path d="M91.1959 77.4719V19.7178L124.15 38.7426V96.4968L91.1959 77.4719Z" fill="#36A9E1"/>
<path d="M91.1959 19.7174L121.432 2.39111L154.386 21.416L124.15 38.7422L91.1959 19.7174Z" fill="#36A9E1"/>
<path d="M91.8767 27.8707L121.432 10.5444L154.387 29.5693L124.151 46.2161L91.8767 27.8707Z" fill="white"/>
<path d="M121.432 0.692627L89.8381 18.6983V78.1512L124.151 97.8555L155.745 79.8498V20.397L121.432 0.692627ZM122.791 94.1185L92.5553 76.7923V22.0956L122.791 39.4219V94.1185ZM94.254 19.7175L121.432 4.08993L151.668 21.4162L124.49 37.0438L94.254 19.7175Z" fill="#16110D"/>
<path d="M48.391 101.593V67.2803L81.3455 86.3051V120.618L48.391 101.593Z" fill="#36A9E1"/>
<path d="M48.391 66.9401L78.2883 49.9536L111.241 68.9785L81.3455 86.3047L48.391 66.9401Z" fill="#36A9E1"/>
<path d="M48.7302 75.0935L78.2874 58.1069L111.24 77.1318L81.0046 93.7786L48.7302 75.0935Z" fill="white"/>
<path d="M78.2874 48.2549L46.6915 66.2606V102.272L81.0046 121.976L112.599 103.971V67.9593L78.2874 48.2549ZM79.9861 118.239L49.7488 100.913V69.6579L79.9861 86.9842V118.239ZM51.109 66.9401L78.2874 51.3125L108.523 68.6387L81.3447 84.2663L51.109 66.9401Z" fill="#16110D"/>
<path d="M4.90594 126.053V110.766L37.8588 129.79V145.078L4.90594 126.053Z" fill="#36A9E1"/>
<path d="M4.90594 110.765L34.8015 93.439L67.7561 112.464L37.8588 129.79L4.90594 110.765Z" fill="#36A9E1"/>
<path d="M5.24591 118.919L34.8015 101.592L67.756 120.957L37.5203 137.264L5.24591 118.919Z" fill="white"/>
<path d="M34.8014 91.7405L3.20709 109.746V126.733L37.5202 146.437L69.1144 128.431V111.445L34.8014 91.7405ZM36.5 142.7L6.26433 125.374V113.143L36.5 130.47V142.7ZM7.62292 110.765L34.8014 95.1378L65.037 112.464L37.8586 128.092L7.62292 110.765Z" fill="#16110D"/>
<path d="M101.39 152.213V94.4585L134.344 113.483V171.238L101.39 152.213Z" fill="#36A9E1"/>
<path d="M101.39 94.4581L131.285 77.1318L164.24 96.1568L134.344 113.483L101.39 94.4581Z" fill="#36A9E1"/>
<path d="M101.729 102.612L131.284 85.6252L164.239 104.65L134.003 121.297L101.729 102.612Z" fill="white"/>
<path d="M131.285 75.7732L99.6903 93.7789V153.232L134.003 172.936L165.598 154.93V95.4776L131.285 75.7732ZM132.983 168.859L102.748 151.533V96.8365L132.983 114.163V168.859ZM104.106 94.4584L131.285 78.8307L161.522 96.157L134.343 111.785L104.106 94.4584Z" fill="#16110D"/>
<path d="M58.2436 176.334V142.021L91.1981 161.046V195.358L58.2436 176.334Z" fill="#36A9E1"/>
<path d="M58.2436 142.02L88.1409 124.694L121.094 143.719L91.1981 161.045L58.2436 142.02Z" fill="#36A9E1"/>
<path d="M58.5837 150.174L88.1409 133.188L121.094 152.212L90.8581 168.519L58.5837 150.174Z" fill="white"/>
<path d="M88.1409 122.996L56.545 141.001V177.013L90.8581 196.717L122.454 178.711V142.7L88.1409 122.996ZM89.8396 192.98L59.6039 175.654V144.399L89.8396 161.725V192.98ZM60.9625 142.02L88.1409 126.393L118.377 143.719L91.1981 159.347L60.9625 142.02Z" fill="#16110D"/>
<path d="M14.7578 200.794V185.506L47.7123 204.531V219.819L14.7578 200.794Z" fill="#36A9E1"/>
<path d="M14.7578 185.506L44.6534 168.179L77.6079 187.204L47.7123 204.531L14.7578 185.506Z" fill="#36A9E1"/>
<path d="M15.0978 193.659L44.6534 176.673L77.6079 195.698L47.3722 212.345L15.0978 193.659Z" fill="white"/>
<path d="M44.6534 166.821L13.0591 184.827V201.813L47.3722 221.518L78.9665 203.512V186.525L44.6534 166.821ZM46.3521 217.441L16.1164 200.115V187.884L46.3521 205.211V217.441ZM17.475 185.506L44.6534 169.879L74.8907 187.205L47.7123 202.832L17.475 185.506Z" fill="#16110D"/>
</svg>
