<svg width="164" height="284" viewBox="0 0 164 284" fill="none" xmlns="http://www.w3.org/2000/svg">
<path d="M137.116 66.7039L28.3642 4.08955C25.4807 2.4418 23.4212 2.02986 21.3615 3.26567L20.5378 3.67761L9.00342 11.0925L10.2394 18.0954L16.4185 30.4535V172.572C16.4185 181.222 21.7739 191.109 27.9529 194.404L125.582 250.84L133.408 264.845L144.119 257.842L144.943 257.431C147.002 255.783 148.238 252.899 148.238 248.368V88.9485C148.65 80.2978 143.707 70.4113 137.116 66.7039Z" fill="#36A9E1"/>
<path d="M137.528 72.0584L28.7771 9.44404C25.8935 7.79629 23.834 7.38436 21.7744 8.62017L20.9507 9.0321L9.41626 16.447L10.6523 23.4499L16.8313 35.808V177.926C16.8313 186.577 22.1857 196.463 28.3647 199.759L125.995 256.194L134.645 259.49L141.647 260.725L144.532 256.606C146.591 254.958 149.062 258.254 149.062 253.723V93.8911C148.65 85.6523 143.707 75.7658 137.528 72.0584Z" fill="white"/>
<path d="M132.585 267.317L124.346 251.663L27.5407 195.64C20.5378 191.52 15.1826 181.222 15.1826 171.747V30.865L9.00355 18.0949L7.3562 9.85621L20.9503 1.20553C23.8339 -0.442213 26.3049 0.381664 29.6004 2.02941L138.352 64.6438C145.355 68.7631 150.71 79.0616 150.71 88.5361V247.956C150.71 252.899 149.063 256.606 146.591 258.666L132.585 267.317ZM12.7116 16.8591L18.8906 29.6292V172.159C18.8906 179.986 23.8333 189.049 29.6004 192.344L127.642 248.779L134.644 261.549L144.531 255.37C146.179 254.135 147.002 251.663 147.002 247.956V88.948C147.002 81.1212 142.06 72.0586 136.293 68.7631L27.5407 5.73684C24.6571 4.08909 23.8335 4.08909 22.5977 4.91296L21.3616 5.3249L11.4756 11.504L12.7116 16.8591Z" fill="#16110D"/>
<path d="M125.169 264.432L16.4185 201.818C10.2394 198.111 4.88403 188.224 4.88403 179.985V20.154C4.88403 11.5033 10.2394 7.79589 16.4185 11.5033L125.169 74.1177C131.348 77.8251 136.704 87.7116 136.704 95.9503V255.37C136.704 264.432 131.76 268.14 125.169 264.432Z" fill="#36A9E1"/>
<path d="M129.701 268.14C128.053 268.14 125.994 267.728 123.934 266.492L15.5949 203.466C8.59199 199.347 3.23682 189.048 3.23682 179.574V20.1542C3.23682 14.799 4.88436 11.0915 8.17986 9.03186C11.0634 7.38412 14.3591 7.79606 17.6546 9.4438L126.405 72.0582C133.408 76.1775 138.764 86.476 138.764 95.9505V255.37C138.764 260.725 137.116 264.433 133.821 266.492C132.585 267.728 131.349 268.14 129.701 268.14ZM11.8869 12.3274C11.063 12.3274 10.6511 12.3274 9.8272 12.7393C7.76752 13.9751 6.94384 16.4467 6.94384 20.1542V179.574C6.94384 187.4 11.8875 196.463 17.6546 199.759L126.405 262.373C128.053 263.197 130.113 264.021 131.761 262.785C133.821 261.549 134.644 259.077 134.644 255.37V96.3625C134.644 88.5357 129.702 79.473 123.934 76.1776L15.1826 13.5632C14.3587 12.7393 13.1227 12.3274 11.8869 12.3274Z" fill="#16110D"/>
<path d="M125.169 259.079L24.2444 200.995C20.537 198.936 17.6541 193.169 17.6541 188.637V45.6953C17.6541 40.7521 20.537 38.6924 24.2444 40.7521L125.169 98.8352C128.876 100.895 131.76 106.662 131.76 111.193V253.723C131.76 258.667 128.876 261.138 125.169 259.079Z" fill="white"/>
<path d="M123.935 253.723C122.699 253.723 121.875 253.311 120.639 252.899L19.7149 194.816C15.5955 192.345 12.2998 186.578 12.2998 181.222V38.2804C12.2998 35.3969 13.5354 32.9252 15.1832 31.6894C16.8309 30.8655 18.8912 30.8656 20.9509 32.1014L121.875 90.1844C125.995 92.6561 129.289 98.4232 129.289 103.778V246.308C129.289 249.192 128.054 251.664 126.406 252.899C125.582 253.723 124.759 253.723 123.935 253.723ZM121.875 250.428C122.699 250.84 123.935 251.252 124.759 250.84C125.583 250.428 126.406 248.78 126.406 246.72V104.19C126.406 100.071 123.935 94.7157 120.639 93.068L19.7149 34.573C18.891 34.161 17.6554 33.7491 16.8315 34.161C16.0076 34.573 15.1832 36.2207 15.1832 38.2804V180.811C15.1832 184.93 17.6554 190.285 20.9509 191.933L121.875 250.428Z" fill="#16110D"/>
<path d="M37.8386 106.662L26.7165 84.8297C25.0688 81.9462 25.4811 79.0626 27.1289 78.2387C28.7766 77.4149 31.6602 79.4745 33.3079 82.3581L39.0746 93.8923L51.8451 83.182C53.4928 81.9462 55.9644 83.182 58.0241 86.0655C59.6719 88.9491 60.0836 92.2446 58.8478 93.4804L41.1343 108.31C39.8985 109.134 38.6625 108.31 37.8386 106.662Z" fill="#36A9E1"/>
<path d="M38.6642 105.838H38.2529C37.0171 105.426 35.7811 104.602 34.9572 102.954L23.8351 81.1218C22.5993 78.6501 22.1876 76.1785 23.0114 74.5308C23.4234 73.295 24.2473 72.883 25.0711 72.4711C27.5428 71.6472 31.2498 73.7069 32.8975 77.4143L37.8406 86.8889L48.9627 77.4143C49.7865 76.5905 51.0231 76.5905 51.847 76.5905C53.9067 77.0024 55.5536 78.2382 57.2014 80.2979C59.673 84.0053 59.6734 87.7128 57.6137 89.7724L39.9003 104.602C39.9003 105.426 39.0762 105.838 38.6642 105.838ZM26.7185 75.3547C26.3065 75.3547 26.3067 75.3546 25.8948 75.7666C25.4829 76.5905 25.4827 77.8263 26.7185 79.886L37.8406 101.719C38.2525 102.131 38.6642 102.542 38.6642 102.542L56.3777 87.7128C57.2016 87.3008 57.2018 84.8292 55.554 82.3576C54.3182 80.7098 53.0822 79.886 52.2584 79.886C51.8464 79.886 51.8466 79.886 51.4347 79.886L37.4292 91.8321L30.8378 78.6501C29.602 76.5905 27.5424 75.3547 26.7185 75.3547Z" fill="#16110D"/>
<path d="M39.0749 151.15L27.9528 129.318C26.305 126.434 26.7164 123.551 28.3641 122.727C30.0118 121.903 32.8954 123.963 34.5431 126.846L40.3109 138.38L53.0803 127.67C54.728 126.434 57.1997 127.67 59.2593 130.554C60.9071 133.437 61.3198 136.733 60.084 137.968L42.3705 152.798C41.5467 153.21 39.8987 152.386 39.0749 151.15Z" fill="#36A9E1"/>
<path d="M40.3103 149.915H39.8979C38.6621 149.503 37.4261 148.679 36.6022 147.031L25.4801 125.199C24.2443 122.727 23.8326 120.255 24.6565 118.608C25.0684 117.372 25.8923 116.96 26.7162 116.548C29.1878 115.724 32.8948 117.784 34.5425 121.491L39.4866 130.966L50.6087 121.491C51.4326 120.667 52.6682 120.667 53.492 120.667C55.5517 121.079 57.1997 122.315 58.8474 124.375C61.319 128.082 61.3184 131.79 59.2588 133.849L41.5463 148.679C41.1343 149.503 40.7222 149.915 40.3103 149.915ZM39.0743 145.795C39.4862 146.207 39.8979 146.619 39.8979 146.619L57.6114 131.79C58.4353 131.378 58.4355 128.906 56.7877 126.434C55.5519 124.787 54.3159 123.963 53.492 123.963C53.0801 123.963 53.0803 123.963 52.6684 123.963L38.6619 135.909L32.0715 122.727C30.8357 120.255 28.776 119.02 27.9522 119.432C27.9522 119.432 27.5398 119.432 27.5398 119.843C27.1279 120.667 27.1277 121.903 28.3635 123.963L39.0743 145.795Z" fill="#16110D"/>
<path d="M37.8386 187.813L26.7165 166.392C25.0688 163.509 25.4811 160.625 27.1289 159.801C28.7766 158.977 31.6602 161.037 33.3079 163.921L39.0746 175.455L51.8451 164.744C53.4928 163.509 55.9644 164.744 58.0241 167.628C59.6719 170.512 60.0836 173.807 58.8478 175.043L41.1343 189.873C39.8985 190.285 38.6625 189.461 37.8386 187.813Z" fill="#36A9E1"/>
<path d="M38.6642 186.577H38.2529C37.0171 186.165 35.7811 185.341 34.9572 183.693L23.8351 161.861C22.5993 159.389 22.1876 156.918 23.0114 155.27C23.4234 154.034 24.2473 153.622 25.0711 153.21C27.5428 152.386 31.2498 154.446 32.8975 158.153L37.8406 167.628L48.9627 158.153C49.7865 157.329 51.0231 157.329 51.847 157.329C53.9067 157.741 55.5536 158.977 57.2014 161.037C59.673 164.744 59.6734 168.452 57.6137 170.511L39.9003 185.341C39.9003 186.577 39.0762 186.577 38.6642 186.577ZM26.7185 156.506C26.3065 156.506 26.3067 156.506 25.8948 156.918C25.4829 157.741 25.4827 158.977 26.7185 161.037L37.8406 182.87C38.2525 183.281 38.6642 183.693 38.6642 183.693L56.3777 168.864C57.2016 168.452 57.2018 165.98 55.554 163.509C54.3182 161.861 53.0822 161.037 52.2584 161.037C51.8464 161.037 51.8466 161.037 51.4347 161.037L37.4292 172.983L30.8378 159.801C29.602 157.741 27.5424 156.506 26.7185 156.506Z" fill="#16110D"/>
<path d="M115.282 142.911L71.6167 117.783C69.557 116.547 67.9097 113.663 67.9097 111.192C67.9097 108.72 69.557 107.484 71.6167 108.72L115.282 133.848C117.342 135.084 118.989 137.968 118.989 140.439C118.989 142.911 117.342 143.735 115.282 142.911Z" fill="#36A9E1"/>
<path d="M115.283 140.028C114.459 140.028 114.047 139.616 113.223 139.204L69.5576 114.076C67.086 112.84 65.4382 109.133 65.4382 106.249C65.4382 104.19 66.2621 102.954 67.4979 102.13C68.7337 101.306 69.9701 101.718 71.2059 102.13L114.871 127.258C117.342 128.494 118.99 132.201 118.99 135.085C118.99 137.145 118.166 138.38 116.93 139.204C116.518 140.028 115.695 140.028 115.283 140.028ZM114.459 136.733C114.871 136.733 115.283 137.145 115.283 136.733C115.283 136.733 115.695 136.321 115.695 135.085C115.695 133.025 114.459 130.554 112.811 129.73L69.1463 104.602C68.7343 104.602 68.3226 104.19 68.3226 104.602C68.3226 104.602 67.9103 105.014 67.9103 106.249C67.9103 108.309 69.1459 110.781 70.7936 111.605L114.459 136.733Z" fill="#16110D"/>
<path d="M115.282 183.282L71.6167 158.154C69.557 156.918 67.9097 154.035 67.9097 151.563C67.9097 149.091 69.557 147.855 71.6167 149.091L115.282 174.219C117.342 175.455 118.989 178.339 118.989 180.81C118.989 183.282 117.342 184.518 115.282 183.282Z" fill="#36A9E1"/>
<path d="M115.283 180.398C114.459 180.398 114.047 180.398 113.223 179.574L69.5576 154.446C67.086 153.21 65.4382 149.503 65.4382 146.619C65.4382 144.56 66.2621 143.324 67.4979 142.5C68.7337 141.676 69.9701 142.088 71.2059 142.5L114.871 167.628C117.342 168.864 118.99 172.571 118.99 175.455C118.99 177.514 118.166 178.75 116.93 179.574C116.518 180.398 115.695 180.398 115.283 180.398ZM68.7339 145.383C68.322 145.383 68.3226 145.795 68.3226 147.031C68.3226 149.091 69.5582 151.562 71.2059 152.386L114.871 177.514C115.283 177.514 115.695 177.926 115.695 177.514C115.695 177.514 116.107 177.103 116.107 175.867C116.107 173.807 114.871 171.335 113.223 170.512L69.5576 145.383C69.1457 145.383 69.1459 145.383 68.7339 145.383Z" fill="#16110D"/>
<path d="M115.284 223.651L71.6182 198.523C69.5585 197.287 67.9111 194.404 67.9111 191.932C67.9111 189.46 69.5585 188.225 71.6182 189.46L115.284 214.589C117.344 215.824 118.991 218.708 118.991 221.18C118.579 223.651 116.932 224.887 115.284 223.651Z" fill="#36A9E1"/>
<path d="M114.871 221.18C114.047 221.18 113.635 220.768 112.811 220.356L69.1465 195.227C66.6748 193.992 65.0271 190.284 65.0271 187.401C65.0271 185.341 65.851 184.105 67.0868 183.281C68.3226 182.457 69.558 182.869 70.7938 183.281L114.459 208.409C116.931 209.645 118.579 213.353 118.579 216.236C118.579 218.296 117.755 219.532 116.519 220.356C116.107 220.768 115.695 221.18 114.871 221.18ZM114.459 217.884C114.871 217.884 115.283 218.296 115.283 217.884C115.283 217.884 115.696 217.472 115.696 216.236C115.696 214.177 114.459 211.705 112.811 210.881L69.1465 185.753C68.7345 185.753 68.3228 185.341 68.3228 185.753C68.3228 185.753 67.9105 186.165 67.9105 187.401C67.9105 189.46 69.1461 191.932 70.7938 192.756L114.459 217.884Z" fill="#16110D"/>
<path d="M121.461 65.0554C122.697 63.8196 123.521 62.1718 123.521 59.7002C123.521 54.345 120.225 48.166 116.106 45.6944L45.6655 4.91262C44.0178 4.08875 41.1338 4.50069 41.1338 4.50069C41.1338 4.50069 40.7221 4.91262 40.3101 4.91262L32.0714 10.6797C31.6595 11.0917 31.6595 11.9156 32.0714 12.3275L40.7215 18.5065C41.9573 20.9782 44.0172 23.0378 46.0768 24.2737L61.3183 32.9243L76.1484 43.6347L109.927 71.2344C110.751 71.6464 111.575 72.0583 112.399 71.2344C114.871 69.9986 121.05 65.4673 121.461 65.0554Z" fill="#36A9E1"/>
<path d="M123.521 65.4678C123.521 60.1126 120.225 53.9336 116.106 51.4619L45.6655 10.6802C44.0178 9.85633 41.1338 10.2683 41.1338 10.2683C41.1338 10.2683 40.7221 10.6802 40.3101 10.6802L32.0714 16.4473C31.6595 16.8593 31.6595 17.6831 32.0714 18.0951L40.7215 24.2741C41.9573 26.7457 44.0172 28.8054 46.0768 30.0412L61.3183 38.6919L110.751 72.8826L123.521 65.4678Z" fill="white"/>
<path d="M110.752 74.1181C109.928 74.1181 109.105 73.7062 108.281 73.2943L74.5023 45.6945L59.6722 34.9842L44.842 26.3335C42.7824 25.0977 40.7231 23.038 39.0753 20.1544L30.8366 14.3873C30.0127 13.9754 29.6006 12.7396 29.6006 11.9157C29.6006 11.0918 30.0127 9.85602 30.8366 9.44409L39.0753 3.67697L39.899 2.8531L40.7227 2.44117C41.1346 2.44117 43.6068 1.20535 46.4904 3.26504L116.931 44.0468C121.462 46.9303 125.17 53.5213 125.17 59.7004C125.17 62.5839 124.346 65.0555 122.699 66.7033C122.287 67.1152 122.287 67.1152 114.46 72.4704L112.812 73.7062C112.4 74.1181 111.576 74.1181 110.752 74.1181ZM34.5436 11.9157L42.371 17.2709L42.7824 17.6828C44.0182 19.7425 45.6663 21.8022 47.3141 22.6261L62.5555 31.2767L77.797 41.9871L111.577 69.5868L113.224 68.351C116.107 66.2914 120.638 62.9959 121.05 62.9959C121.874 62.172 122.286 60.9362 122.286 59.2884C122.286 54.7571 119.403 48.99 116.107 46.9303L45.6667 6.1486C44.8428 5.73666 43.6062 5.73666 42.7824 5.73666C42.7824 5.73666 42.783 5.73666 42.371 5.73666L34.5436 11.9157Z" fill="#16110D"/>
<path d="M82.7434 73.7072L59.2622 60.1133C53.0832 56.4058 48.1401 47.3432 48.1401 39.1045L93.8655 65.4684C93.8655 73.2952 88.9225 77.0027 82.7434 73.7072Z" fill="#36A9E1"/>
<path d="M90.5705 82.7699L67.0904 69.176C60.9113 65.4686 55.9683 56.406 55.9683 48.1672L101.693 74.5312C101.693 82.358 96.7496 86.4774 90.5705 82.7699Z" fill="white"/>
<path d="M86.8624 77.0025C85.2147 77.0025 83.1548 76.5906 81.507 75.3548L58.0268 61.7609C51.4359 58.0534 46.0801 47.755 46.0801 39.1043V35.8088L95.9248 64.6444V65.8802C95.9248 70.8235 94.2773 74.9428 90.9818 76.5906C89.746 76.5906 88.5102 77.0025 86.8624 77.0025ZM50.1994 42.3998C51.4353 48.9908 55.1429 55.5818 59.6742 58.0534L83.1544 71.6473C84.3902 72.4712 86.4501 73.2951 88.5098 72.0593C90.1575 71.2354 90.9812 68.7638 91.3931 65.8802L50.1994 42.3998Z" fill="#16110D"/>
<path d="M105.809 72.4708L35.3682 31.6891C31.2488 29.2175 27.9531 23.0384 27.9531 17.6832C27.9531 12.3281 31.2488 9.85644 35.3682 12.3281L105.809 53.1098C109.928 55.5814 113.224 61.7605 113.224 67.1157C113.224 72.0589 109.928 74.5305 105.809 72.4708Z" fill="#36A9E1"/>
<path d="M109.105 75.3545C107.87 75.3545 106.634 74.9425 105.398 74.1187L34.9568 33.3369C30.4254 30.4534 26.718 23.8624 26.718 17.6833C26.718 13.9759 27.9534 11.5043 30.425 9.85653C32.4847 8.62072 34.9568 9.03266 37.0164 10.2685L107.458 51.0502C111.989 53.9338 115.697 60.5247 115.697 66.7038C115.697 70.4112 114.46 72.8829 111.989 74.5306C110.753 74.9425 109.929 75.3545 109.105 75.3545ZM32.8971 13.564C32.4851 13.564 32.4853 13.564 32.0734 13.9759C31.2495 14.3878 30.425 16.0356 30.425 18.0953C30.425 22.6266 33.3086 28.3937 36.6041 30.4534L107.046 71.2351C107.87 71.647 108.693 72.059 109.929 71.647C110.753 71.2351 111.577 69.5874 111.577 67.5277C111.577 62.9964 108.694 57.2293 105.398 55.1696L34.9568 14.3878C34.1329 13.9759 33.309 13.564 32.8971 13.564Z" fill="#16110D"/>
<path d="M109.105 55.9931L119.816 49.4021L123.523 58.8766L121.463 65.0557L112.812 71.2348V64.2318L109.105 55.9931Z" fill="#16110D"/>
<path d="M136.703 91.42L148.237 84.0051L148.65 249.604L146.178 256.607L135.467 263.198L136.292 95.5394L136.703 91.42Z" fill="#16110D"/>
<path d="M26.7174 227.77C27.9532 228.594 27.9532 229.418 26.7174 230.241C25.4816 231.065 23.8338 231.065 22.598 230.241C21.3622 229.418 21.3622 228.594 22.598 227.77C23.8338 226.946 25.4816 226.946 26.7174 227.77Z" fill="#16110D"/>
<path d="M14.3592 224.474C15.9517 224.474 17.2425 223.737 17.2425 222.827C17.2425 221.917 15.9517 221.179 14.3592 221.179C12.7666 221.179 11.4758 221.917 11.4758 222.827C11.4758 223.737 12.7666 224.474 14.3592 224.474Z" fill="#16110D"/>
<path d="M5.70833 215.412C6.94414 216.236 6.94414 217.06 5.70833 217.884C4.47252 218.708 2.82478 218.708 1.58897 217.884C0.353157 217.06 0.353157 216.236 1.58897 215.412C2.82478 215.001 4.88446 215.001 5.70833 215.412Z" fill="#16110D"/>
<path d="M121.051 280.91C122.287 281.734 122.287 282.558 121.051 283.382C119.815 284.206 118.168 284.206 116.932 283.382C115.696 282.558 115.696 281.734 116.932 280.91C118.168 280.086 119.815 280.086 121.051 280.91Z" fill="#16110D"/>
<path d="M108.694 277.615C110.287 277.615 111.579 276.877 111.579 275.967C111.579 275.057 110.287 274.32 108.694 274.32C107.102 274.32 105.811 275.057 105.811 275.967C105.811 276.877 107.102 277.615 108.694 277.615Z" fill="#16110D"/>
<path d="M100.044 268.964C101.28 269.787 101.28 270.611 100.044 271.435C98.808 272.259 97.1602 272.259 95.9244 271.435C94.6886 270.611 94.6886 269.787 95.9244 268.964C97.1602 268.14 99.2199 268.14 100.044 268.964Z" fill="#16110D"/>
<path d="M87.6846 265.668C89.2772 265.668 90.568 264.93 90.568 264.02C90.568 263.11 89.2772 262.373 87.6846 262.373C86.0921 262.373 84.8013 263.11 84.8013 264.02C84.8013 264.93 86.0921 265.668 87.6846 265.668Z" fill="#16110D"/>
<path d="M79.4464 256.606C80.6822 257.43 80.6822 258.254 79.4464 259.078C78.2106 259.902 76.5628 259.902 75.327 259.078C74.0912 258.254 74.0912 257.43 75.327 256.606C76.5628 256.194 78.2106 256.194 79.4464 256.606Z" fill="#16110D"/>
<path d="M68.7342 250.839C69.97 251.662 69.97 252.486 68.7342 253.31C67.4984 254.134 65.8507 254.134 64.6148 253.31C63.379 252.486 63.379 251.662 64.6148 250.839C65.8507 250.015 67.9103 250.015 68.7342 250.839Z" fill="#16110D"/>
<path d="M56.3777 247.543C57.9703 247.543 59.2611 246.806 59.2611 245.896C59.2611 244.986 57.9703 244.248 56.3777 244.248C54.7852 244.248 53.4944 244.986 53.4944 245.896C53.4944 246.806 54.7852 247.543 56.3777 247.543Z" fill="#16110D"/>
<path d="M48.1368 238.48C49.3726 239.304 49.3726 240.128 48.1368 240.952C46.901 241.776 45.2532 241.776 44.0174 240.952C42.7816 240.128 42.7816 239.304 44.0174 238.48C45.2532 238.068 46.901 238.068 48.1368 238.48Z" fill="#16110D"/>
<path d="M35.7806 235.597C37.3731 235.597 38.6639 234.859 38.6639 233.949C38.6639 233.039 37.3731 232.301 35.7806 232.301C34.188 232.301 32.8972 233.039 32.8972 233.949C32.8972 234.859 34.188 235.597 35.7806 235.597Z" fill="#16110D"/>
<path d="M37.4285 221.592C38.6644 222.416 38.6644 223.239 37.4285 224.063C36.1927 224.887 34.545 224.887 33.3092 224.063C32.0734 223.239 32.0734 222.416 33.3092 221.592C34.545 221.18 36.1927 221.18 37.4285 221.592Z" fill="#16110D"/>
<path d="M23.0108 215.824C24.2467 215 25.8944 215 27.1302 215.824C28.366 216.648 28.366 217.472 27.1302 218.296C25.8944 219.119 24.2467 219.119 23.0108 218.296C21.775 217.472 21.775 216.236 23.0108 215.824Z" fill="#16110D"/>
<path d="M12.3008 209.645C13.5366 208.821 15.1843 208.821 16.4201 209.645C17.6559 210.469 17.6559 211.293 16.4201 212.117C15.1843 212.94 13.5366 212.94 12.3008 212.117C11.4769 211.293 11.4769 210.057 12.3008 209.645Z" fill="#16110D"/>
<path d="M2.00132 203.466C3.23713 202.642 4.88488 202.642 6.12069 203.466C7.3565 204.29 7.3565 205.114 6.12069 205.937C4.88488 206.761 3.23713 206.761 2.00132 205.937C0.76551 205.114 0.76551 204.29 2.00132 203.466Z" fill="#16110D"/>
<path d="M140 283.794C141.592 283.794 142.883 283.056 142.883 282.146C142.883 281.236 141.592 280.499 140 280.499C138.407 280.499 137.116 281.236 137.116 282.146C137.116 283.056 138.407 283.794 140 283.794Z" fill="#16110D"/>
<path d="M152.358 274.731C153.594 275.555 153.594 276.379 152.358 277.203C151.122 278.027 149.474 278.027 148.238 277.203C147.003 276.379 147.003 275.555 148.238 274.731C149.474 274.319 151.534 274.319 152.358 274.731Z" fill="#16110D"/>
<path d="M163.069 268.964C164.305 269.787 164.305 270.611 163.069 271.435C161.833 272.259 160.185 272.259 158.95 271.435C157.714 270.611 157.714 269.787 158.95 268.964C159.773 268.14 161.833 268.14 163.069 268.964Z" fill="#16110D"/>
<path d="M127.642 274.731C128.878 273.907 130.525 273.907 131.761 274.731C132.997 275.555 132.997 276.379 131.761 277.203C130.525 278.027 128.878 278.027 127.642 277.203C126.406 276.791 126.406 275.555 127.642 274.731Z" fill="#16110D"/>
<path d="M142.059 268.964C143.295 269.787 143.295 270.611 142.059 271.435C140.824 272.259 139.176 272.259 137.94 271.435C136.704 270.611 136.704 269.787 137.94 268.964C139.176 268.14 140.824 268.14 142.059 268.964Z" fill="#16110D"/>
<path d="M150.298 265.668C151.89 265.668 153.181 264.93 153.181 264.02C153.181 263.11 151.89 262.373 150.298 262.373C148.705 262.373 147.414 263.11 147.414 264.02C147.414 264.93 148.705 265.668 150.298 265.668Z" fill="#16110D"/>
<path d="M161.01 259.489C162.602 259.489 163.893 258.751 163.893 257.841C163.893 256.931 162.602 256.194 161.01 256.194C159.417 256.194 158.125 256.931 158.125 257.841C158.125 258.751 159.417 259.489 161.01 259.489Z" fill="#16110D"/>
<path d="M117.344 268.964C118.58 268.14 120.227 268.14 121.463 268.964C122.699 269.787 122.699 270.611 121.463 271.435C120.227 272.259 118.58 272.259 117.344 271.435C116.108 270.611 116.108 269.376 117.344 268.964Z" fill="#16110D"/>
<path d="M152.358 250.839C153.594 251.662 153.594 252.486 152.358 253.31C151.122 254.134 149.474 254.134 148.238 253.31C147.003 252.486 147.003 251.662 148.238 250.839C149.474 250.015 151.534 250.015 152.358 250.839Z" fill="#16110D"/>
<path d="M106.633 262.784C107.869 261.961 109.517 261.961 110.753 262.784C111.988 263.608 111.988 264.432 110.753 265.256C109.517 266.08 107.869 266.08 106.633 265.256C105.809 264.432 105.809 263.608 106.633 262.784Z" fill="#16110D"/>
<path d="M96.3343 257.018C97.5701 256.194 99.2179 256.194 100.454 257.018C101.69 257.842 101.69 258.666 100.454 259.489C99.2179 260.313 97.5701 260.313 96.3343 259.489C95.0985 258.666 95.0985 257.43 96.3343 257.018Z" fill="#16110D"/>
<path d="M86.036 250.839C87.2718 250.015 88.9195 250.015 90.1554 250.839C91.3912 251.662 91.3912 252.486 90.1554 253.31C88.9195 254.134 87.2718 254.134 86.036 253.31C84.8002 252.486 84.8002 251.662 86.036 250.839Z" fill="#16110D"/>
<path d="M75.327 244.66C76.5628 243.836 78.2106 243.836 79.4464 244.66C80.6822 245.484 80.6822 246.307 79.4464 247.131C78.2106 247.955 76.5628 247.955 75.327 247.131C74.0912 246.307 74.0912 245.484 75.327 244.66Z" fill="#16110D"/>
<path d="M65.0292 238.893C66.265 238.069 67.9127 238.069 69.1485 238.893C70.3843 239.717 70.3843 240.541 69.1485 241.364C67.9127 242.188 66.265 242.188 65.0292 241.364C63.7933 240.541 63.7933 239.305 65.0292 238.893Z" fill="#16110D"/>
<path d="M54.3171 232.714C55.5529 231.89 57.2007 231.89 58.4365 232.714C59.6723 233.538 59.6723 234.362 58.4365 235.185C57.2007 236.009 55.5529 236.009 54.3171 235.185C53.4933 234.362 53.4933 233.538 54.3171 232.714Z" fill="#16110D"/>
<path d="M44.0174 226.535C45.2532 225.711 46.901 225.711 48.1368 226.535C49.3726 227.359 49.3726 228.182 48.1368 229.006C46.901 229.83 45.2532 229.83 44.0174 229.006C42.7816 228.182 42.7816 227.359 44.0174 226.535Z" fill="#16110D"/>
</svg>
