<svg width="252" height="238" viewBox="0 0 252 238" fill="none" xmlns="http://www.w3.org/2000/svg">
<path d="M241.664 136.203C241.664 136.203 241.664 135.783 241.664 136.203V132.421H239.563L239.143 132.001L145.849 78.2096C141.646 75.6881 134.502 76.1084 129.879 79.0501L10.5301 148.39C9.68964 148.811 8.84915 149.231 8.42891 150.071H6.74731V158.056C6.74731 159.317 7.58862 160.998 9.68984 161.838L102.984 215.629C107.186 218.151 114.331 217.731 118.953 214.789L238.302 145.449C240.824 144.188 242.084 142.087 242.084 140.406V138.304V136.203H241.664Z" fill="#36A9E1"/>
<path d="M241.664 140.826V138.724V136.203V132.841H239.563L239.142 132.421L204.682 112.249C202.161 112.249 200.059 112.249 199.219 112.669C194.176 114.35 115.171 160.577 113.49 167.301C111.809 174.445 108.866 209.325 108.866 209.325V217.31C112.228 217.31 116.011 216.89 118.953 215.209L238.302 145.869C240.403 144.188 241.664 142.507 241.664 140.826Z" fill="#16110D"/>
<path d="M109.706 218.151C106.765 218.151 104.243 217.731 102.563 216.47L9.26853 162.679C7.16731 161.418 6.32662 159.737 5.90637 158.056V149.231H8.00759C8.42784 148.811 9.26832 148.39 10.1088 147.55L129.459 78.2095C134.502 75.2678 142.066 75.2678 146.269 77.3691L239.562 131.16H239.982H242.925V140.406C242.925 142.507 241.244 144.608 238.722 146.289L119.372 215.629C116.431 217.31 112.648 218.151 109.706 218.151ZM7.16731 150.492V157.636C7.16731 158.896 8.00821 160.157 9.68918 160.998L102.983 214.789C106.765 216.89 113.489 216.89 118.111 213.948L237.461 144.608C239.562 143.347 240.823 141.666 240.823 140.406V135.783V132.841H239.142C238.722 132.841 238.722 132.421 238.722 132.421L145.427 78.6298C141.645 76.5286 134.922 76.5286 130.299 79.4703L10.9491 148.81C10.1086 149.231 9.68836 149.651 8.84788 150.071L8.42825 150.492H7.16731Z" fill="#16110D"/>
<path d="M102.562 207.645L9.26841 153.854C5.06597 151.332 5.48642 147.55 10.5293 144.608L129.878 75.2679C134.501 72.7464 141.645 72.3262 145.848 74.4274L239.142 128.219C243.344 130.74 242.924 134.522 237.881 137.464L118.532 206.804C113.909 209.746 106.765 210.166 102.562 207.645Z" fill="#36A9E1"/>
<path d="M109.706 210.166C106.765 210.166 104.243 209.746 102.563 208.485L9.26853 154.694C7.16731 153.433 5.90637 151.752 5.90637 150.071C5.90637 147.97 7.58735 145.869 10.1088 144.188L129.459 74.8475C134.502 71.9058 142.066 71.9058 146.269 74.007L239.562 127.798C241.664 129.059 242.925 130.74 242.925 132.421C242.925 134.522 241.244 136.623 238.722 138.304L119.372 207.645C116.431 209.326 112.648 210.166 109.706 210.166ZM138.704 74.007C135.762 74.007 132.4 74.8475 130.299 76.1082L10.9491 145.449C8.84788 146.709 7.58796 148.39 7.58796 150.071C7.58796 151.332 8.42784 152.593 10.1088 153.433L103.403 207.224C107.185 209.326 113.909 209.326 118.532 206.384L237.881 137.044C239.982 135.783 241.243 134.102 241.243 132.421C241.243 131.16 240.403 129.899 238.722 129.059L145.427 75.2677C143.326 74.4273 141.225 74.007 138.704 74.007Z" fill="#16110D"/>
<path d="M111.389 202.601L21.0364 150.491L134.502 84.5127L134.922 84.933L224.855 137.043L111.389 202.601Z" fill="#16110D"/>
<path d="M111.808 197.558L20.6157 144.608L136.183 77.3687L227.796 130.319L111.808 197.558Z" fill="white"/>
<path d="M111.808 198.399L18.5143 144.608L135.763 76.5283L136.183 76.9485L229.057 130.74L111.808 198.399ZM21.8764 144.608L111.808 196.718L225.695 130.32L135.763 78.2093L21.8764 144.608Z" fill="#16110D"/>
<path d="M213.087 99.2219L203.842 94.179L203.421 94.5992C200.899 96.2802 199.219 98.3814 196.698 97.1207C194.176 95.4397 191.234 95.0195 193.755 93.7587C193.755 93.7587 194.176 93.7588 194.176 93.3385L195.016 86.1943L191.234 84.9337L190.814 91.2373L180.307 80.7312C178.626 79.8907 175.264 80.311 174.844 81.5717L173.584 84.9337H172.323V92.498C172.323 92.9182 172.743 93.3385 173.164 93.7587L201.32 110.148C202.16 110.569 203.421 110.989 204.261 110.569L214.767 109.308C216.448 108.888 217.289 108.047 217.289 107.207V99.6422L213.087 99.2219Z" fill="#16110D"/>
<path d="M204.261 111.829C203.421 111.829 202.161 111.409 201.74 110.988L173.584 94.5989C173.164 94.1786 172.743 94.1787 172.743 93.7584H172.323V83.6726H174.004L175.265 81.1511C175.685 80.3106 176.105 79.8904 177.366 79.4701C179.047 79.0499 180.728 79.0499 181.989 79.8904L191.234 89.1358L191.654 83.6726L197.117 85.3535V94.1787L195.856 93.7584C195.436 93.7584 195.437 93.7584 195.437 94.1787C195.016 94.1787 195.016 94.5989 195.016 94.5989C195.436 95.0191 195.857 95.0192 196.698 95.4394C197.118 95.8597 197.958 95.8597 198.378 96.2799C199.639 97.1204 200.479 96.7001 202.16 95.0192C202.58 94.5989 203.421 94.1787 204.261 93.7584C204.261 93.7584 204.262 93.7584 204.682 93.7584L205.102 93.3382H205.522L213.927 97.9609L219.811 98.8013C220.231 98.8013 220.231 99.2216 220.231 99.2216V106.786C220.231 108.047 218.97 109.307 216.868 109.728L206.362 110.988C204.681 111.829 204.681 111.829 204.261 111.829ZM173.584 92.4977C173.584 92.9179 174.004 92.9179 174.004 92.9179L202.16 109.307C203 109.728 203.841 109.728 204.682 109.728L215.188 108.467C216.449 108.467 216.868 107.626 216.868 107.206V100.482L213.507 100.062V100.903L203.421 95.0192C202.58 95.4394 202.161 95.8597 201.74 96.2799C200.059 97.5406 198.378 98.8014 195.856 97.5406C195.436 97.1204 194.596 97.1204 194.176 96.7001C192.915 95.8596 191.654 95.4394 191.654 94.5989C191.654 93.7584 192.495 93.3382 193.335 92.9179C193.335 92.9179 194.596 93.7585 194.596 93.3382V87.0346L192.495 86.194L192.075 93.3382L180.728 81.9916C179.888 81.5713 178.627 81.5713 177.366 81.9916C176.946 81.9916 176.526 82.4119 176.526 82.8321L174.844 86.6143H174.004L173.584 92.4977Z" fill="#16110D"/>
<path d="M216.868 98.802L203.841 91.2377L203.42 91.6579C200.899 93.3388 196.696 93.3388 193.755 91.6579C191.233 89.9769 191.233 87.8757 193.755 86.1947C193.755 86.1947 194.175 86.1947 194.175 85.7745L180.728 77.7898C179.047 76.9493 175.684 77.3696 175.264 78.6303L172.742 84.5137C172.322 85.3542 172.743 85.7744 173.584 86.1947L201.74 102.584C202.58 103.004 203.841 103.425 204.681 103.004L215.187 101.744C217.709 101.744 218.549 100.063 216.868 98.802Z" fill="white"/>
<path d="M204.261 104.265C203.421 104.265 202.16 103.844 201.74 103.424L173.584 87.0346C172.323 86.1941 171.903 85.3536 172.323 84.0928L174.844 78.2094C175.264 77.369 175.684 76.9487 176.945 76.5285C178.626 76.1083 180.308 76.1082 181.568 76.9487L196.697 85.7739L195.437 86.6143C195.016 86.6143 195.016 86.6144 195.016 87.0346C194.175 87.4548 193.335 88.2953 193.335 89.1358C193.335 89.9763 193.755 90.3966 195.016 91.237C197.537 92.4978 201.32 92.4978 203.841 91.237C203.841 91.237 203.841 91.237 204.261 91.237L204.682 90.8168H205.102L218.129 98.3812C218.97 98.8014 219.81 100.062 219.39 100.903C218.97 102.163 217.709 103.004 216.028 103.004L205.522 104.265C204.681 104.265 204.681 104.265 204.261 104.265ZM178.206 78.2094C177.786 78.2094 177.365 78.2095 176.945 78.6297C176.525 78.6297 176.105 79.0499 176.105 79.4702L173.584 85.3536C173.584 85.7738 174.004 86.1941 174.004 86.1941L202.16 102.584C203 103.004 203.841 103.004 204.682 103.004L215.188 101.743C216.449 101.743 216.868 100.903 216.868 100.903C216.868 100.482 216.449 100.482 216.449 100.062L203.841 92.4977C200.9 94.1787 196.277 94.1787 193.335 92.4977C191.654 91.6572 190.813 90.3966 190.813 89.1358C190.813 87.8751 191.234 87.0345 192.495 86.1941L180.307 79.0499C179.887 78.2094 179.047 78.2094 178.206 78.2094Z" fill="#16110D"/>
<path d="M218.551 125.277L145.008 82.8324C143.327 81.9919 143.326 79.8906 145.428 79.0502L150.051 76.5287C152.152 75.268 155.094 75.268 156.775 76.1085L230.318 118.553C231.999 119.394 231.998 121.495 229.897 122.335L225.274 124.857C223.173 126.118 220.232 126.118 218.551 125.277Z" fill="white"/>
<path d="M221.492 126.538C220.231 126.538 218.971 126.118 218.13 125.697L144.587 83.2526C143.747 82.8324 142.907 81.9919 142.907 80.7312C142.907 79.4704 143.747 78.6299 145.008 77.7894L149.63 75.268C151.731 74.0073 155.514 74.0072 157.195 74.8477L230.737 117.292C231.578 117.713 232.419 118.553 232.419 119.814C232.419 121.075 231.578 121.915 230.318 122.756L225.695 125.277C224.434 126.117 223.173 126.538 221.492 126.538ZM218.97 124.437C220.651 125.277 223.173 125.277 224.854 124.016L229.476 121.495C230.317 121.075 230.737 120.654 230.737 119.814C230.737 119.394 230.317 118.973 229.897 118.973L156.354 76.5287C154.673 75.6882 152.152 75.6882 150.471 76.9489L145.848 79.4704C145.008 79.8907 144.587 80.3109 144.587 81.1514C144.587 81.5716 145.007 81.9919 145.428 81.9919L218.97 124.437Z" fill="#16110D"/>
<path d="M195.438 115.19L158.877 94.1783C158.036 93.758 158.036 92.9175 159.297 92.0771L161.398 90.8163C162.238 90.3961 163.919 89.9758 164.76 90.8163L201.321 111.829C202.161 112.249 202.162 113.089 200.901 113.93L198.8 115.19C197.96 115.611 196.278 116.031 195.438 115.19Z" fill="#36A9E1"/>
<path d="M197.118 116.451C196.278 116.451 195.858 116.451 195.017 116.031L158.456 95.0187C157.616 94.5985 157.616 94.1782 157.616 93.3378C157.616 92.4973 158.036 92.077 158.877 91.6567L160.978 90.396C162.239 89.5555 163.92 89.5555 165.18 90.396L201.741 111.408C202.582 111.828 202.582 112.249 202.582 113.089C202.582 113.93 202.161 114.35 201.321 114.77L199.219 116.031C198.799 116.451 197.959 116.451 197.118 116.451ZM163.079 91.2365C162.659 91.2365 161.818 91.2365 161.398 91.6567L159.296 92.9175C158.876 92.9175 158.877 93.3378 158.877 93.3378L195.438 114.35C196.278 114.77 197.118 114.77 197.959 114.35L200.06 113.089C200.48 113.089 200.48 112.669 200.48 112.669L163.919 91.6567C163.919 91.2365 163.499 91.2365 163.079 91.2365Z" fill="#16110D"/>
<path d="M123.997 141.246C128.407 141.246 131.981 139.176 131.981 136.623C131.981 134.07 128.407 132 123.997 132C119.587 132 116.012 134.07 116.012 136.623C116.012 139.176 119.587 141.246 123.997 141.246Z" fill="#16110D"/>
<path d="M141.646 125.277C131.56 119.393 116.432 119.393 106.346 125.277C101.303 128.219 98.3606 132.421 98.3606 136.623C98.3606 140.826 101.303 145.028 106.346 147.97C111.389 150.912 117.692 152.172 123.996 152.172C130.3 152.172 136.603 150.912 141.646 147.97C146.689 145.028 149.63 140.826 149.63 136.623C149.63 132.421 146.689 128.219 141.646 125.277ZM139.545 144.608C131.14 149.651 116.852 149.651 108.447 144.608C104.665 142.507 102.563 139.565 102.563 137.044C102.563 134.102 104.665 131.58 108.447 129.479C112.65 126.958 118.533 125.697 123.996 125.697C129.459 125.697 135.342 126.958 139.545 129.479C143.327 131.58 145.428 134.522 145.428 137.044C145.428 139.565 143.327 142.087 139.545 144.608Z" fill="#16110D"/>
<path d="M129.461 129.059C126.519 127.378 121.476 127.378 118.534 129.059C115.593 130.74 115.593 133.681 118.534 135.362C121.476 137.043 126.519 137.043 129.461 135.362C132.823 133.681 132.823 131.16 129.461 129.059Z" fill="#36A9E1"/>
<path d="M141.646 121.074C131.56 115.191 116.432 115.191 106.346 121.074C101.303 124.016 98.3606 128.219 98.3606 132.421C98.3606 136.623 101.303 140.826 106.346 143.768C111.389 146.709 117.692 147.97 123.996 147.97C130.3 147.97 136.603 146.709 141.646 143.768C146.689 140.826 149.63 136.623 149.63 132.421C149.63 128.219 146.689 124.016 141.646 121.074ZM139.545 140.406C131.14 145.449 116.852 145.449 108.447 140.406C104.665 138.304 102.563 135.363 102.563 132.841C102.563 129.9 104.665 127.378 108.447 125.277C112.65 122.755 118.533 121.495 123.996 121.495C129.459 121.495 135.342 122.755 139.545 125.277C143.327 127.378 145.428 130.32 145.428 132.841C145.428 135.363 143.327 137.884 139.545 140.406Z" fill="#36A9E1"/>
<path d="M120.632 4.24564C104.243 11.81 89.1139 34.9235 87.8531 56.356C87.4329 64.7608 89.1143 71.905 92.4762 76.5277L116.43 121.914L127.776 127.377C128.617 124.856 145.427 45.4296 146.268 42.9082C147.949 37.445 160.135 33.6628 160.556 28.1996C160.556 8.86838 137.022 -3.31875 120.632 4.24564ZM118.531 55.5155C111.807 58.8774 107.184 54.675 107.604 46.6903C108.025 38.7057 113.488 29.8805 119.792 26.5186C126.096 23.5769 131.138 27.3591 130.718 35.3437C130.718 42.9081 125.255 52.1535 118.531 55.5155Z" fill="#36A9E1"/>
<path d="M122.734 8.44842C106.344 16.0128 91.2154 39.1263 89.9547 60.5587C89.5345 64.7612 89.9545 68.1231 90.795 71.485C109.706 82.8316 123.995 81.9912 138.703 92.077C143.326 70.6446 147.949 48.3717 148.369 47.1109C150.05 41.6478 159.295 37.4453 159.295 31.9821C159.715 12.2306 139.123 0.884029 122.734 8.44842ZM120.633 59.298C113.909 62.6599 109.286 58.4575 109.706 50.4728C110.126 42.4882 115.59 33.6631 121.894 30.3012C128.197 27.3595 133.24 31.1416 132.819 39.1263C132.819 47.1109 127.357 56.3563 120.633 59.298Z" fill="white"/>
<path d="M128.198 129.479L115.17 123.175V122.755L91.216 77.3687C87.854 72.3258 86.1726 65.1816 86.5929 56.3565C87.8536 34.9241 102.982 10.9702 120.212 2.98553C128.617 -0.796669 139.964 0.0438061 148.789 5.92722C157.194 11.3904 161.817 19.375 161.397 28.6204C161.397 31.9823 157.614 34.924 153.832 37.0253C150.89 39.1265 147.949 41.2277 147.109 43.3289C146.688 44.1694 143.746 58.878 140.384 74.0068C133.66 104.685 129.038 126.117 128.617 127.378L128.198 129.479ZM117.271 121.074L126.937 125.697C128.618 119.393 134.081 93.338 138.283 74.0068C142.486 55.516 144.587 43.7492 145.007 42.9087C145.848 39.967 149.21 37.4455 152.572 35.3443C155.514 33.2431 158.876 31.1418 158.876 28.6204C158.876 20.6357 154.672 13.0714 147.528 8.02844C139.544 2.56527 129.038 1.7248 121.473 5.08675C105.084 12.6511 90.7961 35.3443 89.5354 56.3565C89.1152 64.3412 90.3759 71.065 93.7378 75.6877L117.271 121.074ZM114.329 57.6173C112.648 57.6173 111.388 57.197 110.127 56.3565C107.185 54.6755 105.925 50.8933 106.345 46.2706C106.765 37.8657 112.648 28.6204 119.372 25.2584C122.734 23.5774 125.676 23.5774 128.198 25.2584C130.719 26.9394 132.4 30.7216 132.4 34.924C131.98 43.3289 126.517 52.9946 119.793 56.3565C117.692 57.197 116.01 57.6173 114.329 57.6173ZM123.995 26.9394C122.734 26.9394 121.894 27.3597 120.633 27.7799C114.75 30.7216 109.286 39.1265 108.866 46.6909C108.866 50.4731 109.706 53.4148 111.808 54.6755C113.488 55.9362 115.59 55.516 118.111 54.2553C123.995 51.3136 129.459 42.4884 129.459 34.924C129.459 31.5621 128.617 28.6204 126.516 27.3596C126.096 26.9394 124.836 26.9394 123.995 26.9394Z" fill="#16110D"/>
<path d="M160.556 31.9826C160.976 12.2312 148.369 2.14528 131.979 9.70967C115.59 17.2741 100.461 40.3875 99.2002 61.82C98.7799 70.2249 100.461 77.369 103.823 81.9916L127.777 127.378L155.093 55.9365C155.933 53.4151 157.194 51.3138 157.615 48.7924C159.296 43.3292 160.556 37.4458 160.556 31.9826Z" fill="#16110D"/>
<path d="M128.198 129.479L126.517 128.639L102.563 82.832C99.2009 77.789 97.5206 70.6449 97.9408 61.8198C99.2015 40.3873 114.33 16.4333 131.56 8.44871C139.125 5.08676 146.689 5.08676 152.152 8.44871C158.456 12.6512 161.818 21.056 161.818 31.5621C161.818 37.0253 160.557 42.9088 158.876 48.7922C158.036 51.3136 157.194 53.8351 155.934 55.9363L128.198 129.479ZM142.486 8.86898C139.544 8.86898 136.182 9.70949 132.82 11.3905C116.431 18.9549 102.143 41.648 100.882 62.6602C100.462 70.6449 101.723 77.3687 105.085 81.9914L127.778 124.856L153.832 55.9363C154.673 53.4148 155.934 51.3136 156.354 48.7922C158.035 43.329 159.296 37.4456 159.296 32.4027C159.296 22.7371 156.354 14.7524 150.891 11.3905C148.369 9.28925 145.428 8.86898 142.486 8.86898Z" fill="#16110D"/>
<path d="M128.617 76.5283L116.43 68.1234C114.749 66.8626 114.75 63.5007 116.851 60.559C118.532 57.6173 121.474 55.9363 123.154 57.197L129.458 61.3995L140.805 38.286C142.486 34.9241 145.427 33.2431 147.108 33.6633C149.209 34.5038 149.209 37.4456 147.948 40.8075L131.139 74.8472C130.298 76.108 129.457 76.9485 128.617 76.5283Z" fill="#36A9E1"/>
<path d="M122.313 234.541C123.574 235.382 123.574 236.222 122.313 237.062C121.052 237.903 119.371 237.903 118.11 237.062C116.85 236.222 116.85 235.382 118.11 234.541C119.371 234.121 121.472 234.121 122.313 234.541Z" fill="#16110D"/>
<path d="M133.24 228.237C134.5 229.078 134.5 229.918 133.24 230.759C131.979 231.599 130.298 231.599 129.037 230.759C127.776 229.918 127.776 229.078 129.037 228.237C130.298 227.817 131.979 227.817 133.24 228.237Z" fill="#16110D"/>
<path d="M143.746 222.354C145.006 223.194 145.006 224.035 143.746 224.875C142.485 225.715 140.804 225.715 139.543 224.875C138.282 224.035 138.282 223.194 139.543 222.354C140.804 221.513 142.485 221.513 143.746 222.354Z" fill="#16110D"/>
<path d="M154.252 216.05C155.512 216.89 155.512 217.731 154.252 218.571C152.991 219.412 151.31 219.412 150.049 218.571C148.788 217.731 148.788 216.89 150.049 216.05C151.31 215.629 153.411 215.629 154.252 216.05Z" fill="#16110D"/>
<path d="M165.178 210.167C166.439 211.007 166.439 211.848 165.178 212.688C163.918 213.529 162.237 213.529 160.976 212.688C159.715 211.848 159.715 211.007 160.976 210.167C162.237 209.326 163.918 209.326 165.178 210.167Z" fill="#16110D"/>
<path d="M175.684 203.863C176.945 204.704 176.945 205.544 175.684 206.385C174.424 207.225 172.743 207.225 171.482 206.385C170.221 205.544 170.221 204.704 171.482 203.863C172.743 203.023 174.424 203.023 175.684 203.863Z" fill="#16110D"/>
<path d="M184.09 200.5C185.715 200.5 187.031 199.748 187.031 198.82C187.031 197.891 185.715 197.138 184.09 197.138C182.465 197.138 181.147 197.891 181.147 198.82C181.147 199.748 182.465 200.5 184.09 200.5Z" fill="#16110D"/>
<path d="M195.015 194.617C196.64 194.617 197.957 193.865 197.957 192.936C197.957 192.008 196.64 191.255 195.015 191.255C193.391 191.255 192.074 192.008 192.074 192.936C192.074 193.865 193.391 194.617 195.015 194.617Z" fill="#16110D"/>
<path d="M205.521 188.314C207.146 188.314 208.463 187.561 208.463 186.633C208.463 185.704 207.146 184.952 205.521 184.952C203.897 184.952 202.58 185.704 202.58 186.633C202.58 187.561 203.897 188.314 205.521 188.314Z" fill="#16110D"/>
<path d="M218.128 179.489C219.389 180.329 219.389 181.17 218.128 182.01C216.867 182.851 215.186 182.851 213.926 182.01C212.665 181.17 212.665 180.329 213.926 179.489C215.186 178.648 217.287 178.648 218.128 179.489Z" fill="#16110D"/>
<path d="M229.056 173.185C230.317 174.026 230.317 174.866 229.056 175.707C227.796 176.547 226.115 176.547 224.854 175.707C223.593 174.866 223.593 174.026 224.854 173.185C226.115 172.345 227.796 172.345 229.056 173.185Z" fill="#16110D"/>
<path d="M239.562 166.881C240.823 167.722 240.823 168.562 239.562 169.403C238.302 170.243 236.621 170.243 235.36 169.403C234.099 168.562 234.099 167.722 235.36 166.881C236.621 166.461 238.302 166.461 239.562 166.881Z" fill="#16110D"/>
<path d="M101.301 234.541C102.562 235.382 102.562 236.222 101.301 237.062C100.04 237.903 98.3591 237.903 97.0984 237.062C95.8376 236.222 95.8376 235.382 97.0984 234.541C98.3591 234.121 100.04 234.121 101.301 234.541Z" fill="#16110D"/>
<path d="M111.807 228.237C113.068 229.078 113.068 229.918 111.807 230.759C110.546 231.599 108.865 231.599 107.604 230.759C106.344 229.918 106.344 229.078 107.604 228.237C108.865 227.817 110.546 227.817 111.807 228.237Z" fill="#16110D"/>
<path d="M120.631 225.295C122.256 225.295 123.573 224.543 123.573 223.614C123.573 222.686 122.256 221.933 120.631 221.933C119.007 221.933 117.69 222.686 117.69 223.614C117.69 224.543 119.007 225.295 120.631 225.295Z" fill="#16110D"/>
<path d="M131.137 218.992C132.762 218.992 134.079 218.239 134.079 217.311C134.079 216.382 132.762 215.63 131.137 215.63C129.513 215.63 128.196 216.382 128.196 217.311C128.196 218.239 129.513 218.992 131.137 218.992Z" fill="#16110D"/>
<path d="M141.644 212.688C143.269 212.688 144.586 211.936 144.586 211.007C144.586 210.079 143.269 209.326 141.644 209.326C140.019 209.326 138.703 210.079 138.703 211.007C138.703 211.936 140.019 212.688 141.644 212.688Z" fill="#16110D"/>
<path d="M154.252 203.863C155.512 204.704 155.512 205.544 154.252 206.385C152.991 207.225 151.31 207.225 150.049 206.385C148.788 205.544 148.788 204.704 150.049 203.863C151.31 203.023 153.411 203.023 154.252 203.863Z" fill="#16110D"/>
<path d="M165.178 197.559C166.439 198.4 166.439 199.24 165.178 200.081C163.918 200.921 162.237 200.921 160.976 200.081C159.715 199.24 159.715 198.4 160.976 197.559C162.237 197.139 163.918 197.139 165.178 197.559Z" fill="#16110D"/>
<path d="M175.684 191.675C176.945 192.516 176.945 193.356 175.684 194.197C174.424 195.037 172.743 195.037 171.482 194.197C170.221 193.356 170.221 192.516 171.482 191.675C172.743 190.835 174.424 190.835 175.684 191.675Z" fill="#16110D"/>
<path d="M186.19 185.372C187.451 186.212 187.451 187.053 186.19 187.893C184.929 188.734 183.249 188.734 181.988 187.893C180.727 187.053 180.727 186.212 181.988 185.372C183.249 184.951 185.35 184.951 186.19 185.372Z" fill="#16110D"/>
<path d="M197.115 179.489C198.376 180.329 198.376 181.17 197.115 182.01C195.854 182.851 194.173 182.851 192.912 182.01C191.652 181.17 191.652 180.329 192.912 179.489C194.173 178.648 195.854 178.648 197.115 179.489Z" fill="#16110D"/>
<path d="M205.521 176.127C207.146 176.127 208.463 175.374 208.463 174.446C208.463 173.518 207.146 172.765 205.521 172.765C203.897 172.765 202.58 173.518 202.58 174.446C202.58 175.374 203.897 176.127 205.521 176.127Z" fill="#16110D"/>
<path d="M218.128 166.881C219.389 167.722 219.389 168.562 218.128 169.403C216.867 170.243 215.186 170.243 213.926 169.403C212.665 168.562 212.665 167.722 213.926 166.881C215.186 166.461 217.287 166.461 218.128 166.881Z" fill="#16110D"/>
<path d="M226.955 163.939C228.58 163.939 229.896 163.187 229.896 162.258C229.896 161.33 228.58 160.577 226.955 160.577C225.33 160.577 224.013 161.33 224.013 162.258C224.013 163.187 225.33 163.939 226.955 163.939Z" fill="#16110D"/>
<path d="M90.7948 228.237C92.0556 229.078 92.0556 229.918 90.7948 230.759C89.5341 231.599 87.8531 231.599 86.5924 230.759C85.3317 229.918 85.3317 229.078 86.5924 228.237C87.4329 227.817 89.5341 227.817 90.7948 228.237Z" fill="#16110D"/>
<path d="M101.301 222.354C102.562 223.194 102.562 224.035 101.301 224.875C100.04 225.715 98.3591 225.715 97.0984 224.875C95.8376 224.035 95.8376 223.194 97.0984 222.354C98.3591 221.513 100.04 221.513 101.301 222.354Z" fill="#16110D"/>
<path d="M79.8702 222.354C81.1309 223.194 81.1309 224.035 79.8702 224.875C78.6094 225.715 76.9284 225.715 75.6677 224.875C74.407 224.035 74.407 223.194 75.6677 222.354C76.9284 221.513 79.0297 221.513 79.8702 222.354Z" fill="#16110D"/>
<path d="M90.7948 216.049C92.0556 216.89 92.0556 217.73 90.7948 218.571C89.5341 219.411 87.8531 219.411 86.5924 218.571C85.3317 217.73 85.3317 216.89 86.5924 216.049C87.8531 215.209 89.5341 215.629 90.7948 216.049Z" fill="#16110D"/>
<path d="M67.2617 218.992C68.8864 218.992 70.2032 218.239 70.2032 217.311C70.2032 216.382 68.8864 215.63 67.2617 215.63C65.637 215.63 64.3202 216.382 64.3202 217.311C64.3202 218.239 65.637 218.992 67.2617 218.992Z" fill="#16110D"/>
<path d="M79.8702 210.167C81.1309 211.007 81.1309 211.848 79.8702 212.688C78.6094 213.529 76.9284 213.529 75.6677 212.688C74.407 211.848 74.407 211.007 75.6677 210.167C76.9284 209.326 79.0297 209.326 79.8702 210.167Z" fill="#16110D"/>
<path d="M56.7557 212.688C58.3804 212.688 59.6972 211.936 59.6972 211.007C59.6972 210.079 58.3804 209.326 56.7557 209.326C55.1311 209.326 53.8142 210.079 53.8142 211.007C53.8142 211.936 55.1311 212.688 56.7557 212.688Z" fill="#16110D"/>
<path d="M69.3631 203.863C70.6238 204.704 70.6238 205.544 69.3631 206.385C68.1023 207.225 66.4214 207.225 65.1606 206.385C63.8999 205.544 63.8999 204.704 65.1606 203.863C66.4214 203.023 68.1023 203.023 69.3631 203.863Z" fill="#16110D"/>
<path d="M45.8292 206.804C47.4539 206.804 48.7707 206.051 48.7707 205.123C48.7707 204.195 47.4539 203.442 45.8292 203.442C44.2045 203.442 42.8877 204.195 42.8877 205.123C42.8877 206.051 44.2045 206.804 45.8292 206.804Z" fill="#16110D"/>
<path d="M58.4347 197.559C59.6955 198.4 59.6955 199.24 58.4347 200.081C57.174 200.921 55.493 200.921 54.2323 200.081C52.9716 199.24 52.9716 198.4 54.2323 197.559C55.493 197.139 57.5942 197.139 58.4347 197.559Z" fill="#16110D"/>
<path d="M37.4226 197.559C38.6834 198.4 38.6834 199.24 37.4226 200.081C36.1619 200.921 34.4809 200.921 33.2202 200.081C31.9595 199.24 31.9595 198.4 33.2202 197.559C34.4809 197.139 36.1619 197.139 37.4226 197.559Z" fill="#16110D"/>
<path d="M47.9288 191.675C49.1895 192.516 49.1895 193.356 47.9288 194.197C46.668 195.037 44.987 195.037 43.7263 194.197C42.4656 193.356 42.4656 192.516 43.7263 191.675C44.987 190.835 46.668 190.835 47.9288 191.675Z" fill="#16110D"/>
<path d="M26.498 191.675C27.7587 192.516 27.7587 193.356 26.498 194.197C25.2372 195.037 23.5563 195.037 22.2955 194.197C21.0348 193.356 21.0348 192.516 22.2955 191.675C23.5563 190.835 25.6575 190.835 26.498 191.675Z" fill="#16110D"/>
<path d="M35.3232 188.314C36.9479 188.314 38.2647 187.561 38.2647 186.633C38.2647 185.704 36.9479 184.952 35.3232 184.952C33.6986 184.952 32.3817 185.704 32.3817 186.633C32.3817 187.561 33.6986 188.314 35.3232 188.314Z" fill="#16110D"/>
<path d="M15.9919 185.372C17.2526 186.212 17.2526 187.053 15.9919 187.893C14.7311 188.734 13.0502 188.734 11.7894 187.893C10.5287 187.053 10.5287 186.212 11.7894 185.372C13.0502 184.531 14.7311 184.531 15.9919 185.372Z" fill="#16110D"/>
<path d="M26.498 179.068C27.7587 179.908 27.7587 180.749 26.498 181.589C25.2372 182.43 23.5563 182.43 22.2955 181.589C21.0348 180.749 21.0348 179.908 22.2955 179.068C23.5563 178.648 25.6575 178.648 26.498 179.068Z" fill="#16110D"/>
<path d="M3.38455 182.01C5.00921 182.01 6.32605 181.257 6.32605 180.329C6.32605 179.401 5.00921 178.648 3.38455 178.648C1.75989 178.648 0.442017 179.401 0.442017 180.329C0.442017 181.257 1.75989 182.01 3.38455 182.01Z" fill="#16110D"/>
<path d="M13.8906 176.127C15.5153 176.127 16.8322 175.374 16.8322 174.446C16.8322 173.518 15.5153 172.765 13.8906 172.765C12.266 172.765 10.9481 173.518 10.9481 174.446C10.9481 175.374 12.266 176.127 13.8906 176.127Z" fill="#16110D"/>
<path d="M5.48588 166.881C6.74661 167.722 6.74661 168.562 5.48588 169.403C4.22515 170.243 2.54417 170.243 1.28344 169.403C0.0227075 168.562 0.0227075 167.722 1.28344 166.881C2.54417 166.461 4.22515 166.461 5.48588 166.881Z" fill="#16110D"/>
<path d="M237.461 157.636C239.086 157.636 240.402 156.883 240.402 155.955C240.402 155.026 239.086 154.274 237.461 154.274C235.836 154.274 234.519 155.026 234.519 155.955C234.519 156.883 235.836 157.636 237.461 157.636Z" fill="#16110D"/>
<path d="M250.068 160.997C251.329 161.838 251.329 162.678 250.068 163.519C248.808 164.359 247.127 164.359 245.866 163.519C244.605 162.678 244.605 161.838 245.866 160.997C247.127 160.157 249.228 160.157 250.068 160.997Z" fill="#16110D"/>
<path d="M246.285 148.811C247.545 147.97 249.226 147.97 250.487 148.811C251.748 149.651 251.748 150.492 250.487 151.332C249.226 152.173 247.545 152.173 246.285 151.332C245.024 150.492 245.024 149.231 246.285 148.811Z" fill="#16110D"/>
</svg>
