<svg width="187" height="176" viewBox="0 0 187 176" fill="none" xmlns="http://www.w3.org/2000/svg">
<path d="M179.214 100.632C179.214 100.632 179.214 100.32 179.214 100.632V97.8237H177.653L177.341 97.5117L108.06 57.5654C104.939 55.693 99.6332 56.005 96.2003 58.1896L7.56992 109.683C6.94576 109.995 6.3216 110.307 6.00952 110.931H4.76074V116.861C4.76074 117.797 5.38551 119.045 6.94591 119.669L76.2275 159.616C79.3483 161.488 84.6538 161.176 88.0867 158.991L176.717 107.498C178.59 106.562 179.526 105.002 179.526 103.753V102.193V100.632H179.214Z" fill="#36A9E1"/>
<path d="M179.214 104.065V102.505V100.632V98.1354H177.654L177.341 97.8233L151.751 82.8435C149.879 82.8435 148.318 82.8435 147.694 83.1556C143.949 84.4039 85.2782 118.733 84.0299 123.726C82.7815 129.031 80.5967 154.934 80.5967 154.934V160.863C83.0933 160.863 85.9025 160.551 88.0871 159.303L176.717 107.81C178.278 106.562 179.214 105.313 179.214 104.065Z" fill="#16110D"/>
<path d="M81.2203 161.488C79.0358 161.488 77.1634 161.176 75.9151 160.24L6.63351 120.293C5.07311 119.357 4.4488 118.109 4.13672 116.861V110.307H5.69712C6.0092 109.995 6.63336 109.683 7.25752 109.059L95.8887 57.5653C99.6336 55.3808 105.251 55.3808 108.372 56.9412L177.653 96.8874H177.965H180.15V103.753C180.15 105.314 178.902 106.874 177.029 108.122L88.3983 159.616C86.2137 160.864 83.4049 161.488 81.2203 161.488ZM5.07311 111.243V116.548C5.07311 117.485 5.69758 118.421 6.9459 119.045L76.2275 158.991C79.0362 160.552 84.029 160.552 87.4619 158.367L176.093 106.874C177.653 105.938 178.59 104.689 178.59 103.753V100.32V98.1357H177.341C177.029 98.1357 177.029 97.8236 177.029 97.8236L107.747 57.8774C104.938 56.317 99.9456 56.317 96.5127 58.5016L7.88153 109.995C7.25737 110.307 6.94529 110.619 6.32113 110.931L6.0095 111.243H5.07311Z" fill="#16110D"/>
<path d="M75.9152 153.686L6.63361 113.74C3.51281 111.868 3.82504 109.059 7.57 106.874L96.2004 55.3811C99.6333 53.5086 104.939 53.1965 108.06 54.7569L177.341 94.7031C180.462 96.5756 180.15 99.3843 176.405 101.569L87.7744 153.062C84.3415 155.247 79.036 155.559 75.9152 153.686Z" fill="#36A9E1"/>
<path d="M81.2203 155.558C79.0358 155.558 77.1634 155.246 75.9151 154.31L6.63351 114.364C5.07311 113.428 4.13672 112.179 4.13672 110.931C4.13672 109.371 5.38504 107.81 7.25752 106.562L95.8887 55.0688C99.6336 52.8842 105.251 52.8842 108.372 54.4446L177.653 94.3909C179.214 95.3271 180.15 96.5754 180.15 97.8237C180.15 99.3841 178.902 100.944 177.029 102.193L88.3983 153.686C86.2137 154.934 83.4049 155.558 81.2203 155.558ZM102.754 54.4446C100.57 54.4446 98.0731 55.0688 96.5127 56.005L7.88153 107.498C6.32113 108.434 5.3855 109.683 5.3855 110.931C5.3855 111.867 6.0092 112.804 7.25752 113.428L76.5391 153.374C79.3478 154.934 84.3414 154.934 87.7743 152.75L176.405 101.257C177.965 100.32 178.901 99.072 178.901 97.8237C178.901 96.8875 178.278 95.9513 177.029 95.3271L107.747 55.3809C106.187 54.7567 104.627 54.4446 102.754 54.4446Z" fill="#16110D"/>
<path d="M82.4693 149.941L15.3721 111.243L99.6336 62.2463L99.9453 62.5584L166.731 101.256L82.4693 149.941Z" fill="#16110D"/>
<path d="M82.7798 146.196L15.0586 106.874L100.881 56.9409L168.914 96.263L82.7798 146.196Z" fill="white"/>
<path d="M82.7796 146.82L13.498 106.874L100.569 56.3169L100.88 56.6289L169.85 96.5752L82.7796 146.82ZM15.9948 106.874L82.7796 145.572L167.354 96.2631L100.569 57.5652L15.9948 106.874Z" fill="#16110D"/>
<path d="M157.992 73.1695L151.127 69.4246L150.814 69.7366C148.942 70.9849 147.694 72.5453 145.821 71.6091C143.949 70.3608 141.764 70.0487 143.636 69.1125C143.636 69.1125 143.949 69.1125 143.949 68.8004L144.573 63.495L141.764 62.5588L141.452 67.24L133.65 59.438C132.402 58.8138 129.905 59.1259 129.593 60.0622L128.657 62.5588H127.721V68.1762C127.721 68.4883 128.033 68.8004 128.345 69.1125L149.254 81.2836C149.878 81.5957 150.814 81.9077 151.438 81.5957L159.24 80.6594C160.489 80.3473 161.113 79.7232 161.113 79.099V73.4816L157.992 73.1695Z" fill="#16110D"/>
<path d="M151.438 82.5318C150.814 82.5318 149.878 82.2197 149.566 81.9076L128.657 69.7365C128.345 69.4244 128.032 69.4244 128.032 69.1123H127.721V61.6224H128.969L129.905 59.7499C130.217 59.1258 130.529 58.8137 131.466 58.5016C132.714 58.1896 133.962 58.1895 134.899 58.8137L141.764 65.6795L142.076 61.6224L146.133 62.8707V69.4244L145.197 69.1123C144.885 69.1123 144.885 69.1123 144.885 69.4244C144.573 69.4244 144.573 69.7365 144.573 69.7365C144.885 70.0486 145.197 70.0486 145.821 70.3607C146.134 70.6728 146.757 70.6727 147.07 70.9848C148.006 71.609 148.63 71.2969 149.878 70.0486C150.19 69.7365 150.814 69.4244 151.438 69.1123C151.438 69.1123 151.439 69.1123 151.751 69.1123L152.063 68.8003H152.375L158.616 72.2331L162.986 72.8573C163.298 72.8573 163.298 73.1694 163.298 73.1694V78.7868C163.298 79.7231 162.361 80.6593 160.801 80.9714L152.999 81.9076C151.75 82.5318 151.75 82.5318 151.438 82.5318ZM128.657 68.1761C128.657 68.4882 128.969 68.4882 128.969 68.4882L149.878 80.6593C150.502 80.9714 151.127 80.9714 151.751 80.9714L159.553 80.0351C160.489 80.0351 160.801 79.411 160.801 79.0989V74.1056L158.305 73.7935V74.4177L150.814 70.0486C150.19 70.3607 149.878 70.6727 149.566 70.9848C148.318 71.9211 147.069 72.8573 145.197 71.9211C144.885 71.609 144.261 71.609 143.949 71.2969C143.012 70.6727 142.076 70.3606 142.076 69.7365C142.076 69.1123 142.701 68.8003 143.325 68.4882C143.325 68.4882 144.261 69.1124 144.261 68.8003V64.1191L142.701 63.4949L142.388 68.8003L133.962 60.3741C133.338 60.062 132.402 60.062 131.466 60.3741C131.153 60.3741 130.842 60.6862 130.842 60.9983L129.593 63.807H128.969L128.657 68.1761Z" fill="#16110D"/>
<path d="M160.799 72.8579L151.125 67.2405L150.813 67.5526C148.94 68.8009 145.819 68.8009 143.635 67.5526C141.762 66.3042 141.762 64.7438 143.635 63.4955C143.635 63.4955 143.947 63.4955 143.947 63.1835L133.961 57.2539C132.712 56.6298 130.215 56.9419 129.903 57.8781L128.031 62.2472C127.718 62.8714 128.031 63.1834 128.655 63.4955L149.564 75.6667C150.189 75.9787 151.125 76.2908 151.749 75.9787L159.551 75.0425C161.423 75.0425 162.047 73.7941 160.799 72.8579Z" fill="white"/>
<path d="M151.437 76.9143C150.813 76.9143 149.877 76.6022 149.565 76.2902L128.656 64.1191C127.72 63.4949 127.407 62.8707 127.72 61.9345L129.592 57.5654C129.904 56.9412 130.216 56.6291 131.152 56.3171C132.4 56.005 133.649 56.005 134.585 56.6291L145.82 63.1828L144.884 63.807C144.572 63.807 144.572 63.807 144.572 64.1191C143.947 64.4311 143.324 65.0553 143.324 65.6795C143.324 66.3036 143.635 66.6157 144.572 67.2399C146.444 68.1761 149.253 68.1761 151.126 67.2399C151.126 67.2399 151.125 67.2399 151.437 67.2399L151.75 66.9278H152.062L161.736 72.5452C162.36 72.8573 162.984 73.7935 162.672 74.4177C162.36 75.3539 161.424 75.9781 160.176 75.9781L152.374 76.9143C151.749 76.9143 151.749 76.9143 151.437 76.9143ZM132.088 57.5654C131.776 57.5654 131.464 57.5654 131.152 57.8775C130.84 57.8775 130.528 58.1895 130.528 58.5016L128.656 62.8707C128.656 63.1828 128.968 63.4949 128.968 63.4949L149.877 75.666C150.501 75.9781 151.125 75.9781 151.75 75.9781L159.552 75.0419C160.488 75.0419 160.8 74.4177 160.8 74.4177C160.8 74.1056 160.488 74.1056 160.488 73.7935L151.126 68.1761C148.941 69.4244 145.508 69.4244 143.324 68.1761C142.075 67.5519 141.451 66.6157 141.451 65.6795C141.451 64.7432 141.763 64.119 142.7 63.4949L133.649 58.1895C133.337 57.5654 132.713 57.5654 132.088 57.5654Z" fill="#16110D"/>
<path d="M162.05 92.5184L107.436 60.9984C106.188 60.3742 106.187 58.8138 107.747 58.1896L111.181 56.3172C112.741 55.3809 114.926 55.3809 116.174 56.0051L170.788 87.5252C172.037 88.1493 172.036 89.7097 170.476 90.3339L167.043 92.2064C165.482 93.1426 163.298 93.1426 162.05 92.5184Z" fill="white"/>
<path d="M164.234 93.4546C163.298 93.4546 162.361 93.1426 161.737 92.8305L107.123 61.3104C106.499 60.9983 105.875 60.3742 105.875 59.4379C105.875 58.5017 106.499 57.8775 107.435 57.2533L110.868 55.3809C112.428 54.4446 115.237 54.4446 116.485 55.0688L171.099 86.5889C171.724 86.901 172.348 87.5251 172.348 88.4613C172.348 89.3976 171.724 90.0218 170.788 90.6459L167.355 92.5184C166.418 93.1425 165.482 93.4546 164.234 93.4546ZM162.361 91.8942C163.609 92.5184 165.482 92.5184 166.731 91.5821L170.163 89.7097C170.787 89.3976 171.099 89.0855 171.099 88.4613C171.099 88.1492 170.787 87.8372 170.475 87.8372L115.861 56.3171C114.613 55.693 112.741 55.6929 111.493 56.6292L108.059 58.5017C107.435 58.8138 107.123 59.1258 107.123 59.75C107.123 60.0621 107.435 60.3741 107.747 60.3741L162.361 91.8942Z" fill="#16110D"/>
<path d="M144.885 85.0281L117.734 69.4241C117.11 69.1121 117.109 68.4879 118.046 67.8637L119.606 66.9275C120.23 66.6154 121.479 66.3033 122.103 66.9275L149.254 82.5315C149.878 82.8436 149.878 83.4677 148.942 84.0919L147.382 85.0281C146.757 85.3402 145.509 85.6523 144.885 85.0281Z" fill="#36A9E1"/>
<path d="M146.133 85.9643C145.509 85.9643 145.197 85.9643 144.573 85.6522L117.422 70.0482C116.798 69.7362 116.798 69.4241 116.798 68.7999C116.798 68.1758 117.11 67.8637 117.734 67.5516L119.295 66.6153C120.231 65.9912 121.479 65.9912 122.415 66.6153L149.566 82.2193C150.19 82.5314 150.19 82.8435 150.19 83.4677C150.19 84.0918 149.878 84.4039 149.254 84.716L147.693 85.6522C147.381 85.9643 146.757 85.9643 146.133 85.9643ZM120.855 67.2395C120.543 67.2395 119.918 67.2395 119.606 67.5516L118.046 68.4878C117.734 68.4878 117.734 68.7999 117.734 68.7999L144.885 84.4039C145.509 84.716 146.133 84.716 146.757 84.4039L148.317 83.4677C148.63 83.4677 148.63 83.1556 148.63 83.1556L121.479 67.5516C121.479 67.2395 121.167 67.2395 120.855 67.2395Z" fill="#16110D"/>
<path d="M91.8323 104.377C95.1071 104.377 97.7615 102.84 97.7615 100.944C97.7615 99.0482 95.1071 97.5112 91.8323 97.5112C88.5575 97.5112 85.9023 99.0482 85.9023 100.944C85.9023 102.84 88.5575 104.377 91.8323 104.377Z" fill="#16110D"/>
<path d="M104.938 92.5183C97.4484 88.1492 86.2138 88.1492 78.7239 92.5183C74.979 94.7029 72.7939 97.8236 72.7939 100.944C72.7939 104.065 74.979 107.186 78.7239 109.371C82.4689 111.555 87.1499 112.491 91.8311 112.491C96.5123 112.491 101.193 111.555 104.938 109.371C108.683 107.186 110.868 104.065 110.868 100.944C110.868 97.8236 108.683 94.7029 104.938 92.5183ZM103.378 106.874C97.1363 110.619 86.5259 110.619 80.2843 106.874C77.4756 105.314 75.9147 103.129 75.9147 101.257C75.9147 99.072 77.4756 97.1995 80.2843 95.6391C83.4051 93.7666 87.7741 92.8304 91.8311 92.8304C95.8882 92.8304 100.257 93.7666 103.378 95.6391C106.187 97.1995 107.747 99.3841 107.747 101.257C107.747 103.129 106.187 105.001 103.378 106.874Z" fill="#16110D"/>
<path d="M95.8895 95.3266C93.705 94.0783 89.9597 94.0783 87.7751 95.3266C85.5906 96.5749 85.5906 98.7595 87.7751 100.008C89.9597 101.256 93.705 101.256 95.8895 100.008C98.3862 98.7595 98.3862 96.887 95.8895 95.3266Z" fill="#36A9E1"/>
<path d="M104.938 89.3974C97.4484 85.0283 86.2138 85.0283 78.7239 89.3974C74.979 91.582 72.7939 94.7028 72.7939 97.8236C72.7939 100.944 74.979 104.065 78.7239 106.25C82.4689 108.434 87.1499 109.371 91.8311 109.371C96.5123 109.371 101.193 108.434 104.938 106.25C108.683 104.065 110.868 100.944 110.868 97.8236C110.868 94.7028 108.683 91.582 104.938 89.3974ZM103.378 103.753C97.1363 107.498 86.5259 107.498 80.2843 103.753C77.4756 102.193 75.9147 100.008 75.9147 98.1357C75.9147 95.9511 77.4756 94.0786 80.2843 92.5182C83.4051 90.6458 87.7741 89.7095 91.8311 89.7095C95.8882 89.7095 100.257 90.6458 103.378 92.5182C106.187 94.0786 107.747 96.2632 107.747 98.1357C107.747 100.008 106.187 101.881 103.378 103.753Z" fill="#36A9E1"/>
<path d="M89.3348 2.63853C77.1637 8.25597 65.9287 25.4204 64.9924 41.3365C64.6804 47.5781 65.929 52.8834 68.4256 56.3163L86.214 90.0209L94.64 94.078C95.2642 92.2055 107.748 33.2224 108.372 31.3499C109.62 27.2929 118.67 24.4842 118.982 20.4271C118.982 6.07145 101.506 -2.9789 89.3348 2.63853ZM87.7744 40.7123C82.7811 43.209 79.348 40.0882 79.66 34.1586C79.9721 28.2291 84.0296 21.6754 88.7108 19.1788C93.392 16.9942 97.1365 19.803 96.8244 25.7325C96.8244 31.3499 92.7677 38.2157 87.7744 40.7123Z" fill="#36A9E1"/>
<path d="M90.8955 5.75962C78.7244 11.3771 67.4894 28.5415 66.5531 44.4576C66.241 47.5784 66.553 50.075 67.1771 52.5716C81.2207 60.9978 91.8319 60.3736 102.755 67.8635C106.188 51.9475 109.621 35.4072 109.933 34.471C111.181 30.414 118.046 27.2931 118.046 23.2361C118.358 8.56835 103.067 0.142177 90.8955 5.75962ZM89.3351 43.5213C84.3418 46.0179 80.9086 42.8971 81.2207 36.9676C81.5328 31.0381 85.5903 24.4844 90.2715 21.9878C94.9527 19.8032 98.6972 22.6119 98.3851 28.5415C98.3851 34.471 94.3284 41.3367 89.3351 43.5213Z" fill="white"/>
<path d="M94.9523 95.6388L85.2775 90.9576V90.6455L67.4891 56.9409C64.9925 53.1959 63.7438 47.8906 64.0559 41.3369C64.9921 25.4208 76.227 7.63226 89.0223 1.70274C95.2639 -1.10597 103.69 -0.481825 110.244 3.88729C116.485 7.94433 119.918 13.8738 119.606 20.7396C119.606 23.2362 116.797 25.4208 113.989 26.9812C111.804 28.5416 109.62 30.102 108.996 31.6624C108.684 32.2865 106.499 43.2094 104.002 54.4442C99.009 77.2261 95.576 93.1421 95.2639 94.0784L94.9523 95.6388ZM86.8379 89.3972L94.0159 92.8301C95.2642 88.1489 99.3211 68.7999 102.442 54.4442C105.563 40.7127 107.123 31.9745 107.435 31.3503C108.06 29.1658 110.556 27.2933 113.053 25.7329C115.238 24.1725 117.734 22.6121 117.734 20.7396C117.734 14.8101 114.613 9.19265 109.307 5.44769C103.378 1.39066 95.5761 0.766505 89.9587 3.26314C77.7876 8.88058 67.1773 25.7329 66.2411 41.3369C65.929 47.2664 66.8652 52.2597 69.3619 55.6925L86.8379 89.3972ZM84.6535 42.2731C83.4052 42.2731 82.4689 41.961 81.5327 41.3369C79.3481 40.0886 78.4122 37.2798 78.7243 33.8469C79.0364 27.6053 83.405 20.7396 88.3983 18.2429C90.8949 16.9946 93.0798 16.9946 94.9523 18.2429C96.8248 19.4913 98.0731 22.3 98.0731 25.4208C97.761 31.6624 93.704 38.8402 88.7107 41.3369C87.1503 41.961 85.9018 42.2731 84.6535 42.2731ZM91.8315 19.4913C90.8952 19.4913 90.2709 19.8034 89.3347 20.1154C84.9656 22.3 80.9084 28.5416 80.5963 34.159C80.5963 36.9678 81.2203 39.1523 82.7807 40.0885C84.029 41.0248 85.5894 40.7127 87.4619 39.7765C91.831 37.5919 95.8887 31.0382 95.8887 25.4208C95.8887 22.9242 95.2639 20.7396 93.7035 19.8033C93.3914 19.4913 92.4556 19.4913 91.8315 19.4913Z" fill="#16110D"/>
<path d="M118.983 23.2365C119.295 8.56878 109.933 1.07885 97.7616 6.69629C85.5905 12.3137 74.3554 29.4782 73.4192 45.3942C73.1071 51.6358 74.3557 56.9411 76.8524 60.374L94.6408 94.0787L114.926 41.0251C115.55 39.1526 116.487 37.5922 116.799 35.7197C118.047 31.6627 118.983 27.2936 118.983 23.2365Z" fill="#16110D"/>
<path d="M94.9533 95.639L93.7045 95.0148L75.9161 60.9981C73.4194 57.2532 72.1716 51.9478 72.4837 45.3941C73.4199 29.478 84.6548 11.6894 97.4501 5.75993C103.067 3.26329 108.685 3.26329 112.742 5.75993C117.423 8.88073 119.92 15.1223 119.92 22.9243C119.92 26.9814 118.984 31.3505 117.735 35.7196C117.111 37.5921 116.486 39.4646 115.55 41.025L94.9533 95.639ZM105.564 6.07203C103.379 6.07203 100.882 6.69621 98.3857 7.94453C86.2146 13.562 75.6043 30.4143 74.6681 46.0183C74.356 51.9478 75.2922 56.941 77.7889 60.3739L94.6409 92.2061L113.99 41.025C114.614 39.1525 115.55 37.5921 115.862 35.7196C117.111 31.6626 118.047 27.2935 118.047 23.5485C118.047 16.3707 115.862 10.4412 111.805 7.94453C109.933 6.38413 107.748 6.07203 105.564 6.07203Z" fill="#16110D"/>
<path d="M95.2629 56.3168L86.2128 50.0752C84.9645 49.139 84.9648 46.6423 86.5252 44.4578C87.7736 42.2732 89.9581 41.0249 91.2064 41.9611L95.8876 45.0819L104.314 27.9175C105.562 25.4209 107.747 24.1725 108.995 24.4846C110.555 25.1088 110.555 27.2934 109.619 29.79L97.1356 55.0685C96.5115 56.0047 95.887 56.6289 95.2629 56.3168Z" fill="#36A9E1"/>
<path d="M90.5808 173.66C91.517 174.284 91.517 174.908 90.5808 175.532C89.6446 176.156 88.3962 176.156 87.46 175.532C86.5238 174.908 86.5238 174.284 87.46 173.66C88.3962 173.348 89.9566 173.348 90.5808 173.66Z" fill="#16110D"/>
<path d="M98.695 168.978C99.6313 169.602 99.6313 170.226 98.695 170.851C97.7588 171.475 96.5105 171.475 95.5743 170.851C94.638 170.226 94.638 169.602 95.5743 168.978C96.5105 168.666 97.7588 168.666 98.695 168.978Z" fill="#16110D"/>
<path d="M106.497 164.609C107.433 165.233 107.433 165.857 106.497 166.481C105.561 167.106 104.312 167.106 103.376 166.481C102.44 165.857 102.44 165.233 103.376 164.609C104.312 163.985 105.561 163.985 106.497 164.609Z" fill="#16110D"/>
<path d="M114.299 159.927C115.235 160.552 115.235 161.176 114.299 161.8C113.362 162.424 112.114 162.424 111.178 161.8C110.242 161.176 110.242 160.552 111.178 159.927C112.114 159.615 113.674 159.615 114.299 159.927Z" fill="#16110D"/>
<path d="M122.413 155.559C123.349 156.183 123.349 156.807 122.413 157.431C121.477 158.055 120.228 158.055 119.292 157.431C118.356 156.807 118.356 156.183 119.292 155.559C120.228 154.935 121.477 154.935 122.413 155.559Z" fill="#16110D"/>
<path d="M130.215 150.878C131.151 151.502 131.151 152.126 130.215 152.75C129.278 153.374 128.03 153.374 127.094 152.75C126.158 152.126 126.158 151.502 127.094 150.878C128.03 150.253 129.278 150.253 130.215 150.878Z" fill="#16110D"/>
<path d="M136.458 148.38C137.664 148.38 138.642 147.822 138.642 147.132C138.642 146.443 137.664 145.884 136.458 145.884C135.251 145.884 134.272 146.443 134.272 147.132C134.272 147.822 135.251 148.38 136.458 148.38Z" fill="#16110D"/>
<path d="M144.571 144.012C145.778 144.012 146.756 143.453 146.756 142.763C146.756 142.074 145.778 141.515 144.571 141.515C143.365 141.515 142.387 142.074 142.387 142.763C142.387 143.453 143.365 144.012 144.571 144.012Z" fill="#16110D"/>
<path d="M152.373 139.33C153.579 139.33 154.557 138.771 154.557 138.082C154.557 137.393 153.579 136.834 152.373 136.834C151.166 136.834 150.188 137.393 150.188 138.082C150.188 138.771 151.166 139.33 152.373 139.33Z" fill="#16110D"/>
<path d="M161.734 132.777C162.67 133.401 162.67 134.025 161.734 134.649C160.798 135.274 159.55 135.274 158.613 134.649C157.677 134.025 157.677 133.401 158.613 132.777C159.55 132.153 161.11 132.153 161.734 132.777Z" fill="#16110D"/>
<path d="M169.85 128.096C170.787 128.72 170.787 129.344 169.85 129.968C168.914 130.592 167.666 130.592 166.73 129.968C165.793 129.344 165.793 128.72 166.73 128.096C167.666 127.471 168.914 127.471 169.85 128.096Z" fill="#16110D"/>
<path d="M177.652 123.414C178.588 124.038 178.588 124.663 177.652 125.287C176.716 125.911 175.468 125.911 174.531 125.287C173.595 124.663 173.595 124.038 174.531 123.414C175.468 123.102 176.716 123.102 177.652 123.414Z" fill="#16110D"/>
<path d="M74.9763 173.66C75.9125 174.284 75.9125 174.908 74.9763 175.532C74.0401 176.156 72.7917 176.156 71.8555 175.532C70.9193 174.908 70.9193 174.284 71.8555 173.66C72.7917 173.348 74.0401 173.348 74.9763 173.66Z" fill="#16110D"/>
<path d="M82.779 168.978C83.7153 169.602 83.7153 170.226 82.779 170.851C81.8428 171.475 80.5945 171.475 79.6582 170.851C78.722 170.226 78.722 169.602 79.6582 168.978C80.5945 168.666 81.8428 168.666 82.779 168.978Z" fill="#16110D"/>
<path d="M89.3319 166.793C90.5384 166.793 91.5163 166.235 91.5163 165.545C91.5163 164.856 90.5384 164.297 89.3319 164.297C88.1254 164.297 87.1475 164.856 87.1475 165.545C87.1475 166.235 88.1254 166.793 89.3319 166.793Z" fill="#16110D"/>
<path d="M97.1336 162.112C98.3401 162.112 99.318 161.553 99.318 160.864C99.318 160.175 98.3401 159.616 97.1336 159.616C95.9271 159.616 94.9492 160.175 94.9492 160.864C94.9492 161.553 95.9271 162.112 97.1336 162.112Z" fill="#16110D"/>
<path d="M104.936 157.431C106.143 157.431 107.121 156.872 107.121 156.183C107.121 155.493 106.143 154.935 104.936 154.935C103.73 154.935 102.752 155.493 102.752 156.183C102.752 156.872 103.73 157.431 104.936 157.431Z" fill="#16110D"/>
<path d="M114.299 150.878C115.235 151.502 115.235 152.126 114.299 152.75C113.362 153.374 112.114 153.374 111.178 152.75C110.242 152.126 110.242 151.502 111.178 150.878C112.114 150.253 113.674 150.253 114.299 150.878Z" fill="#16110D"/>
<path d="M122.413 146.196C123.349 146.82 123.349 147.445 122.413 148.069C121.477 148.693 120.228 148.693 119.292 148.069C118.356 147.445 118.356 146.82 119.292 146.196C120.228 145.884 121.477 145.884 122.413 146.196Z" fill="#16110D"/>
<path d="M130.215 141.827C131.151 142.451 131.151 143.075 130.215 143.699C129.278 144.323 128.03 144.323 127.094 143.699C126.158 143.075 126.158 142.451 127.094 141.827C128.03 141.203 129.278 141.203 130.215 141.827Z" fill="#16110D"/>
<path d="M138.016 137.145C138.953 137.77 138.953 138.394 138.016 139.018C137.08 139.642 135.832 139.642 134.896 139.018C133.959 138.394 133.959 137.77 134.896 137.145C135.832 136.833 137.392 136.833 138.016 137.145Z" fill="#16110D"/>
<path d="M146.13 132.777C147.066 133.401 147.066 134.025 146.13 134.649C145.193 135.274 143.945 135.274 143.009 134.649C142.073 134.025 142.073 133.401 143.009 132.777C143.945 132.153 145.193 132.153 146.13 132.777Z" fill="#16110D"/>
<path d="M152.373 130.28C153.579 130.28 154.557 129.721 154.557 129.032C154.557 128.343 153.579 127.784 152.373 127.784C151.166 127.784 150.188 128.343 150.188 129.032C150.188 129.721 151.166 130.28 152.373 130.28Z" fill="#16110D"/>
<path d="M161.734 123.414C162.67 124.038 162.67 124.663 161.734 125.287C160.798 125.911 159.55 125.911 158.613 125.287C157.677 124.663 157.677 124.038 158.613 123.414C159.55 123.102 161.11 123.102 161.734 123.414Z" fill="#16110D"/>
<path d="M168.29 121.23C169.496 121.23 170.474 120.671 170.474 119.981C170.474 119.292 169.496 118.733 168.29 118.733C167.083 118.733 166.105 119.292 166.105 119.981C166.105 120.671 167.083 121.23 168.29 121.23Z" fill="#16110D"/>
<path d="M67.1745 168.978C68.1108 169.602 68.1108 170.226 67.1745 170.851C66.2383 171.475 64.99 171.475 64.0537 170.851C63.1175 170.226 63.1175 169.602 64.0537 168.978C64.6779 168.666 66.2383 168.666 67.1745 168.978Z" fill="#16110D"/>
<path d="M74.9763 164.609C75.9125 165.233 75.9125 165.857 74.9763 166.481C74.0401 167.106 72.7917 167.106 71.8555 166.481C70.9193 165.857 70.9193 165.233 71.8555 164.609C72.7917 163.985 74.0401 163.985 74.9763 164.609Z" fill="#16110D"/>
<path d="M59.0622 164.609C59.9985 165.233 59.9985 165.857 59.0622 166.481C58.126 167.106 56.8777 167.106 55.9414 166.481C55.0052 165.857 55.0052 165.233 55.9414 164.609C56.8777 163.985 58.4381 163.985 59.0622 164.609Z" fill="#16110D"/>
<path d="M67.1745 159.927C68.1108 160.551 68.1108 161.176 67.1745 161.8C66.2383 162.424 64.99 162.424 64.0537 161.8C63.1175 161.176 63.1175 160.551 64.0537 159.927C64.99 159.303 66.2383 159.615 67.1745 159.927Z" fill="#16110D"/>
<path d="M49.6991 162.112C50.9056 162.112 51.8835 161.553 51.8835 160.864C51.8835 160.175 50.9056 159.616 49.6991 159.616C48.4926 159.616 47.5146 160.175 47.5146 160.864C47.5146 161.553 48.4926 162.112 49.6991 162.112Z" fill="#16110D"/>
<path d="M59.0622 155.559C59.9985 156.183 59.9985 156.807 59.0622 157.431C58.126 158.055 56.8777 158.055 55.9414 157.431C55.0052 156.807 55.0052 156.183 55.9414 155.559C56.8777 154.935 58.4381 154.935 59.0622 155.559Z" fill="#16110D"/>
<path d="M41.8973 157.431C43.1038 157.431 44.0817 156.872 44.0817 156.183C44.0817 155.493 43.1038 154.935 41.8973 154.935C40.6908 154.935 39.7129 155.493 39.7129 156.183C39.7129 156.872 40.6908 157.431 41.8973 157.431Z" fill="#16110D"/>
<path d="M51.2595 150.878C52.1957 151.502 52.1957 152.126 51.2595 152.75C50.3233 153.374 49.0749 153.374 48.1387 152.75C47.2025 152.126 47.2025 151.502 48.1387 150.878C49.0749 150.253 50.3233 150.253 51.2595 150.878Z" fill="#16110D"/>
<path d="M33.783 153.062C34.9895 153.062 35.9674 152.503 35.9674 151.813C35.9674 151.124 34.9895 150.565 33.783 150.565C32.5765 150.565 31.5986 151.124 31.5986 151.813C31.5986 152.503 32.5765 153.062 33.783 153.062Z" fill="#16110D"/>
<path d="M43.1443 146.196C44.0805 146.82 44.0805 147.445 43.1443 148.069C42.208 148.693 40.9597 148.693 40.0235 148.069C39.0872 147.445 39.0872 146.82 40.0235 146.196C40.9597 145.884 42.5201 145.884 43.1443 146.196Z" fill="#16110D"/>
<path d="M27.5398 146.196C28.476 146.82 28.476 147.445 27.5398 148.069C26.6035 148.693 25.3552 148.693 24.419 148.069C23.4827 147.445 23.4827 146.82 24.419 146.196C25.3552 145.884 26.6035 145.884 27.5398 146.196Z" fill="#16110D"/>
<path d="M35.3425 141.827C36.2788 142.451 36.2788 143.075 35.3425 143.699C34.4063 144.323 33.158 144.323 32.2217 143.699C31.2855 143.075 31.2855 142.451 32.2217 141.827C33.158 141.203 34.4063 141.203 35.3425 141.827Z" fill="#16110D"/>
<path d="M19.4265 141.827C20.3627 142.451 20.3627 143.075 19.4265 143.699C18.4903 144.323 17.2419 144.323 16.3057 143.699C15.3695 143.075 15.3695 142.451 16.3057 141.827C17.2419 141.203 18.8023 141.203 19.4265 141.827Z" fill="#16110D"/>
<path d="M25.9803 139.33C27.1868 139.33 28.1647 138.771 28.1647 138.082C28.1647 137.393 27.1868 136.834 25.9803 136.834C24.7738 136.834 23.7959 137.393 23.7959 138.082C23.7959 138.771 24.7738 139.33 25.9803 139.33Z" fill="#16110D"/>
<path d="M11.6247 137.146C12.561 137.77 12.561 138.394 11.6247 139.018C10.6885 139.642 9.44018 139.642 8.50394 139.018C7.5677 138.394 7.5677 137.77 8.50394 137.146C9.44018 136.521 10.6885 136.521 11.6247 137.146Z" fill="#16110D"/>
<path d="M19.4265 132.464C20.3627 133.088 20.3627 133.713 19.4265 134.337C18.4903 134.961 17.2419 134.961 16.3057 134.337C15.3695 133.713 15.3695 133.088 16.3057 132.464C17.2419 132.152 18.8023 132.152 19.4265 132.464Z" fill="#16110D"/>
<path d="M2.26232 134.649C3.46882 134.649 4.44672 134.09 4.44672 133.401C4.44672 132.711 3.46882 132.152 2.26232 132.152C1.05582 132.152 0.0771484 132.711 0.0771484 133.401C0.0771484 134.09 1.05582 134.649 2.26232 134.649Z" fill="#16110D"/>
<path d="M10.0651 130.28C11.2716 130.28 12.2495 129.721 12.2495 129.032C12.2495 128.343 11.2716 127.784 10.0651 127.784C8.85855 127.784 7.87988 128.343 7.87988 129.032C7.87988 129.721 8.85855 130.28 10.0651 130.28Z" fill="#16110D"/>
<path d="M3.82298 123.414C4.75922 124.038 4.75922 124.663 3.82298 125.287C2.88674 125.911 1.63842 125.911 0.70218 125.287C-0.23406 124.663 -0.23406 124.038 0.70218 123.414C1.63842 123.102 2.88674 123.102 3.82298 123.414Z" fill="#16110D"/>
<path d="M176.092 116.548C177.298 116.548 178.276 115.989 178.276 115.3C178.276 114.611 177.298 114.052 176.092 114.052C174.885 114.052 173.907 114.611 173.907 115.3C173.907 115.989 174.885 116.548 176.092 116.548Z" fill="#16110D"/>
<path d="M185.454 119.045C186.39 119.669 186.39 120.293 185.454 120.917C184.518 121.541 183.269 121.541 182.333 120.917C181.397 120.293 181.397 119.669 182.333 119.045C183.269 118.421 184.83 118.421 185.454 119.045Z" fill="#16110D"/>
<path d="M182.644 109.995C183.58 109.371 184.828 109.371 185.764 109.995C186.701 110.619 186.701 111.243 185.764 111.867C184.828 112.492 183.58 112.492 182.644 111.867C181.707 111.243 181.707 110.307 182.644 109.995Z" fill="#16110D"/>
</svg>
