<svg width="147" height="176" viewBox="0 0 147 176" fill="none" xmlns="http://www.w3.org/2000/svg">
<path d="M3.29393 147.363C4.10061 147.901 4.10061 148.439 3.29393 148.977C2.48726 149.514 1.41169 149.514 0.605008 148.977C-0.201669 148.439 -0.201669 147.901 0.605008 147.363C1.41169 146.826 2.75615 146.826 3.29393 147.363Z" fill="#16110D"/>
<path d="M10.2842 143.33C11.0908 143.868 11.0908 144.405 10.2842 144.943C9.47749 145.481 8.40192 145.481 7.59524 144.943C6.78856 144.405 6.78856 143.868 7.59524 143.33C8.40192 143.061 9.47749 143.061 10.2842 143.33Z" fill="#16110D"/>
<path d="M17.0068 139.565C17.8135 140.103 17.8135 140.641 17.0068 141.178C16.2001 141.716 15.1246 141.716 14.3179 141.178C13.5112 140.641 13.5112 140.103 14.3179 139.565C15.1246 139.027 16.2001 139.027 17.0068 139.565Z" fill="#16110D"/>
<path d="M3.29393 139.565C4.10061 140.103 4.10061 140.641 3.29393 141.178C2.48726 141.716 1.41169 141.716 0.605008 141.178C-0.201669 140.641 -0.201669 140.103 0.605008 139.565C1.41169 139.027 2.75615 139.027 3.29393 139.565Z" fill="#16110D"/>
<path d="M139.085 162.421C139.892 162.959 139.892 163.496 139.085 164.034C138.278 164.572 137.203 164.572 136.396 164.034C135.589 163.496 135.589 162.959 136.396 162.421C137.203 161.883 138.278 161.883 139.085 162.421Z" fill="#16110D"/>
<path d="M125.371 162.421C126.178 162.959 126.178 163.496 125.371 164.034C124.564 164.572 123.489 164.572 122.682 164.034C121.875 163.496 121.875 162.959 122.682 162.421C123.489 161.883 124.833 161.883 125.371 162.421Z" fill="#16110D"/>
<path d="M132.362 158.388C133.169 158.926 133.169 159.464 132.362 160.001C131.556 160.539 130.48 160.539 129.673 160.001C128.867 159.464 128.867 158.926 129.673 158.388C130.48 158.119 131.556 158.119 132.362 158.388Z" fill="#16110D"/>
<path d="M118.648 158.388C119.455 158.926 119.455 159.464 118.648 160.001C117.842 160.539 116.766 160.539 115.96 160.001C115.153 159.464 115.153 158.926 115.96 158.388C116.766 158.119 118.111 158.119 118.648 158.388Z" fill="#16110D"/>
<path d="M125.371 154.623C126.178 155.161 126.178 155.699 125.371 156.237C124.564 156.774 123.489 156.774 122.682 156.237C121.875 155.699 121.875 155.161 122.682 154.623C123.489 154.086 124.833 154.086 125.371 154.623Z" fill="#16110D"/>
<path d="M111.927 154.623C112.733 155.161 112.733 155.699 111.927 156.237C111.12 156.774 110.044 156.774 109.238 156.237C108.431 155.699 108.431 155.161 109.238 154.623C110.044 154.086 111.12 154.086 111.927 154.623Z" fill="#16110D"/>
<path d="M118.648 150.59C119.455 151.128 119.455 151.665 118.648 152.203C117.842 152.741 116.766 152.741 115.96 152.203C115.153 151.665 115.153 151.128 115.96 150.59C116.766 150.321 118.111 150.321 118.648 150.59Z" fill="#16110D"/>
<path d="M64.6006 173.983C65.4073 174.521 65.4073 175.059 64.6006 175.597C63.7939 176.134 62.7183 176.134 61.9116 175.597C61.105 175.059 61.105 174.521 61.9116 173.983C62.7183 173.714 63.7939 173.714 64.6006 173.983Z" fill="#16110D"/>
<path d="M71.3232 170.219C72.1299 170.757 72.1299 171.295 71.3232 171.833C70.5166 172.37 69.441 172.37 68.6343 171.833C67.8276 171.295 67.8276 170.757 68.6343 170.219C69.441 169.681 70.5166 169.681 71.3232 170.219Z" fill="#16110D"/>
<path d="M105.204 150.59C106.011 151.128 106.011 151.665 105.204 152.203C104.397 152.741 103.322 152.741 102.515 152.203C101.708 151.665 101.708 151.128 102.515 150.59C103.322 150.321 104.397 150.321 105.204 150.59Z" fill="#16110D"/>
<path d="M111.927 146.826C112.733 147.363 112.733 147.901 111.927 148.439C111.12 148.977 110.044 148.977 109.238 148.439C108.431 147.901 108.431 147.363 109.238 146.826C110.044 146.288 111.12 146.288 111.927 146.826Z" fill="#16110D"/>
<path d="M51.1562 173.983C51.9629 174.521 51.9629 175.059 51.1562 175.597C50.3496 176.134 49.274 176.134 48.4673 175.597C47.6606 175.059 47.6606 174.521 48.4673 173.983C49.274 173.714 50.3496 173.714 51.1562 173.983Z" fill="#16110D"/>
<path d="M57.8779 170.219C58.6846 170.757 58.6846 171.295 57.8779 171.833C57.0712 172.37 55.9957 172.37 55.189 171.833C54.3823 171.295 54.3823 170.757 55.189 170.219C55.9957 169.681 57.0712 169.681 57.8779 170.219Z" fill="#16110D"/>
<path d="M64.6006 166.186C65.4073 166.723 65.4073 167.261 64.6006 167.799C63.7939 168.337 62.7183 168.337 61.9116 167.799C61.105 167.261 61.105 166.723 61.9116 166.186C62.7183 165.917 63.7939 165.917 64.6006 166.186Z" fill="#16110D"/>
<path d="M71.3232 162.421C72.1299 162.959 72.1299 163.496 71.3232 164.034C70.5166 164.572 69.441 164.572 68.6343 164.034C67.8276 163.496 67.8276 162.959 68.6343 162.421C69.441 161.883 70.5166 161.883 71.3232 162.421Z" fill="#16110D"/>
<path d="M98.4814 146.826C99.2881 147.363 99.2881 147.901 98.4814 148.439C97.6748 148.977 96.5992 148.977 95.7925 148.439C94.9858 147.901 94.9858 147.363 95.7925 146.826C96.5992 146.288 97.6748 146.288 98.4814 146.826Z" fill="#16110D"/>
<path d="M105.204 142.792C106.011 143.33 106.011 143.868 105.204 144.406C104.397 144.943 103.322 144.943 102.515 144.406C101.708 143.868 101.708 143.33 102.515 142.792C103.322 142.523 104.397 142.523 105.204 142.792Z" fill="#16110D"/>
<path d="M44.4346 170.219C45.2412 170.757 45.2412 171.295 44.4346 171.833C43.6279 172.37 42.5523 172.37 41.7456 171.833C40.939 171.295 40.939 170.757 41.7456 170.219C42.5523 169.681 43.6279 169.681 44.4346 170.219Z" fill="#16110D"/>
<path d="M51.1562 166.186C51.9629 166.723 51.9629 167.261 51.1562 167.799C50.3496 168.337 49.274 168.337 48.4673 167.799C47.6606 167.261 47.6606 166.723 48.4673 166.186C49.274 165.917 50.3496 165.917 51.1562 166.186Z" fill="#16110D"/>
<path d="M91.7598 142.792C92.5664 143.33 92.5664 143.868 91.7598 144.406C90.9531 144.943 89.8775 144.943 89.0708 144.406C88.2642 143.868 88.2642 143.33 89.0708 142.792C89.8775 142.523 90.9531 142.523 91.7598 142.792Z" fill="#16110D"/>
<path d="M98.4814 139.027C99.2881 139.565 99.2881 140.103 98.4814 140.641C97.6748 141.178 96.5992 141.178 95.7925 140.641C94.9858 140.103 94.9858 139.565 95.7925 139.027C96.5992 138.49 97.6748 138.49 98.4814 139.027Z" fill="#16110D"/>
<path d="M37.4433 166.186C38.25 166.723 38.25 167.261 37.4433 167.799C36.6367 168.337 35.5611 168.337 34.7544 167.799C33.9477 167.261 33.9477 166.723 34.7544 166.186C35.5611 165.917 36.9056 165.917 37.4433 166.186Z" fill="#16110D"/>
<path d="M44.4346 162.421C45.2412 162.959 45.2412 163.496 44.4346 164.034C43.6279 164.572 42.5523 164.572 41.7456 164.034C40.939 163.496 40.939 162.959 41.7456 162.421C42.5523 161.883 43.6279 161.883 44.4346 162.421Z" fill="#16110D"/>
<path d="M51.1562 158.388C51.9629 158.926 51.9629 159.464 51.1562 160.001C50.3496 160.539 49.274 160.539 48.4673 160.001C47.6606 159.464 47.6606 158.926 48.4673 158.388C49.274 158.119 50.3496 158.119 51.1562 158.388Z" fill="#16110D"/>
<path d="M57.8784 154.624C58.6851 155.161 58.6851 155.699 57.8784 156.237C57.0717 156.775 55.9962 156.775 55.1895 156.237C54.6517 155.699 57.0717 154.086 57.8784 154.624Z" fill="#16110D"/>
<path d="M84.7676 139.027C85.5742 139.565 85.5742 140.103 84.7676 140.641C83.9609 141.178 82.8853 141.178 82.0786 140.641C81.272 140.103 81.272 139.565 82.0786 139.027C82.8853 138.49 84.2298 138.49 84.7676 139.027Z" fill="#16110D"/>
<path d="M91.7598 134.994C92.5664 135.532 92.5664 136.069 91.7598 136.607C90.9531 137.145 89.8775 137.145 89.0708 136.607C88.2642 136.069 88.2642 135.532 89.0708 134.994C89.8775 134.725 90.9531 134.725 91.7598 134.994Z" fill="#16110D"/>
<path d="M30.7217 162.421C31.5283 162.959 31.5283 163.496 30.7217 164.034C29.915 164.572 28.8394 164.572 28.0327 164.034C27.2261 163.496 27.2261 162.959 28.0327 162.421C28.8394 161.883 29.915 161.883 30.7217 162.421Z" fill="#16110D"/>
<path d="M37.4433 158.388C38.25 158.926 38.25 159.464 37.4433 160.001C36.6367 160.539 35.5611 160.539 34.7544 160.001C33.9477 159.464 33.9477 158.926 34.7544 158.388C35.5611 158.119 36.6367 158.119 37.4433 158.388Z" fill="#16110D"/>
<path d="M44.166 154.623C44.9727 155.161 44.9727 155.699 44.166 156.237C43.3593 156.774 42.2838 156.774 41.4771 156.237C40.6704 155.699 40.6704 155.161 41.4771 154.623C42.2838 154.086 43.6282 154.086 44.166 154.623Z" fill="#16110D"/>
<path d="M78.0459 134.994C78.8526 135.532 78.8526 136.069 78.0459 136.607C77.2392 137.145 76.1636 137.145 75.357 136.607C74.5503 136.069 74.5503 135.532 75.357 134.994C76.1636 134.725 77.2392 134.725 78.0459 134.994Z" fill="#16110D"/>
<path d="M84.7676 131.23C85.5742 131.768 85.5742 132.305 84.7676 132.843C83.9609 133.381 82.8853 133.381 82.0786 132.843C81.272 132.305 81.272 131.768 82.0786 131.23C82.8853 130.692 84.2298 130.692 84.7676 131.23Z" fill="#16110D"/>
<path d="M23.999 158.388C24.8057 158.926 24.8057 159.464 23.999 160.001C23.1923 160.539 22.1168 160.539 21.3101 160.001C20.5034 159.464 20.5034 158.926 21.3101 158.388C22.1168 158.119 23.1923 158.119 23.999 158.388Z" fill="#16110D"/>
<path d="M30.7217 154.623C31.5283 155.161 31.5283 155.699 30.7217 156.237C29.915 156.774 28.8394 156.774 28.0327 156.237C27.2261 155.699 27.2261 155.161 28.0327 154.623C28.8394 154.086 29.915 154.086 30.7217 154.623Z" fill="#16110D"/>
<path d="M37.4433 150.59C38.25 151.128 38.25 151.665 37.4433 152.203C36.6367 152.741 35.5611 152.741 34.7544 152.203C33.9477 151.665 33.9477 151.128 34.7544 150.59C35.5611 150.321 36.6367 150.321 37.4433 150.59Z" fill="#16110D"/>
<path d="M71.3232 131.23C72.1299 131.768 72.1299 132.305 71.3232 132.843C70.5166 133.381 69.441 133.381 68.6343 132.843C67.8276 132.305 67.8276 131.768 68.6343 131.23C69.441 130.692 70.5166 130.692 71.3232 131.23Z" fill="#16110D"/>
<path d="M78.0459 127.196C78.8526 127.734 78.8526 128.272 78.0459 128.81C77.2392 129.347 76.1636 129.347 75.357 128.81C74.5503 128.272 74.5503 127.734 75.357 127.196C76.1636 126.659 77.2392 126.659 78.0459 127.196Z" fill="#16110D"/>
<path d="M17.2764 154.623C18.083 155.161 18.083 155.699 17.2764 156.237C16.4697 156.774 15.3941 156.774 14.5874 156.237C13.7808 155.699 13.7808 155.161 14.5874 154.623C15.3941 154.086 16.4697 154.086 17.2764 154.623Z" fill="#16110D"/>
<path d="M23.999 150.59C24.8057 151.128 24.8057 151.665 23.999 152.203C23.1923 152.741 22.1168 152.741 21.3101 152.203C20.5034 151.665 20.5034 151.128 21.3101 150.59C22.1168 150.321 23.1923 150.321 23.999 150.59Z" fill="#16110D"/>
<path d="M30.7217 146.826C31.5283 147.363 31.5283 147.901 30.7217 148.439C29.915 148.977 28.8394 148.977 28.0327 148.439C27.2261 147.901 27.2261 147.363 28.0327 146.826C28.8394 146.288 29.915 146.288 30.7217 146.826Z" fill="#16110D"/>
<path d="M64.6006 127.196C65.4073 127.734 65.4073 128.272 64.6006 128.81C63.7939 129.347 62.7183 129.347 61.9116 128.81C61.105 128.272 61.105 127.734 61.9116 127.196C62.7183 126.659 63.7939 126.659 64.6006 127.196Z" fill="#16110D"/>
<path d="M71.3232 123.163C72.1299 123.701 72.1299 124.238 71.3232 124.776C70.5166 125.314 69.441 125.314 68.6343 124.776C67.8276 124.238 67.8276 123.701 68.6343 123.163C69.441 122.894 70.5166 122.894 71.3232 123.163Z" fill="#16110D"/>
<path d="M10.2842 150.59C11.0908 151.128 11.0908 151.665 10.2842 152.203C9.47749 152.741 8.40192 152.741 7.59524 152.203C6.78856 151.665 6.78856 151.128 7.59524 150.59C8.67081 150.321 9.74638 150.321 10.2842 150.59Z" fill="#16110D"/>
<path d="M17.2764 146.826C18.083 147.363 18.083 147.901 17.2764 148.439C16.4697 148.977 15.3941 148.977 14.5874 148.439C13.7808 147.901 13.7808 147.363 14.5874 146.826C15.3941 146.288 16.4697 146.288 17.2764 146.826Z" fill="#16110D"/>
<path d="M23.999 142.792C24.8057 143.33 24.8057 143.868 23.999 144.406C23.1923 144.943 22.1168 144.943 21.3101 144.406C20.5034 143.868 20.5034 143.33 21.3101 142.792C22.1168 142.523 23.1923 142.523 23.999 142.792Z" fill="#16110D"/>
<path d="M63.2578 121.281C64.2973 121.281 65.1399 120.799 65.1399 120.205C65.1399 119.611 64.2973 119.129 63.2578 119.129C62.2182 119.129 61.375 119.611 61.375 120.205C61.375 120.799 62.2182 121.281 63.2578 121.281Z" fill="#16110D"/>
<path d="M68.6343 94.1222C67.8276 93.5844 67.8276 93.0466 68.6343 92.5088C69.441 91.971 70.5166 91.971 71.3232 92.5088C71.861 93.0466 69.1721 94.6599 68.6343 94.1222Z" fill="#16110D"/>
<path d="M64.333 88.7446C65.1397 89.2824 65.1397 89.8202 64.333 90.358C63.5263 90.8958 62.4507 90.8958 61.6441 90.358C60.8374 89.8202 60.8374 89.2824 61.6441 88.7446C62.4507 88.4757 63.5263 88.4757 64.333 88.7446Z" fill="#16110D"/>
<path d="M71.0557 84.9805C71.8623 85.5183 71.8623 86.0561 71.0557 86.5938C70.249 87.1316 69.1734 87.1316 68.3667 86.5938C67.56 86.0561 67.56 85.5183 68.3667 84.9805C69.1734 84.4427 70.249 84.4427 71.0557 84.9805Z" fill="#16110D"/>
<path d="M50.8877 88.7446C51.6944 89.2824 51.6944 89.8202 50.8877 90.358C50.081 90.8958 49.0054 90.8958 48.1988 90.358C47.3921 89.8202 47.3921 89.2824 48.1988 88.7446C49.0054 88.4757 50.081 88.4757 50.8877 88.7446Z" fill="#16110D"/>
<path d="M57.6113 84.9805C58.418 85.5183 58.418 86.0561 57.6113 86.5938C56.8046 87.1316 55.7291 87.1316 54.9224 86.5938C54.1157 86.0561 54.1157 85.5183 54.9224 84.9805C55.7291 84.4427 56.8046 84.4427 57.6113 84.9805Z" fill="#16110D"/>
<path d="M64.333 80.9468C65.1397 81.4846 65.1397 82.0224 64.333 82.5601C63.5263 83.0979 62.4507 83.0979 61.6441 82.5601C60.8374 82.0224 60.8374 81.4846 61.6441 80.9468C62.4507 80.6779 63.5263 80.6779 64.333 80.9468Z" fill="#16110D"/>
<path d="M71.0557 77.1821C71.8623 77.7199 71.8623 78.2577 71.0557 78.7955C70.249 79.3333 69.1734 79.3333 68.3667 78.7955C67.56 78.2577 67.56 77.7199 68.3667 77.1821C69.1734 76.6444 70.249 76.6444 71.0557 77.1821Z" fill="#16110D"/>
<path d="M50.6182 80.947C51.4248 81.4848 51.4248 82.0226 50.6182 82.5604C49.8115 83.0982 48.7359 83.0982 47.9292 82.5604C47.1225 82.0226 47.1225 81.4848 47.9292 80.947C48.7359 80.4093 50.0804 80.4093 50.6182 80.947Z" fill="#16110D"/>
<path d="M43.8955 76.9133C44.7022 77.4511 44.7022 77.9889 43.8955 78.5267C43.0888 79.0645 42.0132 79.0645 41.2066 78.5267C40.3999 77.9889 40.3999 77.4511 41.2066 76.9133C42.0132 76.6444 43.3577 76.6444 43.8955 76.9133Z" fill="#16110D"/>
<path d="M37.1738 73.1487C37.9805 73.6865 37.9805 74.2243 37.1738 74.7621C36.3671 75.2998 35.2916 75.2998 34.4849 74.7621C33.6782 74.2243 33.6782 73.6865 34.4849 73.1487C35.2916 72.6109 36.3671 72.6109 37.1738 73.1487Z" fill="#16110D"/>
<path d="M23.7285 73.1487C24.5352 73.6865 24.5352 74.2243 23.7285 74.7621C22.9218 75.2998 21.8463 75.2998 21.0396 74.7621C20.2329 74.2243 20.2329 73.6865 21.0396 73.1487C21.8463 72.6109 22.9218 72.6109 23.7285 73.1487Z" fill="#16110D"/>
<path d="M30.4512 69.1152C31.2578 69.653 31.2578 70.1908 30.4512 70.7286C29.6445 71.2664 28.5689 71.2664 27.7622 70.7286C26.9556 70.1908 26.9556 69.653 27.7622 69.1152C28.5689 68.8464 29.6445 68.8464 30.4512 69.1152Z" fill="#16110D"/>
<path d="M17.0068 69.1152C17.8135 69.653 17.8135 70.1908 17.0068 70.7286C16.2001 71.2664 15.1246 71.2664 14.3179 70.7286C13.5112 70.1908 13.5112 69.653 14.3179 69.1152C15.1246 68.8464 16.2001 68.8464 17.0068 69.1152Z" fill="#16110D"/>
<path d="M23.7285 65.3511C24.5352 65.8889 24.5352 66.4267 23.7285 66.9644C22.9218 67.5022 21.8463 67.5022 21.0396 66.9644C20.2329 66.4267 20.2329 65.8889 21.0396 65.3511C21.8463 64.8133 22.9218 64.8133 23.7285 65.3511Z" fill="#16110D"/>
<path d="M17.0068 61.3176C17.8135 61.8554 17.8135 62.3932 17.0068 62.931C16.2001 63.4688 15.1246 63.4688 14.3179 62.931C13.5112 62.3932 13.5112 61.8554 14.3179 61.3176C15.1246 61.0487 16.2001 61.0487 17.0068 61.3176Z" fill="#16110D"/>
<path d="M143.119 158.657C143.926 158.119 145.001 158.119 145.808 158.657C146.615 159.195 146.615 159.732 145.808 160.27C145.001 160.808 143.926 160.808 143.119 160.27C142.581 159.732 142.581 158.926 143.119 158.657Z" fill="#16110D"/>
<path d="M136.396 154.623C137.202 154.086 138.278 154.086 139.084 154.623C139.891 155.161 139.891 155.699 139.084 156.237C138.278 156.774 137.202 156.774 136.396 156.237C135.858 155.699 135.858 155.161 136.396 154.623Z" fill="#16110D"/>
<path d="M145.807 150.59C146.613 151.128 146.613 151.665 145.807 152.203C145 152.741 143.924 152.741 143.118 152.203C142.311 151.665 142.311 151.128 143.118 150.59C143.924 150.321 145 150.321 145.807 150.59Z" fill="#16110D"/>
<path d="M129.673 150.59C130.48 150.052 131.556 150.052 132.362 150.59C133.169 151.128 133.169 151.665 132.362 152.203C131.556 152.741 130.48 152.741 129.673 152.203C128.867 151.665 128.867 151.128 129.673 150.59C130.48 150.321 128.867 151.128 129.673 150.59Z" fill="#16110D"/>
<path d="M139.085 146.826C139.892 147.363 139.892 147.901 139.085 148.439C138.278 148.977 137.203 148.977 136.396 148.439C135.589 147.901 135.589 147.363 136.396 146.826C137.203 146.288 138.278 146.288 139.085 146.826Z" fill="#16110D"/>
<path d="M111.927 140.372C111.12 140.91 110.044 140.91 109.238 140.372C108.431 139.834 108.431 139.296 109.238 138.759C110.044 138.49 112.733 140.103 111.927 140.372Z" fill="#16110D"/>
<path d="M105.204 136.607C104.397 137.145 103.322 137.145 102.515 136.607C101.708 136.07 101.708 135.532 102.515 134.994C103.322 134.725 106.011 136.07 105.204 136.607Z" fill="#16110D"/>
<path d="M98.4814 132.574C97.6748 133.112 96.5992 133.112 95.7925 132.574C94.9858 132.036 94.9858 131.499 95.7925 130.961C96.5992 130.692 99.2881 132.305 98.4814 132.574Z" fill="#16110D"/>
<path d="M71.3232 116.978C70.5166 117.516 69.441 117.516 68.6343 116.978C67.8276 116.441 67.8276 115.903 68.6343 115.365C69.441 115.096 72.1299 116.71 71.3232 116.978Z" fill="#16110D"/>
<path d="M143.387 141.986C140.698 130.423 134.783 112.408 123.22 105.416C121.069 104.072 118.112 102.19 116.229 101.383L115.423 93.5852C115.96 93.3163 116.767 92.7785 117.305 92.5096L117.574 92.2408C119.187 91.1652 120.532 89.8207 120.8 87.6696L121.607 83.6362L124.834 69.3849C124.834 68.8471 125.103 68.5782 125.103 68.0404V67.7715C125.372 66.696 125.372 65.6204 125.372 64.2759C125.64 51.9069 117.036 36.58 106.281 30.3955C101.44 27.4376 97.4068 26.8999 93.9112 28.2443L93.3736 28.5132L93.1044 28.7821C92.8355 29.051 92.298 29.051 92.0291 29.3199L82.8864 34.4289L82.3487 35.5044L86.6513 38.7311C86.6513 39.5378 86.3821 40.6134 86.3821 41.689C86.3821 42.7645 86.3821 43.8401 86.3821 44.9157V45.1846V45.9912C86.3821 46.7979 86.6513 47.0668 86.6513 47.6046L90.147 70.1916C90.6848 74.225 92.8359 79.6028 95.5249 83.6362L94.718 89.8207C93.1047 88.7451 90.1466 86.8629 87.7266 85.5184C83.1554 82.8295 79.9287 82.5606 76.9709 84.174L76.4332 84.4429L75.3579 84.9807L67.5596 89.2829L69.4418 92.2408C68.3662 94.123 67.5598 96.0052 67.022 97.6186C65.6775 101.383 68.6356 107.837 72.669 110.257L103.86 128.81L105.205 129.617L129.405 143.868C129.674 146.826 130.212 150.59 130.481 152.742C130.481 153.279 131.288 153.817 131.825 153.548L140.698 148.708C143.387 147.364 144.194 144.944 143.387 141.986Z" fill="#36A9E1"/>
<path d="M143.387 146.288C140.698 134.726 134.782 116.71 123.22 109.719C121.069 108.374 118.111 106.492 116.229 105.685L115.422 97.8876C115.96 97.6187 114.885 96.5431 115.691 96.0053L114.615 95.4675L115.691 92.2408C117.305 91.1652 118.917 91.9719 119.186 89.5519L121.875 87.6696L125.102 73.4183C125.102 72.8806 125.371 72.6117 125.371 72.0739V71.805C125.64 70.7294 125.64 69.6538 125.64 68.3094C125.909 55.9403 117.304 40.6134 106.549 34.4289C101.708 31.4711 97.6754 30.9333 94.1798 32.2778L93.6415 32.5467L93.373 32.8156C93.1041 33.0845 92.566 33.0845 92.2971 33.3533L83.155 38.4623L82.6173 39.5379L86.9192 42.7646C86.9192 43.5713 86.6507 44.6468 86.6507 45.7224C86.6507 46.798 86.6507 47.8735 86.6507 48.9491V49.218V50.0247C86.6507 50.8314 86.9192 51.1003 86.9192 51.638L90.415 74.225C90.9527 78.2584 93.1039 83.6363 95.7928 87.6696L94.986 93.8542C93.3726 92.7786 90.4152 90.8964 87.9952 89.5519C83.424 86.863 80.1973 86.5941 77.2395 88.2074L76.7018 88.4763L75.6259 89.0141L67.8282 93.3164L69.7104 96.2742C68.6348 98.1565 67.8284 100.039 67.2906 101.652C65.9461 105.417 68.9036 111.87 72.9369 114.29L104.129 132.844L105.473 133.65L129.674 147.902C129.942 150.859 127.791 150.053 128.06 152.204C128.06 152.742 128.867 153.279 129.404 153.011L138.278 148.17C140.698 147.095 144.193 149.515 143.387 146.288Z" fill="white"/>
<path d="M132.632 154.355C132.363 154.355 132.095 154.355 131.826 154.086C131.288 153.817 130.75 153.279 130.75 152.741C130.481 150.859 129.943 147.095 129.675 144.406L73.2071 111.063C68.636 108.374 65.678 101.383 67.0225 97.0807C67.5603 95.1985 68.3671 93.5851 69.1738 91.9717L67.0225 88.745L77.509 83.0983C81.0046 81.4849 84.7695 81.7538 89.3407 84.4428C90.4163 85.2494 92.0296 86.0561 93.3741 86.8628C93.9119 87.1317 94.4493 87.6695 94.987 87.9384L95.5254 83.6361C92.8364 79.6027 90.6853 74.2248 90.1475 70.1914L86.3826 47.0667C86.3826 46.5289 86.1141 46.26 86.1141 45.7222L85.845 44.6467C85.5761 43.3022 85.5758 42.4955 85.5758 41.1511C85.5758 40.3444 85.5761 39.5377 85.845 38.731L81.2739 35.2354L82.3492 33.3532L91.7605 28.2442C92.0294 27.9753 92.5671 27.7064 93.1049 27.7064L93.9117 27.4375C97.6762 25.8242 101.978 26.6309 107.087 29.5887C118.112 36.0421 126.716 51.6379 126.716 64.5447C126.716 65.3514 126.717 66.427 126.448 67.5025L126.179 68.5781C126.179 69.1159 125.91 69.3848 125.91 69.9226L121.876 88.2073C121.339 91.1651 119.457 92.5095 118.112 93.5851L117.843 93.854C117.305 94.1229 116.768 94.3918 116.23 94.6607L116.768 101.114L123.221 104.879C134.783 111.601 140.968 128.81 143.926 141.986C144.733 145.481 143.926 148.17 141.775 149.515L132.901 154.355C133.17 154.086 132.901 154.355 132.632 154.355ZM69.9806 89.2828L71.5935 91.7029L71.325 92.2406C70.5183 93.854 69.7113 95.7362 68.9046 97.6185C67.5601 101.114 70.2495 107.03 74.0139 109.181L131.288 143.061V143.599C131.556 146.557 132.095 150.321 132.363 152.473L141.237 147.632C142.582 146.826 142.85 144.944 142.312 142.255C139.892 131.768 133.977 113.214 122.415 106.223L115.154 101.921L114.348 93.0473L114.885 92.7784C115.423 92.5095 116.23 92.2406 116.768 91.7029L117.037 91.434C118.65 90.3584 119.725 89.0139 119.994 87.4006L124.028 69.1159C124.028 68.5781 124.297 68.3092 124.297 67.7714V67.5025C124.566 66.427 124.565 65.3514 124.565 64.2758C124.834 52.1756 116.23 37.3866 106.012 31.202C101.441 28.5131 97.6761 27.7064 94.4494 29.0509L93.9117 29.3198C93.3739 29.5887 93.1053 29.5887 92.8364 29.8576L83.9628 34.6976L88.2647 37.9243V38.4621C87.9958 39.5377 87.9962 40.3444 87.9962 41.1511C87.9962 42.4955 87.9962 43.3022 87.9962 44.3778V44.6467V45.4533C87.9962 45.9911 87.9958 46.26 88.2647 46.5289V47.0667L91.7605 69.6537C92.2982 73.687 94.4494 78.796 97.1383 82.8294L97.4075 83.0983L96.3315 91.1651L94.987 90.3584C94.1804 89.8206 93.1052 89.2828 92.0296 88.4761C90.6852 87.6695 89.3403 86.8628 88.2647 86.0561C84.2313 83.6361 81.2737 83.3672 78.3158 84.7116L77.7782 84.9805L69.9806 89.2828Z" fill="#16110D"/>
<path d="M133.707 147.364C131.018 135.801 125.102 117.786 113.54 110.794C111.389 109.45 108.43 107.568 106.548 106.761L105.741 98.963C107.893 97.8875 110.582 96.2741 111.388 93.0474L112.195 89.014L115.422 74.7627C115.422 74.2249 115.691 73.956 115.691 73.4183V73.1494C115.96 72.0738 115.959 70.9982 115.959 69.6538C116.228 57.2847 107.624 41.9578 96.8685 35.7733C86.1127 29.3199 77.5081 34.4288 77.2392 46.7979C77.2392 47.8735 77.2392 48.949 77.2392 50.0246V50.2935V51.1002C77.2392 51.9068 77.5077 52.1757 77.5077 52.7135L81.0034 75.3005C81.5412 79.3339 83.6923 84.7117 86.3812 88.7451L85.5744 94.9297C83.9611 93.8541 81.0037 91.9718 78.5836 90.6274C67.0212 83.6362 60.5677 94.3919 57.6099 102.728C56.2654 106.492 59.2235 112.945 63.2569 115.365L94.448 133.919L95.7925 134.726L126.984 153.279C132.093 155.699 135.051 152.742 133.707 147.364Z" fill="#36A9E1"/>
<path d="M130.749 155.162C129.673 155.162 128.598 154.893 127.522 154.086L63.795 116.172C59.2239 113.483 56.2659 106.492 57.6104 102.19C59.4926 96.8119 62.9881 89.8207 68.9037 87.9385C72.3993 86.594 76.1641 87.4007 79.9286 89.5518C81.0042 90.3585 82.6175 91.1652 83.962 91.9718C84.4998 92.2407 85.0371 92.7785 85.5749 93.0474L86.1132 88.7451C83.4243 84.7117 81.2732 79.3339 80.7354 75.3005L76.9705 52.1758C76.9705 51.638 76.702 51.3691 76.702 50.8313L76.4328 50.0246C76.164 48.6802 76.1637 47.6046 76.1637 46.529C76.1637 40.0756 78.5841 35.5044 82.6175 33.0844C86.6509 30.9332 91.7599 31.471 97.4066 34.6977C108.431 41.1512 117.036 56.7469 117.036 69.6538C117.036 70.4604 117.036 71.536 116.767 72.6116L116.498 73.6872C116.498 74.2249 116.229 74.4938 116.229 75.0316L112.196 93.3163C111.389 96.543 108.969 98.4253 106.549 99.7697L107.086 106.223L113.54 109.988C125.103 116.71 131.287 133.919 134.245 147.095C135.051 150.322 134.513 153.01 132.631 154.355C132.362 154.893 131.556 155.162 130.749 155.162ZM72.1303 89.2829C71.0547 89.2829 70.2485 89.5518 69.1729 89.8207C64.0639 91.703 60.8373 97.8875 59.224 102.996C57.8795 106.492 60.5682 112.408 64.3327 114.559L128.06 152.473C129.405 153.279 130.749 153.548 131.556 152.742C132.631 151.935 132.9 150.053 132.363 147.633C129.943 137.146 124.027 118.592 112.464 111.601L105.204 107.299L104.397 98.4253L104.936 98.1564C107.356 97.0808 109.507 95.4674 110.044 92.7785L114.078 74.4938C114.078 73.956 114.347 73.6872 114.347 73.1494V72.8805C114.616 71.8049 114.615 70.7293 114.615 69.6538C114.884 57.5536 106.28 42.7645 96.0621 36.58C91.2221 33.6222 86.6508 33.0844 83.1552 34.9666C79.6596 36.8489 77.7773 41.1512 77.7773 46.529C77.7773 47.6046 77.7773 48.4113 77.7773 49.7557V50.0246V50.8313C77.7773 51.3691 77.7776 51.638 78.0465 51.9069V52.4446L81.5415 75.0316C82.0793 79.065 84.2305 84.174 86.9194 88.2074L87.1886 88.4762L86.1132 96.543L84.7688 95.7363C83.9621 95.1986 82.8863 94.6608 81.8107 93.8541C80.4662 93.0474 79.122 92.2407 78.0465 91.4341C76.4331 90.0896 74.2814 89.2829 72.1303 89.2829Z" fill="#16110D"/>
<path d="M67.0204 72.3427C65.4071 65.0826 61.6427 53.7891 54.3826 49.4868C53.0381 48.6801 51.1556 47.6045 50.08 47.0668L49.5424 42.2267C49.8113 41.9578 50.3491 41.6889 50.8869 41.42H51.156C52.2316 40.8822 53.0377 39.8067 53.3066 38.4622L53.8449 36.0422L55.7271 27.1687C55.7271 26.8998 55.9956 26.6309 55.9956 26.362V26.0931C55.9956 25.5554 56.2647 24.7487 56.2647 23.942C56.2647 16.1441 51.156 6.73289 44.4337 2.6995C41.4759 0.817253 38.7866 0.548361 36.6354 1.35504H36.3669H36.0978C35.8289 1.35504 35.5599 1.62393 35.291 1.62393L29.6446 4.85064L29.3755 5.38843L32.0644 7.53956C32.0644 8.07735 31.7952 8.61514 31.7952 9.42181C31.7952 10.2285 31.7952 10.7663 31.7952 11.573V11.8418V12.3796C31.7952 12.9174 31.7955 12.9174 32.0644 13.4552L34.2157 27.4376C34.4845 29.8576 35.8291 33.3532 37.7114 35.7733L37.1731 39.5378C36.0975 39 34.2157 37.6555 32.8712 36.8489C30.1823 35.2355 28.0311 34.9666 26.1489 36.0422H25.8797L25.3421 36.3111L20.5019 39L21.5778 40.8822C21.0401 41.9578 20.502 43.3023 19.9642 44.3778C19.1575 46.7979 20.771 50.8313 23.46 52.1757L42.8201 63.7381L43.6269 64.2759L58.6845 73.1493C58.9534 75.0316 59.2224 77.4516 59.4913 78.5272C59.4913 79.065 60.0292 79.065 60.2981 79.065L65.6759 76.1072C67.0204 75.5694 67.5582 74.2249 67.0204 72.3427Z" fill="#36A9E1"/>
<path d="M67.022 75.0312C65.4086 67.7711 61.6443 56.4777 54.3842 52.1754C53.0397 51.3687 51.1572 50.2931 50.0816 49.7553L49.544 44.9153C49.8129 44.6464 49.2751 44.3775 49.544 44.1086V43.5708L49.2748 42.2263C50.3504 41.6886 51.964 41.1508 52.2329 39.8063L53.5774 38.4619L55.4595 29.5884C55.4595 29.3195 55.7286 29.0506 55.7286 28.7817V28.5128C55.7286 27.975 55.9971 27.1684 55.9971 26.3617C55.9971 18.5638 50.8884 9.15257 44.1661 5.11918C41.2083 3.23693 38.5196 2.96804 36.3685 3.77472H36.0993H35.8302C35.5613 3.77472 35.2929 4.04361 35.024 4.04361L29.377 7.27032L29.1079 7.8081L31.7968 9.95924C31.7968 10.497 31.5283 11.0348 31.5283 11.8415C31.5283 12.6482 31.5283 13.186 31.5283 13.9926V14.2615V14.7993C31.5283 15.3371 31.5279 15.3371 31.7968 15.8749L33.9481 29.8573C34.217 32.2773 35.5616 35.7729 37.4438 38.193L36.9062 41.9575C35.8306 41.4197 33.9481 40.0752 32.6036 39.2685C29.9147 37.6552 27.7635 37.3863 25.8813 38.4619H25.6128L25.0745 38.7307L20.235 41.4197L21.3103 43.3019C20.7725 44.3775 20.2344 45.722 19.6966 46.7975C18.89 49.2176 20.5035 53.2509 23.1924 54.5954L42.5525 66.1578L43.3593 66.6956L58.4176 75.569C58.6864 76.9135 58.6863 78.2579 58.9552 79.6024C58.9552 80.4091 60.5683 78.2579 61.375 77.9891L63.5262 75.8379C65.1396 75.8379 67.5598 77.1824 67.022 75.0312Z" fill="white"/>
<path d="M60.2987 80.4093C60.0299 80.4093 59.7608 80.4093 59.4919 80.1404C58.9542 79.8715 58.6851 79.3337 58.6851 79.0648C58.4162 77.9892 58.1475 75.8381 58.1475 73.9558L23.1914 53.2511C20.2336 51.3689 18.3514 47.0666 19.1581 44.1088C19.4269 43.0332 19.9647 41.9576 20.5025 41.151L19.1581 38.9998L25.8804 35.2353C28.0315 34.1598 30.7206 34.4286 33.4095 36.042C34.2162 36.5798 35.0226 37.1176 35.8293 37.6554C36.0982 37.6554 36.0987 37.9243 36.3676 37.9243L36.6361 36.042C35.0227 33.622 33.6784 30.1264 33.4095 27.7063L31.2582 13.455C31.2582 13.1861 31.2586 12.9172 30.9897 12.6483V12.1106C30.9897 11.035 30.9897 10.4972 30.9897 9.69053C30.9897 9.15275 30.9897 8.88386 30.9897 8.34607L28.0316 6.19493L28.8384 4.58157L34.754 1.35486C35.0228 1.08597 35.2919 1.08597 35.5608 0.817077L36.0984 0.548184C38.5184 -0.527386 41.2072 0.0103986 44.7028 1.89265C51.6941 5.92603 57.0722 15.8751 57.0722 23.9418C57.0722 24.4796 57.0722 25.0174 57.0722 25.5552V26.093C57.0722 26.6308 56.803 26.8997 56.803 27.1686L54.3832 38.462C54.1143 40.3443 52.7695 41.4199 51.9628 41.9576L51.6943 42.2265C51.4254 42.4954 51.1564 42.4954 50.8875 42.7643L51.1567 46.5288L54.9209 48.9488C62.181 53.2511 65.9452 64.0068 68.0964 72.3425C68.6342 74.7625 68.0964 76.6448 66.7519 77.4515L61.3741 80.4093C60.8363 80.1404 60.5676 80.4093 60.2987 80.4093ZM21.847 39.5376L22.6538 40.8821L22.3846 41.4199C21.8468 42.4954 21.3091 43.571 21.0402 44.6466C20.2335 46.5288 21.8471 50.0244 23.9983 51.3689L59.7611 72.6114V73.1492C60.03 74.7625 60.2987 76.6448 60.2987 77.9892L65.1389 75.3003C65.6767 75.0314 65.9455 73.9558 65.6766 72.3425C64.0632 65.8891 60.5676 54.3267 53.5764 50.2933L48.7362 47.6044L48.1986 41.6887L48.7362 41.4199C49.0051 41.151 49.5433 41.151 49.8122 40.8821C50.8878 40.0754 51.4254 39.5376 51.6943 38.462L54.3832 27.1686C54.3832 26.8997 54.3828 26.6308 54.6517 26.3619V26.093C54.6517 25.5552 54.9209 24.7485 54.9209 24.2107C54.9209 16.6817 49.8121 7.80829 43.6275 4.04379C40.9386 2.43043 38.7875 1.89265 36.9052 2.69933H36.6361C36.3672 2.96822 36.0984 2.96822 36.0984 2.96822L30.9897 5.65715L33.4095 7.53939V8.07718C33.4095 8.61496 33.4095 9.15275 33.4095 9.69053C33.4095 10.4972 33.4095 11.035 33.4095 11.5728V12.1106C33.4095 12.3795 33.4095 12.6483 33.4095 12.9172V13.1861L35.5608 27.1686C35.8297 29.5886 37.174 32.8153 38.7873 35.2353L39.0565 35.5042L38.2497 41.151L36.9052 40.3443C36.3674 40.0754 35.8298 39.5376 35.0231 39.2687C34.2164 38.7309 33.4094 38.1931 32.6027 37.6554C30.1826 36.3109 28.5694 36.042 26.6872 36.8487L25.8804 37.3865L21.847 39.5376Z" fill="#16110D"/>
<path d="M60.8372 75.5692C59.2238 68.3091 55.4595 57.0156 48.1994 52.7133C46.8549 51.9067 44.9724 50.8311 43.8968 50.2933L43.3592 45.4532C44.7036 44.6466 46.3171 43.8399 46.8549 41.6887L47.3926 39.2687L49.2747 30.3953C49.2747 30.1264 49.5438 29.8575 49.5438 29.5886V29.3197C49.5438 28.7819 49.813 27.9752 49.813 27.1686C49.813 19.3707 44.7036 9.95943 37.9813 5.92604C31.259 1.89265 25.8812 5.11936 25.8812 12.9172C25.8812 13.7239 25.8812 14.2617 25.8812 15.0684V15.3373V15.8751C25.8812 16.4129 25.8814 16.4129 26.1503 16.9506L28.3016 30.933C28.5705 33.3531 29.9144 36.8487 31.7967 39.2687L31.259 43.0332C30.1834 42.4954 28.3016 41.151 26.9571 40.3443C19.697 36.042 15.6635 42.7643 14.0502 47.8733C13.2435 50.2933 14.857 54.3267 17.5459 55.6712L36.906 67.2335L37.7128 67.7713L57.073 79.3337C60.0308 80.6782 61.6439 79.0648 60.8372 75.5692Z" fill="#36A9E1"/>
<path d="M58.9544 80.6778C58.1477 80.6778 57.6098 80.4089 56.8031 79.8712L17.0069 56.2086C14.0491 54.3264 12.1668 50.0241 12.9735 47.0663C14.3179 43.5707 16.4696 39.2684 20.2341 37.9239C22.3852 37.1173 24.8052 37.3861 27.4941 38.9995C28.3008 39.5373 29.1072 40.0751 29.9138 40.6129C30.1827 40.6129 30.1826 40.8817 30.4515 40.8817L30.7207 38.9995C29.1073 36.5795 27.763 33.0839 27.4941 30.6638L25.0736 16.4125C25.0736 16.1436 25.0736 15.8747 25.0736 15.6058V15.0681C25.0736 13.9925 25.0736 13.4547 25.0736 12.648C25.0736 8.61464 26.687 5.38793 29.107 4.04347C31.796 2.699 35.0229 2.96789 38.7874 5.11904C45.7786 9.15242 51.1567 19.1015 51.1567 27.1682C51.1567 27.706 51.1567 28.2438 51.1567 28.7816L50.8876 29.5883C50.8876 30.126 50.6184 30.3949 50.6184 30.6638L48.1987 41.9573C47.6609 44.1085 46.0474 45.4529 44.7029 45.9907L44.9721 49.7552L48.7363 52.1752C55.9964 56.4775 59.7613 67.2332 61.9124 75.5689C62.4502 77.72 61.9121 79.6023 60.8365 80.409C60.2987 80.6778 59.761 80.6778 58.9544 80.6778ZM22.6539 39.8062C22.1161 39.8062 21.578 39.8062 21.0403 40.0751C18.0824 41.1506 16.2003 44.9151 15.1248 48.1418C14.3181 50.0241 15.9317 53.5197 18.0828 54.8642L57.8791 78.5267C58.6857 79.0645 59.2234 79.0645 59.7612 78.7956C60.299 78.5267 60.5677 77.4511 60.2988 76.1067C58.6855 69.6533 55.1899 58.0909 48.1987 54.0575L43.3585 51.3686L42.8208 45.4529L43.3585 45.184C44.7029 44.3774 46.0477 43.5707 46.3166 42.2262L48.7363 30.9327C48.7363 30.6638 48.7366 30.3949 49.0055 30.126V29.8572C49.0055 29.3194 49.274 28.5127 49.274 27.9749C49.274 20.4459 44.1651 11.5725 37.9806 7.80796C35.0228 6.19461 32.3337 5.65682 30.4515 7.00129C28.5693 8.07686 27.2249 10.4969 27.2249 13.9925C27.2249 14.7992 27.2249 15.337 27.2249 15.8747V16.4125C27.2249 16.6814 27.2249 16.9503 27.2249 16.9503V17.2192L29.3762 31.2016C29.6451 33.6216 30.9894 36.8484 32.6028 39.2684L32.8719 39.5373L32.0651 45.184L30.7207 44.3773C30.1829 44.1085 29.6452 43.5707 28.8385 43.3018C28.0319 42.764 27.2248 42.2262 26.4181 41.6884C25.3425 40.344 23.9983 39.8062 22.6539 39.8062Z" fill="#16110D"/>
<path d="M63.2552 155.43C61.3729 147.633 57.3393 135.263 49.5414 130.423C47.928 129.617 46.0459 128.272 44.9704 127.734L44.4327 122.357C44.9705 122.088 45.2394 121.819 45.7772 121.55H46.0457C47.1212 120.743 47.928 119.937 48.1969 118.323L48.7346 115.634L50.8859 105.954C50.8859 105.685 51.155 105.416 51.155 105.147V104.879C51.155 104.072 51.4235 103.265 51.4235 102.459C51.4235 94.1229 45.7766 83.6361 38.5165 79.3338C35.2898 77.4516 32.3324 76.9138 30.1813 77.9893H29.9121H29.6436C29.3747 77.9893 29.1057 78.2582 28.8368 78.5271L22.6521 82.0227L22.383 82.8294L25.3411 84.9806C25.3411 85.5183 25.0719 86.325 25.0719 86.8628C25.0719 87.6695 25.0719 88.2073 25.0719 89.0139V89.2828V89.8206C25.0719 90.3584 25.0722 90.6273 25.3411 90.8962L27.7608 106.223C28.0297 108.912 29.6435 112.676 31.5257 115.365L30.9881 119.399C29.9125 118.592 27.7608 117.248 26.4164 116.441C23.4586 114.559 21.039 114.559 18.8879 115.634H18.6188L17.8119 115.903L12.4341 118.861L13.5101 120.743C12.9723 122.088 12.4342 123.163 11.8964 124.508C11.0898 127.197 12.9717 131.499 15.6607 133.112L36.9036 145.75L37.7104 146.288L54.1124 155.968C54.3813 157.85 54.6504 160.539 54.9192 161.884C54.9192 162.422 55.4568 162.69 55.9946 162.422L61.9107 159.195C63.2552 159.195 63.793 157.582 63.2552 155.43Z" fill="#36A9E1"/>
<path d="M63.2556 158.388C61.3733 150.59 57.3397 138.221 49.5418 133.381C47.9284 132.574 46.0463 131.23 44.9707 130.692L43.8948 126.121C44.4326 125.852 44.1642 122.894 44.4331 122.625L45.7775 121.819L46.046 119.667C47.1216 118.861 47.6593 121.55 47.9282 119.936L49.0041 118.592L51.1554 108.912C51.1554 108.643 51.4239 108.374 51.4239 108.105V107.836C51.4239 107.029 51.693 106.223 51.693 105.416C51.693 97.0804 46.0462 86.5936 38.7861 82.2913C35.5594 80.4091 32.6013 79.8713 30.4501 80.9469H30.1816H29.9125C29.6436 80.9469 29.3746 81.2158 29.1057 81.4847L22.9217 84.9803L22.6525 85.7869L25.6106 87.9381C25.6106 88.4759 25.3414 89.2825 25.3414 89.8203C25.3414 90.627 25.3414 91.1648 25.3414 91.9715V92.2404V92.7781C25.3414 93.3159 25.3417 93.5848 25.6106 93.8537L28.0304 109.181C28.2993 111.87 29.9124 115.634 31.7946 118.323L31.2569 122.356C30.1814 121.55 28.0304 120.205 26.6859 119.398C23.7281 117.516 21.3079 117.516 19.1568 118.592H18.8883L18.0815 118.861L12.7036 121.819L13.7789 123.701C13.2411 125.045 12.7038 126.121 12.166 127.465C11.3593 130.154 13.2413 134.456 15.9302 136.07L37.1725 148.708L37.9793 149.246L54.382 158.926C54.382 159.732 54.6505 160.539 54.6505 161.346C54.9194 163.497 56.5331 162.152 58.4154 161.077L60.2975 160.27L60.8351 160.001C62.1796 159.732 63.7933 160.539 63.2556 158.388Z" fill="white"/>
<path d="M55.7267 164.304C55.4578 164.304 55.1888 164.304 54.9199 164.035C54.3821 163.766 54.1131 163.228 54.1131 162.69C53.8442 161.346 53.5752 158.926 53.3063 157.043L15.1237 134.457C11.897 132.574 9.74624 127.734 10.8218 124.507C11.3596 123.432 11.6285 122.087 12.1663 121.281L10.8218 118.861L18.3503 114.827C20.7703 113.752 23.4595 114.021 26.6862 115.903C27.4929 116.441 28.5685 116.979 29.3751 117.516C29.644 117.785 29.913 117.785 30.1819 118.054L30.4504 115.634C28.5682 112.945 27.224 109.181 26.6862 106.492L24.2664 90.8959C24.2664 90.627 24.2662 90.3581 23.9973 90.0892V89.5515C23.7284 88.4759 23.7284 87.9381 23.9973 86.8625C23.9973 86.3248 23.9973 85.787 23.9973 85.2492L20.7707 82.8292L21.5775 81.2158L28.0307 77.7202C28.2996 77.4513 28.5686 77.4513 28.8375 77.1824L29.3751 76.9135C32.0641 75.8379 35.0216 76.3757 38.5172 78.5269C46.0462 83.098 51.9618 93.8537 51.9618 102.458C51.9618 102.996 51.9618 103.534 51.9618 104.341L51.6933 105.147C51.6933 105.416 51.6931 105.685 51.4242 106.223L48.7353 118.592C48.1975 120.743 47.1219 121.819 46.0463 122.356L45.7778 122.625C45.5089 122.894 45.2399 122.894 44.971 123.163L45.2395 127.196L49.5421 129.616C57.6088 134.457 61.6424 146.019 63.7935 155.161C64.3313 157.581 63.7932 159.732 62.1799 160.539L56.2644 163.766C56.2644 164.304 55.9956 164.304 55.7267 164.304ZM13.7792 119.667L14.8552 121.281L14.586 121.819C14.0483 122.894 13.5102 124.239 12.9724 125.314C12.1657 127.465 14.0481 131.23 16.4682 132.843L55.4576 155.968V156.506C55.7265 158.119 55.9952 160.539 55.9952 161.884L61.6422 158.657C62.18 158.388 62.7177 157.312 62.1799 155.43C60.5665 148.439 56.5331 135.801 48.7353 131.23L43.6266 128.272L43.0889 121.819L43.6266 121.55C44.1644 121.281 44.4332 121.012 44.971 120.743L45.2395 120.474C46.3151 119.667 46.8534 119.13 47.1223 117.785L49.8112 105.416C49.8112 105.147 50.0797 104.878 50.0797 104.609V104.341C50.0797 103.534 50.3489 102.727 50.3489 102.189C50.3489 94.1226 44.7023 84.1736 37.7111 79.8713C34.7532 77.9891 32.3331 77.7202 30.1819 78.5269L29.6443 78.7958C29.3754 79.0647 29.1064 79.0647 28.8375 79.3335L23.1905 82.2914L25.8794 84.1736V84.7114C25.8794 85.2492 25.6109 85.787 25.6109 86.5936C25.6109 87.4003 25.6109 87.9381 25.6109 88.7448V89.5515C25.6109 89.8204 25.6109 90.0893 25.6109 90.3581V90.627L28.0307 105.954C28.2996 108.643 29.913 112.138 31.5264 114.827L31.7949 115.096L30.9888 121.012L29.6443 120.205C29.1065 119.936 28.2997 119.399 27.493 118.861C26.6863 118.323 25.6108 117.785 24.8041 117.247C21.5774 115.365 19.6947 115.634 18.3503 116.441L17.275 116.979L13.7792 119.667Z" fill="#16110D"/>
<path d="M56.5329 159.195C54.6507 151.397 50.617 139.028 42.8191 134.188C41.2058 133.381 39.3236 132.037 38.2481 131.499L37.7104 126.121C39.3238 125.314 41.2058 124.239 41.4747 122.088L42.0123 119.399L44.1636 109.719C44.1636 109.45 44.4327 109.181 44.4327 108.912V108.643C44.4327 107.836 44.7012 107.03 44.7012 106.223C44.7012 97.8874 39.0544 87.4006 31.7943 83.0983C24.5342 78.796 18.6185 82.0227 18.3496 90.6273C18.3496 91.434 18.3496 91.9717 18.3496 92.7784V93.0473V93.5851C18.3496 94.1229 18.3499 94.3918 18.6188 94.6607L21.0386 109.988C21.3074 112.676 22.9212 116.441 24.8034 119.13L24.2658 123.163C23.1902 122.357 21.0386 121.012 19.6941 120.205C11.8962 115.634 7.59446 122.894 5.44332 128.541C4.63664 131.23 6.51862 135.532 9.20755 137.146L30.4498 149.784L31.2566 150.321L52.4995 162.959C55.4573 164.842 57.3396 162.959 56.5329 159.195Z" fill="#36A9E1"/>
<path d="M54.3819 164.841C53.5753 164.841 52.7682 164.572 51.9615 164.035L8.40104 138.221C5.17433 136.339 3.02359 131.499 4.09916 128.272C5.44362 124.507 7.86339 119.667 11.8968 118.323C14.3168 117.516 17.0055 117.785 19.6944 119.398C20.5011 119.936 21.5766 120.474 22.3833 121.012C22.6522 121.281 22.9212 121.281 23.1901 121.55L23.4593 119.13C21.577 116.441 20.2322 112.676 19.6944 109.987L17.2746 94.3915C17.2746 94.1226 17.2744 93.8537 17.0055 93.5848V93.047C16.7366 91.9714 16.7366 91.4337 17.0055 90.3581C17.0055 85.7869 18.6194 82.5602 21.5772 80.9468C24.535 79.3335 28.0303 79.6024 32.0637 82.0224C39.5927 86.5936 45.5083 97.3493 45.5083 105.954C45.5083 106.492 45.5083 107.029 45.5083 107.836L45.2392 108.912C45.2392 109.181 45.2396 109.449 44.9707 109.987L42.2818 122.356C41.744 124.776 39.8613 126.121 38.5169 126.927L38.786 130.961L43.0886 133.381C51.1553 138.221 55.1882 149.783 57.3394 158.926C57.8771 161.346 57.3394 163.228 55.9949 164.035C55.726 164.572 55.1886 164.841 54.3819 164.841ZM14.8549 119.936C14.3171 119.936 13.5099 119.936 12.9721 120.205C9.74537 121.281 7.59423 125.583 6.24977 129.079C5.44309 131.23 7.32547 134.994 9.74551 136.608L53.306 162.421C54.1126 162.959 54.9195 162.959 55.4572 162.69C55.995 162.152 56.2638 161.077 55.9949 159.463C54.3815 152.472 50.3481 139.834 42.5503 135.263L37.4416 132.305L36.9039 125.852L37.4416 125.583C39.0549 124.776 40.3993 123.97 40.6681 122.087L43.3571 109.718C43.3571 109.449 43.6262 109.181 43.6262 108.912V108.643C43.6262 107.836 43.8947 107.298 43.8947 106.492C43.8947 98.4249 38.2481 88.4758 31.2569 84.1736C28.0302 82.2913 25.0728 82.0224 22.9216 83.098C20.7705 84.4424 19.4259 87.1314 19.4259 90.8959C19.4259 91.7025 19.4259 92.2403 19.4259 93.047V93.8537C19.4259 94.1226 19.4259 94.3915 19.4259 94.6604V94.9293L21.8457 110.256C22.1146 112.945 23.728 116.441 25.3414 119.13L25.6106 119.398L24.8037 125.314L23.4593 124.507C22.9215 124.239 22.1147 123.701 21.308 123.163C20.5013 122.625 19.4258 122.087 18.6191 121.55C17.5435 120.474 16.1993 119.936 14.8549 119.936Z" fill="#16110D"/>
<path d="M44.1636 50.2932L50.0791 46.7976L49.5415 42.4954L52.4996 40.0753L55.9946 24.7485L55.457 19.3706L49.5415 23.1351L49.8106 29.3196L48.197 37.3864L46.0457 43.5709L43.626 45.1843L44.1636 50.2932Z" fill="#16110D"/>
<path d="M59.7598 70.1911L65.6753 66.9644L67.2889 71.5355L67.0197 74.7622L65.1376 76.6445L61.1042 78.7956V74.2245L59.7598 70.1911Z" fill="#16110D"/>
<path d="M43.6274 98.156L49.8121 94.6604L51.425 100.576L50.8874 106.492L48.7361 115.365L47.3917 119.936L44.1651 122.894L44.7027 127.734L37.9804 131.499L37.7119 125.852L40.4008 124.776L42.5515 118.323L44.7027 102.996L43.6274 98.156Z" fill="#16110D"/>
<path d="M55.1895 154.086L61.6426 150.59L63.2562 155.43L63.5247 158.657L61.9118 160.002L56.5339 162.422L56.8024 158.657L55.1895 154.086Z" fill="#16110D"/>
<path d="M114.884 60.5111L124.564 55.4021L125.908 66.1578L120.799 88.4759L117.841 92.2404L115.422 93.5848L116.228 101.114L106.548 106.761L105.741 98.9627L110.851 95.736L111.926 90.3581L116.228 69.6534L114.884 60.5111Z" fill="#16110D"/>
<path d="M131.823 140.91L141.503 135.263L143.654 143.061V145.481L141.772 148.17L133.436 152.473L133.974 148.439L132.899 142.524L131.823 140.91Z" fill="#16110D"/>
</svg>
