<svg width="156" height="176" viewBox="0 0 156 176" fill="none" xmlns="http://www.w3.org/2000/svg">
<path d="M28.5207 119.835C29.2713 120.336 29.2713 120.836 28.5207 121.336C27.7702 121.837 26.7695 121.837 26.019 121.336C25.2684 120.836 25.2684 120.336 26.019 119.835C26.7695 119.585 27.7702 119.585 28.5207 119.835Z" fill="#16110D"/>
<path d="M34.7746 116.333C35.5252 116.833 35.5252 117.334 34.7746 117.834C34.0241 118.334 33.0234 118.334 32.2729 117.834C31.5223 117.334 31.5223 116.833 32.2729 116.333C33.0234 115.833 34.0241 115.833 34.7746 116.333Z" fill="#16110D"/>
<path d="M39.7779 114.331C40.745 114.331 41.5296 113.883 41.5296 113.33C41.5296 112.778 40.745 112.33 39.7779 112.33C38.8107 112.33 38.0273 112.778 38.0273 113.33C38.0273 113.883 38.8107 114.331 39.7779 114.331Z" fill="#16110D"/>
<path d="M46.2827 110.578C47.2499 110.578 48.0345 110.13 48.0345 109.578C48.0345 109.025 47.2499 108.577 46.2827 108.577C45.3156 108.577 44.5322 109.025 44.5322 109.578C44.5322 110.13 45.3156 110.578 46.2827 110.578Z" fill="#16110D"/>
<path d="M53.7873 105.325C54.5379 105.825 54.5379 106.326 53.7873 106.826C53.0368 107.326 52.0361 107.326 51.2856 106.826C50.535 106.326 50.535 105.825 51.2856 105.325C52.0361 104.825 53.0368 104.825 53.7873 105.325Z" fill="#16110D"/>
<path d="M60.0422 101.572C60.7928 102.073 60.7928 102.573 60.0422 103.073C59.2917 103.574 58.291 103.574 57.5404 103.073C56.7899 102.573 56.7899 102.073 57.5404 101.572C58.291 101.322 59.5419 101.322 60.0422 101.572Z" fill="#16110D"/>
<path d="M66.5471 98.0701C67.2976 98.5704 67.2976 99.0708 66.5471 99.5712C65.7966 100.072 64.7959 100.072 64.0453 99.5712C63.2948 99.0708 63.2948 98.5704 64.0453 98.0701C64.7959 97.5697 65.7966 97.5697 66.5471 98.0701Z" fill="#16110D"/>
<path d="M72.802 94.3174C73.5525 94.8178 73.5525 95.3181 72.802 95.8185C72.0515 96.3188 71.0507 96.3188 70.3002 95.8185C69.5497 95.3181 69.5497 94.8178 70.3002 94.3174C71.0507 93.817 72.0515 93.817 72.802 94.3174Z" fill="#16110D"/>
<path d="M79.0559 90.5646C79.8064 91.0649 79.8064 91.5653 79.0559 92.0657C78.3054 92.566 77.3046 92.566 76.5541 92.0657C75.8036 91.5653 75.8036 91.0649 76.5541 90.5646C77.3046 90.3144 78.5555 90.3144 79.0559 90.5646Z" fill="#16110D"/>
<path d="M21.0142 117.834C21.9814 117.834 22.7659 117.386 22.7659 116.833C22.7659 116.281 21.9814 115.833 21.0142 115.833C20.047 115.833 19.2637 116.281 19.2637 116.833C19.2637 117.386 20.047 117.834 21.0142 117.834Z" fill="#16110D"/>
<path d="M28.5207 112.58C29.2713 113.081 29.2713 113.581 28.5207 114.081C27.7702 114.582 26.7695 114.582 26.019 114.081C25.2684 113.581 25.2684 113.081 26.019 112.58C26.7695 112.08 27.7702 112.08 28.5207 112.58Z" fill="#16110D"/>
<path d="M34.7746 108.828C35.5252 109.328 35.5252 109.828 34.7746 110.329C34.0241 110.829 33.0234 110.829 32.2729 110.329C31.5223 109.828 31.5223 109.328 32.2729 108.828C33.0234 108.577 34.0241 108.577 34.7746 108.828Z" fill="#16110D"/>
<path d="M41.0295 105.325C41.7801 105.825 41.7801 106.326 41.0295 106.826C40.279 107.326 39.2783 107.326 38.5277 106.826C37.7772 106.326 37.7772 105.825 38.5277 105.325C39.2783 104.825 40.5292 104.825 41.0295 105.325Z" fill="#16110D"/>
<path d="M47.5334 101.572C48.284 102.073 48.284 102.573 47.5334 103.073C46.7829 103.574 45.7822 103.574 45.0317 103.073C44.2811 102.573 44.2811 102.073 45.0317 101.572C45.7822 101.322 46.7829 101.322 47.5334 101.572Z" fill="#16110D"/>
<path d="M53.7873 98.0701C54.5379 98.5704 54.5379 99.0708 53.7873 99.5712C53.0368 100.072 52.0361 100.072 51.2856 99.5712C50.535 99.0708 50.535 98.5704 51.2856 98.0701C52.0361 97.5697 53.0368 97.5697 53.7873 98.0701Z" fill="#16110D"/>
<path d="M58.7915 96.0686C59.7587 96.0686 60.5433 95.6205 60.5433 95.0678C60.5433 94.5152 59.7587 94.0671 58.7915 94.0671C57.8243 94.0671 57.041 94.5152 57.041 95.0678C57.041 95.6205 57.8243 96.0686 58.7915 96.0686Z" fill="#16110D"/>
<path d="M66.5471 90.5646C67.2976 91.0649 67.2976 91.5653 66.5471 92.0657C65.7966 92.566 64.7959 92.566 64.0453 92.0657C63.2948 91.5653 63.2948 91.0649 64.0453 90.5646C64.7959 90.3144 65.7966 90.3144 66.5471 90.5646Z" fill="#16110D"/>
<path d="M71.5515 88.8132C72.5187 88.8132 73.3033 88.3652 73.3033 87.8125C73.3033 87.2598 72.5187 86.8118 71.5515 86.8118C70.5844 86.8118 69.7998 87.2598 69.7998 87.8125C69.7998 88.3652 70.5844 88.8132 71.5515 88.8132Z" fill="#16110D"/>
<path d="M14.5105 114.331C15.4777 114.331 16.261 113.883 16.261 113.33C16.261 112.778 15.4777 112.33 14.5105 112.33C13.5433 112.33 12.7588 112.778 12.7588 113.33C12.7588 113.883 13.5433 114.331 14.5105 114.331Z" fill="#16110D"/>
<path d="M22.0168 108.828C22.7674 109.328 22.7674 109.828 22.0168 110.329C21.2663 110.829 20.2656 110.829 19.515 110.329C18.7645 109.828 18.7645 109.328 19.515 108.828C20.2656 108.577 21.5165 108.577 22.0168 108.828Z" fill="#16110D"/>
<path d="M28.5207 105.325C29.2713 105.825 29.2713 106.326 28.5207 106.826C27.7702 107.326 26.7695 107.326 26.019 106.826C25.2684 106.326 25.2684 105.825 26.019 105.325C26.7695 104.825 27.7702 104.825 28.5207 105.325Z" fill="#16110D"/>
<path d="M33.523 103.324C34.4902 103.324 35.2747 102.876 35.2747 102.323C35.2747 101.77 34.4902 101.322 33.523 101.322C32.5558 101.322 31.7725 101.77 31.7725 102.323C31.7725 102.876 32.5558 103.324 33.523 103.324Z" fill="#16110D"/>
<path d="M39.7779 99.5708C40.745 99.5708 41.5296 99.1227 41.5296 98.5701C41.5296 98.0174 40.745 97.5693 39.7779 97.5693C38.8107 97.5693 38.0273 98.0174 38.0273 98.5701C38.0273 99.1227 38.8107 99.5708 39.7779 99.5708Z" fill="#16110D"/>
<path d="M46.2827 96.0686C47.2499 96.0686 48.0345 95.6205 48.0345 95.0678C48.0345 94.5152 47.2499 94.0671 46.2827 94.0671C45.3156 94.0671 44.5322 94.5152 44.5322 95.0678C44.5322 95.6205 45.3156 96.0686 46.2827 96.0686Z" fill="#16110D"/>
<path d="M53.7873 90.5646C54.5379 91.0649 54.5379 91.5653 53.7873 92.0657C53.0368 92.566 52.0361 92.566 51.2856 92.0657C50.535 91.5653 50.535 91.0649 51.2856 90.5646C52.0361 90.3144 53.0368 90.3144 53.7873 90.5646Z" fill="#16110D"/>
<path d="M60.0422 87.0618C60.7928 87.5621 60.7928 88.0625 60.0422 88.5629C59.2917 89.0632 58.291 89.0632 57.5404 88.5629C56.7899 88.0625 56.7899 87.5621 57.5404 87.0618C58.291 86.5614 59.5419 86.5614 60.0422 87.0618Z" fill="#16110D"/>
<path d="M66.5471 83.3095C67.2976 83.8098 67.2976 84.3102 66.5471 84.8105C65.7966 85.3109 64.7959 85.3109 64.0453 84.8105C63.2948 84.3102 63.2948 83.8098 64.0453 83.3095C64.7959 83.0593 65.7966 83.0593 66.5471 83.3095Z" fill="#16110D"/>
<path d="M8.25662 110.578C9.2238 110.578 10.0071 110.13 10.0071 109.578C10.0071 109.025 9.2238 108.577 8.25662 108.577C7.28943 108.577 6.50488 109.025 6.50488 109.578C6.50488 110.13 7.28943 110.578 8.25662 110.578Z" fill="#16110D"/>
<path d="M14.5105 107.076C15.4777 107.076 16.261 106.628 16.261 106.075C16.261 105.523 15.4777 105.075 14.5105 105.075C13.5433 105.075 12.7588 105.523 12.7588 106.075C12.7588 106.628 13.5433 107.076 14.5105 107.076Z" fill="#16110D"/>
<path d="M22.0168 101.572C22.7674 102.073 22.7674 102.573 22.0168 103.073C21.2663 103.574 20.2656 103.574 19.515 103.073C18.7645 102.573 18.7645 102.073 19.515 101.572C20.2656 101.322 21.5165 101.322 22.0168 101.572Z" fill="#16110D"/>
<path d="M28.5207 98.0701C29.2713 98.5704 29.2713 99.0708 28.5207 99.5712C27.7702 100.072 26.7695 100.072 26.019 99.5712C25.2684 99.0708 25.2684 98.5704 26.019 98.0701C26.7695 97.5697 27.7702 97.5697 28.5207 98.0701Z" fill="#16110D"/>
<path d="M34.7746 94.3174C35.5252 94.8178 35.5252 95.3181 34.7746 95.8185C34.0241 96.3188 33.0234 96.3188 32.2729 95.8185C31.5223 95.3181 31.5223 94.8178 32.2729 94.3174C33.0234 93.817 34.0241 93.817 34.7746 94.3174Z" fill="#16110D"/>
<path d="M39.7779 92.3159C40.745 92.3159 41.5296 91.8678 41.5296 91.3152C41.5296 90.7625 40.745 90.3145 39.7779 90.3145C38.8107 90.3145 38.0273 90.7625 38.0273 91.3152C38.0273 91.8678 38.8107 92.3159 39.7779 92.3159Z" fill="#16110D"/>
<path d="M46.2827 88.8132C47.2499 88.8132 48.0345 88.3652 48.0345 87.8125C48.0345 87.2598 47.2499 86.8118 46.2827 86.8118C45.3156 86.8118 44.5322 87.2598 44.5322 87.8125C44.5322 88.3652 45.3156 88.8132 46.2827 88.8132Z" fill="#16110D"/>
<path d="M53.7873 83.3097C54.5379 83.8101 54.5379 84.3104 53.7873 84.8108C53.0368 85.3111 52.0361 85.3111 51.2856 84.8108C50.535 84.3104 50.535 83.8101 51.2856 83.3097C52.0361 83.0595 53.0368 83.0595 53.7873 83.3097Z" fill="#16110D"/>
<path d="M58.7915 81.3078C59.7587 81.3078 60.5433 80.8598 60.5433 80.3071C60.5433 79.7545 59.7587 79.3064 58.7915 79.3064C57.8243 79.3064 57.041 79.7545 57.041 80.3071C57.041 80.8598 57.8243 81.3078 58.7915 81.3078Z" fill="#16110D"/>
<path d="M2.00271 107.076C2.9699 107.076 3.75322 106.628 3.75322 106.076C3.75322 105.523 2.9699 105.075 2.00271 105.075C1.03552 105.075 0.250977 105.523 0.250977 106.076C0.250977 106.628 1.03552 107.076 2.00271 107.076Z" fill="#16110D"/>
<path d="M8.25662 103.323C9.2238 103.323 10.0071 102.875 10.0071 102.323C10.0071 101.77 9.2238 101.322 8.25662 101.322C7.28943 101.322 6.50488 101.77 6.50488 102.323C6.50488 102.875 7.28943 103.323 8.25662 103.323Z" fill="#16110D"/>
<path d="M14.5105 99.5708C15.4777 99.5708 16.261 99.1227 16.261 98.5701C16.261 98.0174 15.4777 97.5693 14.5105 97.5693C13.5433 97.5693 12.7588 98.0174 12.7588 98.5701C12.7588 99.1227 13.5433 99.5708 14.5105 99.5708Z" fill="#16110D"/>
<path d="M21.0142 96.0686C21.9814 96.0686 22.7659 95.6205 22.7659 95.0678C22.7659 94.5152 21.9814 94.0671 21.0142 94.0671C20.047 94.0671 19.2637 94.5152 19.2637 95.0678C19.2637 95.6205 20.047 96.0686 21.0142 96.0686Z" fill="#16110D"/>
<path d="M28.5207 90.5646C29.2713 91.0649 29.2713 91.5653 28.5207 92.0657C27.7702 92.566 26.7695 92.566 26.019 92.0657C25.2684 91.5653 25.2684 91.0649 26.019 90.5646C26.7695 90.3144 27.7702 90.3144 28.5207 90.5646Z" fill="#16110D"/>
<path d="M34.7746 87.0618C35.5252 87.5621 35.5252 88.0625 34.7746 88.5629C34.0241 89.0632 33.0234 89.0632 32.2729 88.5629C31.5223 88.0625 31.5223 87.5621 32.2729 87.0618C33.0234 86.5614 34.0241 86.5614 34.7746 87.0618Z" fill="#16110D"/>
<path d="M41.0295 83.3097C41.7801 83.8101 41.7801 84.3104 41.0295 84.8108C40.279 85.3111 39.2783 85.3111 38.5277 84.8108C37.7772 84.3104 37.7772 83.8101 38.5277 83.3097C39.2783 83.0595 40.5292 83.0595 41.0295 83.3097Z" fill="#16110D"/>
<path d="M47.5334 79.8069C48.284 80.3073 48.284 80.8076 47.5334 81.308C46.7829 81.8083 45.7822 81.8083 45.0317 81.308C44.2811 80.8076 44.2811 80.3073 45.0317 79.8069C45.7822 79.3066 46.7829 79.3066 47.5334 79.8069Z" fill="#16110D"/>
<path d="M53.7873 76.0542C54.5379 76.5546 54.5379 77.0549 53.7873 77.5553C53.0368 78.0556 52.0361 78.0556 51.2856 77.5553C50.535 77.0549 50.535 76.5546 51.2856 76.0542C52.0361 75.5539 53.0368 75.5539 53.7873 76.0542Z" fill="#16110D"/>
<path d="M1.75173 99.5708C2.71892 99.5708 3.50225 99.1227 3.50225 98.5701C3.50225 98.0174 2.71892 97.5693 1.75173 97.5693C0.784548 97.5693 0 98.0174 0 98.5701C0 99.1227 0.784548 99.5708 1.75173 99.5708Z" fill="#16110D"/>
<path d="M7.00626 94.3174C7.75679 93.817 8.75751 93.817 9.50804 94.3174C10.2586 94.8178 10.2586 95.3181 9.50804 95.8185C8.75751 96.3188 7.75679 96.3188 7.00626 95.8185C6.25573 95.3181 6.25573 94.5676 7.00626 94.3174C7.75679 93.817 6.25573 94.5676 7.00626 94.3174Z" fill="#16110D"/>
<path d="M15.7607 90.5647C16.5113 91.0651 16.5113 91.5654 15.7607 92.0658C15.0102 92.5661 14.0095 92.5661 13.259 92.0658C12.5084 91.5654 15.0102 90.3145 15.7607 90.5647Z" fill="#16110D"/>
<path d="M22.017 87.0621C22.7675 87.5625 22.7675 88.0629 22.017 88.5632C21.2664 89.0636 20.2657 89.0636 19.5152 88.5632C19.0148 88.0629 21.2664 86.5618 22.017 87.0621Z" fill="#16110D"/>
<path d="M28.2697 83.3094C29.0203 83.8098 29.0203 84.3102 28.2697 84.8105C27.5192 85.3109 26.5185 85.3109 25.7679 84.8105C25.2676 84.3102 27.7694 82.8091 28.2697 83.3094Z" fill="#16110D"/>
<path d="M34.7734 79.5564C35.524 80.0568 35.524 80.5571 34.7734 81.0575C34.0229 81.5578 33.0222 81.5578 32.2717 81.0575C31.5211 80.5571 34.0229 79.3062 34.7734 79.5564Z" fill="#16110D"/>
<path d="M41.0297 76.0546C41.7802 76.5549 41.7802 77.0553 41.0297 77.5556C40.2791 78.056 39.2784 78.056 38.5279 77.5556C38.0275 77.0553 40.2791 75.5542 41.0297 76.0546Z" fill="#16110D"/>
<path d="M47.2824 72.3015C48.0329 72.8019 48.0329 73.3022 47.2824 73.8026C46.5319 74.3029 45.5312 74.3029 44.7806 73.8026C44.2803 73.3022 46.7821 72.0513 47.2824 72.3015Z" fill="#16110D"/>
<path d="M47.7844 174.124C48.5349 174.624 48.5349 175.124 47.7844 175.625C47.0339 176.125 46.0332 176.125 45.2826 175.625C44.5321 175.124 44.5321 174.624 45.2826 174.124C46.0332 173.873 47.0339 173.873 47.7844 174.124Z" fill="#16110D"/>
<path d="M54.0383 170.622C54.7888 171.122 54.7888 171.622 54.0383 172.123C53.2878 172.623 52.2871 172.623 51.5365 172.123C50.786 171.622 50.786 171.122 51.5365 170.622C52.2871 170.121 53.2878 170.121 54.0383 170.622Z" fill="#16110D"/>
<path d="M60.2932 166.869C61.0437 167.369 61.0437 167.87 60.2932 168.37C59.5427 168.87 58.542 168.87 57.7914 168.37C57.0409 167.87 57.0409 167.369 57.7914 166.869C58.542 166.619 59.7928 166.619 60.2932 166.869Z" fill="#16110D"/>
<path d="M65.5467 164.868C66.5138 164.868 67.2972 164.42 67.2972 163.867C67.2972 163.314 66.5138 162.866 65.5467 162.866C64.5795 162.866 63.7949 163.314 63.7949 163.867C63.7949 164.42 64.5795 164.868 65.5467 164.868Z" fill="#16110D"/>
<path d="M73.053 159.614C73.8035 160.114 73.8035 160.614 73.053 161.115C72.3024 161.615 71.3017 161.615 70.5512 161.115C69.8006 160.614 69.8006 160.114 70.5512 159.614C71.3017 159.113 72.3024 159.113 73.053 159.614Z" fill="#16110D"/>
<path d="M79.3069 155.861C80.0574 156.362 80.0574 156.862 79.3069 157.362C78.5563 157.863 77.5556 157.863 76.8051 157.362C76.0546 156.862 76.0546 156.362 76.8051 155.861C77.5556 155.611 78.8065 155.611 79.3069 155.861Z" fill="#16110D"/>
<path d="M85.8108 152.358C86.5613 152.859 86.5613 153.359 85.8108 153.86C85.0602 154.36 84.0595 154.36 83.309 153.86C82.5585 153.359 82.5585 152.859 83.309 152.358C84.0595 151.858 85.0602 151.858 85.8108 152.358Z" fill="#16110D"/>
<path d="M92.0657 148.606C92.8162 149.106 92.8162 149.606 92.0657 150.107C91.3151 150.607 90.3144 150.607 89.5639 150.107C88.8133 149.606 88.8133 149.106 89.5639 148.606C90.3144 148.105 91.3151 148.105 92.0657 148.606Z" fill="#16110D"/>
<path d="M98.3196 144.853C99.0701 145.354 99.0701 145.854 98.3196 146.354C97.569 146.855 96.5683 146.855 95.8178 146.354C95.0672 145.854 95.0672 145.354 95.8178 144.853C96.5683 144.603 97.8192 144.603 98.3196 144.853Z" fill="#16110D"/>
<path d="M103.574 143.101C104.541 143.101 105.325 142.653 105.325 142.101C105.325 141.548 104.541 141.1 103.574 141.1C102.607 141.1 101.823 141.548 101.823 142.101C101.823 142.653 102.607 143.101 103.574 143.101Z" fill="#16110D"/>
<path d="M111.078 137.598C111.829 138.098 111.829 138.599 111.078 139.099C110.328 139.599 109.327 139.599 108.577 139.099C107.826 138.599 107.826 138.098 108.577 137.598C109.327 137.348 110.328 137.348 111.078 137.598Z" fill="#16110D"/>
<path d="M116.083 135.596C117.05 135.596 117.834 135.148 117.834 134.596C117.834 134.043 117.05 133.595 116.083 133.595C115.115 133.595 114.332 134.043 114.332 134.596C114.332 135.148 115.115 135.596 116.083 135.596Z" fill="#16110D"/>
<path d="M122.587 132.094C123.555 132.094 124.339 131.646 124.339 131.093C124.339 130.541 123.555 130.093 122.587 130.093C121.62 130.093 120.837 130.541 120.837 131.093C120.837 131.646 121.62 132.094 122.587 132.094Z" fill="#16110D"/>
<path d="M128.842 128.341C129.809 128.341 130.594 127.893 130.594 127.341C130.594 126.788 129.809 126.34 128.842 126.34C127.875 126.34 127.092 126.788 127.092 127.341C127.092 127.893 127.875 128.341 128.842 128.341Z" fill="#16110D"/>
<path d="M35.0246 174.124C35.7752 174.624 35.7752 175.124 35.0246 175.625C34.2741 176.125 33.2734 176.125 32.5229 175.625C31.7723 175.124 31.7723 174.624 32.5229 174.124C33.2734 173.873 34.5243 173.873 35.0246 174.124Z" fill="#16110D"/>
<path d="M41.5295 170.622C42.2801 171.122 42.2801 171.622 41.5295 172.123C40.779 172.623 39.7783 172.623 39.0277 172.123C38.2772 171.622 38.2772 171.122 39.0277 170.622C39.7783 170.121 40.779 170.121 41.5295 170.622Z" fill="#16110D"/>
<path d="M47.7844 166.869C48.5349 167.369 48.5349 167.87 47.7844 168.37C47.0339 168.87 46.0332 168.87 45.2826 168.37C44.5321 167.87 44.5321 167.369 45.2826 166.869C46.0332 166.619 47.0339 166.619 47.7844 166.869Z" fill="#16110D"/>
<path d="M54.0383 163.116C54.7888 163.616 54.7888 164.117 54.0383 164.617C53.2878 165.118 52.2871 165.118 51.5365 164.617C50.786 164.117 50.786 163.616 51.5365 163.116C52.2871 162.866 53.2878 162.866 54.0383 163.116Z" fill="#16110D"/>
<path d="M60.2932 159.614C61.0437 160.114 61.0437 160.614 60.2932 161.115C59.5427 161.615 58.542 161.615 57.7914 161.115C57.0409 160.614 57.0409 160.114 57.7914 159.614C58.542 159.113 59.7928 159.113 60.2932 159.614Z" fill="#16110D"/>
<path d="M65.5467 157.612C66.5138 157.612 67.2972 157.164 67.2972 156.612C67.2972 156.059 66.5138 155.611 65.5467 155.611C64.5795 155.611 63.7949 156.059 63.7949 156.612C63.7949 157.164 64.5795 157.612 65.5467 157.612Z" fill="#16110D"/>
<path d="M73.053 152.358C73.8035 152.859 73.8035 153.359 73.053 153.86C72.3024 154.36 71.3017 154.36 70.5512 153.86C69.8006 153.359 69.8006 152.859 70.5512 152.358C71.3017 151.858 72.3024 151.858 73.053 152.358Z" fill="#16110D"/>
<path d="M78.3064 150.357C79.2736 150.357 80.0569 149.909 80.0569 149.356C80.0569 148.804 79.2736 148.356 78.3064 148.356C77.3392 148.356 76.5547 148.804 76.5547 149.356C76.5547 149.909 77.3392 150.357 78.3064 150.357Z" fill="#16110D"/>
<path d="M84.5603 146.604C85.5275 146.604 86.3108 146.156 86.3108 145.604C86.3108 145.051 85.5275 144.603 84.5603 144.603C83.5931 144.603 82.8086 145.051 82.8086 145.604C82.8086 146.156 83.5931 146.604 84.5603 146.604Z" fill="#16110D"/>
<path d="M90.8152 143.102C91.7824 143.102 92.5657 142.654 92.5657 142.101C92.5657 141.548 91.7824 141.1 90.8152 141.1C89.848 141.1 89.0635 141.548 89.0635 142.101C89.0635 142.654 89.848 143.102 90.8152 143.102Z" fill="#16110D"/>
<path d="M98.3196 137.598C99.0701 138.099 99.0701 138.599 98.3196 139.099C97.569 139.6 96.5683 139.6 95.8178 139.099C95.0672 138.599 95.0672 138.099 95.8178 137.598C96.5683 137.348 97.8192 137.348 98.3196 137.598Z" fill="#16110D"/>
<path d="M104.823 134.095C105.574 134.596 105.574 135.096 104.823 135.597C104.073 136.097 103.072 136.097 102.322 135.597C101.571 135.096 101.571 134.596 102.322 134.095C103.072 133.595 104.073 133.595 104.823 134.095Z" fill="#16110D"/>
<path d="M111.078 130.343C111.829 130.843 111.829 131.344 111.078 131.844C110.328 132.344 109.327 132.344 108.577 131.844C107.826 131.344 107.826 130.843 108.577 130.343C109.327 129.842 110.328 129.842 111.078 130.343Z" fill="#16110D"/>
<path d="M116.083 128.341C117.05 128.341 117.834 127.893 117.834 127.341C117.834 126.788 117.05 126.34 116.083 126.34C115.115 126.34 114.332 126.788 114.332 127.341C114.332 127.893 115.115 128.341 116.083 128.341Z" fill="#16110D"/>
<path d="M122.587 124.589C123.555 124.589 124.339 124.141 124.339 123.588C124.339 123.035 123.555 122.587 122.587 122.587C121.62 122.587 120.837 123.035 120.837 123.588C120.837 124.141 121.62 124.589 122.587 124.589Z" fill="#16110D"/>
<path d="M128.842 121.086C129.809 121.086 130.594 120.638 130.594 120.086C130.594 119.533 129.809 119.085 128.842 119.085C127.875 119.085 127.092 119.533 127.092 120.086C127.092 120.638 127.875 121.086 128.842 121.086Z" fill="#16110D"/>
<path d="M27.52 172.123C28.4872 172.123 29.2718 171.675 29.2718 171.122C29.2718 170.569 28.4872 170.121 27.52 170.121C26.5529 170.121 25.7695 170.569 25.7695 171.122C25.7695 171.675 26.5529 172.123 27.52 172.123Z" fill="#16110D"/>
<path d="M35.0246 166.869C35.7752 167.369 35.7752 167.87 35.0246 168.37C34.2741 168.87 33.2734 168.87 32.5229 168.37C31.7723 167.87 31.7723 167.369 32.5229 166.869C33.2734 166.619 34.5243 166.619 35.0246 166.869Z" fill="#16110D"/>
<path d="M40.2791 164.868C41.2463 164.868 42.0308 164.42 42.0308 163.867C42.0308 163.314 41.2463 162.866 40.2791 162.866C39.3119 162.866 38.5273 163.314 38.5273 163.867C38.5273 164.42 39.3119 164.868 40.2791 164.868Z" fill="#16110D"/>
<path d="M46.534 161.365C47.5011 161.365 48.2857 160.917 48.2857 160.364C48.2857 159.812 47.5011 159.364 46.534 159.364C45.5668 159.364 44.7822 159.812 44.7822 160.364C44.7822 160.917 45.5668 161.365 46.534 161.365Z" fill="#16110D"/>
<path d="M52.7879 157.612C53.7551 157.612 54.5396 157.164 54.5396 156.612C54.5396 156.059 53.7551 155.611 52.7879 155.611C51.8207 155.611 51.0361 156.059 51.0361 156.612C51.0361 157.164 51.8207 157.612 52.7879 157.612Z" fill="#16110D"/>
<path d="M60.2932 152.358C61.0437 152.859 61.0437 153.359 60.2932 153.86C59.5427 154.36 58.542 154.36 57.7914 153.86C57.0409 153.359 57.0409 152.859 57.7914 152.358C58.542 151.858 59.7928 151.858 60.2932 152.358Z" fill="#16110D"/>
<path d="M66.7981 148.606C67.5486 149.106 67.5486 149.606 66.7981 150.107C66.0475 150.607 65.0468 150.607 64.2963 150.107C63.5458 149.606 63.5458 149.106 64.2963 148.606C65.0468 148.105 66.0475 148.105 66.7981 148.606Z" fill="#16110D"/>
<path d="M73.053 144.853C73.8035 145.354 73.8035 145.854 73.053 146.354C72.3024 146.855 71.3017 146.855 70.5512 146.354C69.8006 145.854 69.8006 145.354 70.5512 144.853C71.3017 144.603 72.3024 144.603 73.053 144.853Z" fill="#16110D"/>
<path d="M79.3069 141.351C80.0574 141.851 80.0574 142.352 79.3069 142.852C78.5563 143.352 77.5556 143.352 76.8051 142.852C76.0546 142.352 76.0546 141.851 76.8051 141.351C77.5556 140.85 78.8065 140.85 79.3069 141.351Z" fill="#16110D"/>
<path d="M84.5603 139.349C85.5275 139.349 86.3108 138.901 86.3108 138.348C86.3108 137.795 85.5275 137.347 84.5603 137.347C83.5931 137.347 82.8086 137.795 82.8086 138.348C82.8086 138.901 83.5931 139.349 84.5603 139.349Z" fill="#16110D"/>
<path d="M92.0657 134.095C92.8162 134.596 92.8162 135.096 92.0657 135.597C91.3151 136.097 90.3144 136.097 89.5639 135.597C88.8133 135.096 88.8133 134.596 89.5639 134.095C90.3144 133.595 91.3151 133.595 92.0657 134.095Z" fill="#16110D"/>
<path d="M98.3196 130.343C99.0701 130.843 99.0701 131.344 98.3196 131.844C97.569 132.344 96.5683 132.344 95.8178 131.844C95.0672 131.344 95.0672 130.843 95.8178 130.343C96.5683 129.842 97.8192 129.842 98.3196 130.343Z" fill="#16110D"/>
<path d="M103.574 128.341C104.541 128.341 105.325 127.893 105.325 127.341C105.325 126.788 104.541 126.34 103.574 126.34C102.607 126.34 101.823 126.788 101.823 127.341C101.823 127.893 102.607 128.341 103.574 128.341Z" fill="#16110D"/>
<path d="M111.078 123.088C111.829 123.588 111.829 124.088 111.078 124.589C110.328 125.089 109.327 125.089 108.577 124.589C107.826 124.088 107.826 123.588 108.577 123.088C109.327 122.587 110.328 122.587 111.078 123.088Z" fill="#16110D"/>
<path d="M116.083 121.087C117.05 121.087 117.834 120.639 117.834 120.086C117.834 119.533 117.05 119.085 116.083 119.085C115.115 119.085 114.332 119.533 114.332 120.086C114.332 120.639 115.115 121.087 116.083 121.087Z" fill="#16110D"/>
<path d="M123.838 115.582C124.589 116.083 124.589 116.583 123.838 117.083C123.088 117.584 122.087 117.584 121.336 117.083C120.586 116.583 120.586 116.083 121.336 115.582C122.087 115.332 123.088 115.332 123.838 115.582Z" fill="#16110D"/>
<path d="M22.5159 166.869C23.2664 167.369 23.2664 167.87 22.5159 168.37C21.7653 168.87 20.7646 168.87 20.0141 168.37C19.2635 167.87 19.2635 167.369 20.0141 166.869C20.7646 166.619 21.7653 166.619 22.5159 166.869Z" fill="#16110D"/>
<path d="M28.7698 163.116C29.5203 163.617 29.5203 164.117 28.7698 164.617C28.0192 165.118 27.0185 165.118 26.268 164.617C25.5174 164.117 25.5174 163.617 26.268 163.116C27.0185 162.866 28.0192 162.866 28.7698 163.116Z" fill="#16110D"/>
<path d="M35.0246 159.614C35.7752 160.114 35.7752 160.614 35.0246 161.115C34.2741 161.615 33.2734 161.615 32.5229 161.115C31.7723 160.614 31.7723 160.114 32.5229 159.614C33.2734 159.113 34.5243 159.113 35.0246 159.614Z" fill="#16110D"/>
<path d="M40.2791 157.612C41.2463 157.612 42.0308 157.164 42.0308 156.612C42.0308 156.059 41.2463 155.611 40.2791 155.611C39.3119 155.611 38.5273 156.059 38.5273 156.612C38.5273 157.164 39.3119 157.612 40.2791 157.612Z" fill="#16110D"/>
<path d="M47.7844 152.358C48.5349 152.859 48.5349 153.359 47.7844 153.86C47.0339 154.36 46.0332 154.36 45.2826 153.86C44.5321 153.359 44.5321 152.859 45.2826 152.358C46.0332 151.858 47.0339 151.858 47.7844 152.358Z" fill="#16110D"/>
<path d="M54.0383 148.606C54.7888 149.106 54.7888 149.606 54.0383 150.107C53.2878 150.607 52.2871 150.607 51.5365 150.107C50.786 149.606 50.786 149.106 51.5365 148.606C52.2871 148.105 53.2878 148.105 54.0383 148.606Z" fill="#16110D"/>
<path d="M60.2932 144.853C61.0437 145.354 61.0437 145.854 60.2932 146.354C59.5427 146.855 58.542 146.855 57.7914 146.354C57.0409 145.854 57.0409 145.354 57.7914 144.853C58.542 144.603 59.7928 144.603 60.2932 144.853Z" fill="#16110D"/>
<path d="M65.5467 143.102C66.5138 143.102 67.2972 142.654 67.2972 142.101C67.2972 141.548 66.5138 141.1 65.5467 141.1C64.5795 141.1 63.7949 141.548 63.7949 142.101C63.7949 142.654 64.5795 143.102 65.5467 143.102Z" fill="#16110D"/>
<path d="M73.053 137.598C73.8035 138.099 73.8035 138.599 73.053 139.099C72.3024 139.6 71.3017 139.6 70.5512 139.099C69.8006 138.599 69.8006 138.099 70.5512 137.598C71.3017 137.348 72.3024 137.348 73.053 137.598Z" fill="#16110D"/>
<path d="M78.3064 135.596C79.2736 135.596 80.0569 135.148 80.0569 134.596C80.0569 134.043 79.2736 133.595 78.3064 133.595C77.3392 133.595 76.5547 134.043 76.5547 134.596C76.5547 135.148 77.3392 135.596 78.3064 135.596Z" fill="#16110D"/>
<path d="M85.8108 130.343C86.5613 130.843 86.5613 131.344 85.8108 131.844C85.0602 132.344 84.0595 132.344 83.309 131.844C82.5585 131.344 82.5585 130.843 83.309 130.343C84.0595 129.842 85.0602 129.842 85.8108 130.343Z" fill="#16110D"/>
<path d="M92.0657 126.59C92.8162 127.09 92.8162 127.591 92.0657 128.091C91.3151 128.591 90.3144 128.591 89.5639 128.091C88.8133 127.591 88.8133 127.09 89.5639 126.59C90.3144 126.34 91.3151 126.34 92.0657 126.59Z" fill="#16110D"/>
<path d="M98.3196 123.088C99.0701 123.588 99.0701 124.089 98.3196 124.589C97.569 125.089 96.5683 125.089 95.8178 124.589C95.0672 124.089 95.0672 123.588 95.8178 123.088C96.5683 122.588 97.8192 122.588 98.3196 123.088Z" fill="#16110D"/>
<path d="M104.823 119.335C105.574 119.835 105.574 120.336 104.823 120.836C104.073 121.337 103.072 121.337 102.322 120.836C101.571 120.336 101.571 119.835 102.322 119.335C103.072 119.085 104.073 119.085 104.823 119.335Z" fill="#16110D"/>
<path d="M111.078 115.582C111.829 116.083 111.829 116.583 111.078 117.083C110.328 117.584 109.327 117.584 108.577 117.083C107.826 116.583 107.826 116.083 108.577 115.582C109.327 115.332 110.328 115.332 111.078 115.582Z" fill="#16110D"/>
<path d="M116.083 113.831C117.05 113.831 117.834 113.383 117.834 112.83C117.834 112.278 117.05 111.83 116.083 111.83C115.115 111.83 114.332 112.278 114.332 112.83C114.332 113.383 115.115 113.831 116.083 113.831Z" fill="#16110D"/>
<path d="M16.01 163.116C16.7605 163.617 16.7605 164.117 16.01 164.617C15.2595 165.118 14.2587 165.118 13.5082 164.617C12.7577 164.117 12.7577 163.617 13.5082 163.116C14.2587 162.866 15.5096 162.866 16.01 163.116Z" fill="#16110D"/>
<path d="M21.2652 161.365C22.2323 161.365 23.0169 160.917 23.0169 160.364C23.0169 159.811 22.2323 159.363 21.2652 159.363C20.298 159.363 19.5146 159.811 19.5146 160.364C19.5146 160.917 20.298 161.365 21.2652 161.365Z" fill="#16110D"/>
<path d="M27.52 157.612C28.4872 157.612 29.2718 157.164 29.2718 156.611C29.2718 156.059 28.4872 155.611 27.52 155.611C26.5529 155.611 25.7695 156.059 25.7695 156.611C25.7695 157.164 26.5529 157.612 27.52 157.612Z" fill="#16110D"/>
<path d="M35.0246 152.358C35.7752 152.859 35.7752 153.359 35.0246 153.86C34.2741 154.36 33.2734 154.36 32.5229 153.86C31.7723 153.359 31.7723 152.859 32.5229 152.358C33.2734 151.858 34.5243 151.858 35.0246 152.358Z" fill="#16110D"/>
<path d="M40.2791 150.357C41.2463 150.357 42.0308 149.909 42.0308 149.356C42.0308 148.804 41.2463 148.356 40.2791 148.356C39.3119 148.356 38.5273 148.804 38.5273 149.356C38.5273 149.909 39.3119 150.357 40.2791 150.357Z" fill="#16110D"/>
<path d="M47.7844 144.853C48.5349 145.354 48.5349 145.854 47.7844 146.354C47.0339 146.855 46.0332 146.855 45.2826 146.354C44.5321 145.854 44.5321 145.354 45.2826 144.853C46.0332 144.603 47.0339 144.603 47.7844 144.853Z" fill="#16110D"/>
<path d="M54.0383 141.351C54.7888 141.851 54.7888 142.352 54.0383 142.852C53.2878 143.352 52.2871 143.352 51.5365 142.852C50.786 142.352 50.786 141.851 51.5365 141.351C52.2871 140.85 53.2878 140.85 54.0383 141.351Z" fill="#16110D"/>
<path d="M60.2932 137.598C61.0437 138.099 61.0437 138.599 60.2932 139.099C59.5427 139.6 58.542 139.6 57.7914 139.099C57.0409 138.599 57.0409 138.099 57.7914 137.598C58.542 137.348 59.7928 137.348 60.2932 137.598Z" fill="#16110D"/>
<path d="M66.7981 134.095C67.5486 134.596 67.5486 135.096 66.7981 135.597C66.0475 136.097 65.0468 136.097 64.2963 135.597C63.5458 135.096 63.5458 134.596 64.2963 134.095C65.0468 133.595 66.0475 133.595 66.7981 134.095Z" fill="#16110D"/>
<path d="M73.053 130.343C73.8035 130.843 73.8035 131.344 73.053 131.844C72.3024 132.344 71.3017 132.344 70.5512 131.844C69.8006 131.344 69.8006 130.843 70.5512 130.343C71.3017 129.842 72.3024 129.842 73.053 130.343Z" fill="#16110D"/>
<path d="M78.3064 128.341C79.2736 128.341 80.0569 127.893 80.0569 127.341C80.0569 126.788 79.2736 126.34 78.3064 126.34C77.3392 126.34 76.5547 126.788 76.5547 127.341C76.5547 127.893 77.3392 128.341 78.3064 128.341Z" fill="#16110D"/>
<path d="M84.5603 124.589C85.5275 124.589 86.3108 124.141 86.3108 123.588C86.3108 123.035 85.5275 122.587 84.5603 122.587C83.5931 122.587 82.8086 123.035 82.8086 123.588C82.8086 124.141 83.5931 124.589 84.5603 124.589Z" fill="#16110D"/>
<path d="M92.0657 119.335C92.8162 119.835 92.8162 120.336 92.0657 120.836C91.3151 121.336 90.3144 121.336 89.5639 120.836C88.8133 120.336 88.8133 119.835 89.5639 119.335C90.3144 119.085 91.3151 119.085 92.0657 119.335Z" fill="#16110D"/>
<path d="M98.3196 115.582C99.0701 116.083 99.0701 116.583 98.3196 117.083C97.569 117.584 96.5683 117.584 95.8178 117.083C95.0672 116.583 95.0672 116.083 95.8178 115.582C96.5683 115.332 97.8192 115.332 98.3196 115.582Z" fill="#16110D"/>
<path d="M104.823 112.08C105.574 112.58 105.574 113.08 104.823 113.581C104.073 114.081 103.072 114.081 102.322 113.581C101.571 113.08 101.571 112.58 102.322 112.08C103.072 111.579 104.073 111.579 104.823 112.08Z" fill="#16110D"/>
<path d="M111.078 108.327C111.829 108.828 111.829 109.328 111.078 109.828C110.328 110.329 109.327 110.329 108.577 109.828C107.826 109.328 107.826 108.828 108.577 108.327C109.327 108.077 110.328 108.077 111.078 108.327Z" fill="#16110D"/>
<path d="M9.75609 159.614C10.5066 160.114 10.5066 160.614 9.75609 161.115C9.00555 161.615 8.00484 161.615 7.25431 161.115C6.50377 160.614 6.50377 160.114 7.25431 159.614C8.00484 159.113 9.00555 159.113 9.75609 159.614Z" fill="#16110D"/>
<path d="M16.01 155.861C16.7605 156.362 16.7605 156.862 16.01 157.363C15.2595 157.863 14.2587 157.863 13.5082 157.363C12.7577 156.862 12.7577 156.362 13.5082 155.861C14.2587 155.611 15.2595 155.611 16.01 155.861Z" fill="#16110D"/>
<path d="M21.2652 153.86C22.2323 153.86 23.0169 153.412 23.0169 152.859C23.0169 152.306 22.2323 151.858 21.2652 151.858C20.298 151.858 19.5146 152.306 19.5146 152.859C19.5146 153.412 20.298 153.86 21.2652 153.86Z" fill="#16110D"/>
<path d="M28.7698 148.606C29.5203 149.106 29.5203 149.606 28.7698 150.107C28.0192 150.607 27.0185 150.607 26.268 150.107C25.5174 149.606 25.5174 149.106 26.268 148.606C27.0185 148.105 28.0192 148.105 28.7698 148.606Z" fill="#16110D"/>
<path d="M33.774 146.605C34.7411 146.605 35.5257 146.157 35.5257 145.604C35.5257 145.051 34.7411 144.603 33.774 144.603C32.8068 144.603 32.0234 145.051 32.0234 145.604C32.0234 146.157 32.8068 146.605 33.774 146.605Z" fill="#16110D"/>
<path d="M41.2785 141.351C42.0291 141.851 42.0291 142.352 41.2785 142.852C40.528 143.352 39.5273 143.352 38.7768 142.852C38.0262 142.352 38.0262 141.851 38.7768 141.351C39.5273 140.85 40.7782 140.85 41.2785 141.351Z" fill="#16110D"/>
<path d="M47.7844 137.598C48.5349 138.099 48.5349 138.599 47.7844 139.099C47.0339 139.6 46.0332 139.6 45.2826 139.099C44.5321 138.599 44.5321 138.099 45.2826 137.598C46.0332 137.098 47.0339 137.098 47.7844 137.598Z" fill="#16110D"/>
<path d="M54.0383 133.845C54.7888 134.346 54.7888 134.846 54.0383 135.346C53.2878 135.847 52.2871 135.847 51.5365 135.346C50.786 134.846 50.786 134.346 51.5365 133.845C52.2871 133.595 53.2878 133.595 54.0383 133.845Z" fill="#16110D"/>
<path d="M60.2932 130.343C61.0437 130.843 61.0437 131.344 60.2932 131.844C59.5427 132.344 58.542 132.344 57.7914 131.844C57.0409 131.344 57.0409 130.843 57.7914 130.343C58.542 129.842 59.7928 129.842 60.2932 130.343Z" fill="#16110D"/>
<path d="M66.7981 126.59C67.5486 127.09 67.5486 127.591 66.7981 128.091C66.0475 128.591 65.0468 128.591 64.2963 128.091C63.5458 127.591 63.5458 127.09 64.2963 126.59C65.0468 126.34 66.0475 126.34 66.7981 126.59Z" fill="#16110D"/>
<path d="M71.8006 124.589C72.7677 124.589 73.5511 124.141 73.5511 123.588C73.5511 123.035 72.7677 122.587 71.8006 122.587C70.8334 122.587 70.0488 123.035 70.0488 123.588C70.0488 124.141 70.8334 124.589 71.8006 124.589Z" fill="#16110D"/>
<path d="M78.0554 121.087C79.0226 121.087 79.806 120.639 79.806 120.086C79.806 119.533 79.0226 119.085 78.0554 119.085C77.0883 119.085 76.3037 119.533 76.3037 120.086C76.3037 120.639 77.0883 121.087 78.0554 121.087Z" fill="#16110D"/>
<path d="M84.5603 117.334C85.5275 117.334 86.3108 116.886 86.3108 116.333C86.3108 115.78 85.5275 115.332 84.5603 115.332C83.5931 115.332 82.8086 115.78 82.8086 116.333C82.8086 116.886 83.5931 117.334 84.5603 117.334Z" fill="#16110D"/>
<path d="M92.0657 112.08C92.8162 112.58 92.8162 113.08 92.0657 113.581C91.3151 114.081 90.3144 114.081 89.5639 113.581C88.8133 113.08 88.8133 112.58 89.5639 112.08C90.3144 111.579 91.3151 111.579 92.0657 112.08Z" fill="#16110D"/>
<path d="M98.3196 108.328C99.0701 108.828 99.0701 109.328 98.3196 109.829C97.569 110.329 96.5683 110.329 95.8178 109.829C95.0672 109.328 95.0672 108.828 95.8178 108.328C96.5683 108.077 97.569 108.077 98.3196 108.328Z" fill="#16110D"/>
<path d="M104.574 104.575C105.325 105.075 105.325 105.576 104.574 106.076C103.824 106.576 102.823 106.576 102.073 106.076C101.322 105.576 101.322 105.075 102.073 104.575C102.823 104.325 104.074 104.325 104.574 104.575Z" fill="#16110D"/>
<path d="M9.75609 152.109C10.5066 152.609 10.5066 153.109 9.75609 153.61C9.00555 154.11 8.00484 154.11 7.25431 153.61C6.50377 153.109 6.50377 152.609 7.25431 152.109C8.00484 151.858 9.00555 151.858 9.75609 152.109Z" fill="#16110D"/>
<path d="M16.01 148.606C16.7605 149.106 16.7605 149.606 16.01 150.107C15.2595 150.607 14.2587 150.607 13.5082 150.107C12.7577 149.606 12.7577 149.106 13.5082 148.606C14.2587 148.105 15.2595 148.105 16.01 148.606Z" fill="#16110D"/>
<path d="M41.2795 133.845C42.03 134.345 42.03 134.846 41.2795 135.346C40.529 135.846 39.5282 135.846 38.7777 135.346C38.2773 134.846 40.7791 133.595 41.2795 133.845Z" fill="#16110D"/>
<path d="M46.534 132.094C47.5011 132.094 48.2857 131.646 48.2857 131.093C48.2857 130.541 47.5011 130.093 46.534 130.093C45.5668 130.093 44.7822 130.541 44.7822 131.093C44.7822 131.646 45.5668 132.094 46.534 132.094Z" fill="#16110D"/>
<path d="M54.0383 126.59C54.7888 127.09 54.7888 127.59 54.0383 128.091C53.2878 128.591 52.2871 128.591 51.5365 128.091C50.786 127.59 50.786 127.09 51.5365 126.59C52.2871 126.34 53.2878 126.34 54.0383 126.59Z" fill="#16110D"/>
<path d="M60.2932 123.088C61.0437 123.588 61.0437 124.089 60.2932 124.589C59.5427 125.089 58.542 125.089 57.7914 124.589C57.0409 124.089 57.0409 123.588 57.7914 123.088C58.542 122.588 59.7928 122.588 60.2932 123.088Z" fill="#16110D"/>
<path d="M66.7981 119.335C67.5486 119.835 67.5486 120.336 66.7981 120.836C66.0475 121.336 65.0468 121.336 64.2963 120.836C63.5458 120.336 63.5458 119.835 64.2963 119.335C65.0468 118.835 66.0475 118.835 66.7981 119.335Z" fill="#16110D"/>
<path d="M73.053 115.582C73.8035 116.083 73.8035 116.583 73.053 117.083C72.3024 117.584 71.3017 117.584 70.5512 117.083C69.8006 116.583 69.8006 116.083 70.5512 115.582C71.3017 115.332 72.3024 115.332 73.053 115.582Z" fill="#16110D"/>
<path d="M79.3069 112.08C80.0574 112.58 80.0574 113.08 79.3069 113.581C78.5563 114.081 77.5556 114.081 76.8051 113.581C76.0546 113.08 76.0546 112.58 76.8051 112.08C77.5556 111.579 78.5563 111.579 79.3069 112.08Z" fill="#16110D"/>
<path d="M84.5603 110.078C85.5275 110.078 86.3108 109.63 86.3108 109.078C86.3108 108.525 85.5275 108.077 84.5603 108.077C83.5931 108.077 82.8086 108.525 82.8086 109.078C82.8086 109.63 83.5931 110.078 84.5603 110.078Z" fill="#16110D"/>
<path d="M92.0657 104.575C92.8162 105.075 92.8162 105.576 92.0657 106.076C91.3151 106.576 90.3144 106.576 89.5639 106.076C88.8133 105.576 88.8133 105.075 89.5639 104.575C90.3144 104.325 91.3151 104.325 92.0657 104.575Z" fill="#16110D"/>
<path d="M97.0691 102.823C98.0363 102.823 98.8196 102.375 98.8196 101.822C98.8196 101.27 98.0363 100.822 97.0691 100.822C96.1019 100.822 95.3174 101.27 95.3174 101.822C95.3174 102.375 96.1019 102.823 97.0691 102.823Z" fill="#16110D"/>
<path d="M54.0383 119.335C54.7888 119.835 54.7888 120.336 54.0383 120.836C53.2878 121.336 52.2871 121.336 51.5365 120.836C50.786 120.336 50.786 119.835 51.5365 119.335C52.2871 118.835 53.2878 118.835 54.0383 119.335Z" fill="#16110D"/>
<path d="M59.0428 117.334C60.0099 117.334 60.7945 116.886 60.7945 116.333C60.7945 115.78 60.0099 115.332 59.0428 115.332C58.0756 115.332 57.291 115.78 57.291 116.333C57.291 116.886 58.0756 117.334 59.0428 117.334Z" fill="#16110D"/>
<path d="M66.7981 112.08C67.5486 112.58 67.5486 113.08 66.7981 113.581C66.0475 114.081 65.0468 114.081 64.2963 113.581C63.5458 113.08 63.5458 112.58 64.2963 112.08C65.0468 111.579 66.0475 111.579 66.7981 112.08Z" fill="#16110D"/>
<path d="M71.8006 110.078C72.7677 110.078 73.5511 109.63 73.5511 109.078C73.5511 108.525 72.7677 108.077 71.8006 108.077C70.8334 108.077 70.0488 108.525 70.0488 109.078C70.0488 109.63 70.8334 110.078 71.8006 110.078Z" fill="#16110D"/>
<path d="M78.0554 106.326C79.0226 106.326 79.806 105.878 79.806 105.325C79.806 104.772 79.0226 104.324 78.0554 104.324C77.0883 104.324 76.3037 104.772 76.3037 105.325C76.3037 105.878 77.0883 106.326 78.0554 106.326Z" fill="#16110D"/>
<path d="M85.5618 101.072C86.3123 101.572 86.3123 102.073 85.5618 102.573C84.8112 103.073 83.8105 103.073 83.06 102.573C82.3094 102.073 82.3094 101.572 83.06 101.072C83.8105 100.572 85.0614 100.572 85.5618 101.072Z" fill="#16110D"/>
<path d="M92.0657 97.3192C92.8162 97.8196 92.8162 98.32 92.0657 98.8203C91.3151 99.3207 90.3144 99.3207 89.5639 98.8203C88.8133 98.32 88.8133 97.8196 89.5639 97.3192C90.3144 97.069 91.3151 97.069 92.0657 97.3192Z" fill="#16110D"/>
<path d="M40.0288 121.086C40.996 121.086 41.7806 120.638 41.7806 120.086C41.7806 119.533 40.996 119.085 40.0288 119.085C39.0616 119.085 38.2783 119.533 38.2783 120.086C38.2783 120.638 39.0616 121.086 40.0288 121.086Z" fill="#16110D"/>
<path d="M47.7844 115.582C48.5349 116.083 48.5349 116.583 47.7844 117.083C47.0339 117.584 46.0332 117.584 45.2826 117.083C44.5321 116.583 44.5321 116.083 45.2826 115.582C46.0332 115.332 47.0339 115.332 47.7844 115.582Z" fill="#16110D"/>
<path d="M54.0383 112.08C54.7888 112.58 54.7888 113.08 54.0383 113.581C53.2878 114.081 52.2871 114.081 51.5365 113.581C50.786 113.08 50.786 112.58 51.5365 112.08C52.2871 111.579 53.2878 111.579 54.0383 112.08Z" fill="#16110D"/>
<path d="M60.2932 108.328C61.0437 108.828 61.0437 109.328 60.2932 109.829C59.5427 110.329 58.542 110.329 57.7914 109.829C57.0409 109.328 57.0409 108.828 57.7914 108.328C58.542 108.077 59.7928 108.077 60.2932 108.328Z" fill="#16110D"/>
<path d="M66.7981 104.575C67.5486 105.075 67.5486 105.576 66.7981 106.076C66.0475 106.576 65.0468 106.576 64.2963 106.076C63.5458 105.576 63.5458 105.075 64.2963 104.575C65.0468 104.325 66.0475 104.325 66.7981 104.575Z" fill="#16110D"/>
<path d="M71.8006 102.823C72.7677 102.823 73.5511 102.375 73.5511 101.822C73.5511 101.27 72.7677 100.822 71.8006 100.822C70.8334 100.822 70.0488 101.27 70.0488 101.822C70.0488 102.375 70.8334 102.823 71.8006 102.823Z" fill="#16110D"/>
<path d="M78.0554 99.0707C79.0226 99.0707 79.806 98.6227 79.806 98.07C79.806 97.5174 79.0226 97.0693 78.0554 97.0693C77.0883 97.0693 76.3037 97.5174 76.3037 98.07C76.3037 98.6227 77.0883 99.0707 78.0554 99.0707Z" fill="#16110D"/>
<path d="M84.5603 95.3181C85.5275 95.3181 86.3108 94.87 86.3108 94.3173C86.3108 93.7647 85.5275 93.3167 84.5603 93.3167C83.5931 93.3167 82.8086 93.7647 82.8086 94.3173C82.8086 94.87 83.5931 95.3181 84.5603 95.3181Z" fill="#16110D"/>
<path d="M85.5618 87.0618C86.3123 87.5621 86.3123 88.0625 85.5618 88.5629C84.8112 89.0632 83.8105 89.0632 83.06 88.5629C82.3094 88.0625 82.3094 87.5621 83.06 87.0618C83.8105 86.5614 84.8112 86.5614 85.5618 87.0618Z" fill="#16110D"/>
<path d="M91.8157 83.3095C92.5662 83.8098 92.5662 84.3102 91.8157 84.8105C91.0651 85.3109 90.0644 85.3109 89.3139 84.8105C88.5633 84.3102 88.5633 83.8098 89.3139 83.3095C90.0644 83.0593 91.0651 83.0593 91.8157 83.3095Z" fill="#16110D"/>
<path d="M96.8181 81.3076C97.7853 81.3076 98.5687 80.8596 98.5687 80.3069C98.5687 79.7542 97.7853 79.3062 96.8181 79.3062C95.851 79.3062 95.0664 79.7542 95.0664 80.3069C95.0664 80.8596 95.851 81.3076 96.8181 81.3076Z" fill="#16110D"/>
<path d="M103.324 77.8056C104.291 77.8056 105.075 77.3576 105.075 76.8049C105.075 76.2522 104.291 75.8042 103.324 75.8042C102.357 75.8042 101.572 76.2522 101.572 76.8049C101.572 77.3576 102.357 77.8056 103.324 77.8056Z" fill="#16110D"/>
<path d="M109.578 74.0527C110.545 74.0527 111.328 73.6046 111.328 73.052C111.328 72.4993 110.545 72.0513 109.578 72.0513C108.611 72.0513 107.826 72.4993 107.826 73.052C107.826 73.6046 108.611 74.0527 109.578 74.0527Z" fill="#16110D"/>
<path d="M117.084 68.7993C117.835 69.2997 117.835 69.8001 117.084 70.3004C116.334 70.8008 115.333 70.8008 114.582 70.3004C113.832 69.8001 113.832 69.2997 114.582 68.7993C115.333 68.299 116.584 68.299 117.084 68.7993Z" fill="#16110D"/>
<path d="M123.587 65.0465C124.338 65.5469 124.338 66.0472 123.587 66.5476C122.837 67.048 121.836 67.048 121.085 66.5476C120.335 66.0472 120.335 65.5469 121.085 65.0465C121.836 64.7963 122.837 64.7963 123.587 65.0465Z" fill="#16110D"/>
<path d="M129.841 61.5437C130.592 62.0441 130.592 62.5444 129.841 63.0448C129.091 63.5451 128.09 63.5451 127.339 63.0448C126.589 62.5444 126.589 62.0441 127.339 61.5437C128.09 61.0434 129.091 61.0434 129.841 61.5437Z" fill="#16110D"/>
<path d="M134.845 59.5427C135.812 59.5427 136.597 59.0947 136.597 58.542C136.597 57.9893 135.812 57.5413 134.845 57.5413C133.878 57.5413 133.095 57.9893 133.095 58.542C133.095 59.0947 133.878 59.5427 134.845 59.5427Z" fill="#16110D"/>
<path d="M141.351 55.79C142.318 55.79 143.103 55.342 143.103 54.7893C143.103 54.2366 142.318 53.7886 141.351 53.7886C140.384 53.7886 139.601 54.2366 139.601 54.7893C139.601 55.342 140.384 55.79 141.351 55.79Z" fill="#16110D"/>
<path d="M148.856 50.5362C149.606 51.0365 149.606 51.5369 148.856 52.0372C148.105 52.5376 147.104 52.5376 146.354 52.0372C145.603 51.5369 145.603 51.0365 146.354 50.5362C147.104 50.0358 148.105 50.0358 148.856 50.5362Z" fill="#16110D"/>
<path d="M155.111 46.7833C155.861 47.2837 155.861 47.7841 155.111 48.2844C154.36 48.7848 153.359 48.7848 152.609 48.2844C151.858 47.7841 151.858 47.2837 152.609 46.7833C153.359 46.5332 154.36 46.5332 155.111 46.7833Z" fill="#16110D"/>
<path d="M76.8051 83.3091C77.5556 82.8087 78.5563 82.8087 79.3069 83.3091C80.0574 83.8095 80.0574 84.3098 79.3069 84.8102C78.5563 85.3105 77.5556 85.3105 76.8051 84.8102C76.0546 84.3098 76.0546 83.8095 76.8051 83.3091Z" fill="#16110D"/>
<path d="M85.5618 79.8069C86.3123 80.3073 86.3123 80.8076 85.5618 81.308C84.8112 81.8083 83.8105 81.8083 83.06 81.308C82.3094 80.8076 82.3094 80.3073 83.06 79.8069C83.8105 79.3066 84.8112 79.3066 85.5618 79.8069Z" fill="#16110D"/>
<path d="M91.8157 76.0542C92.5662 76.5546 92.5662 77.0549 91.8157 77.5553C91.0651 78.0556 90.0644 78.0556 89.3139 77.5553C88.5633 77.0549 88.5633 76.5546 89.3139 76.0542C90.0644 75.5539 91.0651 75.5539 91.8157 76.0542Z" fill="#16110D"/>
<path d="M96.8181 74.0527C97.7853 74.0527 98.5687 73.6046 98.5687 73.052C98.5687 72.4993 97.7853 72.0513 96.8181 72.0513C95.851 72.0513 95.0664 72.4993 95.0664 73.052C95.0664 73.6046 95.851 74.0527 96.8181 74.0527Z" fill="#16110D"/>
<path d="M103.324 70.55C104.291 70.55 105.075 70.102 105.075 69.5493C105.075 68.9966 104.291 68.5486 103.324 68.5486C102.357 68.5486 101.572 68.9966 101.572 69.5493C101.572 70.102 102.357 70.55 103.324 70.55Z" fill="#16110D"/>
<path d="M110.828 65.0465C111.579 65.5469 111.579 66.0472 110.828 66.5476C110.078 67.048 109.077 67.048 108.327 66.5476C107.576 66.0472 107.576 65.5469 108.327 65.0465C109.077 64.7963 110.078 64.7963 110.828 65.0465Z" fill="#16110D"/>
<path d="M117.084 61.5437C117.835 62.0441 117.835 62.5444 117.084 63.0448C116.334 63.5451 115.333 63.5451 114.582 63.0448C113.832 62.5444 113.832 62.0441 114.582 61.5437C115.333 61.0434 116.584 61.0434 117.084 61.5437Z" fill="#16110D"/>
<path d="M123.587 57.791C124.338 58.2914 124.338 58.7917 123.587 59.2921C122.837 59.7924 121.836 59.7924 121.085 59.2921C120.335 58.7917 120.335 58.2914 121.085 57.791C121.836 57.2907 122.837 57.2907 123.587 57.791Z" fill="#16110D"/>
<path d="M129.841 54.0382C130.592 54.5386 130.592 55.0389 129.841 55.5393C129.091 56.0396 128.09 56.0396 127.339 55.5393C126.589 55.0389 126.589 54.5386 127.339 54.0382C128.09 53.788 129.091 53.788 129.841 54.0382Z" fill="#16110D"/>
<path d="M136.096 50.5362C136.846 51.0365 136.846 51.5369 136.096 52.0372C135.345 52.5376 134.345 52.5376 133.594 52.0372C132.844 51.5369 132.844 51.0365 133.594 50.5362C134.345 50.0358 135.596 50.0358 136.096 50.5362Z" fill="#16110D"/>
<path d="M141.351 48.5346C142.318 48.5346 143.103 48.0866 143.103 47.5339C143.103 46.9812 142.318 46.5332 141.351 46.5332C140.384 46.5332 139.601 46.9812 139.601 47.5339C139.601 48.0866 140.384 48.5346 141.351 48.5346Z" fill="#16110D"/>
<path d="M148.856 43.0307C149.606 43.531 149.606 44.0314 148.856 44.5317C148.105 45.0321 147.104 45.0321 146.354 44.5317C145.603 44.0314 145.603 43.531 146.354 43.0307C147.104 42.7805 148.105 42.7805 148.856 43.0307Z" fill="#16110D"/>
<path d="M70.301 79.8069C71.0516 79.3066 72.0523 79.3066 72.8028 79.8069C73.5534 80.3073 73.5534 80.8076 72.8028 81.308C72.0523 81.8083 71.0516 81.8083 70.301 81.308C69.8007 80.8076 69.8007 80.0571 70.301 79.8069Z" fill="#16110D"/>
<path d="M79.0559 76.0542C79.8064 76.5546 79.8064 77.0549 79.0559 77.5553C78.3054 78.0556 77.3046 78.0556 76.5541 77.5553C75.8036 77.0549 75.8036 76.5546 76.5541 76.0542C77.3046 75.5539 78.5555 75.5539 79.0559 76.0542Z" fill="#16110D"/>
<path d="M85.5618 72.3014C86.3123 72.8018 86.3123 73.3021 85.5618 73.8024C84.8112 74.3028 83.8105 74.3028 83.06 73.8024C82.3094 73.3021 82.3094 72.8018 83.06 72.3014C83.8105 72.0512 84.8112 72.0512 85.5618 72.3014Z" fill="#16110D"/>
<path d="M91.8157 68.7993C92.5662 69.2997 92.5662 69.8001 91.8157 70.3004C91.0651 70.8008 90.0644 70.8008 89.3139 70.3004C88.5633 69.8001 88.5633 69.2997 89.3139 68.7993C90.0644 68.299 91.0651 68.299 91.8157 68.7993Z" fill="#16110D"/>
<path d="M98.0705 65.0465C98.8211 65.5469 98.8211 66.0472 98.0705 66.5476C97.32 67.048 96.3193 67.048 95.5688 66.5476C94.8182 66.0472 94.8182 65.5469 95.5688 65.0465C96.3193 64.7963 97.5702 64.7963 98.0705 65.0465Z" fill="#16110D"/>
<path d="M104.574 61.5437C105.325 62.0441 105.325 62.5444 104.574 63.0448C103.824 63.5451 102.823 63.5451 102.073 63.0448C101.322 62.5444 101.322 62.0441 102.073 61.5437C102.823 61.0434 103.824 61.0434 104.574 61.5437Z" fill="#16110D"/>
<path d="M110.828 57.791C111.579 58.2914 111.579 58.7917 110.828 59.2921C110.078 59.7924 109.077 59.7924 108.327 59.2921C107.576 58.7917 107.576 58.2914 108.327 57.791C109.077 57.2907 110.078 57.2907 110.828 57.791Z" fill="#16110D"/>
<path d="M117.084 54.0382C117.835 54.5386 117.835 55.0389 117.084 55.5393C116.334 56.0396 115.333 56.0396 114.582 55.5393C113.832 55.0389 113.832 54.5386 114.582 54.0382C115.333 53.788 116.584 53.788 117.084 54.0382Z" fill="#16110D"/>
<path d="M123.587 50.5362C124.338 51.0365 124.338 51.5369 123.587 52.0372C122.837 52.5376 121.836 52.5376 121.085 52.0372C120.335 51.5369 120.335 51.0365 121.085 50.5362C121.836 50.0358 122.837 50.0358 123.587 50.5362Z" fill="#16110D"/>
<path d="M128.591 48.5349C129.559 48.5349 130.343 48.0868 130.343 47.5341C130.343 46.9815 129.559 46.5334 128.591 46.5334C127.624 46.5334 126.841 46.9815 126.841 47.5341C126.841 48.0868 127.624 48.5349 128.591 48.5349Z" fill="#16110D"/>
<path d="M134.845 44.7819C135.812 44.7819 136.597 44.3339 136.597 43.7812C136.597 43.2285 135.812 42.7805 134.845 42.7805C133.878 42.7805 133.095 43.2285 133.095 43.7812C133.095 44.3339 133.878 44.7819 134.845 44.7819Z" fill="#16110D"/>
<path d="M141.351 41.2795C142.318 41.2795 143.103 40.8315 143.103 40.2788C143.103 39.7261 142.318 39.2781 141.351 39.2781C140.384 39.2781 139.601 39.7261 139.601 40.2788C139.601 40.8315 140.384 41.2795 141.351 41.2795Z" fill="#16110D"/>
<path d="M64.0453 76.0542C64.7959 75.5539 65.7966 75.5539 66.5471 76.0542C67.2976 76.5546 67.2976 77.0549 66.5471 77.5553C65.7966 78.0556 64.7959 78.0556 64.0453 77.5553C63.2948 77.0549 63.2948 76.5546 64.0453 76.0542Z" fill="#16110D"/>
<path d="M72.802 72.3014C73.5525 72.8018 73.5525 73.3021 72.802 73.8024C72.0515 74.3028 71.0507 74.3028 70.3002 73.8024C69.5497 73.3021 69.5497 72.8018 70.3002 72.3014C71.0507 72.0512 72.0515 72.0512 72.802 72.3014Z" fill="#16110D"/>
<path d="M79.0559 68.7993C79.8064 69.2997 79.8064 69.8001 79.0559 70.3004C78.3054 70.8008 77.3046 70.8008 76.5541 70.3004C75.8036 69.8001 75.8036 69.2997 76.5541 68.7993C77.3046 68.299 78.5555 68.299 79.0559 68.7993Z" fill="#16110D"/>
<path d="M85.5618 65.0465C86.3123 65.5469 86.3123 66.0472 85.5618 66.5476C84.8112 67.048 83.8105 67.048 83.06 66.5476C82.3094 66.0472 82.3094 65.5469 83.06 65.0465C83.8105 64.7963 84.8112 64.7963 85.5618 65.0465Z" fill="#16110D"/>
<path d="M90.5652 63.0446C91.5324 63.0446 92.3157 62.5966 92.3157 62.0439C92.3157 61.4912 91.5324 61.0432 90.5652 61.0432C89.598 61.0432 88.8135 61.4912 88.8135 62.0439C88.8135 62.5966 89.598 63.0446 90.5652 63.0446Z" fill="#16110D"/>
<path d="M96.8181 59.5427C97.7853 59.5427 98.5687 59.0947 98.5687 58.542C98.5687 57.9893 97.7853 57.5413 96.8181 57.5413C95.851 57.5413 95.0664 57.9893 95.0664 58.542C95.0664 59.0947 95.851 59.5427 96.8181 59.5427Z" fill="#16110D"/>
<path d="M103.324 55.7898C104.291 55.7898 105.075 55.3417 105.075 54.7891C105.075 54.2364 104.291 53.7883 103.324 53.7883C102.357 53.7883 101.572 54.2364 101.572 54.7891C101.572 55.3417 102.357 55.7898 103.324 55.7898Z" fill="#16110D"/>
<path d="M110.828 50.5362C111.579 51.0365 111.579 51.5369 110.828 52.0372C110.078 52.5376 109.077 52.5376 108.327 52.0372C107.576 51.5369 107.576 51.0365 108.327 50.5362C109.077 50.0358 110.078 50.0358 110.828 50.5362Z" fill="#16110D"/>
<path d="M115.834 48.5349C116.801 48.5349 117.584 48.0868 117.584 47.5341C117.584 46.9815 116.801 46.5334 115.834 46.5334C114.867 46.5334 114.082 46.9815 114.082 47.5341C114.082 48.0868 114.867 48.5349 115.834 48.5349Z" fill="#16110D"/>
<path d="M123.587 43.2805C124.338 43.7809 124.338 44.2813 123.587 44.7816C122.837 45.282 121.836 45.282 121.085 44.7816C120.335 44.2813 120.335 43.7809 121.085 43.2805C121.836 42.7802 122.837 42.7802 123.587 43.2805Z" fill="#16110D"/>
<path d="M129.841 39.5279C130.592 40.0282 130.592 40.5286 129.841 41.0289C129.091 41.5293 128.09 41.5293 127.339 41.0289C126.589 40.5286 126.589 40.0282 127.339 39.5279C128.09 39.0275 129.091 39.0275 129.841 39.5279Z" fill="#16110D"/>
<path d="M136.096 35.7758C136.846 36.2761 136.846 36.7765 136.096 37.2769C135.345 37.7772 134.345 37.7772 133.594 37.2769C132.844 36.7765 132.844 36.2761 133.594 35.7758C134.345 35.5256 135.596 35.5256 136.096 35.7758Z" fill="#16110D"/>
<path d="M57.7914 72.3015C58.542 71.8012 59.5427 71.8012 60.2932 72.3015C61.0437 72.8019 61.0437 73.3022 60.2932 73.8026C59.5427 74.3029 58.542 74.3029 57.7914 73.8026C57.0409 73.3022 57.0409 72.8019 57.7914 72.3015Z" fill="#16110D"/>
<path d="M65.2967 70.55C66.2638 70.55 67.0484 70.102 67.0484 69.5493C67.0484 68.9966 66.2638 68.5486 65.2967 68.5486C64.3295 68.5486 63.5449 68.9966 63.5449 69.5493C63.5449 70.102 64.3295 70.55 65.2967 70.55Z" fill="#16110D"/>
<path d="M72.802 65.0465C73.5525 65.5469 73.5525 66.0472 72.802 66.5476C72.0515 67.048 71.0507 67.048 70.3002 66.5476C69.5497 66.0472 69.5497 65.5469 70.3002 65.0465C71.0507 64.7963 72.0515 64.7963 72.802 65.0465Z" fill="#16110D"/>
<path d="M78.0554 63.0446C79.0226 63.0446 79.806 62.5966 79.806 62.0439C79.806 61.4912 79.0226 61.0432 78.0554 61.0432C77.0883 61.0432 76.3037 61.4912 76.3037 62.0439C76.3037 62.5966 77.0883 63.0446 78.0554 63.0446Z" fill="#16110D"/>
<path d="M85.5618 57.791C86.3123 58.2914 86.3123 58.7917 85.5618 59.2921C84.8112 59.7924 83.8105 59.7924 83.06 59.2921C82.3094 58.7917 82.3094 58.2914 83.06 57.791C83.8105 57.2907 84.8112 57.2907 85.5618 57.791Z" fill="#16110D"/>
<path d="M91.8157 54.0382C92.5662 54.5386 92.5662 55.0389 91.8157 55.5393C91.0651 56.0396 90.0644 56.0396 89.3139 55.5393C88.5633 55.0389 88.5633 54.5386 89.3139 54.0382C90.0644 53.788 91.0651 53.788 91.8157 54.0382Z" fill="#16110D"/>
<path d="M98.0705 50.5362C98.8211 51.0365 98.8211 51.5369 98.0705 52.0372C97.32 52.5376 96.3193 52.5376 95.5688 52.0372C94.8182 51.5369 94.8182 51.0365 95.5688 50.5362C96.3193 50.0358 97.5702 50.0358 98.0705 50.5362Z" fill="#16110D"/>
<path d="M103.324 48.5349C104.291 48.5349 105.075 48.0868 105.075 47.5341C105.075 46.9815 104.291 46.5334 103.324 46.5334C102.357 46.5334 101.572 46.9815 101.572 47.5341C101.572 48.0868 102.357 48.5349 103.324 48.5349Z" fill="#16110D"/>
<path d="M110.828 43.2805C111.579 43.7809 111.579 44.2813 110.828 44.7816C110.078 45.282 109.077 45.282 108.327 44.7816C107.576 44.2813 107.576 43.7809 108.327 43.2805C109.077 42.7802 110.078 42.7802 110.828 43.2805Z" fill="#16110D"/>
<path d="M115.834 41.2793C116.801 41.2793 117.584 40.8312 117.584 40.2786C117.584 39.7259 116.801 39.2778 115.834 39.2778C114.867 39.2778 114.082 39.7259 114.082 40.2786C114.082 40.8312 114.867 41.2793 115.834 41.2793Z" fill="#16110D"/>
<path d="M123.587 35.7758C124.338 36.2761 124.338 36.7765 123.587 37.2769C122.837 37.7772 121.836 37.7772 121.085 37.2769C120.335 36.7765 120.335 36.2761 121.085 35.7758C121.836 35.5256 122.837 35.5256 123.587 35.7758Z" fill="#16110D"/>
<path d="M129.841 32.273C130.592 32.7733 130.592 33.2737 129.841 33.774C129.091 34.2744 128.09 34.2744 127.339 33.774C126.589 33.2737 126.589 32.7733 127.339 32.273C128.09 31.7726 129.091 31.7726 129.841 32.273C130.592 32.5232 129.091 31.7726 129.841 32.273Z" fill="#16110D"/>
<path d="M53.7875 68.7989C54.538 69.2993 54.538 69.7997 53.7875 70.3C53.0369 70.8004 52.0362 70.8004 51.2857 70.3C50.7853 69.7997 53.0369 68.2986 53.7875 68.7989Z" fill="#16110D"/>
<path d="M57.7914 65.0467C58.542 64.5463 59.5427 64.5463 60.2932 65.0467C61.0437 65.547 61.0437 66.0474 60.2932 66.5477C59.5427 67.0481 58.542 67.0481 57.7914 66.5477C57.0409 66.0474 57.0409 65.547 57.7914 65.0467C58.2918 64.5463 57.0409 65.547 57.7914 65.0467Z" fill="#16110D"/>
<path d="M64.0453 61.294C64.7959 60.7936 65.7966 60.7936 66.5471 61.294C67.2976 61.7943 67.2976 62.2947 66.5471 62.7951C65.7966 63.2954 64.7959 63.2954 64.0453 62.7951C63.2948 62.2947 63.2948 61.7943 64.0453 61.294C64.7959 61.0438 63.2948 61.7943 64.0453 61.294Z" fill="#16110D"/>
<path d="M72.802 57.791C73.5525 58.2914 73.5525 58.7917 72.802 59.2921C72.0515 59.7924 71.0507 59.7924 70.3002 59.2921C69.5497 58.7917 69.5497 58.2914 70.3002 57.791C71.0507 57.2907 72.0515 57.2907 72.802 57.791Z" fill="#16110D"/>
<path d="M79.0559 54.0382C79.8064 54.5386 79.8064 55.0389 79.0559 55.5393C78.3054 56.0396 77.3046 56.0396 76.5541 55.5393C75.8036 55.0389 75.8036 54.5386 76.5541 54.0382C77.3046 53.788 78.3054 53.788 79.0559 54.0382Z" fill="#16110D"/>
<path d="M85.3108 50.5362C86.0613 51.0365 86.0613 51.5369 85.3108 52.0372C84.5602 52.5376 83.5595 52.5376 82.809 52.0372C82.0585 51.5369 82.0585 51.0365 82.809 50.5362C83.5595 50.0358 84.8104 50.0358 85.3108 50.5362Z" fill="#16110D"/>
<path d="M91.8157 46.7835C92.5662 47.2838 92.5662 47.7842 91.8157 48.2846C91.0651 48.7849 90.0644 48.7849 89.3139 48.2846C88.5633 47.7842 88.5633 47.2838 89.3139 46.7835C90.0644 46.2831 91.0651 46.2831 91.8157 46.7835Z" fill="#16110D"/>
<path d="M96.8181 44.7819C97.7853 44.7819 98.5687 44.3339 98.5687 43.7812C98.5687 43.2285 97.7853 42.7805 96.8181 42.7805C95.851 42.7805 95.0664 43.2285 95.0664 43.7812C95.0664 44.3339 95.851 44.7819 96.8181 44.7819Z" fill="#16110D"/>
<path d="M103.324 41.2793C104.291 41.2793 105.075 40.8312 105.075 40.2786C105.075 39.7259 104.291 39.2778 103.324 39.2778C102.357 39.2778 101.572 39.7259 101.572 40.2786C101.572 40.8312 102.357 41.2793 103.324 41.2793Z" fill="#16110D"/>
<path d="M108.327 35.7754C109.077 35.2751 110.078 35.2751 110.828 35.7754C111.579 36.2758 111.579 36.7761 110.828 37.2765C110.078 37.7769 109.077 37.7769 108.327 37.2765C107.576 36.7761 107.576 36.2758 108.327 35.7754C109.077 35.5252 107.576 36.2758 108.327 35.7754Z" fill="#16110D"/>
<path d="M117.083 32.2733C117.834 32.7737 117.834 33.274 117.083 33.7744C116.333 34.2747 115.332 34.2747 114.582 33.7744C114.081 33.274 116.333 31.773 117.083 32.2733Z" fill="#16110D"/>
<path d="M108.577 101.072C109.328 100.572 110.328 100.572 111.079 101.072C111.83 101.572 111.83 102.073 111.079 102.573C110.328 103.073 109.328 103.073 108.577 102.573C107.827 102.073 108.077 101.572 108.577 101.072Z" fill="#16110D"/>
<path d="M102.322 97.3196C103.072 96.8192 104.073 96.8192 104.823 97.3196C105.574 97.82 105.574 98.3203 104.823 98.8207C104.073 99.321 103.072 99.321 102.322 98.8207C101.571 98.3203 101.571 97.82 102.322 97.3196Z" fill="#16110D"/>
<path d="M111.078 93.8169C111.829 94.3173 111.829 94.8176 111.078 95.318C110.328 95.8184 109.327 95.8184 108.577 95.318C107.826 94.8176 107.826 94.3173 108.577 93.8169C109.327 93.3166 110.328 93.3166 111.078 93.8169Z" fill="#16110D"/>
<path d="M96.0678 93.8169C96.8183 93.3166 97.819 93.3166 98.5696 93.8169C99.3201 94.3173 99.3201 94.8176 98.5696 95.318C97.819 95.8184 96.8183 95.8184 96.0678 95.318C95.3172 94.8176 95.3172 94.0671 96.0678 93.8169Z" fill="#16110D"/>
<path d="M104.823 90.0641C105.574 90.5645 105.574 91.0648 104.823 91.5652C104.073 92.0655 103.072 92.0655 102.322 91.5652C101.571 91.0648 101.571 90.5645 102.322 90.0641C103.072 89.8139 104.073 89.8139 104.823 90.0641Z" fill="#16110D"/>
<path d="M111.078 86.5615C111.829 87.0619 111.829 87.5622 111.078 88.0626C110.328 88.5629 109.327 88.5629 108.577 88.0626C107.826 87.5622 107.826 87.0619 108.577 86.5615C109.327 86.0612 110.328 86.0612 111.078 86.5615Z" fill="#16110D"/>
<path d="M89.5647 90.0645C90.3153 89.5641 91.316 89.5641 92.0665 90.0645C92.817 90.5648 92.817 91.0652 92.0665 91.5656C91.316 92.0659 90.3153 92.0659 89.5647 91.5656C89.0644 91.0652 89.0644 90.5648 89.5647 90.0645Z" fill="#16110D"/>
<path d="M98.3196 86.5615C99.0701 87.0619 99.0701 87.5622 98.3196 88.0626C97.569 88.5629 96.5683 88.5629 95.8178 88.0626C95.0672 87.5622 95.0672 87.0619 95.8178 86.5615C96.5683 86.0612 97.8192 86.0612 98.3196 86.5615Z" fill="#16110D"/>
<path d="M104.823 82.8091C105.574 83.3095 105.574 83.8098 104.823 84.3102C104.073 84.8105 103.072 84.8105 102.322 84.3102C101.571 83.8098 101.571 83.3095 102.322 82.8091C103.072 82.3087 104.073 82.3087 104.823 82.8091Z" fill="#16110D"/>
<path d="M111.078 79.056C111.829 79.5564 111.829 80.0567 111.078 80.5571C110.328 81.0574 109.327 81.0574 108.577 80.5571C107.826 80.0567 107.826 79.5564 108.577 79.056C109.327 78.8059 110.328 78.8059 111.078 79.056Z" fill="#16110D"/>
<path d="M117.332 76.8045C116.582 77.3049 115.581 77.3049 114.83 76.8045C114.08 76.3042 114.08 75.8038 114.83 75.3035C115.581 74.8031 116.582 74.8031 117.332 75.3035C118.083 75.8038 118.083 76.5544 117.332 76.8045C116.832 77.3049 118.083 76.5544 117.332 76.8045Z" fill="#16110D"/>
<path d="M123.838 71.8014C124.589 72.3018 124.589 72.8021 123.838 73.3025C123.088 73.8028 122.087 73.8028 121.336 73.3025C120.586 72.8021 120.586 72.3018 121.336 71.8014C122.087 71.5512 123.088 71.5512 123.838 71.8014Z" fill="#16110D"/>
<path d="M128.842 69.8C129.809 69.8 130.594 69.352 130.594 68.7993C130.594 68.2466 129.809 67.7986 128.842 67.7986C127.875 67.7986 127.092 68.2466 127.092 68.7993C127.092 69.352 127.875 69.8 128.842 69.8Z" fill="#16110D"/>
<path d="M135.096 66.2971C136.063 66.2971 136.848 65.8491 136.848 65.2964C136.848 64.7437 136.063 64.2957 135.096 64.2957C134.129 64.2957 133.346 64.7437 133.346 65.2964C133.346 65.8491 134.129 66.2971 135.096 66.2971Z" fill="#16110D"/>
<path d="M141.6 62.5446C142.568 62.5446 143.352 62.0966 143.352 61.5439C143.352 60.9913 142.568 60.5432 141.6 60.5432C140.633 60.5432 139.849 60.9913 139.849 61.5439C139.849 62.0966 140.633 62.5446 141.6 62.5446Z" fill="#16110D"/>
<path d="M149.107 57.291C149.857 57.7914 149.857 58.2917 149.107 58.7921C148.356 59.2924 147.355 59.2924 146.605 58.7921C145.854 58.2917 145.854 57.7914 146.605 57.291C147.355 56.7907 148.356 56.7907 149.107 57.291Z" fill="#16110D"/>
<path d="M155.36 53.5384C156.11 54.0387 156.11 54.539 155.36 55.0394C154.609 55.5398 153.608 55.5398 152.858 55.0394C152.107 54.539 152.107 54.0387 152.858 53.5384C153.608 53.038 154.609 53.038 155.36 53.5384Z" fill="#16110D"/>
<path d="M98.5713 37.7772V19.7644L122.839 33.7744V51.7872L98.5713 37.7772Z" fill="#36A9E1"/>
<path d="M98.5713 19.7642L120.588 7.00513L145.105 21.0151L122.839 33.7742L98.5713 19.7642Z" fill="#36A9E1"/>
<path d="M98.8203 25.7684L120.586 13.0093L145.103 27.0193L122.587 39.278L98.8203 25.7684Z" fill="white"/>
<path d="M120.587 5.75415L97.3193 19.0136V38.2773L122.588 52.7876L145.855 39.5282V20.2645L120.587 5.75415ZM121.838 50.0357L99.5719 37.2766V21.5154L121.838 34.2744V50.0357ZM100.572 19.7641L120.587 8.25593L142.852 21.015L122.838 32.5232L100.572 19.7641Z" fill="#16110D"/>
<path d="M66.5459 56.5403V14.01L90.8137 28.02V70.5502L66.5459 56.5403Z" fill="#36A9E1"/>
<path d="M66.5459 14.0098L88.8115 1.25073L113.079 15.2607L90.8137 28.0198L66.5459 14.0098Z" fill="#36A9E1"/>
<path d="M67.0479 20.0139L88.8126 7.25488L113.08 21.2648L90.8148 33.5236L67.0479 20.0139Z" fill="white"/>
<path d="M88.8129 0L65.5469 13.2594V57.0406L90.8151 71.5509L114.081 58.2915V14.5103L88.8129 0ZM89.8134 68.799L67.5478 56.0399V15.7612L89.8134 28.5203V68.799ZM68.7987 14.01L88.8129 2.50178L111.079 15.2609L91.0643 26.769L68.7987 14.01Z" fill="#16110D"/>
<path d="M35.0254 74.3034V49.0354L59.2931 63.0453V88.3133L35.0254 74.3034Z" fill="#36A9E1"/>
<path d="M35.0254 48.7848L57.0418 36.2759L81.3083 50.2859L59.2931 63.0449L35.0254 48.7848Z" fill="#36A9E1"/>
<path d="M35.2754 54.7889L57.0414 42.28L81.3079 56.29L59.0423 68.5487L35.2754 54.7889Z" fill="white"/>
<path d="M57.0417 35.0249L33.7744 48.2843V74.8032L59.0426 89.3135L82.3087 76.0541V49.5352L57.0417 35.0249ZM58.2926 86.5616L36.0258 73.8025V50.7861L58.2926 63.5452V86.5616ZM37.0275 48.7847L57.0417 37.2765L79.3073 50.0356L59.2931 61.5438L37.0275 48.7847Z" fill="#16110D"/>
<path d="M3.00293 92.3159V81.0579L27.2695 95.0678V106.326L3.00293 92.3159Z" fill="#36A9E1"/>
<path d="M3.00293 81.0577L25.0181 68.2986L49.2859 82.3086L27.2695 95.0676L3.00293 81.0577Z" fill="#36A9E1"/>
<path d="M3.25391 87.0618L25.0187 74.3027L49.2864 88.5629L27.0208 100.571L3.25391 87.0618Z" fill="white"/>
<path d="M25.018 67.0479L1.75195 80.3073V92.8162L27.0202 107.327L50.2862 94.0671V81.5582L25.018 67.0479ZM26.2689 104.575L4.00331 91.8155V82.8091L26.2689 95.5681V104.575ZM5.00378 81.0578L25.018 69.5496L47.2836 82.3087L27.2694 93.8169L5.00378 81.0578Z" fill="#16110D"/>
<path d="M74.0547 111.58V69.0493L98.3224 83.0593V125.59L74.0547 111.58Z" fill="#36A9E1"/>
<path d="M74.0547 69.0489L96.0699 56.2898L120.338 70.2998L98.3224 83.0588L74.0547 69.0489Z" fill="#36A9E1"/>
<path d="M74.3047 75.0533L96.0694 62.5444L120.337 76.5544L98.0716 88.8131L74.3047 75.0533Z" fill="white"/>
<path d="M96.0688 55.2893L72.8027 68.5487V112.33L98.071 126.84L121.337 113.581V69.7996L96.0688 55.2893ZM97.3197 123.838L75.0541 111.079V70.8003L97.3197 83.5594V123.838ZM76.0546 69.0491L96.0688 57.5409L118.336 70.3L98.3214 81.8082L76.0546 69.0491Z" fill="#16110D"/>
<path d="M42.2812 129.342V104.074L66.549 118.084V143.352L42.2812 129.342Z" fill="#36A9E1"/>
<path d="M42.2812 104.074L64.2976 91.3147L88.5642 105.325L66.549 118.084L42.2812 104.074Z" fill="#36A9E1"/>
<path d="M42.5322 110.078L64.2982 97.5693L88.5647 111.579L66.2991 123.588L42.5322 110.078Z" fill="white"/>
<path d="M64.2976 90.064L41.0303 103.323V129.842L66.2985 144.353L89.5658 131.093V104.574L64.2976 90.064ZM65.5485 141.601L43.2829 128.842V105.825L65.5485 118.584V141.601ZM44.2833 104.074L64.2976 92.5657L86.5632 105.325L66.5489 116.833L44.2833 104.074Z" fill="#16110D"/>
<path d="M10.2588 147.355V136.097L34.5265 150.107V161.365L10.2588 147.355Z" fill="#36A9E1"/>
<path d="M10.2588 136.097L32.274 123.338L56.5417 137.348L34.5265 150.107L10.2588 136.097Z" fill="#36A9E1"/>
<path d="M10.5098 142.101L32.2745 129.592L56.5423 143.602L34.2767 155.861L10.5098 142.101Z" fill="white"/>
<path d="M32.2749 122.337L9.00879 135.597V148.106L34.277 162.616L57.5431 149.357V136.848L32.2749 122.337ZM33.5257 159.614L11.2601 146.855V137.848L33.5257 150.607V159.614ZM12.2606 136.097L32.2749 124.589L54.5417 137.348L34.5274 148.856L12.2606 136.097Z" fill="#16110D"/>
</svg>
