<svg width="106" height="176" viewBox="0 0 106 176" fill="none" xmlns="http://www.w3.org/2000/svg">
<path d="M43.6375 164.829C44.6537 164.829 45.4774 164.358 45.4774 163.777C45.4774 163.196 44.6537 162.726 43.6375 162.726C42.6212 162.726 41.7969 163.196 41.7969 163.777C41.7969 164.358 42.6212 164.829 43.6375 164.829Z" fill="#16110D"/>
<path d="M50.2087 161.148C51.225 161.148 52.0487 160.677 52.0487 160.097C52.0487 159.516 51.225 159.045 50.2087 159.045C49.1925 159.045 48.3682 159.516 48.3682 160.097C48.3682 160.677 49.1925 161.148 50.2087 161.148Z" fill="#16110D"/>
<path d="M56.781 157.205C57.7973 157.205 58.621 156.734 58.621 156.154C58.621 155.573 57.7973 155.102 56.781 155.102C55.7648 155.102 54.9404 155.573 54.9404 156.154C54.9404 156.734 55.7648 157.205 56.781 157.205Z" fill="#16110D"/>
<path d="M64.9281 151.685C65.7167 152.211 65.7167 152.736 64.9281 153.262C64.1395 153.788 63.0881 153.788 62.2995 153.262C61.5109 152.736 61.5109 152.211 62.2995 151.685C63.0881 151.159 64.1395 151.159 64.9281 151.685Z" fill="#16110D"/>
<path d="M38.1176 159.308C38.9062 159.834 38.9062 160.36 38.1176 160.886C37.329 161.411 36.2775 161.411 35.4889 160.886C34.7003 160.36 34.7003 159.834 35.4889 159.308C36.2775 158.783 37.5918 158.783 38.1176 159.308Z" fill="#16110D"/>
<path d="M44.9506 155.365C45.7392 155.891 45.7392 156.417 44.9506 156.943C44.162 157.468 43.1105 157.468 42.3219 156.943C41.5333 156.417 41.5333 155.891 42.3219 155.365C43.1105 155.102 44.162 155.102 44.9506 155.365Z" fill="#16110D"/>
<path d="M51.5219 151.685C52.3105 152.211 52.3105 152.736 51.5219 153.262C50.7333 153.788 49.6818 153.788 48.8932 153.262C48.1046 152.736 48.1046 152.211 48.8932 151.685C49.6818 151.159 50.7333 151.159 51.5219 151.685Z" fill="#16110D"/>
<path d="M56.781 149.582C57.7973 149.582 58.621 149.111 58.621 148.531C58.621 147.95 57.7973 147.479 56.781 147.479C55.7648 147.479 54.9404 147.95 54.9404 148.531C54.9404 149.111 55.7648 149.582 56.781 149.582Z" fill="#16110D"/>
<path d="M30.2306 157.205C31.2468 157.205 32.0705 156.734 32.0705 156.154C32.0705 155.573 31.2468 155.102 30.2306 155.102C29.2143 155.102 28.3906 155.573 28.3906 156.154C28.3906 156.734 29.2143 157.205 30.2306 157.205Z" fill="#16110D"/>
<path d="M38.1176 151.685C38.9062 152.211 38.9062 152.736 38.1176 153.262C37.329 153.788 36.2775 153.788 35.4889 153.262C34.7003 152.736 34.7003 152.211 35.4889 151.685C36.2775 151.159 37.5918 151.159 38.1176 151.685Z" fill="#16110D"/>
<path d="M43.6375 149.582C44.6537 149.582 45.4774 149.111 45.4774 148.531C45.4774 147.95 44.6537 147.479 43.6375 147.479C42.6212 147.479 41.7969 147.95 41.7969 148.531C41.7969 149.111 42.6212 149.582 43.6375 149.582Z" fill="#16110D"/>
<path d="M50.2087 145.639C51.225 145.639 52.0487 145.168 52.0487 144.588C52.0487 144.007 51.225 143.536 50.2087 143.536C49.1925 143.536 48.3682 144.007 48.3682 144.588C48.3682 145.168 49.1925 145.639 50.2087 145.639Z" fill="#16110D"/>
<path d="M24.9731 151.685C25.7617 152.211 25.7617 152.736 24.9731 153.262C24.1845 153.788 23.133 153.788 22.3444 153.262C21.5558 152.736 21.5558 152.211 22.3444 151.685C23.133 151.159 24.1845 151.159 24.9731 151.685Z" fill="#16110D"/>
<path d="M31.5453 147.742C32.3339 148.267 32.3339 148.793 31.5453 149.319C30.7567 149.845 29.7052 149.845 28.9166 149.319C28.128 148.793 28.128 148.267 28.9166 147.742C29.7052 147.216 30.7567 147.216 31.5453 147.742Z" fill="#16110D"/>
<path d="M38.1176 143.799C38.9062 144.324 38.9062 144.85 38.1176 145.376C37.329 145.902 36.2775 145.902 35.4889 145.376C34.7003 144.85 34.7003 144.324 35.4889 143.799C36.2775 143.536 37.5918 143.536 38.1176 143.799Z" fill="#16110D"/>
<path d="M43.6375 141.959C44.6537 141.959 45.4774 141.488 45.4774 140.908C45.4774 140.327 44.6537 139.856 43.6375 139.856C42.6212 139.856 41.7969 140.327 41.7969 140.908C41.7969 141.488 42.6212 141.959 43.6375 141.959Z" fill="#16110D"/>
<path d="M17.087 149.582C18.1033 149.582 18.927 149.111 18.927 148.531C18.927 147.95 18.1033 147.479 17.087 147.479C16.0708 147.479 15.2471 147.95 15.2471 148.531C15.2471 149.111 16.0708 149.582 17.087 149.582Z" fill="#16110D"/>
<path d="M24.9731 143.799C25.7617 144.324 25.7617 144.85 24.9731 145.376C24.1845 145.902 23.133 145.902 22.3444 145.376C21.5558 144.85 21.5558 144.324 22.3444 143.799C23.133 143.536 24.1845 143.536 24.9731 143.799Z" fill="#16110D"/>
<path d="M31.5453 140.119C32.3339 140.645 32.3339 141.17 31.5453 141.696C30.7567 142.222 29.7052 142.222 28.9166 141.696C28.128 141.17 28.128 140.645 28.9166 140.119C29.7052 139.593 30.7567 139.593 31.5453 140.119Z" fill="#16110D"/>
<path d="M38.1176 136.176C38.9062 136.701 38.9062 137.227 38.1176 137.753C37.329 138.278 36.2775 138.278 35.4889 137.753C34.7003 137.227 34.7003 136.701 35.4889 136.176C36.2775 135.65 37.5918 135.913 38.1176 136.176Z" fill="#16110D"/>
<path d="M10.2521 145.639C11.2683 145.639 12.0926 145.168 12.0926 144.588C12.0926 144.007 11.2683 143.536 10.2521 143.536C9.23581 143.536 8.41211 144.007 8.41211 144.588C8.41211 145.168 9.23581 145.639 10.2521 145.639Z" fill="#16110D"/>
<path d="M18.1371 140.119C18.9257 140.645 18.9257 141.17 18.1371 141.696C17.3485 142.222 16.297 142.222 15.5084 141.696C14.7198 141.17 14.7198 140.645 15.5084 140.119C16.297 139.593 17.3485 139.593 18.1371 140.119Z" fill="#16110D"/>
<path d="M24.7094 136.176C25.498 136.702 25.498 137.227 24.7094 137.753C23.9208 138.279 22.8693 138.279 22.0807 137.753C21.2921 137.227 21.2921 136.702 22.0807 136.176C22.8693 135.65 24.1836 135.65 24.7094 136.176Z" fill="#16110D"/>
<path d="M31.5453 132.233C32.3339 132.759 32.3339 133.284 31.5453 133.81C30.7567 134.336 29.7052 134.336 28.9166 133.81C28.128 133.284 28.128 132.759 28.9166 132.233C29.7052 131.97 30.7567 131.97 31.5453 132.233Z" fill="#16110D"/>
<path d="M10.2521 138.016C11.2683 138.016 12.0926 137.545 12.0926 136.965C12.0926 136.384 11.2683 135.913 10.2521 135.913C9.23581 135.913 8.41211 136.384 8.41211 136.965C8.41211 137.545 9.23581 138.016 10.2521 138.016Z" fill="#16110D"/>
<path d="M18.1371 132.233C18.9257 132.759 18.9257 133.284 18.1371 133.81C17.3485 134.336 16.297 134.336 15.5084 133.81C14.7198 133.284 14.7198 132.759 15.5084 132.233C16.297 131.97 17.3485 131.97 18.1371 132.233Z" fill="#16110D"/>
<path d="M77.0216 175.869C78.0378 175.869 78.8615 175.398 78.8615 174.817C78.8615 174.237 78.0378 173.766 77.0216 173.766C76.0053 173.766 75.1816 174.237 75.1816 174.817C75.1816 175.398 76.0053 175.869 77.0216 175.869Z" fill="#16110D"/>
<path d="M83.8546 171.926C84.8708 171.926 85.6952 171.455 85.6952 170.874C85.6952 170.294 84.8708 169.823 83.8546 169.823C82.8383 169.823 82.0146 170.294 82.0146 170.874C82.0146 171.455 82.8383 171.926 83.8546 171.926Z" fill="#16110D"/>
<path d="M65.1918 174.029C65.9804 174.554 65.9804 175.08 65.1918 175.606C64.4032 176.132 63.3517 176.132 62.5631 175.606C61.7745 175.08 61.7745 174.554 62.5631 174.029C63.3517 173.503 64.4032 173.503 65.1918 174.029Z" fill="#16110D"/>
<path d="M71.7631 170.085C72.5517 170.611 72.5517 171.137 71.7631 171.663C70.9745 172.188 69.923 172.188 69.1344 171.663C68.3458 171.137 68.3458 170.611 69.1344 170.085C69.923 169.822 70.9745 169.822 71.7631 170.085Z" fill="#16110D"/>
<path d="M78.3354 166.406C79.124 166.932 79.124 167.457 78.3354 167.983C77.5468 168.509 76.4953 168.509 75.7067 167.983C74.9181 167.457 74.9181 166.932 75.7067 166.406C76.4953 165.88 77.5468 165.88 78.3354 166.406Z" fill="#16110D"/>
<path d="M83.8546 164.303C84.8708 164.303 85.6952 163.832 85.6952 163.251C85.6952 162.671 84.8708 162.2 83.8546 162.2C82.8383 162.2 82.0146 162.671 82.0146 163.251C82.0146 163.832 82.8383 164.303 83.8546 164.303Z" fill="#16110D"/>
<path d="M57.0421 171.926C58.0583 171.926 58.882 171.455 58.882 170.874C58.882 170.294 58.0583 169.823 57.0421 169.823C56.0258 169.823 55.2021 170.294 55.2021 170.874C55.2021 171.455 56.0258 171.926 57.0421 171.926Z" fill="#16110D"/>
<path d="M65.1918 166.406C65.9804 166.932 65.9804 167.457 65.1918 167.983C64.4032 168.509 63.3517 168.509 62.5631 167.983C61.7745 167.457 61.7745 166.932 62.5631 166.406C63.3517 165.88 64.4032 165.88 65.1918 166.406Z" fill="#16110D"/>
<path d="M70.4503 164.303C71.4665 164.303 72.2902 163.832 72.2902 163.251C72.2902 162.671 71.4665 162.2 70.4503 162.2C69.4341 162.2 68.6104 162.671 68.6104 163.251C68.6104 163.832 69.4341 164.303 70.4503 164.303Z" fill="#16110D"/>
<path d="M77.0216 160.36C78.0378 160.36 78.8615 159.889 78.8615 159.308C78.8615 158.728 78.0378 158.257 77.0216 158.257C76.0053 158.257 75.1816 158.728 75.1816 159.308C75.1816 159.889 76.0053 160.36 77.0216 160.36Z" fill="#16110D"/>
<path d="M51.7856 166.406C52.5742 166.932 52.5742 167.457 51.7856 167.983C50.997 168.509 49.9455 168.509 49.1569 167.983C48.3683 167.457 48.3683 166.932 49.1569 166.406C49.9455 165.88 50.997 165.88 51.7856 166.406Z" fill="#16110D"/>
<path d="M58.3568 162.463C59.1454 162.988 59.1454 163.514 58.3568 164.04C57.5682 164.565 56.5168 164.565 55.7282 164.04C54.9396 163.514 54.9396 162.988 55.7282 162.463C56.5168 162.2 57.8311 162.2 58.3568 162.463Z" fill="#16110D"/>
<path d="M65.1918 158.52C65.9804 159.045 65.9804 159.571 65.1918 160.097C64.4032 160.623 63.3517 160.623 62.5631 160.097C61.7745 159.571 61.7745 159.045 62.5631 158.52C63.3517 158.257 64.4032 158.257 65.1918 158.52Z" fill="#16110D"/>
<path d="M70.4503 156.679C71.4665 156.679 72.2902 156.209 72.2902 155.628C72.2902 155.047 71.4665 154.576 70.4503 154.576C69.4341 154.576 68.6104 155.047 68.6104 155.628C68.6104 156.209 69.4341 156.679 70.4503 156.679Z" fill="#16110D"/>
<path d="M97.5253 45.4871L59.1464 6.05699L20.7676 0.799643C18.9275 0.273909 17.3504 0.536768 16.299 1.32537L3.94434 8.68566L11.8304 25.2463V51.533C11.8304 51.533 16.0365 85.7058 37.0659 118.564C53.6265 144.588 57.0434 146.691 57.0434 146.691C57.0434 146.691 59.1466 147.742 67.8212 145.114L70.1867 146.165L79.1246 140.908C80.7018 140.119 83.5932 138.805 84.9076 137.753H85.17C100.942 126.713 104.097 103.318 104.097 103.318L105.148 59.1562C104.36 54.9503 101.731 49.1672 97.5253 45.4871Z" fill="#36A9E1"/>
<path d="M100.416 64.1505C102.782 62.8362 103.571 59.9446 102.519 57.316C101.205 54.6873 99.6277 52.0586 97.2618 50.2185L62.0379 13.9429L42.8485 25.5091C42.3227 25.5091 40.4823 23.9318 37.8536 22.0918L36.0137 23.1432L76.4956 77.8196L100.416 64.1505Z" fill="white"/>
<path d="M58.0955 148.268C56.7812 148.268 56.255 148.005 56.255 148.005C55.7292 147.742 52.3121 144.851 36.0143 119.615C14.9849 86.7569 10.5163 52.3213 10.5163 52.0584V26.0346L2.36719 8.68532L15.5105 1.06219C16.8249 0.273585 18.665 0.0107255 20.7679 0.53646L59.4099 5.7938L98.0512 45.4867C102.257 49.4297 105.149 55.2128 105.149 59.9444L104.097 104.106C103.834 105.158 100.68 127.501 85.1703 139.067L84.6447 139.33C83.0675 140.382 80.1759 141.696 78.5987 142.485L69.3983 148.005L67.0328 146.953C62.564 147.742 59.9356 148.268 58.0955 148.268ZM57.3068 146.165C57.5697 146.165 59.9356 146.691 67.2959 144.325H67.5584L69.6614 145.376L78.0731 140.382C79.6503 139.593 82.2788 138.279 83.856 137.227H84.1191C99.3654 126.45 102.52 103.843 102.52 103.58L103.571 59.6816C103.571 55.4757 100.942 49.9555 96.9994 46.5382L58.8836 7.37098L20.7679 2.37652C19.1907 1.85079 17.8766 2.11363 17.088 2.63937L5.25898 9.47393L12.8819 25.7717V52.0584C12.8819 52.3213 17.3509 86.2311 38.1174 118.564C53.3637 143.01 57.0439 145.902 57.3068 146.165Z" fill="#16110D"/>
<path d="M58.3558 6.84501C58.6186 6.58214 58.6186 6.31928 58.3558 6.31928L20.7656 1.32478C18.9256 0.799044 17.3485 1.06194 16.297 1.85054L3.94238 9.21079L7.88539 17.8854L46.5267 13.9424L58.3558 6.84501Z" fill="#36A9E1"/>
<path d="M59.6702 9.99976C59.9331 9.73689 59.9331 9.47404 59.6702 9.47404L22.0801 4.47958C20.24 3.95384 18.6629 4.2167 17.6115 5.0053L5.25684 12.3656L9.19984 21.0402L47.8412 17.0972L59.6702 9.99976Z" fill="white"/>
<path d="M7.09575 18.6742L2.89026 9.73676C2.62739 8.94815 2.89013 8.15952 3.41586 7.89665L15.5074 0.799247C16.8217 0.0106452 18.6618 -0.252214 20.7647 0.27352L58.0924 5.26798C58.6181 5.26798 59.1436 5.79374 59.1436 6.31947C59.1436 6.84521 58.8808 7.37094 58.618 7.63381L46.2633 14.7312L7.09575 18.6742ZM4.99268 9.21099L8.41008 16.5713L46.0002 12.8912L56.2518 7.10808L20.5022 2.37647C18.925 1.85073 17.6103 2.11357 16.8217 2.63931L4.99268 9.21099Z" fill="#16110D"/>
<path d="M84.6446 53.1101L46.2664 13.68L7.88754 8.42265C3.94453 7.37118 1.05273 9.73695 1.05273 14.4686V57.8416C1.05273 57.8416 5.25887 92.0144 26.2882 124.873C42.8489 150.897 46.2664 153 46.2664 153C46.2664 153 49.6833 154.577 66.2439 148.005C87.5362 139.593 91.4794 110.152 91.4794 110.152V66.7791C91.4794 62.3104 88.8505 56.7902 84.6446 53.1101Z" fill="#16110D"/>
<path d="M47.5792 154.313C46.2649 154.313 45.7386 154.05 45.7386 154.05C45.2129 153.787 41.7958 150.896 25.498 125.66C4.46861 92.8021 0 58.3664 0 58.1036V14.7305C0 12.1018 0.788602 9.99887 2.62867 8.68453C4.20587 7.63306 6.0462 7.37019 8.14914 7.89592L46.7905 13.1533L85.4318 52.8462C89.6377 56.7892 92.5291 62.5723 92.5291 67.3039V110.677C92.2663 111.991 88.0606 140.907 66.5055 149.581C55.4651 153.524 50.2079 154.313 47.5792 154.313ZM46.7905 152.21C46.7905 152.21 50.7336 153.261 65.9799 146.953C86.4836 138.804 90.6892 110.151 90.6892 109.888V66.7782C90.6892 62.5723 88.0605 57.0521 84.1175 53.6348L46.0018 14.4676L7.88602 9.47314C6.30881 8.94741 4.73161 9.21027 3.94301 9.99887C2.89154 10.7875 2.10307 12.3647 2.10307 14.4676V57.8407C2.10307 58.1035 6.57142 92.0135 27.3379 124.346C43.11 149.318 46.5276 152.21 46.7905 152.21Z" fill="#16110D"/>
<path d="M47.579 144.85C46.5276 144.85 46.0013 144.587 45.7385 144.587C45.2127 144.324 42.3213 141.959 28.1265 119.878C9.98865 91.4882 6.0459 61.5213 6.0459 61.2584V23.6684C6.0459 21.3026 6.83463 19.4625 8.14896 18.4111C9.4633 17.3596 11.3031 17.0968 13.1432 17.6225L46.7903 22.0912L80.4374 56.5268C84.1176 59.9441 86.746 64.9386 86.746 69.4073V106.997C86.4831 108.312 83.0656 133.284 64.1392 140.907C54.4131 144.062 49.682 144.85 47.579 144.85ZM46.7903 142.747C47.0532 142.747 50.2077 143.536 63.3511 138.279C80.9632 131.181 84.6429 106.472 84.6429 106.209V68.6187C84.6429 64.9386 82.2775 60.207 79.1231 57.3154L46.0016 23.4056L12.8801 18.9368C11.5657 18.674 10.2519 18.674 9.4633 19.4626C8.41183 20.2512 7.88584 21.5655 7.88584 23.1427V60.7327C7.88584 60.9956 11.829 90.4367 29.7039 118.563C43.6359 140.119 46.7903 142.747 46.7903 142.747Z" fill="#36A9E1"/>
</svg>
