<svg width="102" height="177" viewBox="0 0 102 177" fill="none" xmlns="http://www.w3.org/2000/svg">
<path d="M84.8027 41.2636L17.2163 2.35042C15.4243 1.32639 14.1444 1.07038 12.8643 1.83841L12.3524 2.09442L5.18408 6.70255L5.95223 11.0547L9.79234 18.7349V107.058C9.79234 112.434 13.1206 118.578 16.9607 120.626L77.6344 155.699L82.4983 164.403L89.1547 160.051L89.6666 159.795C90.9466 158.771 91.7148 156.979 91.7148 154.163V55.088C91.9708 49.7118 88.8988 43.5677 84.8027 41.2636Z" fill="#36A9E1"/>
<path d="M85.0585 44.5915L17.4727 5.6783C15.6806 4.65427 14.4007 4.39827 13.1207 5.16629L12.6088 5.42229L5.44043 10.0304L6.20858 14.3826L10.0487 22.0628V110.385C10.0487 115.762 13.3763 121.906 17.2164 123.954L77.8907 159.027L83.2665 161.075L87.6185 161.843L89.4111 159.283C90.6911 158.259 92.2268 160.307 92.2268 157.491V58.1599C91.9708 53.0397 88.8986 46.8955 85.0585 44.5915Z" fill="white"/>
<path d="M81.9862 165.939L76.8661 156.211L16.7043 121.394C12.3522 118.834 9.02405 112.434 9.02405 106.545V18.9907L5.18394 11.0545L4.16016 5.93435L12.6085 0.558183C14.4006 -0.465848 15.9363 0.0461697 17.9843 1.0702L85.5707 39.9834C89.9229 42.5434 93.251 48.9436 93.251 54.8318V153.907C93.251 156.979 92.2269 159.283 90.6909 160.563L81.9862 165.939ZM7.48838 10.2865L11.3285 18.2227V106.801C11.3285 111.666 14.4002 117.298 17.9843 119.346L78.9143 154.419L83.2663 162.355L89.4108 158.515C90.4349 157.747 90.9465 156.211 90.9465 153.907V55.0878C90.9465 50.2237 87.8748 44.5915 84.2907 42.5434L16.7043 3.37427C14.9122 2.35024 14.4003 2.35024 13.6323 2.86225L12.8642 3.11826L6.72023 6.95838L7.48838 10.2865Z" fill="#16110D"/>
<path d="M77.3777 164.147L9.79188 125.234C5.95176 122.929 2.62354 116.785 2.62354 111.665V12.3342C2.62354 6.95803 5.95176 4.65396 9.79188 6.95802L77.3777 45.8712C81.2178 48.1753 84.546 54.3195 84.546 59.4396V158.515C84.546 164.147 81.4738 166.451 77.3777 164.147Z" fill="#36A9E1"/>
<path d="M80.1943 166.451C79.1703 166.451 77.8905 166.195 76.6105 165.427L9.28033 126.258C4.9282 123.697 1.6001 117.297 1.6001 111.409V12.3341C1.6001 9.00603 2.624 6.70196 4.67207 5.42192C6.46412 4.39789 8.51231 4.65389 10.5604 5.67793L78.1461 44.5911C82.4983 47.1512 85.8264 53.5514 85.8264 59.4396V158.515C85.8264 161.843 84.8025 164.147 82.7544 165.427C81.9864 166.195 81.2184 166.451 80.1943 166.451ZM6.97588 7.46998C6.46387 7.46998 6.20786 7.46998 5.69585 7.72599C4.41581 8.49401 3.90392 10.0301 3.90392 12.3341V111.409C3.90392 116.273 6.97626 121.905 10.5604 123.953L78.1461 162.867C79.1702 163.379 80.4503 163.891 81.4744 163.123C82.7544 162.355 83.2663 160.819 83.2663 158.515V59.6956C83.2663 54.8314 80.1946 49.1992 76.6105 47.1512L9.02407 8.238C8.51206 7.72599 7.74391 7.46998 6.97588 7.46998Z" fill="#16110D"/>
<path d="M77.3777 160.819L14.6558 124.722C12.3517 123.442 10.5601 119.858 10.5601 117.042V28.2074C10.5601 25.1353 12.3517 23.8553 14.6558 25.1353L77.3777 61.2324C79.6818 62.5124 81.4741 66.0965 81.4741 68.9126V157.491C81.4741 160.563 79.6818 162.099 77.3777 160.819Z" fill="white"/>
<path d="M76.6108 157.491C75.8427 157.491 75.3306 157.235 74.5626 156.979L11.8407 120.882C9.28061 119.346 7.23242 115.762 7.23242 112.434V23.5992C7.23242 21.8072 8.00032 20.2711 9.02435 19.5031C10.0484 18.9911 11.3288 18.9911 12.6088 19.7591L75.3307 55.8562C77.8908 57.3922 79.9384 60.9763 79.9384 64.3044V152.883C79.9384 154.675 79.1705 156.211 78.1464 156.979C77.6344 157.491 77.1228 157.491 76.6108 157.491ZM75.3307 155.443C75.8427 155.699 76.6106 155.955 77.1227 155.699C77.6347 155.443 78.1464 154.419 78.1464 153.139V64.5604C78.1464 62.0004 76.6106 58.6723 74.5626 57.6482L11.8407 21.2951C11.3287 21.0391 10.5608 20.7831 10.0488 21.0391C9.53674 21.2951 9.02435 22.3192 9.02435 23.5992V112.178C9.02435 114.738 10.5608 118.066 12.6088 119.09L75.3307 155.443Z" fill="#16110D"/>
<path d="M23.1044 66.0967L16.1923 52.5283C15.1683 50.7362 15.4245 48.9441 16.4486 48.4321C17.4726 47.9201 19.2647 49.2002 20.2887 50.9922L23.8726 58.1604L31.809 51.5042C32.8331 50.7362 34.3691 51.5042 35.6492 53.2963C36.6732 55.0883 36.9291 57.1364 36.161 57.9044L25.1526 67.1207C24.3846 67.6327 23.6164 67.1207 23.1044 66.0967Z" fill="#36A9E1"/>
<path d="M23.6173 65.5845H23.3616C22.5936 65.3285 21.8255 64.8165 21.3134 63.7925L14.4014 50.2241C13.6333 48.688 13.3774 47.152 13.8895 46.1279C14.1455 45.3599 14.6575 45.1039 15.1695 44.8479C16.7055 44.3359 19.0094 45.6159 20.0334 47.92L23.1054 53.8082L30.0175 47.92C30.5295 47.408 31.298 47.408 31.81 47.408C33.09 47.664 34.1136 48.432 35.1376 49.712C36.6737 52.0161 36.6739 54.3202 35.3939 55.6002L24.3854 64.8165C24.3854 65.3285 23.8733 65.5845 23.6173 65.5845ZM16.1933 46.64C15.9373 46.64 15.9374 46.64 15.6814 46.896C15.4254 47.408 15.4253 48.176 16.1933 49.456L23.1054 63.0245C23.3614 63.2805 23.6173 63.5365 23.6173 63.5365L34.6257 54.3202C35.1377 54.0642 35.1379 52.5281 34.1138 50.9921C33.3458 49.9681 32.5777 49.456 32.0656 49.456C31.8096 49.456 31.8098 49.456 31.5537 49.456L22.8497 56.8803L18.7534 48.688C17.9853 47.408 16.7053 46.64 16.1933 46.64Z" fill="#16110D"/>
<path d="M23.8722 93.7451L16.9602 80.1767C15.9361 78.3846 16.1918 76.5926 17.2158 76.0806C18.2398 75.5685 20.0319 76.8486 21.0559 78.6406L24.6404 85.8089L32.5763 79.1526C33.6003 78.3846 35.1363 79.1527 36.4164 80.9447C37.4404 82.7368 37.6969 84.7848 36.9289 85.5528L25.9204 94.7691C25.4084 95.0251 24.3843 94.5131 23.8722 93.7451Z" fill="#36A9E1"/>
<path d="M24.6403 92.9771H24.3841C23.6161 92.7211 22.8479 92.2091 22.3359 91.185L15.4238 77.6166C14.6558 76.0806 14.3999 74.5446 14.9119 73.5205C15.1679 72.7525 15.6799 72.4965 16.192 72.2405C17.728 71.7285 20.0318 73.0085 21.0559 75.3126L24.1285 81.2008L31.0405 75.3126C31.5526 74.8006 32.3204 74.8006 32.8325 74.8006C34.1125 75.0566 35.1367 75.8246 36.1607 77.1046C37.6967 79.4087 37.6964 81.7128 36.4163 82.9928L25.4085 92.2091C25.1525 92.7211 24.8964 92.9771 24.6403 92.9771ZM23.8722 90.417C24.1282 90.673 24.3841 90.929 24.3841 90.929L35.3925 81.7128C35.9046 81.4568 35.9047 79.9207 34.8807 78.3847C34.1126 77.3606 33.3445 76.8486 32.8325 76.8486C32.5765 76.8486 32.5766 76.8486 32.3206 76.8486L23.6159 84.2728L19.5202 76.0806C18.7522 74.5446 17.4721 73.7765 16.9601 74.0325C16.9601 74.0325 16.7039 74.0325 16.7039 74.2885C16.4478 74.8006 16.4477 75.5686 17.2157 76.8486L23.8722 90.417Z" fill="#16110D"/>
<path d="M23.1044 116.53L16.1923 103.217C15.1683 101.425 15.4245 99.6331 16.4486 99.1211C17.4726 98.6091 19.2647 99.8891 20.2887 101.681L23.8726 108.849L31.809 102.193C32.8331 101.425 34.3691 102.193 35.6492 103.985C36.6732 105.777 36.9291 107.825 36.161 108.593L25.1526 117.81C24.3846 118.066 23.6164 117.554 23.1044 116.53Z" fill="#36A9E1"/>
<path d="M23.6173 115.762H23.3616C22.5936 115.506 21.8255 114.994 21.3134 113.969L14.4014 100.401C13.6333 98.865 13.3774 97.329 13.8895 96.3049C14.1455 95.5369 14.6575 95.2809 15.1695 95.0249C16.7055 94.5129 19.0094 95.7929 20.0334 98.097L23.1054 103.985L30.0175 98.097C30.5295 97.585 31.298 97.585 31.81 97.585C33.09 97.841 34.1136 98.609 35.1376 99.8891C36.6737 102.193 36.6739 104.497 35.3939 105.777L24.3854 114.994C24.3854 115.762 23.8733 115.762 23.6173 115.762ZM16.1933 97.073C15.9373 97.073 15.9374 97.073 15.6814 97.329C15.4254 97.841 15.4253 98.609 16.1933 99.8891L23.1054 113.457C23.3614 113.713 23.6173 113.969 23.6173 113.969L34.6257 104.753C35.1377 104.497 35.1379 102.961 34.1138 101.425C33.3458 100.401 32.5777 99.8891 32.0656 99.8891C31.8096 99.8891 31.8098 99.8891 31.5537 99.8891L22.8497 107.313L18.7534 99.121C17.9853 97.841 16.7053 97.073 16.1933 97.073Z" fill="#16110D"/>
<path d="M71.2334 88.6242L44.0963 73.0077C42.8163 72.2397 41.7925 70.4476 41.7925 68.9116C41.7925 67.3755 42.8163 66.6075 44.0963 67.3755L71.2334 82.992C72.5134 83.76 73.5372 85.5521 73.5372 87.0881C73.5372 88.6242 72.5134 89.1362 71.2334 88.6242Z" fill="#36A9E1"/>
<path d="M71.234 86.8327C70.722 86.8327 70.466 86.5767 69.954 86.3207L42.8169 70.7042C41.2809 69.9362 40.2568 67.6321 40.2568 65.8401C40.2568 64.56 40.7689 63.792 41.5369 63.28C42.3049 62.768 43.0733 63.024 43.8413 63.28L70.9778 78.8965C72.5138 79.6645 73.5378 81.9685 73.5378 83.7606C73.5378 85.0406 73.0258 85.8087 72.2578 86.3207C72.0018 86.8327 71.49 86.8327 71.234 86.8327ZM70.7221 84.7846C70.9781 84.7846 71.234 85.0406 71.234 84.7846C71.234 84.7846 71.4903 84.5286 71.4903 83.7606C71.4903 82.4806 70.7218 80.9445 69.6977 80.4325L42.5613 64.816C42.3053 64.816 42.0494 64.56 42.0494 64.816C42.0494 64.816 41.7931 65.072 41.7931 65.8401C41.7931 67.1201 42.561 68.6561 43.5851 69.1682L70.7221 84.7846Z" fill="#16110D"/>
<path d="M71.2334 113.714L44.0963 98.0973C42.8163 97.3293 41.7925 95.5372 41.7925 94.0012C41.7925 92.4651 42.8163 91.6971 44.0963 92.4651L71.2334 108.082C72.5134 108.85 73.5372 110.642 73.5372 112.178C73.5372 113.714 72.5134 114.482 71.2334 113.714Z" fill="#36A9E1"/>
<path d="M71.234 111.922C70.722 111.922 70.466 111.922 69.954 111.41L42.8169 95.7931C41.2809 95.025 40.2568 92.721 40.2568 90.9289C40.2568 89.6489 40.7689 88.8809 41.5369 88.3689C42.3049 87.8568 43.0733 88.1128 43.8413 88.3689L70.9778 103.985C72.5138 104.753 73.5378 107.057 73.5378 108.849C73.5378 110.13 73.0258 110.898 72.2578 111.41C72.0018 111.922 71.49 111.922 71.234 111.922ZM42.305 90.1609C42.049 90.1609 42.0494 90.4169 42.0494 91.1849C42.0494 92.465 42.8173 94.001 43.8413 94.513L70.9778 110.13C71.2338 110.13 71.4903 110.386 71.4903 110.13C71.4903 110.13 71.7459 109.873 71.7459 109.105C71.7459 107.825 70.978 106.289 69.954 105.777L42.8169 90.1609C42.5609 90.1609 42.561 90.1609 42.305 90.1609Z" fill="#16110D"/>
<path d="M71.2348 138.802L44.0978 123.186C42.8177 122.418 41.7939 120.626 41.7939 119.09C41.7939 117.554 42.8177 116.786 44.0978 117.554L71.2348 133.17C72.5149 133.938 73.5386 135.73 73.5386 137.266C73.2826 138.802 72.2589 139.57 71.2348 138.802Z" fill="#36A9E1"/>
<path d="M70.978 137.266C70.466 137.266 70.21 137.01 69.698 136.754L42.5615 121.138C41.0255 120.37 40.0015 118.066 40.0015 116.274C40.0015 114.994 40.5135 114.226 41.2815 113.714C42.0495 113.202 42.8173 113.458 43.5853 113.714L70.7224 129.33C72.2584 130.098 73.2825 132.402 73.2825 134.194C73.2825 135.474 72.7705 136.242 72.0024 136.754C71.7464 137.01 71.49 137.266 70.978 137.266ZM70.7224 135.218C70.9784 135.218 71.2343 135.474 71.2343 135.218C71.2343 135.218 71.4905 134.962 71.4905 134.194C71.4905 132.914 70.722 131.378 69.698 130.866L42.5615 115.25C42.3055 115.25 42.0497 114.994 42.0497 115.25C42.0497 115.25 41.7934 115.506 41.7934 116.274C41.7934 117.554 42.5613 119.09 43.5853 119.602L70.7224 135.218Z" fill="#16110D"/>
<path d="M75.0737 40.2391C75.8417 39.4711 76.3537 38.4471 76.3537 36.911C76.3537 33.5829 74.3055 29.7428 71.7455 28.2068L27.9685 2.862C26.9445 2.34998 25.1522 2.606 25.1522 2.606C25.1522 2.606 24.8963 2.862 24.6403 2.862L19.5201 6.44611C19.2641 6.70212 19.2641 7.21413 19.5201 7.47014L24.8959 11.3103C25.6639 12.8463 26.9441 14.1263 28.2241 14.8944L37.6963 20.2705L46.9128 26.9267L67.9053 44.0793C68.4174 44.3353 68.9296 44.5913 69.4416 44.0793C70.9777 43.3112 74.8177 40.4951 75.0737 40.2391Z" fill="#36A9E1"/>
<path d="M76.3537 40.4955C76.3537 37.1674 74.3055 33.3273 71.7455 31.7912L27.9685 6.44647C26.9445 5.93446 25.1522 6.19047 25.1522 6.19047C25.1522 6.19047 24.8963 6.44647 24.6403 6.44647L19.5201 10.0306C19.2641 10.2866 19.2641 10.7986 19.5201 11.0546L24.8959 14.8947C25.6639 16.4308 26.9441 17.7108 28.2241 18.4788L37.6963 23.855L68.4172 45.1036L76.3537 40.4955Z" fill="white"/>
<path d="M68.4178 45.8715C67.9058 45.8715 67.3941 45.6155 66.8821 45.3595L45.8896 28.207L36.6731 21.5508L27.4565 16.1746C26.1765 15.4066 24.8967 14.1265 23.8727 12.3345L18.7525 8.75038C18.2405 8.49437 17.9844 7.72635 17.9844 7.21433C17.9844 6.70232 18.2405 5.9343 18.7525 5.67829L23.8727 2.09418L24.3846 1.58216L24.8965 1.32616C25.1525 1.32616 26.6889 0.558135 28.4809 1.83817L72.2579 27.1829C75.074 28.975 77.378 33.0711 77.378 36.9112C77.378 38.7033 76.8664 40.2393 75.8424 41.2634C75.5864 41.5194 75.5864 41.5194 70.7222 44.8475L69.6978 45.6155C69.4418 45.8715 68.9298 45.8715 68.4178 45.8715ZM21.0563 7.21433L25.9209 10.5424L26.1765 10.7984C26.9445 12.0785 27.9688 13.3585 28.9928 13.8705L38.465 19.2467L47.9372 25.9029L68.9303 43.0554L69.9541 42.2874C71.7461 41.0073 74.562 38.9593 74.818 38.9593C75.33 38.4473 75.5861 37.6792 75.5861 36.6552C75.5861 33.8391 73.7941 30.255 71.746 28.975L27.9691 3.63023C27.457 3.37422 26.6885 3.37422 26.1765 3.37422C26.1765 3.37422 26.1769 3.37422 25.9209 3.37422L21.0563 7.21433Z" fill="#16110D"/>
<path d="M51.0109 45.616L36.4179 37.1677C32.5778 34.8637 29.5059 29.2315 29.5059 24.1113L57.923 40.4958C57.923 45.36 54.851 47.664 51.0109 45.616Z" fill="#36A9E1"/>
<path d="M55.8755 51.2483L41.2832 42.8001C37.4431 40.496 34.3711 34.8638 34.3711 29.7437L62.7876 46.1281C62.7876 50.9923 59.7156 53.5524 55.8755 51.2483Z" fill="white"/>
<path d="M53.5707 47.664C52.5467 47.664 51.2665 47.408 50.2425 46.64L35.6502 38.1917C31.5541 35.8877 28.2256 29.4875 28.2256 24.1113V22.0632L59.2028 39.9838V40.7518C59.2028 43.8239 58.1789 46.384 56.1308 47.408C55.3628 47.408 54.5948 47.664 53.5707 47.664ZM30.7857 26.1594C31.5537 30.2555 33.8579 34.3516 36.674 35.8877L51.2663 44.3359C52.0343 44.8479 53.3145 45.3599 54.5945 44.5919C55.6185 44.0799 56.1304 42.5438 56.3864 40.7518L30.7857 26.1594Z" fill="#16110D"/>
<path d="M65.3456 44.8475L21.5687 19.5027C19.0086 17.9666 16.9604 14.1265 16.9604 10.7984C16.9604 7.47032 19.0086 5.93428 21.5687 7.47033L65.3456 32.8151C67.9057 34.3511 69.9539 38.1913 69.9539 41.5194C69.9539 44.5914 67.9057 46.1275 65.3456 44.8475Z" fill="#36A9E1"/>
<path d="M67.3944 46.6397C66.6264 46.6397 65.8586 46.3836 65.0906 45.8716L21.313 20.5269C18.4969 18.7348 16.1929 14.6387 16.1929 10.7986C16.1929 8.49451 16.9606 6.95846 18.4967 5.93443C19.7767 5.16641 21.313 5.42242 22.5931 6.19044L66.3706 31.5352C69.1867 33.3273 71.4908 37.4234 71.4908 41.2635C71.4908 43.5676 70.7224 45.1036 69.1863 46.1276C68.4183 46.3837 67.9064 46.6397 67.3944 46.6397ZM20.033 8.2385C19.777 8.2385 19.7771 8.2385 19.5211 8.49451C19.0091 8.75052 18.4967 9.77455 18.4967 11.0546C18.4967 13.8707 20.2887 17.4548 22.3368 18.7348L66.1144 44.0796C66.6264 44.3356 67.1383 44.5916 67.9063 44.3356C68.4183 44.0796 68.9307 43.0555 68.9307 41.7755C68.9307 38.9594 67.1386 35.3753 65.0906 34.0953L21.313 8.75052C20.801 8.49451 20.289 8.2385 20.033 8.2385Z" fill="#16110D"/>
<path d="M67.3945 34.6071L74.051 30.511L76.3548 36.3992L75.0748 40.2393L69.6984 44.0794V39.7273L67.3945 34.6071Z" fill="#16110D"/>
<path d="M84.5455 56.624L91.7138 52.0159L91.9701 154.931L90.4338 159.283L83.7773 163.379L84.2899 59.1841L84.5455 56.624Z" fill="#16110D"/>
<path d="M16.1927 141.362C16.9608 141.874 16.9608 142.386 16.1927 142.898C15.4247 143.41 14.4007 143.41 13.6327 142.898C12.8646 142.386 12.8646 141.874 13.6327 141.362C14.4007 140.85 15.4247 140.85 16.1927 141.362Z" fill="#16110D"/>
<path d="M8.51263 139.314C9.50236 139.314 10.3046 138.855 10.3046 138.29C10.3046 137.724 9.50236 137.266 8.51263 137.266C7.52291 137.266 6.7207 137.724 6.7207 138.29C6.7207 138.855 7.52291 139.314 8.51263 139.314Z" fill="#16110D"/>
<path d="M3.13609 133.682C3.90412 134.194 3.90412 134.706 3.13609 135.218C2.36807 135.73 1.34404 135.73 0.576017 135.218C-0.192006 134.706 -0.192006 134.194 0.576017 133.682C1.34404 133.426 2.62408 133.426 3.13609 133.682Z" fill="#16110D"/>
<path d="M74.8187 174.387C75.5867 174.899 75.5867 175.411 74.8187 175.923C74.0507 176.435 73.0267 176.435 72.2586 175.923C71.4906 175.411 71.4906 174.899 72.2586 174.387C73.0267 173.875 74.0507 173.875 74.8187 174.387Z" fill="#16110D"/>
<path d="M67.1391 172.339C68.1288 172.339 68.9317 171.881 68.9317 171.315C68.9317 170.75 68.1288 170.291 67.1391 170.291C66.1494 170.291 65.3472 170.75 65.3472 171.315C65.3472 171.881 66.1494 172.339 67.1391 172.339Z" fill="#16110D"/>
<path d="M61.763 166.963C62.5311 167.475 62.5311 167.987 61.763 168.499C60.995 169.011 59.971 169.011 59.203 168.499C58.4349 167.987 58.4349 167.475 59.203 166.963C59.971 166.451 61.251 166.451 61.763 166.963Z" fill="#16110D"/>
<path d="M54.082 164.915C55.0717 164.915 55.8739 164.456 55.8739 163.891C55.8739 163.325 55.0717 162.867 54.082 162.867C53.0922 162.867 52.29 163.325 52.29 163.891C52.29 164.456 53.0922 164.915 54.082 164.915Z" fill="#16110D"/>
<path d="M48.9623 159.283C49.7303 159.795 49.7303 160.307 48.9623 160.819C48.1942 161.331 47.1702 161.331 46.4022 160.819C45.6342 160.307 45.6342 159.795 46.4022 159.283C47.1702 159.027 48.1942 159.027 48.9623 159.283Z" fill="#16110D"/>
<path d="M42.305 155.698C43.0731 156.21 43.0731 156.722 42.305 157.235C41.537 157.747 40.513 157.747 39.745 157.235C38.9769 156.722 38.9769 156.21 39.745 155.698C40.513 155.186 41.793 155.186 42.305 155.698Z" fill="#16110D"/>
<path d="M34.6259 153.651C35.6156 153.651 36.4178 153.192 36.4178 152.627C36.4178 152.061 35.6156 151.603 34.6259 151.603C33.6362 151.603 32.834 152.061 32.834 152.627C32.834 153.192 33.6362 153.651 34.6259 153.651Z" fill="#16110D"/>
<path d="M29.5043 148.018C30.2723 148.53 30.2723 149.042 29.5043 149.554C28.7362 150.066 27.7122 150.066 26.9442 149.554C26.1762 149.042 26.1762 148.53 26.9442 148.018C27.7122 147.762 28.7362 147.762 29.5043 148.018Z" fill="#16110D"/>
<path d="M21.8251 146.226C22.8149 146.226 23.6171 145.767 23.6171 145.202C23.6171 144.636 22.8149 144.178 21.8251 144.178C20.8354 144.178 20.0332 144.636 20.0332 145.202C20.0332 145.767 20.8354 146.226 21.8251 146.226Z" fill="#16110D"/>
<path d="M22.8495 137.522C23.6175 138.034 23.6175 138.546 22.8495 139.058C22.0815 139.57 21.0574 139.57 20.2894 139.058C19.5214 138.546 19.5214 138.034 20.2894 137.522C21.0574 137.266 22.0815 137.266 22.8495 137.522Z" fill="#16110D"/>
<path d="M13.889 133.938C14.657 133.426 15.6811 133.426 16.4491 133.938C17.2171 134.45 17.2171 134.962 16.4491 135.474C15.6811 135.986 14.657 135.986 13.889 135.474C13.121 134.962 13.121 134.194 13.889 133.938Z" fill="#16110D"/>
<path d="M7.23313 130.098C8.00116 129.586 9.02519 129.586 9.79321 130.098C10.5612 130.61 10.5612 131.122 9.79321 131.634C9.02519 132.146 8.00116 132.146 7.23313 131.634C6.72112 131.122 6.72112 130.354 7.23313 130.098Z" fill="#16110D"/>
<path d="M0.832365 126.258C1.60039 125.746 2.62442 125.746 3.39244 126.258C4.16047 126.77 4.16047 127.282 3.39244 127.794C2.62442 128.306 1.60039 128.306 0.832365 127.794C0.0643419 127.282 0.0643419 126.77 0.832365 126.258Z" fill="#16110D"/>
<path d="M86.5947 176.179C87.5844 176.179 88.3866 175.721 88.3866 175.155C88.3866 174.59 87.5844 174.131 86.5947 174.131C85.6049 174.131 84.8027 174.59 84.8027 175.155C84.8027 175.721 85.6049 176.179 86.5947 176.179Z" fill="#16110D"/>
<path d="M94.2748 170.547C95.0428 171.059 95.0428 171.571 94.2748 172.083C93.5067 172.595 92.4827 172.595 91.7147 172.083C90.9467 171.571 90.9467 171.059 91.7147 170.547C92.4827 170.291 93.7628 170.291 94.2748 170.547Z" fill="#16110D"/>
<path d="M100.932 166.963C101.7 167.475 101.7 167.987 100.932 168.499C100.163 169.011 99.1395 169.011 98.3714 168.499C97.6034 167.987 97.6034 167.475 98.3714 166.963C98.8834 166.451 100.163 166.451 100.932 166.963Z" fill="#16110D"/>
<path d="M78.9144 170.547C79.6824 170.035 80.7065 170.035 81.4745 170.547C82.2425 171.059 82.2425 171.571 81.4745 172.083C80.7065 172.595 79.6824 172.595 78.9144 172.083C78.1464 171.827 78.1464 171.059 78.9144 170.547Z" fill="#16110D"/>
<path d="M87.8749 166.963C88.6429 167.475 88.6429 167.987 87.8749 168.499C87.1068 169.011 86.0828 169.011 85.3148 168.499C84.5468 167.987 84.5468 167.475 85.3148 166.963C86.0828 166.451 87.1068 166.451 87.8749 166.963Z" fill="#16110D"/>
<path d="M92.9946 164.915C93.9843 164.915 94.7865 164.456 94.7865 163.891C94.7865 163.325 93.9843 162.867 92.9946 162.867C92.0048 162.867 91.2026 163.325 91.2026 163.891C91.2026 164.456 92.0048 164.915 92.9946 164.915Z" fill="#16110D"/>
<path d="M99.6519 161.074C100.642 161.074 101.444 160.616 101.444 160.05C101.444 159.485 100.642 159.026 99.6519 159.026C98.6622 159.026 97.8594 159.485 97.8594 160.05C97.8594 160.616 98.6622 161.074 99.6519 161.074Z" fill="#16110D"/>
<path d="M72.5145 166.963C73.2825 166.451 74.3065 166.451 75.0746 166.963C75.8426 167.475 75.8426 167.987 75.0746 168.499C74.3065 169.011 73.2825 169.011 72.5145 168.499C71.7465 167.987 71.7465 167.219 72.5145 166.963Z" fill="#16110D"/>
<path d="M94.2748 155.698C95.0428 156.21 95.0428 156.722 94.2748 157.235C93.5067 157.747 92.4827 157.747 91.7147 157.235C90.9467 156.722 90.9467 156.21 91.7147 155.698C92.4827 155.186 93.7628 155.186 94.2748 155.698Z" fill="#16110D"/>
<path d="M65.8586 163.123C66.6266 162.611 67.6507 162.611 68.4187 163.123C69.1867 163.635 69.1867 164.147 68.4187 164.659C67.6507 165.171 66.6266 165.171 65.8586 164.659C65.3466 164.147 65.3466 163.635 65.8586 163.123Z" fill="#16110D"/>
<path d="M59.4579 159.539C60.2259 159.027 61.2499 159.027 62.0179 159.539C62.786 160.051 62.786 160.563 62.0179 161.075C61.2499 161.587 60.2259 161.587 59.4579 161.075C58.6898 160.563 58.6898 159.795 59.4579 159.539Z" fill="#16110D"/>
<path d="M53.0575 155.698C53.8255 155.186 54.8495 155.186 55.6175 155.698C56.3856 156.21 56.3856 156.722 55.6175 157.235C54.8495 157.747 53.8255 157.747 53.0575 157.235C52.2894 156.722 52.2894 156.21 53.0575 155.698Z" fill="#16110D"/>
<path d="M46.4022 151.859C47.1702 151.347 48.1942 151.347 48.9623 151.859C49.7303 152.371 49.7303 152.883 48.9623 153.395C48.1942 153.907 47.1702 153.907 46.4022 153.395C45.6342 152.883 45.6342 152.371 46.4022 151.859Z" fill="#16110D"/>
<path d="M40.0028 148.275C40.7708 147.763 41.7948 147.763 42.5629 148.275C43.3309 148.787 43.3309 149.299 42.5629 149.811C41.7948 150.323 40.7708 150.323 40.0028 149.811C39.2348 149.299 39.2348 148.531 40.0028 148.275Z" fill="#16110D"/>
<path d="M33.3449 144.434C34.113 143.922 35.137 143.922 35.905 144.434C36.673 144.946 36.673 145.458 35.905 145.97C35.137 146.482 34.113 146.482 33.3449 145.97C32.8329 145.458 32.8329 144.946 33.3449 144.434Z" fill="#16110D"/>
<path d="M26.9442 140.594C27.7122 140.082 28.7362 140.082 29.5043 140.594C30.2723 141.106 30.2723 141.618 29.5043 142.13C28.7362 142.642 27.7122 142.642 26.9442 142.13C26.1762 141.618 26.1762 141.106 26.9442 140.594Z" fill="#16110D"/>
</svg>
