<svg width="141" height="176" viewBox="0 0 141 176" fill="none" xmlns="http://www.w3.org/2000/svg">
<path d="M43.9913 173.991C44.7948 174.527 44.7948 175.063 43.9913 175.598C43.1878 176.134 42.1165 176.134 41.3131 175.598C40.5096 175.063 40.5096 174.527 41.3131 173.991C42.1165 173.456 43.4556 173.456 43.9913 173.991Z" fill="#16110D"/>
<path d="M50.9532 169.974C51.7567 170.509 51.7567 171.045 50.9532 171.581C50.1497 172.116 49.0784 172.116 48.275 171.581C47.4715 171.045 47.4715 170.509 48.275 169.974C49.0784 169.438 50.1497 169.438 50.9532 169.974Z" fill="#16110D"/>
<path d="M57.649 165.956C58.4525 166.492 58.4525 167.028 57.649 167.563C56.8455 168.099 55.7742 168.099 54.9708 167.563C54.1673 167.028 54.1673 166.492 54.9708 165.956C55.7742 165.689 56.8455 165.689 57.649 165.956Z" fill="#16110D"/>
<path d="M64.3438 162.207C65.1473 162.742 65.1473 163.278 64.3438 163.814C63.5404 164.349 62.4691 164.349 61.6656 163.814C60.8621 163.278 60.8621 162.742 61.6656 162.207C62.4691 161.671 63.8082 161.671 64.3438 162.207Z" fill="#16110D"/>
<path d="M71.0401 158.189C71.8436 158.725 71.8436 159.26 71.0401 159.796C70.2367 160.332 69.1654 160.332 68.3619 159.796C67.5584 159.26 67.5584 158.725 68.3619 158.189C69.1654 157.921 70.5045 157.921 71.0401 158.189Z" fill="#16110D"/>
<path d="M76.6647 156.047C77.7001 156.047 78.5393 155.567 78.5393 154.976C78.5393 154.384 77.7001 153.904 76.6647 153.904C75.6293 153.904 74.79 154.384 74.79 154.976C74.79 155.567 75.6293 156.047 76.6647 156.047Z" fill="#16110D"/>
<path d="M30.5997 173.991C31.4032 174.527 31.4032 175.063 30.5997 175.598C29.7962 176.134 28.7249 176.134 27.9215 175.598C27.118 175.063 27.118 174.527 27.9215 173.991C28.7249 173.456 29.7962 173.456 30.5997 173.991Z" fill="#16110D"/>
<path d="M35.9557 171.848C36.9911 171.848 37.8303 171.369 37.8303 170.777C37.8303 170.185 36.9911 169.706 35.9557 169.706C34.9203 169.706 34.0811 170.185 34.0811 170.777C34.0811 171.369 34.9203 171.848 35.9557 171.848Z" fill="#16110D"/>
<path d="M42.6515 167.831C43.6869 167.831 44.5261 167.351 44.5261 166.76C44.5261 166.168 43.6869 165.688 42.6515 165.688C41.6161 165.688 40.7769 166.168 40.7769 166.76C40.7769 167.351 41.6161 167.831 42.6515 167.831Z" fill="#16110D"/>
<path d="M50.9532 162.207C51.7567 162.742 51.7567 163.278 50.9532 163.814C50.1497 164.349 49.0784 164.349 48.275 163.814C47.4715 163.278 47.4715 162.742 48.275 162.207C49.0784 161.671 50.1497 161.671 50.9532 162.207Z" fill="#16110D"/>
<path d="M56.3108 160.064C57.3462 160.064 58.1855 159.585 58.1855 158.993C58.1855 158.401 57.3462 157.922 56.3108 157.922C55.2754 157.922 54.4355 158.401 54.4355 158.993C54.4355 159.585 55.2754 160.064 56.3108 160.064Z" fill="#16110D"/>
<path d="M64.3438 154.44C65.1473 154.976 65.1473 155.511 64.3438 156.047C63.5404 156.583 62.4691 156.583 61.6656 156.047C60.8621 155.511 60.8621 154.976 61.6656 154.44C62.4691 153.904 63.8082 153.904 64.3438 154.44Z" fill="#16110D"/>
<path d="M71.0401 150.423C71.8436 150.958 71.8436 151.494 71.0401 152.03C70.2367 152.565 69.1654 152.565 68.3619 152.03C67.5584 151.494 67.5584 150.958 68.3619 150.423C69.1654 149.887 70.5045 149.887 71.0401 150.423Z" fill="#16110D"/>
<path d="M23.6349 169.974C24.4383 170.509 24.4383 171.045 23.6349 171.581C22.8314 172.116 21.7601 172.116 20.9566 171.581C20.1531 171.045 20.1531 170.509 20.9566 169.974C21.7601 169.438 23.0992 169.438 23.6349 169.974Z" fill="#16110D"/>
<path d="M30.5997 165.956C31.4032 166.492 31.4032 167.028 30.5997 167.563C29.7962 168.099 28.7249 168.099 27.9215 167.563C27.118 167.028 27.118 166.492 27.9215 165.956C28.7249 165.689 29.7962 165.689 30.5997 165.956Z" fill="#16110D"/>
<path d="M15.6007 167.831C16.6361 167.831 17.476 167.351 17.476 166.76C17.476 166.168 16.6361 165.688 15.6007 165.688C14.5653 165.688 13.7261 166.168 13.7261 166.76C13.7261 167.351 14.5653 167.831 15.6007 167.831Z" fill="#16110D"/>
<path d="M23.6349 162.207C24.4383 162.742 24.4383 163.278 23.6349 163.814C22.8314 164.349 21.7601 164.349 20.9566 163.814C20.1531 163.278 20.1531 162.742 20.9566 162.207C21.7601 161.671 23.0992 161.671 23.6349 162.207Z" fill="#16110D"/>
<path d="M9.97616 162.207C10.7796 162.742 10.7796 163.278 9.97616 163.814C9.17269 164.349 8.10139 164.349 7.29792 163.814C6.49444 163.278 6.49444 162.742 7.29792 162.207C8.10139 161.671 9.44051 161.671 9.97616 162.207Z" fill="#16110D"/>
<path d="M16.9391 158.189C17.7425 158.725 17.7425 159.261 16.9391 159.796C16.1356 160.332 15.0643 160.332 14.2608 159.796C13.4573 159.261 13.4573 158.725 14.2608 158.189C15.0643 157.654 16.1356 157.654 16.9391 158.189Z" fill="#16110D"/>
<path d="M3.28085 158.189C4.08432 158.725 4.08432 159.261 3.28085 159.796C2.47738 160.332 1.40608 160.332 0.602605 159.796C-0.200868 159.261 -0.200868 158.725 0.602605 158.189C1.40608 157.654 2.47738 157.654 3.28085 158.189Z" fill="#16110D"/>
<path d="M9.97616 154.172C10.7796 154.707 10.7796 155.243 9.97616 155.779C9.17269 156.314 8.10139 156.314 7.29792 155.779C6.49444 155.243 6.49444 154.707 7.29792 154.172C8.10139 153.904 9.44051 153.904 9.97616 154.172Z" fill="#16110D"/>
<path d="M3.28085 150.423C4.08432 150.958 4.08432 151.494 3.28085 152.03C2.47738 152.565 1.40608 152.565 0.602605 152.03C-0.200868 151.494 -0.200868 150.958 0.602605 150.423C1.40608 149.887 2.47738 149.887 3.28085 150.423Z" fill="#16110D"/>
<path d="M82.2891 150.423C83.0926 149.887 84.1639 149.887 84.9674 150.423C85.7708 150.958 85.7708 151.494 84.9674 152.03C84.1639 152.565 83.0926 152.565 82.2891 152.03C81.4857 151.494 81.4857 150.958 82.2891 150.423Z" fill="#16110D"/>
<path d="M91.6627 146.405C92.4662 146.941 92.4662 147.477 91.6627 148.012C90.8592 148.548 89.7879 148.548 88.9844 148.012C88.181 147.477 88.181 146.941 88.9844 146.405C89.7879 146.137 90.8592 146.137 91.6627 146.405Z" fill="#16110D"/>
<path d="M98.359 142.655C99.1624 143.191 99.1624 143.727 98.359 144.262C97.5555 144.798 96.4842 144.798 95.6807 144.262C94.8773 143.727 94.8773 143.191 95.6807 142.655C96.4842 142.12 97.5555 142.12 98.359 142.655Z" fill="#16110D"/>
<path d="M103.715 140.513C104.751 140.513 105.59 140.033 105.59 139.442C105.59 138.85 104.751 138.37 103.715 138.37C102.68 138.37 101.841 138.85 101.841 139.442C101.841 140.033 102.68 140.513 103.715 140.513Z" fill="#16110D"/>
<path d="M112.017 134.889C112.821 135.424 112.821 135.96 112.017 136.496C111.214 137.031 110.142 137.031 109.339 136.496C108.535 135.96 108.535 135.424 109.339 134.889C110.142 134.353 111.214 134.353 112.017 134.889Z" fill="#16110D"/>
<path d="M117.374 132.746C118.409 132.746 119.249 132.266 119.249 131.675C119.249 131.083 118.409 130.604 117.374 130.604C116.338 130.604 115.499 131.083 115.499 131.675C115.499 132.266 116.338 132.746 117.374 132.746Z" fill="#16110D"/>
<path d="M125.408 126.854C126.211 127.39 126.211 127.925 125.408 128.461C124.604 128.997 123.533 128.997 122.73 128.461C121.926 127.925 121.926 127.39 122.73 126.854C123.533 126.586 124.872 126.586 125.408 126.854Z" fill="#16110D"/>
<path d="M131.033 124.979C132.068 124.979 132.907 124.499 132.907 123.908C132.907 123.316 132.068 122.836 131.033 122.836C129.997 122.836 129.158 123.316 129.158 123.908C129.158 124.499 129.997 124.979 131.033 124.979Z" fill="#16110D"/>
<path d="M139.068 119.087C139.871 119.623 139.871 120.159 139.068 120.694C138.264 121.23 137.193 121.23 136.39 120.694C135.586 120.159 135.586 119.623 136.39 119.087C137.193 118.82 138.264 118.82 139.068 119.087Z" fill="#16110D"/>
<path d="M75.3261 146.405C76.1295 145.87 77.2008 145.87 78.0043 146.405C78.8078 146.941 78.8078 147.477 78.0043 148.012C77.2008 148.548 76.1295 148.548 75.3261 148.012C74.7904 147.745 74.7904 146.941 75.3261 146.405Z" fill="#16110D"/>
<path d="M84.6988 142.655C85.5023 143.191 85.5023 143.727 84.6988 144.262C83.8953 144.798 82.824 144.798 82.0206 144.262C81.2171 143.727 81.2171 143.191 82.0206 142.655C82.824 142.12 84.1632 142.12 84.6988 142.655Z" fill="#16110D"/>
<path d="M90.3239 140.513C91.3593 140.513 92.1985 140.033 92.1985 139.442C92.1985 138.85 91.3593 138.37 90.3239 138.37C89.2885 138.37 88.4492 138.85 88.4492 139.442C88.4492 140.033 89.2885 140.513 90.3239 140.513Z" fill="#16110D"/>
<path d="M98.359 134.889C99.1624 135.424 99.1624 135.96 98.359 136.496C97.5555 137.031 96.4842 137.031 95.6807 136.496C94.8773 135.96 94.8773 135.424 95.6807 134.889C96.4842 134.353 97.5555 134.353 98.359 134.889Z" fill="#16110D"/>
<path d="M105.054 130.871C105.858 131.407 105.858 131.943 105.054 132.478C104.251 133.014 103.18 133.014 102.376 132.478C101.573 131.943 101.573 131.407 102.376 130.871C103.18 130.336 104.519 130.336 105.054 130.871Z" fill="#16110D"/>
<path d="M112.017 126.854C112.821 127.39 112.821 127.925 112.017 128.461C111.214 128.997 110.142 128.997 109.339 128.461C108.535 127.925 108.535 127.39 109.339 126.854C110.142 126.586 111.214 126.586 112.017 126.854Z" fill="#16110D"/>
<path d="M118.712 123.105C119.516 123.64 119.516 124.176 118.712 124.712C117.909 125.247 116.838 125.247 116.034 124.712C115.231 124.176 115.231 123.64 116.034 123.105C116.838 122.569 117.909 122.569 118.712 123.105Z" fill="#16110D"/>
<path d="M125.408 119.087C126.211 119.623 126.211 120.159 125.408 120.694C124.604 121.23 123.533 121.23 122.73 120.694C121.926 120.159 121.926 119.623 122.73 119.087C123.533 118.82 124.872 118.82 125.408 119.087Z" fill="#16110D"/>
<path d="M132.103 115.337C132.907 115.873 132.907 116.409 132.103 116.944C131.3 117.48 130.228 117.48 129.425 116.944C128.621 116.409 128.621 115.873 129.425 115.337C130.228 114.802 131.567 114.802 132.103 115.337Z" fill="#16110D"/>
<path d="M137.728 113.195C138.764 113.195 139.603 112.715 139.603 112.124C139.603 111.532 138.764 111.052 137.728 111.052C136.693 111.052 135.854 111.532 135.854 112.124C135.854 112.715 136.693 113.195 137.728 113.195Z" fill="#16110D"/>
<path d="M117.842 34.4512C126.681 26.6843 125.074 12.4897 114.897 6.86536L107.129 2.58016C105.523 1.50886 103.38 1.50888 101.237 2.848L10.1772 55.0737C5.35634 57.752 1.60693 65.251 1.60693 71.411V138.635C1.60693 141.849 2.67823 144.259 4.28518 145.33L33.7459 161.668L48.2081 136.224L62.671 115.066L101.237 92.8369C106.058 90.1587 109.808 82.6596 109.808 76.4997V46.2355L117.842 34.4512Z" fill="#36A9E1"/>
<path d="M39.1024 131.404C34.2815 134.082 30.5321 131.136 30.5321 124.976V108.907C30.5321 108.639 30.5321 108.639 30.5321 108.371C30.2643 96.5868 23.8364 86.1417 13.659 80.2495L1.33887 73.8218V138.635C1.33887 141.849 2.41016 144.26 4.01711 145.331L33.4778 161.668L47.9407 136.225L58.9211 120.155L39.1024 131.404Z" fill="#16110D"/>
<path d="M34.5497 162.739C34.2819 163.275 33.7463 163.275 33.2106 163.007L2.67824 146.134V145.866C0.803473 144.259 0 141.849 0 138.367V71.1432C0 64.1797 4.01736 56.4128 9.37385 53.4667L100.434 1.24098C103.112 -0.365964 105.523 -0.36598 107.665 0.973141L114.897 4.99051C119.986 7.93657 123.735 12.7574 124.806 18.3817C125.878 24.5417 123.467 30.7017 118.914 34.719L111.147 46.2355V75.964C111.147 82.9274 107.13 90.6943 101.773 93.6404L63.4742 115.602L49.2801 136.492L34.5497 162.739ZM5.08905 144.527L32.9425 159.793L46.6018 135.421L61.5996 113.727L100.167 91.4978C104.452 89.0874 108.201 82.1239 108.201 76.2318V45.6998L116.772 33.1121C120.789 29.6303 122.664 24.8095 122.128 19.7208C121.593 14.6322 118.646 10.347 114.093 7.66875L107.13 3.65138L106.326 3.11574C104.719 2.04445 103.112 2.58011 101.773 3.38358L10.713 55.6093C6.42778 58.0197 2.67824 64.9832 2.67824 70.8753V138.099C2.67824 141.313 3.48211 143.456 5.08905 144.527Z" fill="#16110D"/>
<path d="M125.073 111.584L39.102 161.132C34.2811 163.81 30.5317 160.864 30.5317 154.704V87.4799C30.5317 81.0521 34.2811 73.8208 39.102 71.1426L125.073 21.5951C129.894 18.9169 133.644 21.8629 133.644 28.0229V94.979C133.644 101.407 129.894 108.638 125.073 111.584Z" fill="#36A9E1"/>
<path d="M35.6199 163.542C34.5486 163.542 33.7449 163.274 32.6736 162.739C30.2632 161.4 28.9243 158.454 28.9243 154.704V87.4802C28.9243 80.5167 32.9417 72.7499 38.2982 69.8038L124.27 20.2563C126.68 18.9172 129.358 18.6493 131.233 19.7206C133.643 21.0597 134.983 24.0058 134.983 27.7553V94.9793C134.983 101.943 130.966 109.71 125.609 112.656L39.6373 162.203C38.2982 163.007 36.959 163.542 35.6199 163.542ZM128.555 21.5954C127.484 21.5954 126.68 22.131 125.877 22.3988L39.9054 71.9463C35.6202 74.3568 31.8706 81.3202 31.8706 87.2124V154.436C31.8706 157.382 32.6739 159.257 34.2808 160.328C35.6199 161.132 37.495 160.596 38.5663 159.793L124.537 110.245C128.823 107.835 132.572 100.871 132.572 94.9793V27.7553C132.572 24.8093 131.769 22.9345 130.162 21.8632C129.626 21.5954 129.09 21.5954 128.555 21.5954Z" fill="#16110D"/>
<path d="M122.128 11.1505L110.88 4.72276L107.933 3.1158L106.862 2.58016C105.255 1.50886 103.112 1.50888 100.97 2.848L9.90933 55.0737C7.76673 56.145 5.89196 58.2876 4.55284 60.698C3.48154 62.5728 4.01719 64.9832 5.89196 66.0545L13.3912 70.3397C23.5685 75.964 29.9964 86.677 30.2642 98.4613C30.2642 98.7291 30.2642 98.7291 30.2642 98.9969V115.066C30.2642 121.494 34.0136 124.44 38.8345 121.494L129.895 69.2684C134.716 66.5902 138.465 59.0911 138.465 52.9311V37.1295C137.929 26.1487 131.502 16.507 122.128 11.1505Z" fill="#36A9E1"/>
<path d="M45.2627 89.623L128.288 41.4146C133.645 38.2007 135.251 30.9695 131.234 26.1487C128.823 23.2026 125.61 20.5243 122.128 18.6496L110.88 12.2218L107.933 10.6148L106.862 10.0792C105.255 9.0079 103.112 9.00788 100.97 10.347L9.90933 62.5727C7.76673 63.644 6.15979 65.7866 4.55284 68.1971C3.48154 70.0718 4.01719 72.4823 5.89196 73.5536L13.3912 77.8388C16.8729 79.9814 20.0868 82.6596 22.765 85.6056C28.3893 92.0334 37.7636 93.9082 45.2627 89.623Z" fill="white"/>
<path d="M35.6203 123.637C34.549 123.637 33.7453 123.369 32.674 122.833C30.2636 121.494 28.9247 118.548 28.9247 114.798V98.1934C28.6569 87.2126 22.4969 76.7675 12.8552 71.1432L5.35602 66.8579C4.0169 66.0545 3.21369 64.9832 2.94586 63.6441C2.67804 62.3049 2.67791 60.9658 3.48138 59.6267C5.08833 56.9485 7.23079 54.8058 9.37339 53.4667L100.434 1.24098C103.112 -0.365964 105.79 -0.36598 107.665 0.973141L111.415 3.11574L122.663 9.54355C132.573 15.1679 139.001 25.0774 140.072 36.326V52.3954C140.072 59.3589 136.054 67.1258 130.698 70.0718L39.6377 122.298C38.2985 123.369 36.9594 123.637 35.6203 123.637ZM104.451 3.11574C103.38 3.11574 102.576 3.38358 101.773 3.91923L10.7125 56.145C8.83774 57.2163 7.23066 59.091 5.89154 61.2336C5.62371 61.7693 5.35628 62.5728 5.62411 63.1084C5.89193 63.6441 6.15976 64.4475 6.96323 64.7153L14.4624 69.0005C25.1754 75.1605 31.8706 86.1413 32.1385 98.1934V98.729V114.798C32.1385 117.745 32.9423 119.619 34.5493 120.691C35.8884 121.494 37.7628 120.958 38.8341 120.155L129.894 67.9292C134.18 65.5188 137.929 58.5554 137.929 52.6632V36.8616C137.126 26.6843 130.966 17.5783 121.86 12.4896L106.862 3.91923C105.791 3.11575 104.987 3.11574 104.451 3.11574Z" fill="#16110D"/>
<path d="M98.5608 77.3034C98.5608 77.0356 98.5606 77.0356 98.2927 76.7678L94.0079 74.3574C93.4723 74.0895 92.9368 74.0895 92.1333 74.3574L80.3486 81.053C79.0095 81.8564 77.9385 83.999 77.9385 85.8738V103.282C77.9385 104.354 78.2064 104.889 78.7421 105.425L83.0269 107.835C83.2947 107.835 83.5624 107.835 83.5624 107.568L84.0986 103.015L92.1333 98.4615C93.4724 97.6581 94.5435 95.5155 94.5435 93.6407V82.1243L96.6862 80.7851L98.5608 77.3034Z" fill="#36A9E1"/>
<path d="M98.5608 79.446C98.5608 79.1782 98.5606 79.1782 98.2927 78.9103L94.0079 76.4999C93.4723 76.2321 92.9368 76.2321 92.1333 76.4999L80.3486 83.1955C79.0095 83.999 77.9385 86.1416 77.9385 88.0164V103.015C77.9385 104.086 78.2064 104.621 78.7421 105.157L80.0812 106.496L82.7594 108.103C83.0273 108.103 83.295 108.103 83.295 107.835L83.8305 105.425L91.8652 100.872C93.2043 100.068 94.2754 97.9259 94.2754 96.0511V84.2668L96.4181 82.9277L98.5608 79.446Z" fill="white"/>
<path d="M83.5613 108.907C83.2935 108.907 83.0258 108.907 83.0258 108.639L78.741 106.228C77.9375 105.693 77.4019 104.621 77.4019 103.282V85.8738C77.4019 83.7312 78.7406 81.3207 80.3475 80.2494L92.1322 73.5538C93.2035 73.0182 94.2744 73.0182 95.0779 73.5538L99.3633 75.9642C99.899 76.2321 100.167 77.0356 99.8988 77.5712L98.2916 81.3207L96.417 82.392V93.3728C96.417 95.5154 95.0783 97.9258 93.4713 98.9971L85.704 103.55L85.1685 107.568C85.1685 108.103 84.9005 108.371 84.3649 108.639C83.8292 108.907 83.5613 108.907 83.5613 108.907ZM93.4713 75.1608C93.2035 75.1608 93.203 75.1608 92.9351 75.4286L81.1511 82.1242C80.0798 82.6599 79.2765 84.5346 79.2765 86.1416V103.55C79.2765 104.354 79.5439 104.621 79.5439 104.621L82.7583 106.496L83.2939 102.479L91.8641 97.658C92.9354 97.1224 93.7387 95.2476 93.7387 93.6407V81.5886L96.1496 80.2494L97.2206 77.5712L93.4713 75.4286C93.7391 75.1608 93.4713 75.1608 93.4713 75.1608Z" fill="#16110D"/>
<path d="M96.9525 101.14L85.1685 107.835C83.8293 108.639 82.7583 107.835 82.7583 105.961V88.552C82.7583 86.6773 83.8293 84.5347 85.1685 83.7312L96.9525 77.0356C98.2916 76.2321 99.3633 77.0356 99.3633 78.9103V96.3189C99.6311 98.1937 98.5594 100.336 96.9525 101.14Z" fill="#36A9E1"/>
<path d="M84.3657 109.174C83.8301 109.174 83.5625 109.174 83.2947 108.907C82.4912 108.371 81.9556 107.3 81.9556 105.961V88.552C81.9556 86.4094 83.2943 83.999 84.9012 82.9277L96.6859 76.2321C97.4894 75.6964 98.5607 75.6964 99.3642 76.2321C100.168 76.7677 100.703 77.839 100.703 79.1781V96.5867C100.703 98.7293 99.3639 101.14 97.7569 102.211L85.9729 108.907C85.4373 109.174 84.9014 109.174 84.3657 109.174ZM98.025 77.839C98.025 77.839 97.7573 77.839 97.4895 78.1068L85.7048 84.8024C84.6335 85.3381 83.8302 87.2128 83.8302 88.8198V106.228C83.8302 106.764 84.0983 107.3 84.0983 107.3C84.0983 107.3 84.366 107.3 84.6338 107.3L96.4178 100.604C97.4891 100.068 98.2925 98.1937 98.2925 96.5867V78.9103C98.5603 78.3747 98.2929 78.1068 98.025 77.839C98.2929 77.839 98.025 77.839 98.025 77.839Z" fill="#16110D"/>
<path d="M93.7389 93.9085L89.9897 96.0511C89.454 96.3189 88.918 97.3902 88.918 98.1937V105.961L95.0781 102.479V94.7119C94.8102 93.9085 94.2746 93.3728 93.7389 93.9085Z" fill="#36A9E1"/>
<path d="M95.6133 95.783L91.864 97.9256C91.3284 98.1934 90.793 99.2647 90.793 100.068V107.835L96.9524 104.353V96.5865C96.9524 95.783 96.4168 95.2473 95.6133 95.783Z" fill="white"/>
<path d="M87.8467 107.835V98.1936C87.8467 96.8545 88.6504 95.5154 89.4539 94.9797L93.2032 92.8371C93.7388 92.5693 94.5422 92.5693 95.0778 92.8371C95.6135 93.1049 95.8814 93.9084 95.8814 94.7119V103.014L87.8467 107.835ZM93.7387 94.7119L90.2568 96.5867C89.989 96.8545 89.4539 97.3901 89.4539 97.9258V104.086L93.4713 101.675V94.7119H93.7387Z" fill="#16110D"/>
<path d="M93.2041 14.6324L83.2948 8.47243C82.7591 7.93678 82.2232 7.66897 81.6876 7.40115C79.8128 6.59767 77.4024 6.86548 74.992 8.47243L57.5834 18.6498C51.6912 22.1315 47.1385 30.1662 47.1385 36.8618V40.3436L40.4429 44.3609V51.3243L53.0305 44.0931L58.387 47.307L67.4927 29.3627L79.5448 22.935V28.8271L91.865 21.8636V15.9715L93.2041 14.6324Z" fill="#36A9E1"/>
<path d="M93.7388 17.8463L83.8294 11.6863C83.2938 11.1506 82.7579 10.8828 82.2222 10.615C80.3475 9.81154 77.937 10.0793 75.5266 11.6863L58.118 21.8636C52.2259 25.3453 47.6731 33.3801 47.6731 40.0757V43.5574L40.9775 47.5748V50.7887L53.5652 47.3069L58.9216 50.5208L68.0281 32.5766L80.0802 26.1488L86.5077 28.5592L92.3997 25.0775V19.1854L93.7388 17.8463Z" fill="white"/>
<path d="M39.3706 51.3241V43.825L46.0662 39.8076V36.8616C46.0662 29.8982 50.8873 21.3278 57.0473 17.846L74.4559 7.66872C77.1341 6.06177 79.8125 5.79396 81.9551 6.59744C82.7585 6.86526 83.2941 7.13307 83.8297 7.66872L94.8108 14.6322L92.1325 16.5069V22.3991L77.9377 29.3625V24.5417L67.4922 29.8981L58.1183 48.6458L52.4944 45.1641L39.3706 51.3241ZM41.2459 44.8963V49.4493L53.0299 42.7537L57.8509 45.6998L66.4211 28.2912L80.3479 21.0599V26.9521L90.5253 21.0599V15.1678L91.5964 14.3643L83.0261 9.00784C82.4905 8.47219 82.2226 8.2044 81.687 8.2044C80.08 7.66875 77.9376 7.93656 75.795 9.27568L58.3864 19.453C52.7621 22.6669 48.477 30.4338 48.477 36.8616V40.879L41.2459 44.8963Z" fill="#16110D"/>
<path d="M102.577 21.5953L91.0605 14.0962L95.8815 29.3622L102.577 21.5953Z" fill="#36A9E1"/>
<path d="M102.577 24.0059L91.0605 16.5068L95.8815 31.7728L102.577 24.0059Z" fill="white"/>
<path d="M95.614 31.2372L89.1865 11.686L103.649 21.0599L103.381 22.399L95.614 31.2372ZM92.9358 16.5069L96.4176 27.2199L101.239 21.8634L92.9358 16.5069Z" fill="#16110D"/>
<path d="M47.1375 40.3438L58.1179 47.3072L51.4223 51.3245L40.1738 44.3611L47.1375 40.3438Z" fill="#36A9E1"/>
<path d="M47.1375 43.8247L58.1179 50.7882L51.4223 54.5377L40.1738 47.5743L47.1375 43.8247Z" fill="white"/>
<path d="M78.2056 22.3987V29.3622L90.2577 36.8613L91.3293 36.3256V17.0422L78.2056 22.3987Z" fill="#16110D"/>
<path d="M102.578 28.8266L90.2578 35.79V25.3449C90.2578 22.6666 88.3831 21.5954 86.2405 22.9345L68.8319 33.1118C66.4215 34.4509 64.8145 37.6648 64.8145 40.3431V50.7882L51.6914 58.2873V51.3238L58.387 47.3065V43.8247C58.387 37.1291 63.2076 28.8266 68.8319 25.6127L86.2405 15.4354C92.1326 11.9537 96.686 14.8997 96.686 21.5954V25.077L102.578 21.5954V28.8266Z" fill="#36A9E1"/>
<path d="M102.577 20.5243L97.7564 23.2025V21.5956C97.7564 18.1139 96.4172 15.1678 94.2746 13.8286C91.8642 12.4895 88.9182 12.7574 85.7043 14.6321L68.2958 24.8095C62.1358 28.2912 57.3154 36.8615 57.3154 43.825V45.4319L47.1379 39.272L39.3706 43.825V51.8597L51.4227 59.3588L65.6175 51.0563V40.0754C65.6175 37.9328 67.2249 34.9868 69.3675 33.9155L86.776 23.7381C87.5795 23.2025 88.115 23.2025 88.6507 23.4703C89.1863 23.7382 89.4543 24.2738 89.4543 25.3451V36.3259L90.5253 37.1294L103.648 29.3625V21.3277L102.577 20.5243ZM46.3343 47.0389L42.3169 44.3606L47.1379 41.6824L56.2437 47.3067L51.4227 49.9849L46.3343 47.0389ZM101.506 28.0233L91.3289 33.9155V25.3451C91.3289 23.7382 90.793 22.399 89.7217 21.8634C88.6504 21.3277 87.3113 21.3277 85.7043 22.1312L68.2958 32.3085C65.6175 33.9155 63.7429 37.3972 63.7429 40.3433V50.2528L52.4944 56.6805V52.1275L59.19 48.1102V44.0928C59.19 37.665 63.7429 29.8981 69.0994 26.6842L86.5079 16.5069C88.9184 15.1678 91.3285 14.8999 92.9355 15.7034C94.5424 16.7747 95.6137 18.6495 95.6137 21.5956V26.6842L101.506 23.2025V28.0233Z" fill="#16110D"/>
<path d="M25.4436 120.155C25.4436 123.905 26.7831 126.851 29.1935 128.19C29.1935 128.19 29.461 128.19 29.461 128.458V125.244C28.6575 124.173 28.1219 122.566 28.1219 120.155V104.086V103.55C27.3184 100.336 25.7114 97.658 24.1045 94.9797C24.908 97.9258 25.4436 100.872 25.4436 103.818V120.155Z" fill="#36A9E1"/>
<path d="M78.2056 85.3376L82.7591 88.2837L83.2946 107.299L78.2056 104.889V85.3376Z" fill="#16110D"/>
<path d="M89.7231 122.03C88.9196 120.691 89.4557 119.084 90.7948 118.281L117.845 103.015C121.059 101.14 122.934 97.9259 122.934 94.1764V83.7312C122.934 82.1243 124.005 81.053 125.612 81.053C127.219 81.053 128.29 82.1243 128.29 83.7312V94.1764C128.29 99.8007 125.344 104.889 120.523 107.568L93.4731 122.834C91.8661 123.637 90.2588 123.101 89.7231 122.03Z" fill="white"/>
<path d="M73.3846 134.082L83.5614 128.19C84.3648 127.654 84.9005 126.851 84.9005 125.78C84.9005 123.637 82.7579 122.566 80.8831 123.369L70.7063 129.261C69.9028 129.797 69.3672 130.601 69.3672 131.672C69.3672 133.814 71.7776 135.154 73.3846 134.082Z" fill="white"/>
<path d="M49.2804 28.8271L60.2608 35.5228L57.5826 44.8966L57.8507 47.0392L47.1377 40.3436L47.4051 33.9158L49.2804 28.8271Z" fill="#16110D"/>
</svg>
